<svg width="24" height="37" fill="none" xmlns="http://www.w3.org/2000/svg"><g clip-path="url(#clip0)"><path d="M10.959 30.264L6.52 25.63a1.42 1.42 0 01.058-2.022 1.462 1.462 0 012.046.057l3.39 3.543 3.37-3.536c.548-.571 1.46-.6 2.045-.064.578.543.607 1.443.065 2.022l-4.417 4.635c-.578.6-1.54.6-2.118 0zM24 28V8.571C24 3.843 20.11 0 15.325 0h-6.65C3.889 0 0 3.843 0 8.571V28c0 4.729 3.89 8.571 8.675 8.571h6.65C20.111 36.571 24 32.73 24 28zM15.325 2.857c3.188 0 5.783 2.564 5.783 5.714V28c0 3.15-2.595 5.714-5.783 5.714h-6.65c-3.188 0-5.783-2.564-5.783-5.714V8.571c0-3.15 2.595-5.714 5.783-5.714h6.65zM12 6.43c-.795 0-1.446.642-1.446 1.428 0 .786.65 1.429 1.446 1.429.795 0 1.446-.643 1.446-1.429S12.796 6.43 12 6.43zm0 5.714c-.795 0-1.446.643-1.446 1.428 0 .786.65 1.429 1.446 1.429.795 0 1.446-.643 1.446-1.429 0-.785-.65-1.428-1.446-1.428zm0 5.714c-.795 0-1.446.643-1.446 1.429 0 .785.65 1.428 1.446 1.428.795 0 1.446-.643 1.446-1.428 0-.786-.65-1.429-1.446-1.429z" fill="#fff"/></g><defs><clipPath id="clip0"><path fill="#fff" d="M0 0h24v36.571H0z"/></clipPath></defs></svg>