<svg width="16" height="16" fill="none" xmlns="http://www.w3.org/2000/svg"><path d="M14 0H2a2 2 0 00-2 2v12a2 2 0 002 2h12a2 2 0 002-2V2a2 2 0 00-2-2z" fill="#61A8DE"/><path d="M12.598 3.532l-10.7 4.17a.39.39 0 00.032.737l2.719.803 1.015 3.22a.467.467 0 00.778.186l1.406-1.435 2.758 2.024a.576.576 0 00.904-.346l1.827-8.733a.55.55 0 00-.739-.626zM11.257 5.47l-4.97 4.395a.267.267 0 00-.088.17l-.192 1.701c-.006.056-.084.063-.1.01L5.12 9.209a.267.267 0 01.114-.306l5.869-3.64c.135-.084.273.102.154.207z" fill="#fff"/></svg>