<svg width="16" height="16" fill="none" xmlns="http://www.w3.org/2000/svg"><path d="M14 0H2a2 2 0 00-2 2v12a2 2 0 002 2h12a2 2 0 002-2V2a2 2 0 00-2-2z" fill="#7D3DAF"/><path d="M13.06 5.158l-.003-.013c-.255-1.033-1.408-2.142-2.466-2.373l-.012-.002a13.704 13.704 0 00-5.158 0l-.012.002c-1.058.23-2.21 1.34-2.466 2.373l-.003.013a10.096 10.096 0 000 4.349l.003.012c.245.99 1.311 2.047 2.33 2.338v1.154c0 .417.509.622.798.32l1.169-1.214a13.597 13.597 0 003.34-.223l.011-.002c1.059-.23 2.21-1.34 2.466-2.373l.003-.012a10.098 10.098 0 000-4.35zm-.924 4.14c-.17.674-1.046 1.512-1.741 1.666-.91.173-1.827.247-2.744.222a.065.065 0 00-.048.02l-.853.876-.908.931a.106.106 0 01-.183-.073v-1.911a.066.066 0 00-.053-.065c-.696-.154-1.57-.992-1.741-1.667a9.162 9.162 0 010-3.93c.17-.674 1.045-1.512 1.74-1.667a12.734 12.734 0 014.79 0c.696.155 1.57.993 1.74 1.667a9.152 9.152 0 010 3.93z" fill="#fff"/><path d="M9.512 10.18c-.107-.033-.208-.055-.303-.094-.98-.407-1.882-.931-2.597-1.736a6.738 6.738 0 01-.993-1.52c-.127-.259-.235-.528-.344-.795-.1-.244.047-.496.202-.68a1.58 1.58 0 01.535-.402c.158-.076.314-.032.43.102.249.29.478.594.664.93.114.206.082.459-.125.6-.05.033-.096.074-.142.112a.469.469 0 00-.108.114.312.312 0 00-.021.274c.255.7.685 1.246 1.39 1.54.113.046.227.101.357.086.218-.026.288-.265.441-.39a.416.416 0 01.5-.021c.161.101.317.21.472.321.152.108.304.214.444.338.135.119.181.274.105.436-.139.295-.341.54-.633.697-.082.044-.18.059-.274.087-.107-.032.093-.028 0 0zM8.003 4.616c1.282.036 2.335.886 2.56 2.154.039.216.052.437.07.656.007.092-.046.18-.145.18-.103.002-.15-.084-.156-.176-.013-.183-.022-.366-.047-.547A2.29 2.29 0 008.44 4.97c-.143-.026-.29-.033-.434-.048-.092-.01-.212-.015-.232-.129-.017-.095.063-.171.154-.176h.075c1.282.036-.025 0 0 0z" fill="#fff"/><path d="M9.95 7.141c-.001.016-.003.054-.012.09-.034.128-.229.144-.274.014a.387.387 0 01-.015-.124c0-.271-.06-.542-.197-.779a1.45 1.45 0 00-.608-.57 1.749 1.749 0 00-.484-.149c-.073-.012-.147-.02-.22-.03-.09-.012-.137-.069-.133-.156.004-.082.064-.141.154-.136.294.016.578.08.84.218.531.282.835.727.924 1.32.004.027.01.054.012.08l.014.222c-.002.016-.005-.088 0 0z" fill="#fff"/><path d="M9.154 7.11c-.107.002-.165-.057-.176-.155a1.558 1.558 0 00-.03-.205.576.576 0 00-.213-.334.555.555 0 00-.173-.083c-.078-.023-.16-.017-.239-.036-.085-.02-.132-.09-.119-.17a.154.154 0 01.163-.124c.497.036.852.293.903.878.003.042.008.085-.001.125a.13.13 0 01-.115.105c-.107.001.049-.004 0 0z" fill="#fff"/></svg>