<svg width="18" height="18" fill="none" xmlns="http://www.w3.org/2000/svg"><path d="M15.362 2.638A8.912 8.912 0 009 0a8.912 8.912 0 00-6.362 2.638A8.945 8.945 0 000 9c0 2.408.934 4.663 2.638 6.362A8.945 8.945 0 009 18a8.912 8.912 0 006.362-2.638A8.945 8.945 0 0018 9a8.912 8.912 0 00-2.638-6.362zm-.72 12.004A7.922 7.922 0 019 16.976a7.922 7.922 0 01-5.642-2.334c-3.11-3.11-3.11-8.173 0-11.284A7.931 7.931 0 019 1.024c2.126 0 4.134.827 5.642 2.334 3.11 3.11 3.11 8.173 0 11.284z" fill="#26B899"/><path d="M13.32 7.054a.51.51 0 00-.703-.169L9.08 9.045 6.205 4.359a.511.511 0 10-.872.535l2.874 4.685.192.315a.65.65 0 00.894.22l.32-.197 3.539-2.16a.512.512 0 00.168-.703z" fill="#26B899"/></svg>