<svg width="15" height="18" fill="none" xmlns="http://www.w3.org/2000/svg"><g clip-path="url(#clip0)" fill="#26B899"><path d="M7.213 0C3.24 0 0 3.239 0 7.213c0 .452.039.909.128 1.355.006.028.017.106.05.24.112.485.274.964.485 1.421.775 1.829 2.487 4.644 6.238 7.654a.496.496 0 00.324.111.54.54 0 00.323-.111c3.746-3.01 5.463-5.825 6.238-7.654.212-.457.373-.93.485-1.421a7.375 7.375 0 00.178-1.594C14.432 3.238 11.194 0 7.213 0zm6.088 8.395c0 .006-.006.017-.006.022a3.454 3.454 0 00-.033.162v.006a6.056 6.056 0 01-.418 1.232c-.006.005-.006.01-.006.016-.708 1.673-2.252 4.226-5.619 7.007-3.367-2.781-4.911-5.334-5.62-7.007-.005-.005-.005-.01-.005-.016a6.29 6.29 0 01-.418-1.232v-.006c-.022-.09-.028-.145-.033-.162 0-.005-.006-.016-.006-.027a6.207 6.207 0 016.087-7.375 6.207 6.207 0 016.2 6.198c-.012.396-.05.798-.123 1.182z"/><path d="M7.213 2.715a4.59 4.59 0 00-4.582 4.582 4.588 4.588 0 004.582 4.577 4.593 4.593 0 004.582-4.583 4.584 4.584 0 00-4.582-4.576zm0 8.144a3.565 3.565 0 01-3.562-3.562c0-1.962 1.6-3.562 3.562-3.562 1.962 0 3.562 1.6 3.562 3.562a3.565 3.565 0 01-3.562 3.562z"/></g><defs><clipPath id="clip0"><path fill="#fff" d="M0 0h14.438v18H0z"/></clipPath></defs></svg>