<svg width="18" height="14" fill="none" xmlns="http://www.w3.org/2000/svg"><g clip-path="url(#clip0)" fill="#26B899"><path d="M15.8 0H2.2A2.2 2.2 0 000 2.2v9.295a2.2 2.2 0 002.2 2.2h13.594a2.2 2.2 0 002.2-2.2v-9.29A2.196 2.196 0 0015.8 0zm1.198 11.495c0 .659-.534 1.193-1.192 1.193H2.2a1.193 1.193 0 01-1.193-1.193v-9.29c0-.658.535-1.192 1.193-1.192h13.594c.659 0 1.193.534 1.193 1.193l.011 9.29z"/><path d="M11.35 6.735l4.405-3.95a.505.505 0 00.04-.709.505.505 0 00-.71-.039L9.01 7.484 7.827 6.426c-.006-.006-.006-.006-.006-.011a.495.495 0 00-.084-.074l-4.822-4.31a.5.5 0 00-.71.04.5.5 0 00.04.709l4.457 3.983-4.434 4.153a.5.5 0 00.349.867.5.5 0 00.343-.135l4.5-4.215 1.221 1.092a.507.507 0 00.676 0l1.254-1.126 4.48 4.254a.488.488 0 00.348.135.504.504 0 00.349-.867l-4.44-4.186z"/></g><defs><clipPath id="clip0"><path fill="#fff" d="M0 0h18v13.695H0z"/></clipPath></defs></svg>