<svg width="18" height="18" fill="none" xmlns="http://www.w3.org/2000/svg"><g clip-path="url(#clip0)" fill="#41C0A5"><path d="M14.225 11.15c-.368-.383-.813-.588-1.284-.588-.467 0-.915.2-1.3.585l-1.2 1.196c-.098-.053-.197-.102-.292-.152a4.754 4.754 0 01-.376-.201c-1.125-.714-2.147-1.645-3.127-2.85-.475-.6-.794-1.105-1.026-1.618.312-.285.6-.581.882-.866l.319-.323c.798-.798.798-1.831 0-2.629L5.784 2.667c-.118-.118-.24-.24-.353-.36a17.94 17.94 0 00-.715-.707c-.368-.365-.809-.559-1.272-.559-.464 0-.912.194-1.292.559l-.008.007L.853 2.91a2.78 2.78 0 00-.825 1.767c-.09 1.11.236 2.142.487 2.819.615 1.66 1.534 3.198 2.906 4.847a17.877 17.877 0 005.953 4.662c.874.414 2.04.904 3.343.987.08.004.163.008.24.008.877 0 1.614-.315 2.191-.942.004-.008.012-.012.016-.02.197-.239.425-.455.665-.687.163-.156.33-.319.493-.49.376-.391.574-.847.574-1.314 0-.471-.201-.924-.585-1.303l-2.086-2.094zm1.36 4c-.004 0-.004.005 0 0-.148.16-.3.305-.463.464-.247.236-.498.483-.733.76-.384.41-.836.604-1.429.604-.057 0-.118 0-.175-.004-1.128-.072-2.176-.513-2.963-.889a16.877 16.877 0 01-5.607-4.391C2.919 10.132 2.053 8.689 1.48 7.139c-.354-.946-.483-1.683-.426-2.379.038-.444.209-.813.524-1.128l1.296-1.295c.186-.175.383-.27.577-.27.24 0 .433.144.555.266l.011.011c.232.217.452.44.684.68.118.122.24.243.361.369L6.099 4.43c.403.403.403.775 0 1.178-.11.11-.216.22-.327.326a20.2 20.2 0 01-.953.927c-.008.008-.015.012-.02.02-.326.326-.265.645-.197.862l.012.034c.27.653.65 1.269 1.227 2.002l.004.004c1.048 1.291 2.154 2.298 3.373 3.07.156.098.315.178.467.254.137.068.266.133.377.201.015.008.03.02.045.027.13.064.25.095.376.095.316 0 .513-.198.578-.262l1.299-1.3c.13-.129.334-.285.574-.285.235 0 .429.149.547.278l.007.007 2.094 2.094c.39.387.39.786.003 1.189zM9.727 4.282c.995.167 1.9.638 2.621 1.36a4.842 4.842 0 011.36 2.621.51.51 0 00.505.426c.03 0 .058-.004.088-.008a.513.513 0 00.422-.593 5.86 5.86 0 00-1.645-3.172 5.86 5.86 0 00-3.173-1.645.516.516 0 00-.592.418.507.507 0 00.414.593zm8.251 3.658a9.64 9.64 0 00-2.708-5.223 9.64 9.64 0 00-5.224-2.71.511.511 0 10-.167 1.011c1.77.3 3.385 1.14 4.669 2.42a8.606 8.606 0 012.42 4.67.51.51 0 00.505.425c.03 0 .057-.004.087-.008a.503.503 0 00.418-.585z"/></g><defs><clipPath id="clip0"><path fill="#fff" d="M0 0h18v18H0z"/></clipPath></defs></svg>