<svg width="89" height="83" viewBox="0 0 89 83" fill="none" xmlns="http://www.w3.org/2000/svg">
<path d="M88.8951 9.69809C88.8951 9.63231 88.86 9.56654 88.86 9.50077C88.6847 9.46789 88.4742 9.46789 88.2989 9.435C88.1586 9.27057 88.0534 9.10615 87.9131 8.94172C87.6675 8.90883 87.422 8.87595 87.1765 8.84306C87.0362 8.48132 86.8258 8.44843 86.6504 8.34978C86.3348 8.18535 86.0191 8.08669 85.8087 7.49475C85.6333 7.49475 85.493 7.3961 85.4229 7.06724C85.1423 6.83704 84.8266 6.57396 84.511 6.34376C84.511 6.21222 84.511 6.08067 84.511 5.94913C84.3356 5.94913 84.1953 5.85048 84.1252 5.52162C83.9498 5.52162 83.8095 5.39008 83.7394 5.06122C83.564 4.99545 83.3886 4.96256 83.2133 4.89679C83.2133 4.76525 83.2133 4.60082 83.2133 4.46928C82.9677 4.4364 82.7222 4.40351 82.4767 4.37063C82.4767 4.23908 82.4767 4.10754 82.4767 3.976C82.3014 4.00888 82.1611 3.94311 82.0909 3.58137C81.7753 3.54849 81.4596 3.54849 81.1089 3.5156C80.9686 3.35117 80.8634 3.18674 80.7231 3.0552C79.8813 3.0552 79.0396 3.0552 78.1978 3.0552C77.6016 2.56192 76.9001 2.66058 76.2337 2.72635C73.5331 2.95655 70.8675 2.39749 68.1669 2.52903C67.9915 2.52903 67.8161 2.56192 67.6758 2.49615C66.5535 1.96998 65.3961 2.10152 64.2036 2.16729C61.6433 2.29883 59.0478 2.46326 56.4875 2.5948C56.1368 2.5948 55.8211 2.5948 55.4704 2.5948C55.3301 2.46326 55.1898 2.26595 55.0144 2.26595C53.8219 2.13441 52.6295 2.06864 51.437 1.96998C51.3317 1.96998 51.2265 2.10152 51.1213 2.20018C50.5601 1.70689 49.9288 1.90421 49.3326 1.77267C49.1221 1.73978 48.8766 1.83844 48.7013 1.41092C48.1752 1.37804 47.6841 1.34515 47.158 1.31227C47.1931 0.950527 47.123 0.720328 46.9476 0.621671C44.8081 0.588786 42.5985 1.11495 40.4591 0.720328C40.3539 0.720328 40.2486 0.720328 40.1083 0.720328C39.6875 0.128388 39.1614 0.621671 38.6703 0.490129C38.6002 0.490129 38.53 0.588786 38.4599 0.720328C38.2495 0.227044 37.8987 0.786099 37.6883 0.325701C37.2674 -0.134697 36.7764 -0.101811 36.2854 0.391472C36.2152 0.490129 36.1451 0.490129 36.11 0.391472C34.0056 -0.200468 31.796 0.424358 29.6215 0.424358C28.9551 0.424358 28.3238 0.0955023 27.6223 0.786099C27.5872 0.950527 27.4469 1.04918 27.3066 1.18073C26.4298 0.950527 25.553 0.884756 24.6411 1.41092C24.5709 1.50958 24.5359 1.50958 24.5008 1.44381C23.3083 2.16729 22.186 1.31227 20.9935 2.06864C20.783 2.23306 20.6077 2.26595 20.4323 2.13441C19.5204 2.825 18.6436 1.96998 17.7317 2.75923C17.6264 2.75923 17.4861 2.79212 17.3809 2.79212C16.5392 3.48271 15.7325 2.62769 14.8557 3.44983C14.7855 3.54849 14.7504 3.54849 14.7154 3.44983C13.5229 3.84446 12.3655 3.976 11.2431 3.58137C11.173 3.41694 11.1379 3.41694 11.0678 3.61426V3.58137C10.8573 4.04177 10.6118 3.58137 10.4014 4.2062L10.4364 4.17331C10.3663 4.27197 10.2961 4.46928 10.2611 4.66659C10.226 4.66659 10.1909 4.66659 10.1909 4.69948C10.1208 4.96256 10.0506 5.15988 9.94542 5.22565C9.77005 5.81759 9.55961 6.17933 9.3141 6.40953C9.20888 6.9357 9.17381 7.52764 8.99844 7.92227C8.96337 8.21824 8.96337 8.51421 8.92829 8.81018C8.92829 8.84306 8.89322 8.90883 8.89322 8.94172C8.85815 9.13903 8.788 9.33634 8.75293 9.53366C8.71785 9.53366 8.71785 9.56654 8.68278 9.56654C8.64771 9.86251 8.61263 10.1585 8.57756 10.4873C8.57756 10.5531 8.54249 10.6189 8.54249 10.6518C8.50741 10.7833 8.47234 10.9477 8.4022 11.1122C8.36712 11.1122 8.36712 11.1451 8.33205 11.1451C8.33205 11.2766 8.29698 11.3752 8.29698 11.5068C8.2619 11.6383 8.22683 11.7699 8.19176 11.9014C8.19176 11.9672 8.15668 12.033 8.12161 12.0658C8.08654 12.0658 8.05146 12.0987 8.01639 12.0987C7.98132 12.3947 7.8761 12.5591 7.77088 12.6249C7.77088 12.7564 7.73581 12.8551 7.73581 12.9866C7.73581 13.0195 7.73581 13.0524 7.70073 13.0853C7.59551 13.1511 7.49029 13.2168 7.35 13.2497C7.17463 14.1048 7.31493 15.0913 6.9642 15.8477C6.9642 15.9463 6.92912 16.0779 6.92912 16.1765C6.89405 16.2094 6.8239 16.2094 6.75376 16.2094C6.75376 16.341 6.85898 16.5054 6.33288 16.6369C6.29781 16.7027 6.12244 16.7685 5.87693 16.8014C5.70156 16.8671 5.56127 16.9 5.3859 16.9658C5.35083 17.0316 5.21054 17.0973 4.96503 17.1302C4.92995 17.2289 4.78966 17.3275 4.474 17.3933C4.474 17.492 4.40385 17.5906 4.01805 17.6893C4.05312 17.8208 4.12327 17.9852 3.63225 18.1168C3.70239 18.2483 3.66732 18.3799 3.59717 18.5114C3.59717 18.5114 3.59717 18.5114 3.5621 18.5114C3.21137 18.6101 2.93078 18.7087 2.75542 18.8403C2.43976 18.9389 2.47483 19.0376 2.75542 19.1034C2.93078 19.1362 2.93078 19.1691 2.75542 19.202L2.72034 19.2349C2.61512 19.3007 2.47483 19.3336 2.29946 19.3993C2.01888 19.498 2.1241 19.5966 1.87859 19.6953C1.42264 19.8268 1.80844 19.9913 1.49278 20.1228C0.826392 20.353 1.598 20.5503 1.10698 20.7805C0.756245 20.8463 0.826392 20.9778 0.686099 21.0436C-0.0153644 21.2738 0.791318 21.504 0.265221 21.7342H0.300294C-0.155657 21.9315 -0.0504376 22.0959 0.335367 22.2275C0.510733 22.4906 1.42264 22.6879 1.03683 23.0167L1.00176 22.9839C1.38756 23.0825 1.0719 23.2798 1.598 23.3456C1.73829 23.3785 1.84351 23.4443 1.94873 23.4771L2.89571 27.5221C2.72034 27.5878 2.54498 27.6207 2.47483 27.6865C1.80844 27.9167 2.61512 28.114 2.08903 28.3442H2.1241C1.91366 28.41 1.91366 28.4429 2.1241 28.4757L2.19425 28.5086L2.08903 28.5744C2.43976 28.7717 2.54498 29.0019 2.22932 29.265H2.26439C1.87859 29.3637 1.91366 29.4623 2.29946 29.4952H2.26439C2.33454 29.5281 2.43976 29.5281 2.54498 29.5281C2.54498 29.6596 2.54498 29.7912 2.54498 29.9227C2.5099 29.9556 2.43976 29.9885 2.36961 30.0214C2.40468 30.2187 2.47483 30.4489 2.5099 30.6462C2.54498 30.6462 2.58005 30.6791 2.61512 30.6791C2.61512 30.7448 2.61512 30.8106 2.58005 30.9093C2.68527 31.5012 2.47483 32.3234 2.58005 32.9482C2.54498 32.9811 2.5099 33.014 2.47483 33.014C2.5099 33.1784 2.54498 33.3428 2.58005 33.5072C2.61512 33.5072 2.6502 33.5072 2.6502 33.5072C2.68527 34.3623 2.5099 35.2831 2.47483 36.171C2.36961 38.4401 2.01888 40.7749 2.08903 43.0112C2.1241 43.2085 2.15917 43.4058 2.19425 43.5702C2.15917 44.0635 2.1241 44.5897 2.1241 45.083C2.29946 45.6749 2.19425 46.4313 2.15917 47.1547C2.19425 47.4507 2.22932 47.7467 2.26439 48.0426C2.26439 48.0426 2.26439 48.0755 2.22932 48.0755C2.22932 48.0755 2.19425 48.1413 2.15917 48.3057C2.1241 48.4373 2.15917 48.6017 2.19425 48.7332C2.22932 48.8648 2.22932 48.9963 2.19425 49.1279C2.33454 50.1473 1.94873 51.3641 2.15917 52.3507C2.22932 52.6466 2.19425 53.107 2.26439 53.403C2.40468 54.3567 2.1241 55.705 2.43976 56.4942V56.4614C2.54498 56.7573 2.43976 57.2506 2.58005 57.5137C2.6502 57.8425 2.58005 58.3029 2.68527 58.566V58.5331C2.68527 58.7305 2.72034 58.7962 2.79049 58.7305C2.75542 59.0593 2.72034 59.3553 2.82556 59.6184C2.96585 60.013 2.75542 60.8022 2.93078 61.164V61.1311C3.00093 61.4271 2.93078 61.9204 3.036 62.2163V62.1834C3.14122 62.4794 3.07107 62.9727 3.17629 63.2358V63.2029C3.24644 63.4989 3.17629 63.9921 3.31659 64.2552V64.2223C3.35166 64.3539 3.38673 64.4854 3.42181 64.617C3.28151 65.7351 3.35166 66.6559 3.66732 67.3465C3.70239 67.5767 3.77254 67.7411 3.84268 67.8726V67.8398C4.0882 68.1357 4.01805 68.925 4.12327 69.4183V69.3854C4.19342 69.6814 4.12327 70.1417 4.22849 70.4048C4.26356 70.635 4.33371 70.7995 4.40385 70.9639C4.54415 71.6874 4.71951 72.3451 4.85981 73.0028C5.0001 73.792 5.10532 74.7128 5.45605 75.0417C5.49112 75.3048 5.56127 75.4363 5.63142 75.6008C5.73664 75.8638 5.66649 76.39 5.77171 76.6202V76.5873C5.80678 76.8175 5.87693 76.9819 5.94707 77.1135C5.98215 77.3108 6.05229 77.5081 6.08737 77.6397C6.12244 77.8041 6.19259 78.0014 6.26273 78.1329C6.29781 78.3303 6.36795 78.4947 6.4381 78.6262C6.54332 79.1195 6.85898 78.6591 6.99927 79.1524C7.10449 79.4484 7.27985 79.3826 7.38507 79.6128L7.45522 79.5799L7.52537 79.6128C7.63059 79.4484 7.70073 79.4812 7.77088 79.6128C8.15668 80.2705 8.75293 79.4155 9.17381 80.0732L9.27903 80.0403L9.38424 80.0732C9.62976 80.4349 9.87527 80.402 10.1909 80.0403L10.2611 79.9745H10.3312C10.4715 79.7114 10.6469 79.7772 10.8222 79.4812C10.8924 79.2839 10.9625 79.1195 11.0678 78.9551C11.1379 78.7578 11.208 78.5933 11.3133 78.4618C11.4185 78.1001 11.6289 78.2316 11.7341 77.8699C11.9446 77.4095 12.1901 77.837 12.4005 77.2779C12.5408 77.0148 12.7162 77.0806 12.8565 76.7846C13.3475 76.0611 13.8035 76.8833 14.2945 76.1927C14.3997 76.1598 14.54 76.1598 14.6452 76.1269C14.6803 76.1269 14.7154 76.094 14.7504 76.0283C14.7504 75.9954 14.7855 75.9625 14.7855 75.8967C14.9258 75.8967 15.031 75.8638 15.1362 75.6008C15.4168 75.0746 15.6974 75.6665 15.978 75.0417V75.0746C16.1183 74.8115 16.2937 74.8773 16.434 74.5484L16.5041 74.4826H16.5742C16.6093 74.4826 16.6444 74.4498 16.6795 74.384C16.6795 74.3511 16.7145 74.3182 16.7145 74.2524C16.8198 74.2524 16.96 74.2196 17.0653 73.9565C17.7667 73.529 18.4682 73.4961 19.0995 73.8907C19.5204 74.3182 20.0114 74.3182 20.5024 73.792V73.8249C20.8181 73.4632 21.0987 73.4303 21.3442 73.792C21.7651 74.2524 22.2561 74.1538 22.7471 73.7592C22.8523 73.7263 22.9576 73.7263 23.0979 73.6934C23.168 73.5947 23.2381 73.4303 23.3083 73.233C23.3083 73.2001 23.3434 73.1672 23.3434 73.1672H23.3784C23.3784 73.1014 23.3784 73.0686 23.4135 73.0028C23.4486 72.937 23.4837 72.8384 23.5187 72.7726L23.5538 72.7397C23.5538 72.7397 23.5538 72.7726 23.5187 72.8055C23.5187 72.9041 23.5187 72.9699 23.4837 73.0686C23.5187 73.1014 23.5538 73.1343 23.5538 73.1672C23.8695 73.5618 24.1851 73.5947 24.5359 73.1343C24.606 72.9699 24.6761 72.937 24.7463 73.0028C24.7814 73.1014 24.7112 73.233 25.0269 73.2988C25.3425 73.3316 25.2724 73.4632 25.6231 73.4961H25.588C25.7634 73.529 25.9388 73.5618 26.1492 73.5947C26.1492 73.5947 26.2194 73.5947 26.2895 73.5947C26.3947 73.5947 26.5 73.5947 26.6052 73.5618C26.8156 73.4961 27.0611 73.4632 27.2014 73.3974C27.6574 73.3645 28.1133 73.3316 28.5693 73.2988C28.9901 73.3645 28.6394 73.4961 28.6745 73.5947C28.7096 73.6605 28.8148 73.7263 29.0603 73.6934C30.5334 73.529 30.6035 73.792 30.849 74.0222C31.1998 74.1209 31.4803 74.2524 31.9012 74.2853C32.5325 74.3511 32.8833 74.4169 32.778 74.6142C32.6378 74.9102 33.0937 75.0746 34.2862 75.0417C34.672 75.0417 35.0578 75.0417 35.4436 75.0417C35.5138 75.2061 35.5839 75.3377 35.6891 75.5021C36.3204 75.6336 36.11 75.8967 36.3204 76.094C36.7764 76.2585 37.7584 76.1269 38.2845 76.2256C38.495 76.2256 38.7054 76.2585 38.9159 76.2585C38.9159 76.2913 38.9509 76.2913 38.9509 76.3242C38.986 76.4229 39.0912 76.5215 39.1263 76.6202C39.1964 76.9162 38.8457 77.3437 41.0553 77.0477C41.1605 77.0148 41.406 77.1135 41.5814 77.1464H41.5463C41.6866 77.2121 41.862 77.245 42.1426 77.245H42.0724C43.7559 77.0806 44.4925 77.4423 45.685 77.541C46.8775 77.7054 46.3864 78.0672 46.5618 78.3631C46.7021 78.6262 46.667 78.9551 48.3856 78.6591C48.561 78.6591 48.7013 78.6262 48.8766 78.6262C49.2274 78.6591 49.5781 78.6591 49.8587 78.5276H49.8236C49.9288 78.4947 49.999 78.4618 50.034 78.4289C50.1743 78.4289 50.3146 78.4618 50.4198 78.4618C50.5251 78.4289 50.6303 78.4289 50.7706 78.4289C50.9109 78.396 51.0161 78.3631 51.1564 78.3303C51.9981 78.2645 52.5593 78.1658 52.6295 77.9027C52.6645 77.837 52.6996 77.7712 52.8048 77.7054C52.875 77.6725 53.0153 77.6397 53.1556 77.6068C53.2958 77.6068 53.5414 77.5739 53.5764 77.6068C53.9272 77.837 54.8741 77.9685 54.6286 78.2974C54.313 78.6591 54.6286 78.9551 55.5756 79.1524C55.6107 79.1524 55.6107 79.1853 55.6107 79.2182C55.8913 79.2182 56.0666 79.251 56.1368 79.3168C56.5226 79.3168 56.8733 79.3168 57.0837 79.4155C57.7151 79.4155 58.171 79.4155 57.7151 79.6457C57.5748 79.7114 57.4345 79.7772 57.3643 79.8101C57.1188 80.0074 57.7151 79.9745 58.1359 79.9745C58.8725 79.7772 59.5389 79.6128 60.3806 79.8101C60.7664 79.9088 61.2224 79.843 61.538 79.6786C61.8888 79.4812 62.1694 79.3168 62.485 79.1195C62.6253 79.0209 62.9059 78.9551 63.2566 78.9551C63.5372 78.9551 63.7126 79.0209 63.923 79.0866C63.8879 79.2182 63.8178 79.3497 63.7827 79.4812C63.7477 79.7114 63.5021 79.9745 63.7477 80.1718C63.9581 80.3363 64.7648 80.4349 65.2909 80.5336C65.361 80.8624 65.3961 81.1584 64.6596 81.4873C64.6596 81.6188 64.6245 81.7175 64.6245 81.849C64.9401 82.0134 65.5715 81.8819 66.0625 81.8819C66.4132 82.1121 66.308 82.3752 66.308 82.6054C66.9042 82.6712 66.7289 82.8685 67.0796 83C67.8161 82.9671 68.0266 82.7369 68.693 82.704C68.8333 82.5396 68.5527 82.3423 69.184 82.1779C69.184 82.0792 69.184 81.9806 69.6399 81.8819C69.675 81.8161 69.7802 81.7504 70.0608 81.7175C70.0608 81.6517 70.0608 81.553 70.0959 81.4873C70.2011 81.4544 70.2362 81.4215 70.166 81.4215C70.3063 81.3886 70.4466 81.3557 70.5869 81.3557C70.5869 81.29 70.5869 81.1913 70.5869 81.1255C70.7272 81.1255 70.8675 81.0926 70.9727 81.0598C70.9377 81.0269 70.9377 80.994 70.8675 80.9611C71.0078 80.9282 71.0429 80.8953 71.0429 80.8296C71.2884 80.7967 71.3936 80.7309 71.3585 80.6651C71.4638 80.6322 71.4988 80.5994 71.4637 80.5665C71.7093 80.5007 71.9898 80.402 72.2354 80.3363C72.2354 80.3363 72.2354 80.3363 72.2354 80.3034C72.2704 80.3034 72.3055 80.3034 72.3756 80.2705C72.5861 80.2376 72.6913 80.2047 72.7615 80.139L72.7264 80.1718C73.3577 79.843 73.9539 79.5141 74.0942 79.1853C74.7255 79.0208 74.7606 78.7906 75.0061 78.5933H74.9711C76.0583 78.0672 76.0934 77.541 76.5143 77.0148C76.5494 76.9819 76.5844 76.9491 76.6195 76.9162C76.6195 76.9162 76.6195 76.9162 76.6195 76.8833C76.6546 76.7846 76.6896 76.7189 76.7247 76.6202C76.7949 76.5873 76.865 76.5215 77.0404 76.4887C77.1807 76.2585 76.7598 76.0611 77.4963 75.8309C77.4613 75.6994 77.356 75.535 77.8471 75.4034C77.8471 75.1732 77.7418 74.9759 78.2679 74.7457C78.303 74.5155 78.2329 74.3182 78.6537 74.088C78.6187 73.8907 78.6187 73.6934 78.5836 73.4632C78.6187 73.4303 78.6537 73.4303 78.6537 73.3974C78.7239 73.3316 78.7239 73.2988 78.6537 73.233C78.6888 73.233 78.6888 73.233 78.7239 73.233C78.9694 73.2001 79.1798 73.1672 79.3201 73.1014C79.4604 73.0357 79.5306 72.9699 79.5657 72.9041C79.4254 71.9176 80.0567 70.8652 79.6007 69.9115C79.6007 69.8458 79.5656 69.78 79.5306 69.7142C79.4955 69.6156 79.4955 69.5169 79.4254 69.4183C79.3903 69.3525 79.3903 69.2867 79.3552 69.221C79.2851 69.1223 79.25 68.9908 79.0746 68.8921C79.0045 68.7606 78.8993 68.629 78.7239 68.5304C78.8642 68.0042 78.759 67.4451 78.6187 66.919C78.6187 66.8532 78.4433 66.8203 78.3732 66.7545C78.3732 66.7545 78.3732 66.7545 78.3381 66.7545C78.759 66.4915 78.6537 66.2941 78.2329 66.0968H78.2679C78.6888 65.8337 78.4433 65.6364 78.3381 65.4062C77.9874 64.7485 77.6717 64.0908 77.2859 63.4331C76.6897 62.3479 76.4091 61.2298 75.918 60.1116C75.7427 59.6841 75.4972 59.2566 75.2516 58.8291H75.2867C75.2867 58.6318 75.3218 58.4674 75.3218 58.2701C75.3569 58.2043 75.3569 58.1056 75.3919 58.0399L75.4621 57.8425C75.4621 57.8097 75.4972 57.8097 75.4972 57.7768C75.5322 57.7768 75.5322 57.7768 75.5673 57.7439C75.5673 57.711 75.5673 57.6452 75.5673 57.6124C75.6024 57.5795 75.6024 57.5466 75.6375 57.5137C75.7076 57.4479 75.7777 57.3493 75.8128 57.2177C75.883 57.0862 75.918 56.9217 75.918 56.7573C76.0934 56.7244 76.2688 56.6587 76.4792 56.6258C76.5143 56.4614 76.5143 56.2969 76.5143 56.1325L76.5494 56.1983H76.6546L76.7598 56.1654C76.8299 55.4419 76.7598 54.6198 77.1105 54.0607C77.1105 53.8634 77.1105 53.6661 77.1456 53.4688C77.2158 52.7453 77.3911 52.0876 77.5314 51.4299C77.5665 51.2983 77.6016 51.1668 77.6366 51.0352C77.812 51.1997 77.9172 51.3312 77.9523 51.4956C78.1978 51.4956 78.4784 51.4627 78.7239 51.4627C79.0396 51.1997 78.8993 50.9695 78.759 50.7064C78.8993 50.7064 79.0396 50.6735 79.1798 50.6406C79.1448 50.3775 79.0746 50.1473 79.0396 49.8842C79.0746 49.7856 79.0746 49.7198 79.1097 49.6212C79.25 49.5883 79.3552 49.5883 79.4955 49.5883C79.4604 49.5554 79.4604 49.5225 79.5306 49.4567C79.8112 49.4238 80.0216 49.391 80.1268 49.2923C80.232 49.2923 80.3723 49.2923 80.4776 49.2594C80.7581 49.3581 80.9335 49.2923 81.1089 49.1936C81.2141 49.1279 81.3193 49.095 81.4245 49.0292C81.3544 48.799 81.0036 48.6017 81.8103 48.3715C81.67 48.3057 81.4947 48.2071 81.3544 48.1413C81.4596 48.0427 81.4947 47.9769 81.7402 47.8782C81.67 47.8453 81.635 47.7796 81.5648 47.7467H81.5999C81.8454 47.7138 82.0208 47.648 82.126 47.5823C83.7394 47.3521 83.1431 46.9903 83.4588 46.6943L83.4237 46.6286C82.9677 46.4641 84.1252 46.2339 83.3536 46.1024C83.0028 45.9051 82.8275 45.7078 83.2834 45.4776C83.4938 45.0829 83.564 44.6883 82.9677 44.3266H83.0028C82.6872 44.195 82.6521 44.0635 82.9327 43.932C83.108 43.8991 83.073 43.8662 82.8625 43.8333H82.8976C82.5819 43.6689 82.5118 43.5044 82.8275 43.3071H82.7924C82.9677 43.2414 82.9677 43.2085 82.7924 43.2085C82.5118 43.1098 82.5819 42.9454 81.9506 42.9454C81.9156 42.9125 81.8805 42.9125 81.7753 42.8796C81.8805 42.8138 82.0208 42.7481 82.126 42.7152C82.126 42.5836 82.0909 42.485 82.0909 42.3534C81.5648 41.9588 81.3895 41.5642 81.2842 41.1367C80.688 41.038 80.7231 40.8407 80.7231 40.6434C80.197 40.5447 80.3373 40.3474 80.4425 40.183C80.5477 39.9857 80.7231 39.7884 80.5126 39.6239H80.4776C80.5828 39.2293 80.688 38.9005 80.8984 38.736C81.179 38.5387 81.3193 38.0126 81.3895 37.3548C81.4596 36.8287 81.5297 36.3354 81.5999 35.8092C81.7051 35.2173 81.9156 35.02 82.126 34.9213C82.1611 34.6253 82.1611 34.3623 82.1961 34.0663C82.1611 33.869 82.0909 33.6388 82.0909 33.4415C82.2312 32.1918 82.3715 30.9422 82.5469 29.6925C82.617 29.1663 82.8275 28.8704 83.0379 28.6731C83.2834 27.7523 83.4938 26.7328 83.8095 25.9436C84.055 25.3516 84.1252 24.7268 84.2304 24.0691C84.4408 22.951 84.2655 21.8 84.511 20.7147C84.7565 19.6953 85.0721 18.7416 85.2826 17.6564C85.3176 17.492 85.3176 17.3275 85.3527 17.1302C85.5281 16.0779 85.8438 15.5188 86.2646 15.4202C86.44 15.3873 86.6154 15.3544 86.7556 15.3544C87.0362 13.6444 87.6325 12.6578 88.1235 11.441C88.2989 11.3095 88.4392 11.1779 88.5444 10.7504C89.0705 10.6518 89.0705 10.586 88.8951 9.69809ZM6.92912 70.076C6.99927 70.1417 7.10449 70.2075 7.17463 70.3391C7.03434 70.3391 6.9642 70.2404 6.92912 70.076ZM76.8299 5.85048C76.8299 5.91625 76.8299 6.0149 76.7949 6.08067C76.7949 6.0149 76.7949 5.94913 76.8299 5.85048ZM54.348 75.7652C54.348 75.7652 54.348 75.7323 54.348 75.7652C54.348 75.7323 54.348 75.7323 54.348 75.7652C54.3831 75.7652 54.348 75.7652 54.348 75.7652ZM52.8399 73.1672C52.8399 73.1343 52.8399 73.1343 52.8399 73.1672V73.1672ZM55.2249 72.7397C55.1547 72.7397 55.0846 72.7397 55.0144 72.7397C55.0495 72.7068 55.1196 72.7068 55.1547 72.6739C55.2249 72.6739 55.2249 72.7068 55.2249 72.7397C55.2599 72.7068 55.2599 72.7068 55.2249 72.7397ZM68.3773 69.8787C68.3773 69.8787 68.3773 69.8458 68.3773 69.8787C68.4124 69.8787 68.4475 69.8787 68.4825 69.8787C68.4475 69.8787 68.4124 69.8787 68.3773 69.8787ZM8.05146 53.2715C8.01639 53.4688 7.91117 53.6003 7.80595 53.6661C7.70073 53.699 7.59551 53.699 7.49029 53.6003C7.63059 53.6332 7.80595 53.5017 8.05146 53.2715ZM51.5422 69.1223H51.5773C51.5773 69.1223 51.5773 69.1223 51.5422 69.1223ZM4.78966 56.9546C4.85981 57.0204 4.85981 57.152 4.82473 57.415C4.78966 57.2835 4.78966 57.1191 4.78966 56.9546ZM51.1915 72.5095C51.3318 72.5095 51.472 72.5424 51.6123 72.5424C51.472 72.5753 51.3317 72.5753 51.2265 72.6082C51.1915 72.5753 51.1915 72.5424 51.1915 72.5095ZM72.8316 66.9847C72.8667 66.9847 72.8667 66.9847 72.8316 66.9847C72.8667 66.9847 72.8667 66.9847 72.8316 66.9847ZM79.4604 46.3984L79.4955 46.3655C79.5306 46.3655 79.6007 46.3655 79.6358 46.3655C79.6007 46.3984 79.5306 46.3984 79.4604 46.3984ZM59.118 4.99545C59.118 4.99545 59.118 5.02834 59.0829 5.02834C59.118 5.02834 59.118 5.02834 59.118 4.99545ZM62.4499 75.5679C62.4149 75.5679 62.4149 75.5679 62.4499 75.5679C62.4149 75.5679 62.4149 75.5679 62.4499 75.5679C62.4149 75.5679 62.4149 75.5679 62.4499 75.5679C62.4149 75.5679 62.4149 75.5679 62.4499 75.5679ZM51.472 4.96256L51.437 4.92968C51.472 4.89679 51.472 4.86391 51.5071 4.83102C51.472 4.86391 51.472 4.92968 51.472 4.96256ZM68.7982 79.7443C68.8333 79.7443 68.8333 79.7443 68.8683 79.7443C68.8333 79.7443 68.7982 79.7772 68.7631 79.7772C68.7631 79.7772 68.7631 79.7772 68.728 79.7772C68.7631 79.7772 68.7631 79.7443 68.7982 79.7443ZM81.3193 6.04779C81.3193 6.0149 81.3193 5.98202 81.3193 5.98202C81.3193 6.0149 81.3193 6.0149 81.3193 6.04779ZM79.9515 48.7004L79.8462 48.7332H79.8112C79.8462 48.7004 79.8813 48.7004 79.9515 48.7004ZM82.617 4.99545V4.96256V4.99545Z" fill="#ECF9F6"/>
<path d="M36.8982 46.835V50.1168C36.8982 51.3012 35.1262 51.3012 35.1262 50.1168V46.835H26.1487C25.4706 46.835 25.0276 46.0123 25.4073 45.4427L35.2708 30.7062C35.7138 30.0553 36.8982 30.4079 36.8982 31.2125V45.063H38.2272C39.4115 45.063 39.4115 46.835 38.2272 46.835H36.8982ZM35.1262 45.063V34.1327L27.8031 45.054H35.1262V45.063Z" fill="#41C0A5"/>
<path d="M50.6116 40.2534C53.36 40.2534 55.6021 38.0113 55.6021 35.2629C55.6021 32.5145 53.36 30.2723 50.6116 30.2723C47.8632 30.2723 45.6211 32.5145 45.6211 35.2629C45.6301 38.0113 47.8632 40.2534 50.6116 40.2534ZM50.6116 31.9991C52.4107 31.9991 53.8753 33.4637 53.8753 35.2629C53.8753 37.062 52.4107 38.5266 50.6116 38.5266C48.8125 38.5266 47.3479 37.062 47.3479 35.2629C47.3479 33.4637 48.8125 31.9991 50.6116 31.9991Z" fill="#41C0A5"/>
<path d="M56.507 39.1956C56.1363 38.9877 55.6572 39.0781 55.395 39.4216C54.4276 40.6964 53.0172 41.5281 51.4351 41.7451C49.8439 41.9621 48.2708 41.5553 46.987 40.5879C46.544 40.2534 46.1553 39.8646 45.8208 39.4216C45.5586 39.0781 45.0885 38.9786 44.7088 39.1956C42.7288 40.3257 41.4902 42.4413 41.4902 44.7286V48.8602C41.4902 50.0898 42.4938 51.0933 43.7233 51.0933H57.4834C58.7129 51.0933 59.7165 50.0898 59.7165 48.8602V44.7286C59.7255 42.4413 58.4869 40.3257 56.507 39.1956ZM58.0078 44.7286V48.8602C58.0078 49.1405 57.7727 49.3756 57.4924 49.3756H43.7324C43.4521 49.3756 43.217 49.1405 43.217 48.8602V44.7286C43.217 43.499 43.7233 42.2966 44.6003 41.4287C44.6997 41.3293 44.8353 41.275 44.9709 41.275C45.0975 41.275 45.2241 41.3202 45.3145 41.4106C46.7429 42.7667 48.6234 43.5171 50.5943 43.5171H50.6395C52.6104 43.5171 54.4909 42.7667 55.9193 41.4106C56.1182 41.2208 56.4347 41.2298 56.6336 41.4287C57.5015 42.2966 58.0078 43.499 58.0078 44.7286Z" fill="#41C0A5"/>
<path d="M62.0959 55.9301H22.9041C22.4068 55.9301 22 55.5233 22 55.026C22 54.5288 22.4068 54.1219 22.9041 54.1219H62.0959C62.5932 54.1219 63 54.5288 63 55.026C63 55.5233 62.5932 55.9301 62.0959 55.9301Z" fill="#41C0A5"/>
<path d="M62.0959 59.221H22.9041C22.4068 59.221 22 58.8142 22 58.3169C22 57.8197 22.4068 57.4128 22.9041 57.4128H62.0959C62.5932 57.4128 63 57.8197 63 58.3169C63 58.8142 62.5932 59.221 62.0959 59.221Z" fill="#41C0A5"/>
<path d="M62.0959 23.8082H22.9041C22.4068 23.8082 22 23.4013 22 22.9041C22 22.4068 22.4068 22 22.9041 22H62.0959C62.5932 22 63 22.4068 63 22.9041C63 23.4013 62.5932 23.8082 62.0959 23.8082Z" fill="#41C0A5"/>
<path d="M62.0959 27.09H22.9041C22.4068 27.09 22 26.6832 22 26.1859C22 25.6887 22.4068 25.2819 22.9041 25.2819H62.0959C62.5932 25.2819 63 25.6887 63 26.1859C63 26.6832 62.5932 27.09 62.0959 27.09Z" fill="#41C0A5"/>
</svg>
