<svg width="58" height="60" fill="none" xmlns="http://www.w3.org/2000/svg"><path opacity=".1" d="M57.612 24.679c-.12-.098-.193-.341-.217-.804-.169-.706-.362-1.363-.434-2.288-.024-.024-.024-.049-.048-.073 0-.268-.024-.535.024-.754v.024c.12-.438.145-.925.072-1.51l.024.025a28.502 28.502 0 01-.048-3.213c.073-.219.073-.608.097-.9l-.024-.098.024-.097c.024-.804-.024-1.631.072-2.386.072-.17.048-.51.097-.754.12-.925.024-1.68-.145-2.386-.024.122-.048.22-.073.317v-.22a.931.931 0 010-.365c-.096-.267-.096-.681-.144-1.07-.024-.122-.073-.244-.097-.366-.217-.219-.313-.754-.313-1.582-.12-.365-.217-.73-.338-1.07-.096-.025-.145-.171-.193-.44-.048 0-.096-.096-.12-.291-.073-.025-.17-.073-.218-.365-.072-.049-.144-.195-.193-.438-.048 0-.096.048-.144 0-.338-.317-.676-.487-1.013-.974-.314-.024-.603-.024-.917-.049-.193-.365-.386-.219-.579-.219-.12 0-.265.073-.386-.268l-.072.365c-.772-.34-1.495.244-2.243.487-.314.098-.652.195-.965.073-.53-.194-1.061.025-1.592-.34-.048-.025-.096.097-.145.146-.048-.17-.096-.122-.12.073v.024c-.58-.024-1.158.024-1.737-.073-.313-.073-.651-.049-.965-.292-.24-.17-.482-.244-.723-.024a.988.988 0 01-.893-.122c-.193-.122-.362-.025-.53.243-.025-.097-.025-.195-.025-.316a39.985 39.985 0 00-1.64-.39c-.072-.024-.145.049-.193.073-.193-.51-.41-.219-.627-.316l-.579-.22c-.12-.048-.265.025-.386-.316-.434.025-.892.098-1.326-.438-.12-.17-.266-.121-.41-.17-.145-.049-.29 0-.459-.22-.168-.218-.361-.316-.482.147-.169.56-.338.438-.53.39-.266-.074-.531-.317-.797-.293-.24.049-.506-.292-.747-.438-.073-.049-.145.024-.193.024-.049.317-.097.292-.145-.048-.096-.049-.193-.22-.29.073-.192.584-.385.681-.602.121-.097-.243-.193-.194-.29-.048-.096.146-.193.487-.265.438-.362-.195-.651.608-1.013.39-.193-.122-.362-.025-.53-.512-.073-.219-.17-.097-.242-.048-.048.365-.12.632-.217.657-.314.073-.603.097-.917.146-.145.024-.265-.098-.386-.39-.169-.39-.169-.34-.337.414-.193.097-.386.17-.555-.146-.048-.073-.12-.146-.145-.049-.217.585-.41.22-.627.05-.12-.098-.29-.22-.386.242-.12.536-.265.512-.41.536-.217.024-.41.049-.627.073-.072 0-.145.024-.193-.024-.169-.17-.338-.609-.482-.536-.145.073-.29.34-.435.511-.168.195-.337.049-.506-.146-.169-.194-.362-.584-.53.025-.025.121-.097.121-.145-.025-.073-.219-.17-.316-.242-.17-.361.657-.723.462-1.11.097-.072.22-.144.365-.24.341-.531-.073-1.062.243-1.592.414-.217.073-.434.34-.652-.049-.048-.097-.144-.073-.193.049-.289.73-.627.56-.94.681-.097.05-.217 0-.314.05-.096.072-.193.072-.29-.123-.216-.462-.433-.438-.578.366-.024.121-.097.243-.145.243-.338 0-.651.414-1.013.292-.12-.049-.12.316-.12.633a1.572 1.572 0 00-.194.219c-.096-.73-.337-.39-.482-.925 0-.024-.072.024-.072.097-.073.609-.266.487-.386.755v.024c-.145-.024-.265-.024-.41-.048h.024c-.145-.073-.41-.098-.627-.122h-.073l-.072-.024V4.45c-.072-.22-.145-.22-.193-.025-.072.025-.12.05-.193.074v.097c-.41-.049-.82-.073-1.206-.17-.096-.074-.338-.074-.506-.122a4.08 4.08 0 00-1.616-.049l.217.073c-.049 0-.097 0-.145-.024-.072 0-.169 0-.241-.025-.193.05-.459.025-.724.025-.072.024-.169.024-.241.048-.169.122-.53.17-1.086.122-.385.098-.627.146-.868.195-.024.049-.12.097-.313.097 0 .049-.073.073-.193.073-.024.049-.049.098-.266.122-.048.049-.144.097-.313.097 0 .025.024.073-.024.098-.242.219-.362.438-.724.633-.024.219-.072.413-.096.632-.242.098-.17.244-.193.39 0 .097.024.195-.193.243.072.025.168.05.24.073-.289.487.073 1.047.17 1.583.048.219.096.462 0 .681-.17.34-.049.73-.338 1.071-.024.025.072.073.096.098-.12.024-.096.048.025.097h.048-.048c-.049.39-.049.803-.17 1.193-.072.219-.072.438-.265.632-.12.147-.193.317-.048.487a.71.71 0 01-.145.609c-.096.122-.048.243.145.39H4.38c-.12.365-.265.73-.386 1.095-.024.048.024.097.048.146-.361.097-.168.267-.24.414-.073.121-.121.243-.194.389-.048.073 0 .17-.241.243 0 .293 0 .609-.386.877-.12.073-.096.17-.145.268-.048.097-.024.194-.168.292-.17.097-.242.219.072.34.362.146.265.268.217.39-.072.17-.265.34-.241.535 0 .17-.241.317-.338.487-.024.049 0 .098 0 .146.217.049.193.098-.048.098-.072-.025-.193.024-.024.121.386.17.434.317.048.438-.169.05-.145.122-.048.195.096.073.313.17.265.22-.145.218.362.486.193.705-.096.122-.048.244-.386.34-.145.025-.072.098-.048.171.241.049.41.122.434.195.024.22.024.414.048.633 0 .097-.096.17-.29.243-.264.098-.24.098.266.268.048.146.097.268-.12.365-.049.025-.097.073-.049.098.362.17.12.292 0 .438-.072.073-.169.195.145.292.362.121.314.219.314.316v.438c0 .05 0 .098-.049.146-.12.098-.434.195-.386.293.049.097.218.219.314.316.12.146 0 .243-.12.34-.121.098-.338.171-.17.293h-.144c-.29-.024-.507.34-.603 1.339-.073.827-.241.973-.434.876-.097.511-.266.34-.41.438-.024.292-.024.584-.121.682-.024.121-.072.243-.096.365-.049-.098-.073-.22-.121-.317-.024.049-.048.073-.072.049-.025.195-.073.292-.121.317v.316c-.12.049-.241.122-.386.17-.169.487-.217 1.071-.072 1.753.072.292.12.584.193.876.144.22.12.511.048.828-.024.34-.024.681.024.998.12.024.193.39.29.56 0 .121.024.194.048.243v.292c.12.024.265.073.386.097 0 .098.024.22.024.317.048.024.096.17.096.365.073.024.17.073.217.34l.29.074c0 .097.024.195.024.292.096 0 .169.024.217.316.096.025.193.025.29.05.072.218.168.413.24.632.073.024.17.097.194.414.12.097.24.34.313.754.241.439.265.585.169 1.169-.145.803-.169.852.024 1.509.12.462.145.998.193 1.51.12 0 .217-.025.314.389.048 0 .096.121.12.316.097.097.217.073.314.414.048.024.12.048.169.073 0 1.217.24 1.436.482 1.777.12 0 .193.34.217.754.072.025.145.098.217.366.145 0 .241.316.314.754.072.024.169.073.217.34.386.123.772.707 1.158.95.506.317.989.852 1.52.828.41.438.843.779 1.278.657.024.049.072.146.096.146.796.195 1.592.487 2.388.34.29.488.603.366.916.415.604.121 1.207.51 1.81.413.048.195.072.268.12.025.193.34.41.316.603.292.097.292.217.268.314.316.12.025.217.025.313.317.17.024.362-.073.53.316.17.025.339.025.507.049.049.097.073.219.121.316.169.049.362-.097.53.292.459 0 .893.293 1.351.682.17.024.362-.097.531.292.241.097.482-.17.724.34.796.171 1.616.342 2.412.536.168.049.337-.073.506.292.555-.121 1.086 0 1.64.122a82.97 82.97 0 002.147.414c.096.024.169 0 .241.219.362-.024.748.146 1.11-.049.048.122.096.146.169.146.024.025.048-.097.072-.146l.024.049.024-.024v.024c0 .146.024.243.048.243.242.512.507-.097.772.293h.024c.049-.098.097-.147.145 0 .338.535.7-.17 1.037.267v-.048c.073.316.145.292.193.024l.049-.073.048.049c.265.56.579-.146.844.316v-.024c.072.267.145.267.193-.025v.025c.024-.098.072-.098.096-.098 0 .025 0 .049.025.098.53-.049 1.06-.073 1.567-.098.145 0 .266-.073.386.22.073 0 .12 0 .193.024.073-.268.145-.292.217-.025.073 0 .12-.024.193-.024.097-.316.217-.34.338-.049.145-.121.265-.17.41-.073.169.098.338 0 .482-.267v.024c.024.195.049.34.097.438.314-.097.651.22.965-.292.072-.243.169-.17.24-.024h.05c.602-.414 1.205-.195 1.808-.365.169-.05.338.194.483-.293l.024-.048.024.048c.072-.194.193-.146.265-.292 0 0 0-.024.024-.024.266.22.53.22.772-.17l.024-.05.024.05c.145-.341.314.024.434-.414l.025-.073.024.024c.072-.122.169-.122.241-.414.072-.17.145-.146.193-.39.048-.194.12-.194.193-.316 0 .098 0 .195.024.317.024-.025.072-.025.096-.049.097.17.193-.073.29-.097.072-.292.193-.268.29-.292.265-.025.506-.073.771-.098a.334.334 0 00.097.073c.096.146.217-.048.337.195.073.268.121.243.193-.024.049-.098.073-.122.12-.025.073.268.146.244.194-.024.072-.195.145-.195.217-.024.41.34.82.243 1.23-.098l.024-.073.024.049c.049-.122.121-.122.17-.024h.144c.603-.244 1.206-.56 1.833-.049.096.073.169-.024.169-.438.024-.146.048-.244.072-.34 0 .12 0 .267.024.462.266-.195.58.17.82-.341v.024c.459-.584.99.073 1.448-.535l.024-.073.048.048c.193-.462.458.122.651-.462v.024c.145-.438.362.073.507-.438.193-.487.434.146.627-.487l-.024.024c.048-.097.072-.194.12-.34v-.025c.097-.024.193-.048.314-.097.072-.316.193-.34.313-.414.025-.121.073-.268.097-.39 0-.194.024-.413.024-.608.024-.048.048-.097.097-.17.024-.122.072-.244.096-.365.048-.22.145-.17.193-.463.048-.073.072-.219.097-.39.096-.145.168-.413.193-.778.072-.17.168-.122.193-.414.096-.146.144-.414.168-.779l.024-.024c0-.146 0-.292.025-.414v-.049c.024-.121.024-.243.072-.316.072-.268.12-.536.193-.78.024-.364.12-.413.193-.413.072-.365.193-.365.313-.39.073-.34.193-.413.29-.438.072-.365.193-.292.29-.438.023-.121.072-.243.096-.365.024-.195.048-.34.096-.39.024-.145.048-.316.073-.462 0-.316.024-.584.12-.73 0-.22.049-.34.097-.39.024-.292.096-.413.193-.462.024-.195.048-.292.12-.316.048-.293.097-.414.193-.439.048-.292.12-.365.193-.389.024-.316.097-.414.193-.462.048-.122.072-.22.12-.341.17-.609.218-1.339.17-2.167v-.024c.048-.316.024-.706.072-1.047a.502.502 0 010-.267c.072-.341.048-.706.024-1.072-.024-.024-.024-.048-.048-.072.024-1.802-.072-3.579-.072-5.38-.025-.097-.025-.195-.049-.316 0-.025.024-.098.024-.146 0-.341.024-.585.097-.804 0-.438-.024-.852.096-1.168.024-.22.024-.438.048-.657.025 0 .049-.025.073-.049 0-.22.024-.365.072-.438 0-.682-.072-1.242-.169-1.801zM19.888 52.988v-.049.049zm2.123-4.577c.024-.072.048-.048.072.025-.048-.025-.072-.049-.072-.025zM42.61 46.27v-.097c-.024-.195.072-.511.12-.462.024.024.049.073.073.097-.145-.024-.193.073-.193.462zm9.382-39.603V6.57c-.024.097-.048.219-.072.316.024-.049.024-.122.048-.17.024 0 .024-.025.024-.05zm1.182 7.132c.024.024.024.024 0 0zm-10.998 6.62c0 .025 0 0 0 0zm8.056 7.279c-.024 0-.049 0-.049-.024.025-.073.025-.146.049-.22v.244zm4.052-7.692a.38.38 0 01.048.195c-.024-.073-.048-.146-.048-.195zm-8.177-2.02c-.024 0-.024 0 0 0-.024 0-.024 0 0 0zm1.616-.073v.024-.024zm-.844 4.6l-.048.049v-.487c.024.097.048.22.048.438zm-1.713 5.647v-.316h.025c0 .195 0 .292-.025.316zm3.715-15.335s-.024 0-.024-.024.024-.024.024-.049v.073zm-5.21 25.583c0-.048 0-.097-.024-.17v-.098c.024.073.024.17.024.268zM7.949 7.591H7.9l.217.073c-.049-.024-.073-.024-.12-.049-.025 0-.025-.024-.05-.024zM7.9 7.567h.048c-.024.024-.048.024-.048 0zm1.182 2.555c.048 0 .12 0 .168.025-.048 0-.096.024-.168.024v-.049zm31.525 18.135zM12.315 10.074c-.024-.025-.049-.025 0-.049-.024.024 0 .049 0 .049zm27.762 23.27v.122-.122zm-.048 3.554c-.024.024-.024.049-.049.073a.532.532 0 01-.072.122c.024-.049.072-.122.12-.195zM11.88 10.147s-.024 0 0 0c-.024.024-.048 0-.048 0h.048zM8.962 7.956c.024 0 .048 0 .072-.024v.024h-.072zm-.072 4.235h-.025.025zm.313 26.435c0-.024 0-.024 0 0v-.073.073zM12.34 7.177c0 .024.024.024 0 0h-.024.024zM32.937 48.46s0 .024 0 0c0 .024 0 .024 0 0 0 .024 0 .024 0 0 0 .024 0 .024 0 0 0 .024 0 0 0 0zm7.309-3.53c0 .025 0 .025 0 0 0 .025 0 .025 0 0 0 .025 0 .025 0 0zM12.82 7.275c.024 0 .024 0 0 0 .048 0 .097 0 .12.025-.023-.025-.072-.025-.12-.025zm-4.776.341H8.02c.024 0 .073.025.097.025.024 0 .048.024.072.024a.34.34 0 01-.145-.049zm33.02 36.975v-.024.024zm-.023-.073v-.025.025zm11.722-11.66c-.024.122-.024.22-.096.195a.367.367 0 01.096-.195zM51.63 8.298V8.2c0 .025.024.05.024.098h-.024zm-3.594 3.383s0 .025 0 0c0 .025 0 0 0 0zM45.48 8.76c0-.025 0-.074.024-.074-.024 0-.024.025-.024.073zM6.188 11.728c.169-.024.314-.024.507.024-.193-.024-.362-.024-.507-.024-.024 0 0 0 0 0zm34.42 37.973c0-.025 0-.073-.024-.098.024.025.048.195.024.098zm4.896-12.755c-.024.097-.024.194-.072.243-.024-.097-.024-.195-.049-.292.049 0 .073.024.121.049zm4.028-.292s.024 0 0 0c.073.073.12.194.193.34-.072.05-.12-.048-.193-.34zm7.043-9.396v-.122c.024.049 0 .073 0 .122zm-.627-1.363c-.048-.025-.072-.049-.12-.073 0-.073.024-.146.024-.22.024.098.072.195.096.293zm-.313-11.976c0 .024 0 0 0 0zm-2.388-.852v-.048.049zm-.242 4.284zm-.989-10.783zm-2.966 6.888c.024-.049.024-.049.072-.024-.048 0-.048 0-.072.024zm-8.925-5.963c0-.025.024-.025 0 0 .024 0 0 0 0 0zM32.72 51.138c0-.025 0-.049.025-.098.024-.073.024-.097.048-.121l-.073.219zm22.553-38.192c-.024-.049-.024-.073-.049-.122.025 0 .025 0 .049-.024v.146zm-3.305-6.158v-.05c-.024.05-.024.098-.048.147 0 .024-.024.073-.024.097v-.024a.578.578 0 00.072-.17zM48.52 8.93a3.127 3.127 0 01-.072-.244h.072v.244zm-2.725-3.506c0-.292-.025-.535-.049-.778v.024c.073.243.097.462.049.754zm-5.886.925zm-2.436 1.364c.024.048.048.097.072.121-.024 0-.048-.024-.072-.121zM12.315 5.814c0-.024 0-.024-.024-.024.024 0 .072 0 .096.024-.024-.024-.048-.024-.072 0zm-4.125.803s0-.024 0 0c0-.024 0 0 0 0h.024-.024zM23.724 47.9c0 .025 0 .025 0 0 0 .025 0 .025 0 0 0 .025 0 .025 0 0zm5.065 5.623v-.073.073zm3.69-.73v.097l-.024-.024c.024-.024.024-.049.024-.073zm6.61-1.801v-.073c0 .024 0 .024.023.024-.024.024-.024.024-.024.049zm14.375-14.727v.024-.024zm2.122-3.335c0-.024 0-.024 0 0 0 0 .024.025.024.049 0-.024 0-.049-.024-.049zM53.61 4.426l-.049-.048c.024 0 .024 0 .048-.025v.073zm-.145 2.435c0 .024 0 .024 0 0 0 .024 0 0 0 0zm-46.89-.536s-.024.024-.048.024v-.024h.048zM2.642 27.916c0 .024 0 .024.025.049 0 0 0 .024-.025.024-.024-.024 0-.049 0-.073zm7.695 21.688c.048.049.072.146.096.244a.31.31 0 01.024.146c-.048-.146-.096-.268-.12-.39zm5.982-6.328v.145c-.024.074-.073.147-.097.268.024-.146.048-.292.097-.413zm12.47 10.272s.024 0 0 0c.024 0 .024.024 0 0 0 .024 0 0 0 0zm10.178-.536c0 .049-.024.097-.024.146 0-.049.025-.097.025-.146zm4.752-43.96c-.072.218-.12.267-.193.17a.324.324 0 00.193-.17zM2.498 27.818c.024.048.048.17.072.267-.096.122-.169.244-.241.341 0-.17.024-.365.024-.535 0-.39.072-.22.145-.073zm-.41 2.848zM4.21 45.369c.048-.025.073-.025.12 0-.047.024-.072.024-.12 0zm30.078 10.88c-.024 0-.024-.048-.048-.097l.096-.097c0 .097-.024.17-.048.194z" fill="#31A593"/><path d="M32.234 33.9v2.198c0 .794-1.185.794-1.185 0v-2.199h-6.02c-.457 0-.753-.557-.499-.93l6.614-9.879c.296-.432 1.09-.195 1.09.338v9.28h.89c.793 0 .793 1.186 0 1.186h-.89v.005zm-1.19-1.192v-7.324l-4.908 7.324h4.907z" fill="#41C0A5"/><path d="M29.656 16.5c1.778 0 3.497.35 5.12 1.032a13.163 13.163 0 014.184 2.82 13.097 13.097 0 013.852 9.304c0 1.778-.35 3.497-1.031 5.12a13.162 13.162 0 01-2.82 4.184 13.098 13.098 0 01-9.305 3.852 13.15 13.15 0 01-5.12-1.031 13.164 13.164 0 01-4.184-2.82 13.099 13.099 0 01-3.851-9.305c0-1.777.35-3.496 1.03-5.12a13.164 13.164 0 012.822-4.183 13.097 13.097 0 019.303-3.852zm0-1.184c-7.923 0-14.34 6.417-14.34 14.34s6.417 14.341 14.34 14.341 14.341-6.418 14.341-14.34c0-7.924-6.424-14.341-14.34-14.341z" fill="#41C0A5"/><path d="M29.656 18.77c2.91 0 5.642 1.132 7.698 3.189a10.811 10.811 0 013.188 7.697c0 2.91-1.132 5.642-3.188 7.698a10.812 10.812 0 01-7.698 3.188c-2.91 0-5.641-1.132-7.698-3.188a10.821 10.821 0 01-3.188-7.698c0-2.903 1.132-5.641 3.188-7.697a10.812 10.812 0 017.698-3.189zm0-1.185c-6.666 0-12.071 5.405-12.071 12.071 0 6.667 5.404 12.072 12.071 12.072s12.071-5.405 12.071-12.072c0-6.666-5.404-12.07-12.07-12.07z" fill="#41C0A5"/></svg>