<svg width="58" height="60" viewBox="0 0 58 60" fill="none" xmlns="http://www.w3.org/2000/svg">
<g>
<path opacity="0.1" d="M57.6124 24.6786C57.4918 24.5812 57.4195 24.3378 57.3953 23.8753C57.2265 23.1694 57.0335 22.5122 56.9612 21.5872C56.9371 21.5629 56.9371 21.5385 56.9129 21.5142C56.9129 21.2464 56.8888 20.9787 56.9371 20.7596V20.784C57.0577 20.3458 57.0818 19.859 57.0094 19.2748L57.0335 19.2991C56.9612 18.2281 56.9371 17.1814 56.9853 16.0861C57.0577 15.867 57.0577 15.4775 57.0818 15.1854L57.0577 15.088L57.0818 14.9907C57.1059 14.1874 57.0577 13.3598 57.1541 12.6052C57.2265 12.4348 57.2024 12.0941 57.2506 11.8506C57.3712 10.9257 57.2747 10.1711 57.1059 9.46517C57.0818 9.58688 57.0577 9.68425 57.0335 9.78161C57.0335 9.70859 57.0335 9.63556 57.0335 9.56254C57.0094 9.44083 57.0094 9.31912 57.0335 9.19742C56.9371 8.92966 56.9371 8.51585 56.8888 8.12639C56.8647 8.00468 56.8165 7.88298 56.7923 7.76127C56.5753 7.5422 56.4788 7.00668 56.4788 6.17907C56.3582 5.81395 56.2617 5.44883 56.1411 5.10805C56.0446 5.08371 55.9964 4.93766 55.9481 4.6699C55.8999 4.6699 55.8517 4.57254 55.8275 4.37781C55.7552 4.35346 55.6587 4.30478 55.6104 4.01268C55.5381 3.964 55.4657 3.81795 55.4175 3.57454C55.3692 3.57454 55.321 3.62322 55.2728 3.57454C54.9351 3.2581 54.5974 3.08771 54.2597 2.60088C53.9462 2.57654 53.6567 2.57654 53.3431 2.5522C53.1502 2.18707 52.9572 2.33312 52.7643 2.33312C52.6437 2.33312 52.4989 2.40615 52.3783 2.06537C52.3542 2.18707 52.3301 2.30878 52.306 2.43049C51.5341 2.08971 50.8105 2.6739 50.0628 2.91732C49.7492 3.01468 49.4115 3.11205 49.098 2.99034C48.5673 2.79561 48.0367 3.01468 47.5061 2.64956C47.4578 2.62522 47.4096 2.74693 47.3613 2.79561C47.3131 2.62522 47.2649 2.6739 47.2407 2.86863V2.94166C47.2407 2.94166 47.2407 2.94166 47.2407 2.966C47.2407 2.94166 47.2407 2.91732 47.2407 2.89298C46.6618 2.86863 46.083 2.91732 45.5041 2.81995C45.1905 2.74693 44.8528 2.77127 44.5393 2.52785C44.2981 2.35746 44.0569 2.28444 43.8157 2.50351C43.5262 2.60088 43.2127 2.57654 42.9232 2.3818C42.7302 2.2601 42.5614 2.35746 42.3926 2.62522C42.3684 2.52785 42.3684 2.43049 42.3684 2.30878C41.8137 2.16273 41.283 2.04102 40.7283 1.91932C40.6559 1.89498 40.5835 1.968 40.5353 1.99234C40.3423 1.48117 40.1253 1.77327 39.9082 1.6759C39.7152 1.60288 39.5223 1.52985 39.3293 1.45683C39.2087 1.40815 39.064 1.48117 38.9434 1.14039C38.5092 1.16473 38.0509 1.23776 37.6168 0.702244C37.4962 0.531854 37.3514 0.580537 37.2067 0.531854C37.062 0.483171 36.9173 0.531854 36.7484 0.31278C36.5796 0.0937072 36.3866 -0.00365862 36.266 0.458829C36.0972 1.01868 35.9283 0.896976 35.7354 0.848293C35.4701 0.775268 35.2047 0.531854 34.9394 0.556195C34.6982 0.604878 34.4329 0.264097 34.1917 0.118049C34.1193 0.0693658 34.047 0.14239 33.9987 0.14239C33.9505 0.458829 33.9022 0.434488 33.854 0.0937072C33.7575 0.0450243 33.661 -0.125366 33.5646 0.166732C33.3716 0.750927 33.1786 0.848293 32.9616 0.288439C32.8651 0.0450243 32.7686 0.0937072 32.6721 0.239756C32.5756 0.385805 32.4792 0.726585 32.4068 0.677902C32.045 0.483171 31.7555 1.28644 31.3937 1.06737C31.2008 0.945659 31.0319 1.04302 30.8631 0.556195C30.7907 0.337122 30.6943 0.458829 30.6219 0.507512C30.5737 0.872634 30.5013 1.14039 30.4048 1.16473C30.0912 1.23776 29.8018 1.2621 29.4882 1.31078C29.3435 1.33512 29.2229 1.21341 29.1023 0.921317C28.9335 0.531854 28.9335 0.580537 28.7646 1.33512C28.5717 1.43249 28.3787 1.50551 28.2099 1.18907C28.1616 1.11605 28.0893 1.04302 28.0652 1.14039C27.8481 1.72459 27.6551 1.35946 27.438 1.18907C27.3174 1.09171 27.1486 0.97 27.0521 1.43249C26.9315 1.968 26.7868 1.94366 26.6421 1.968C26.425 1.99234 26.232 2.01668 26.0149 2.04102C25.9426 2.04102 25.8702 2.06537 25.822 2.01668C25.6531 1.84629 25.4843 1.40815 25.3396 1.48117C25.1948 1.5542 25.0501 1.82195 24.9054 1.99234C24.7366 2.18707 24.5677 2.04102 24.3989 1.84629C24.23 1.65156 24.0371 1.2621 23.8682 1.87063C23.8441 1.99234 23.7718 1.99234 23.7235 1.84629C23.6511 1.62722 23.5547 1.52985 23.4823 1.6759C23.1205 2.33312 22.7587 2.13839 22.3728 1.77327C22.3004 1.99234 22.2281 2.13839 22.1316 2.11405C21.6009 2.04102 21.0703 2.35746 20.5396 2.52785C20.3226 2.60088 20.1055 2.86863 19.8884 2.47917C19.8402 2.3818 19.7437 2.40615 19.6954 2.52785C19.406 3.2581 19.0683 3.08771 18.7547 3.20941C18.6583 3.2581 18.5377 3.20941 18.4412 3.2581C18.3447 3.33112 18.2482 3.33112 18.1517 3.13639C17.9347 2.6739 17.7176 2.69824 17.5729 3.50151C17.5487 3.62322 17.4764 3.74493 17.4281 3.74493C17.0905 3.74493 16.7769 4.15873 16.4151 4.03702C16.2945 3.98834 16.2945 4.35346 16.2945 4.6699C16.2221 4.74293 16.1498 4.81595 16.1015 4.88898C16.005 4.15873 15.7638 4.49951 15.6191 3.964C15.6191 3.93966 15.5468 3.98834 15.5468 4.06137C15.4744 4.6699 15.2814 4.5482 15.1608 4.81595V4.84029C15.0161 4.81595 14.8955 4.81595 14.7508 4.79161H14.7749C14.6302 4.71859 14.3649 4.69424 14.1478 4.6699H14.0754L14.0031 4.64556C14.0031 4.57254 14.0031 4.52385 14.0031 4.45083C13.9307 4.23176 13.8583 4.23176 13.8101 4.42649C13.7377 4.45083 13.6895 4.47517 13.6171 4.49951C13.6171 4.52385 13.6171 4.57254 13.6171 4.59688C13.2071 4.5482 12.797 4.52385 12.4111 4.42649C12.3146 4.35346 12.0734 4.35346 11.9046 4.30478C11.2775 4.15873 10.771 4.18307 10.2885 4.2561C10.3609 4.28044 10.4333 4.30478 10.5056 4.32912C10.4574 4.32912 10.4091 4.32912 10.3609 4.30478C10.2885 4.30478 10.1921 4.30478 10.1197 4.28044C9.92674 4.32912 9.66142 4.30478 9.3961 4.30478C9.32374 4.32912 9.22726 4.32912 9.1549 4.35346C8.98605 4.47517 8.62425 4.52385 8.06949 4.47517C7.68356 4.57254 7.44236 4.62122 7.20116 4.6699C7.17704 4.71859 7.08056 4.76727 6.8876 4.76727C6.8876 4.81595 6.81523 4.84029 6.69463 4.84029C6.67051 4.88898 6.64639 4.93766 6.42931 4.962C6.38107 5.01068 6.28459 5.05937 6.11575 5.05937C6.11575 5.08371 6.13987 5.13239 6.09163 5.15673C5.85043 5.37581 5.72982 5.59488 5.36802 5.78961C5.3439 6.00868 5.29566 6.20341 5.27154 6.42249C5.03034 6.51985 5.1027 6.6659 5.07858 6.81195C5.07858 6.90932 5.1027 7.00668 4.88562 7.05537C4.95798 7.07971 5.05446 7.10405 5.12682 7.12839C4.83738 7.61522 5.19918 8.17507 5.29566 8.71059C5.3439 8.92966 5.39214 9.17307 5.29566 9.39215C5.12682 9.73293 5.24742 10.1224 4.95798 10.4632C4.93386 10.4875 5.03034 10.5362 5.05446 10.5605C4.93386 10.5849 4.95798 10.6092 5.07858 10.6579H5.12682C5.1027 10.6579 5.1027 10.6579 5.07858 10.6579C5.03034 11.0474 5.03034 11.4612 4.90974 11.8506C4.83738 12.0697 4.83738 12.2888 4.64441 12.4835C4.52381 12.6296 4.45145 12.8 4.59617 12.9703C4.64441 13.1894 4.59617 13.3841 4.45145 13.5789C4.35497 13.7006 4.40321 13.8223 4.59617 13.9683C4.52381 13.9683 4.45145 13.9683 4.37909 13.9683C4.25849 14.3335 4.11377 14.6986 3.99317 15.0637C3.96905 15.1124 4.01729 15.1611 4.04141 15.2098C3.67961 15.3071 3.87257 15.4775 3.80021 15.6236C3.72785 15.7453 3.67961 15.867 3.60724 16.013C3.559 16.0861 3.60724 16.1834 3.36604 16.2564C3.36604 16.5485 3.36604 16.865 2.98012 17.1327C2.85952 17.2058 2.88364 17.3031 2.8354 17.4005C2.78716 17.4979 2.81128 17.5952 2.66656 17.6926C2.49771 17.79 2.42535 17.9117 2.73892 18.0334C3.10072 18.1794 3.00424 18.3011 2.956 18.4228C2.88364 18.5932 2.69068 18.7636 2.7148 18.9583C2.7148 19.1287 2.47359 19.2748 2.37711 19.4452C2.35299 19.4939 2.37711 19.5425 2.37711 19.5912C2.5942 19.6399 2.57008 19.6886 2.32887 19.6886C2.25651 19.6642 2.13591 19.7129 2.30475 19.8103C2.69068 19.9807 2.73892 20.1267 2.35299 20.2484C2.18415 20.2971 2.20827 20.3701 2.30475 20.4432C2.40123 20.5162 2.61832 20.6136 2.57008 20.6622C2.42535 20.8813 2.93188 21.1491 2.76304 21.3681C2.66656 21.4899 2.7148 21.6116 2.37711 21.7089C2.23239 21.7333 2.30475 21.8063 2.32887 21.8793C2.57008 21.928 2.73892 22.001 2.76304 22.0741C2.78716 22.2931 2.78716 22.4879 2.81128 22.7069C2.81128 22.8043 2.7148 22.8773 2.52183 22.9503C2.25651 23.0477 2.28063 23.0477 2.78716 23.2181C2.8354 23.3641 2.88364 23.4859 2.66656 23.5832C2.61832 23.6076 2.57008 23.6562 2.61832 23.6806C2.98012 23.851 2.73892 23.9727 2.61832 24.1187C2.54595 24.1918 2.44947 24.3135 2.76304 24.4108C3.12484 24.5325 3.0766 24.6299 3.0766 24.7273C3.0766 24.8733 3.0766 25.0194 3.0766 25.1654C3.0766 25.2141 3.0766 25.2628 3.02836 25.3115C2.90776 25.4088 2.5942 25.5062 2.64244 25.6036C2.69068 25.7009 2.85952 25.8226 2.956 25.92C3.0766 26.0661 2.956 26.1634 2.8354 26.2608C2.7148 26.3581 2.49771 26.4312 2.66656 26.5529C2.61832 26.5529 2.57008 26.5529 2.52183 26.5529C2.23239 26.5285 2.01531 26.8937 1.91883 27.8917C1.84647 28.7193 1.67763 28.8653 1.48467 28.768C1.38818 29.2791 1.21934 29.1087 1.07462 29.2061C1.0505 29.4982 1.0505 29.7903 0.95402 29.8877C0.9299 30.0094 0.881659 30.1311 0.857539 30.2528C0.809299 30.1554 0.785179 30.0337 0.736938 29.9363C0.712818 29.985 0.688698 30.0094 0.664577 29.985C0.640457 30.1798 0.592217 30.2771 0.543976 30.3015C0.543976 30.3988 0.543976 30.5205 0.543976 30.6179C0.423375 30.6666 0.302774 30.7396 0.158053 30.7883C-0.0107888 31.2751 -0.0590293 31.8593 0.0856921 32.5409C0.158053 32.833 0.206293 33.1251 0.278654 33.4172C0.423375 33.6362 0.399255 33.9283 0.326894 34.2448C0.302774 34.5856 0.302774 34.9263 0.351015 35.2428C0.471616 35.2671 0.543976 35.6322 0.640457 35.8026C0.640457 35.9243 0.664577 35.9974 0.688698 36.0461C0.688698 36.1434 0.688698 36.2408 0.688698 36.3382C0.809299 36.3625 0.95402 36.4112 1.07462 36.4355C1.07462 36.5329 1.09874 36.6546 1.09874 36.752C1.14698 36.7763 1.19522 36.9223 1.19522 37.1171C1.26758 37.1414 1.36406 37.1901 1.4123 37.4579C1.50879 37.4822 1.60527 37.5065 1.70175 37.5309C1.70175 37.6282 1.72587 37.7256 1.72587 37.823C1.82235 37.823 1.89471 37.8473 1.94295 38.1394C2.03943 38.1638 2.13591 38.1638 2.23239 38.1881C2.30475 38.4072 2.40123 38.6019 2.47359 38.821C2.54595 38.8453 2.64244 38.9183 2.66656 39.2348C2.78716 39.3321 2.90776 39.5756 2.98012 39.9894C3.22132 40.4275 3.24544 40.5736 3.14896 41.1578C3.00424 41.961 2.98012 42.0097 3.17308 42.6669C3.29368 43.1294 3.3178 43.6649 3.36604 44.1761C3.48664 44.1761 3.58312 44.1518 3.67961 44.5656C3.72785 44.5656 3.77609 44.6873 3.80021 44.882C3.89669 44.9794 4.01729 44.955 4.11377 45.2958C4.16201 45.3202 4.23437 45.3445 4.28261 45.3688C4.28261 46.5859 4.52381 46.805 4.76502 47.1458C4.88562 47.1458 4.95798 47.4865 4.9821 47.9003C5.05446 47.9247 5.12682 47.9977 5.19918 48.2655C5.3439 48.2655 5.44038 48.5819 5.51274 49.0201C5.5851 49.0444 5.68158 49.0931 5.72982 49.3608C6.11575 49.4825 6.50167 50.0667 6.8876 50.3102C7.39412 50.6266 7.87652 51.1621 8.40717 51.1378C8.81721 51.5759 9.25138 51.9167 9.68554 51.795C9.70966 51.8437 9.7579 51.941 9.78202 51.941C10.578 52.1358 11.374 52.4279 12.1699 52.2818C12.4594 52.7686 12.7729 52.6469 13.0865 52.6956C13.6895 52.8173 14.2925 53.2068 14.8955 53.1094C14.9438 53.3041 14.9679 53.3772 15.0161 53.1338C15.2091 53.4745 15.4262 53.4502 15.6191 53.4259C15.7156 53.718 15.8362 53.6936 15.9327 53.7423C16.0533 53.7666 16.1498 53.7666 16.2462 54.0587C16.4151 54.0831 16.608 53.9857 16.7769 54.3752C16.9457 54.3995 17.1146 54.3995 17.2834 54.4239C17.3317 54.5212 17.3558 54.6429 17.404 54.7403C17.5729 54.789 17.7658 54.6429 17.9347 55.0324C18.3929 55.0324 18.8271 55.3245 19.2854 55.714C19.4542 55.7383 19.6472 55.6166 19.816 56.0061C20.0572 56.1034 20.2984 55.8357 20.5396 56.3468C21.3356 56.5172 22.1557 56.6876 22.9517 56.8823C23.1205 56.931 23.2893 56.8093 23.4582 57.1744C24.013 57.0527 24.5436 57.1744 25.0984 57.2962C25.822 57.4422 26.5456 57.5882 27.2451 57.71C27.3415 57.7343 27.4139 57.71 27.4863 57.929C27.8481 57.9047 28.234 58.0751 28.5958 57.8803C28.644 58.0021 28.6923 58.0264 28.7646 58.0264C28.7888 58.0507 28.8129 57.929 28.837 57.8803L28.8611 57.929L28.8852 57.9047C28.8852 57.9047 28.8852 57.9047 28.8852 57.929C28.8852 58.0751 28.9094 58.1724 28.9335 58.1724C29.1747 58.6836 29.44 58.0751 29.7053 58.4645H29.7294C29.7777 58.3672 29.8259 58.3185 29.8742 58.4645C30.2119 59.0001 30.5737 58.2942 30.9113 58.7323V58.6836C30.9837 59.0001 31.0561 58.9757 31.1043 58.708L31.1525 58.6349L31.2008 58.6836C31.4661 59.2435 31.7797 58.5376 32.045 59.0001V58.9757C32.1173 59.2435 32.1897 59.2435 32.2379 58.9514V58.9757C32.2621 58.8783 32.3103 58.8783 32.3344 58.8783C32.3344 58.9027 32.3344 58.927 32.3586 58.9757C32.8892 58.927 33.4198 58.9027 33.9264 58.8783C34.0711 58.8783 34.1917 58.8053 34.3123 59.0974C34.3846 59.0974 34.4329 59.0974 34.5052 59.1218C34.5776 58.854 34.65 58.8297 34.7223 59.0974C34.7947 59.0974 34.8429 59.0731 34.9153 59.0731C35.0118 58.7566 35.1324 58.7323 35.253 59.0244C35.3977 58.9027 35.5183 58.854 35.663 58.9514C35.8319 59.0487 36.0007 58.9514 36.1454 58.6836V58.708C36.1695 58.9027 36.1937 59.0487 36.2419 59.1461C36.5555 59.0487 36.8932 59.3652 37.2067 58.854C37.2791 58.6106 37.3756 58.6836 37.4479 58.8297H37.4962C38.0992 58.4159 38.7022 58.6349 39.3052 58.4645C39.474 58.4159 39.6429 58.6593 39.7876 58.1724L39.8117 58.1238L39.8358 58.1724C39.9082 57.9777 40.0288 58.0264 40.1011 57.8803C40.1011 57.8803 40.1011 57.856 40.1253 57.856C40.3906 58.0751 40.6559 58.0751 40.8971 57.6856L40.9212 57.6369L40.9454 57.6856C41.0901 57.3448 41.2589 57.71 41.3795 57.2718L41.4036 57.1988L41.4278 57.2231C41.5001 57.1014 41.5966 57.1014 41.669 56.8093C41.7413 56.6389 41.8137 56.6633 41.8619 56.4199C41.9102 56.2251 41.9825 56.2251 42.0549 56.1034C42.0549 56.2008 42.0549 56.2982 42.079 56.4199C42.1031 56.3955 42.1514 56.3955 42.1755 56.3712C42.272 56.5416 42.3684 56.2981 42.4649 56.2738C42.5373 55.9817 42.6579 56.0061 42.7544 55.9817C43.0197 55.9574 43.2609 55.9087 43.5262 55.8843C43.5503 55.9087 43.5745 55.933 43.6227 55.9574C43.7192 56.1034 43.8398 55.9087 43.9604 56.1521C44.0327 56.4199 44.081 56.3955 44.1533 56.1278C44.2016 56.0304 44.2257 56.0061 44.2739 56.1034C44.3463 56.3712 44.4187 56.3468 44.4669 56.0791C44.5393 55.8843 44.6116 55.8843 44.684 56.0547C45.094 56.3955 45.5041 56.2981 45.9141 55.9574L45.9382 55.8843L45.9624 55.933C46.0106 55.8113 46.083 55.8113 46.1312 55.9087C46.1794 55.9087 46.2277 55.9087 46.2759 55.9087C46.8789 55.6653 47.4819 55.3488 48.1091 55.86C48.2055 55.933 48.2779 55.8357 48.2779 55.4219C48.302 55.2758 48.3261 55.1784 48.3503 55.0811C48.3503 55.2028 48.3503 55.3488 48.3744 55.5436C48.6397 55.3488 48.9533 55.714 49.1945 55.2028V55.2271C49.6528 54.6429 50.1834 55.3002 50.6417 54.6916L50.6658 54.6186L50.714 54.6673C50.907 54.2048 51.1723 54.789 51.3653 54.2048V54.2291C51.51 53.791 51.7271 54.3022 51.8718 53.791C52.0648 53.3041 52.306 53.937 52.4989 53.3041L52.4748 53.3285C52.5231 53.2311 52.5472 53.1338 52.5954 52.9877V52.9634C52.6919 52.939 52.7884 52.9147 52.909 52.866C52.9813 52.5496 53.1019 52.5252 53.2225 52.4522C53.2467 52.3305 53.2949 52.1844 53.319 52.0627C53.319 51.868 53.3431 51.6489 53.3431 51.4542C53.3673 51.4055 53.3914 51.3568 53.4396 51.2838C53.4637 51.1621 53.512 51.0404 53.5361 50.9187C53.5844 50.6996 53.6808 50.7483 53.7291 50.4562C53.7773 50.3832 53.8014 50.2371 53.8256 50.0667C53.922 49.9207 53.9944 49.6529 54.0185 49.2878C54.0909 49.1174 54.1874 49.1661 54.2115 48.874C54.308 48.728 54.3562 48.4602 54.3803 48.0951L54.4044 48.0707C54.4044 47.9247 54.4044 47.7786 54.4286 47.6569C54.4286 47.6326 54.4286 47.6326 54.4286 47.6082C54.4527 47.4865 54.4527 47.3648 54.5009 47.2918C54.5733 47.0241 54.6215 46.7563 54.6939 46.5129C54.718 46.1478 54.8145 46.0991 54.8868 46.0991C54.9592 45.734 55.0798 45.734 55.2004 45.7096C55.2728 45.3688 55.3934 45.2958 55.4898 45.2715C55.5622 44.9063 55.6828 44.9794 55.7793 44.8333C55.8034 44.7116 55.8517 44.5899 55.8758 44.4682C55.8999 44.2735 55.924 44.1274 55.9722 44.0787C55.9964 43.9327 56.0205 43.7623 56.0446 43.6162C56.0446 43.2998 56.0687 43.0321 56.1652 42.886C56.1652 42.6669 56.2135 42.5452 56.2617 42.4965C56.2858 42.2044 56.3582 42.0827 56.4547 42.034C56.4788 41.8393 56.5029 41.742 56.5753 41.7176C56.6235 41.4255 56.6717 41.3038 56.7682 41.2795C56.8165 40.9874 56.8888 40.9143 56.9612 40.89C56.9853 40.5736 57.0577 40.4762 57.1541 40.4275C57.2024 40.3058 57.2265 40.2084 57.2747 40.0867C57.4436 39.4782 57.4918 38.748 57.4436 37.9203C57.4436 37.9203 57.4436 37.9203 57.4436 37.896C57.4918 37.5796 57.4677 37.1901 57.5159 36.8493C57.4918 36.752 57.4918 36.6546 57.5159 36.5816C57.5883 36.2408 57.5642 35.8757 57.5401 35.5105C57.5159 35.4862 57.5159 35.4619 57.4918 35.4375C57.5159 33.6362 57.4195 31.8593 57.4195 30.0581C57.3953 29.9607 57.3953 29.8633 57.3712 29.7416C57.3712 29.7173 57.3953 29.6442 57.3953 29.5956C57.3953 29.2548 57.4195 29.0114 57.4918 28.7923C57.4918 28.3541 57.4677 27.9403 57.5883 27.6239C57.6124 27.4048 57.6124 27.1858 57.6365 26.9667C57.6607 26.9667 57.6848 26.9423 57.7089 26.918C57.7089 26.6989 57.733 26.5529 57.7813 26.4799C57.7813 25.7983 57.7089 25.2384 57.6124 24.6786ZM19.8884 52.9877V52.9634C19.8884 52.9634 19.8884 52.9634 19.8884 52.939C19.8884 52.9634 19.8884 52.9877 19.8884 52.9877ZM22.011 48.4115C22.0351 48.3385 22.0592 48.3628 22.0833 48.4359C22.0351 48.4115 22.011 48.3872 22.011 48.4115ZM42.6096 46.2695C42.6096 46.2451 42.6096 46.2208 42.6096 46.1721C42.5855 45.9774 42.682 45.6609 42.7302 45.7096C42.7544 45.734 42.7785 45.7826 42.8026 45.807C42.6579 45.7826 42.6096 45.88 42.6096 46.2695ZM51.9924 6.6659C51.9924 6.64156 51.9924 6.64156 51.9924 6.61722C51.9924 6.59288 51.9924 6.59288 51.9924 6.56854C51.9683 6.6659 51.9442 6.78761 51.9201 6.88498C51.9442 6.83629 51.9442 6.76327 51.9683 6.71459C51.9924 6.71459 51.9924 6.69024 51.9924 6.6659ZM53.1743 13.798C53.1984 13.8223 53.1984 13.8223 53.1743 13.798C53.1743 13.871 53.1743 13.9197 53.1743 13.9927C53.1743 13.9197 53.1743 13.871 53.1743 13.798ZM42.1755 20.4188C42.1755 20.4432 42.1755 20.4188 42.1755 20.4188V20.4188ZM50.2316 27.6969C50.2075 27.6969 50.1834 27.6969 50.1834 27.6726C50.2075 27.5996 50.2075 27.5265 50.2316 27.4535C50.2316 27.5265 50.2316 27.6239 50.2316 27.6969ZM54.2838 20.005C54.308 20.0537 54.3321 20.1024 54.3321 20.1998C54.308 20.1267 54.2838 20.0537 54.2838 20.005ZM46.1071 17.9847C46.083 17.9847 46.083 17.9847 46.1071 17.9847C46.083 17.9847 46.083 17.9847 46.1071 17.9847ZM47.7231 17.9117C47.7231 17.936 47.7231 17.936 47.7231 17.936V17.9117ZM46.8789 22.5122C46.8548 22.5365 46.8548 22.5365 46.8307 22.5609C46.8307 22.4392 46.8307 22.2688 46.8307 22.0741C46.8548 22.1714 46.8789 22.2931 46.8789 22.5122ZM45.1664 28.1594C45.1664 28.062 45.1664 27.9403 45.1664 27.843H45.1905C45.1905 28.0377 45.1905 28.1351 45.1664 28.1594ZM48.8809 12.8243C48.8809 12.8243 48.8568 12.8243 48.8568 12.8C48.8568 12.7756 48.8809 12.7756 48.8809 12.7513C48.8809 12.7756 48.8809 12.8 48.8809 12.8243ZM43.6709 38.4072C43.6709 38.3585 43.6709 38.3098 43.6468 38.2368C43.6468 38.2124 43.6468 38.1638 43.6468 38.1394C43.6709 38.2124 43.6709 38.3098 43.6709 38.4072ZM7.94888 7.59088H7.92476H7.90064C7.97301 7.61522 8.04537 7.63956 8.11773 7.6639C8.06949 7.63956 8.04537 7.63956 7.99713 7.61522C7.973 7.61522 7.973 7.59088 7.94888 7.59088ZM7.90064 7.56654H7.92476H7.94888C7.92476 7.59088 7.90064 7.59088 7.90064 7.56654ZM9.08253 10.1224C9.13078 10.1224 9.20314 10.1224 9.25138 10.1467C9.20314 10.1467 9.1549 10.1711 9.08253 10.1711C9.08253 10.1467 9.08253 10.1224 9.08253 10.1224ZM40.6077 28.2568V28.2811V28.3055C40.6077 28.2811 40.6077 28.2811 40.6077 28.2568ZM12.3146 10.0737C12.2905 10.0494 12.2664 10.0494 12.3146 10.025C12.2905 10.0494 12.3146 10.0737 12.3146 10.0737ZM40.077 33.3442C40.077 33.3928 40.077 33.4172 40.077 33.4659V33.4415C40.077 33.4172 40.077 33.3685 40.077 33.3442ZM40.0288 36.898C40.0047 36.9223 40.0047 36.9467 39.9805 36.971C39.9564 37.0197 39.9323 37.0684 39.9082 37.0927C39.9323 37.0441 39.9805 36.971 40.0288 36.898ZM11.8805 10.1467C11.8805 10.1467 11.8564 10.1467 11.8805 10.1467C11.8564 10.1711 11.8322 10.1467 11.8322 10.1467C11.8322 10.1467 11.8564 10.1467 11.8805 10.1467ZM8.96193 7.956C8.98605 7.956 9.01017 7.956 9.03429 7.93166V7.956C9.01017 7.956 8.98605 7.956 8.96193 7.956ZM8.88957 12.1914C8.86545 12.1914 8.86545 12.1914 8.86545 12.1914H8.88957ZM9.20314 38.6262C9.20314 38.6019 9.20314 38.6019 9.20314 38.6262C9.20314 38.6019 9.20314 38.5776 9.20314 38.5532C9.20314 38.5776 9.20314 38.6019 9.20314 38.6262ZM12.3388 7.17707C12.3388 7.20142 12.3629 7.20142 12.3388 7.17707C12.3388 7.17707 12.3388 7.17707 12.3146 7.17707H12.3388ZM32.9374 48.4602C32.9374 48.4602 32.9374 48.4845 32.9374 48.4602C32.9374 48.4845 32.9374 48.4845 32.9374 48.4602C32.9374 48.4845 32.9374 48.4845 32.9374 48.4602C32.9374 48.4845 32.9374 48.4845 32.9374 48.4602C32.9374 48.4845 32.9374 48.4845 32.9374 48.5089C32.9374 48.4845 32.9374 48.4602 32.9374 48.4602C32.9374 48.4845 32.9374 48.4602 32.9374 48.4602ZM40.2459 44.9307C40.2459 44.955 40.2459 44.955 40.2459 44.9307C40.2459 44.955 40.2459 44.955 40.2459 44.9307C40.2459 44.955 40.2459 44.955 40.2459 44.9307ZM12.8212 7.27444C12.8453 7.27444 12.8453 7.27444 12.8212 7.27444C12.8694 7.27444 12.9177 7.27444 12.9418 7.29878C12.9177 7.27444 12.8694 7.27444 12.8212 7.27444ZM8.04537 7.61522H8.02125C8.04537 7.61522 8.09361 7.63956 8.11773 7.63956C8.14185 7.63956 8.16597 7.6639 8.19009 7.6639C8.14185 7.6639 8.09361 7.63956 8.04537 7.61522ZM41.0659 44.5899V44.5656V44.5899ZM41.0418 44.5169V44.4925C41.0418 44.4925 41.0418 44.4925 41.0418 44.5169ZM52.7643 32.8573C52.7401 32.979 52.7401 33.0764 52.6678 33.0521C52.6919 32.9547 52.716 32.906 52.7643 32.8573ZM51.6306 8.29678C51.6306 8.27244 51.6306 8.22376 51.6306 8.19942C51.6306 8.22376 51.6547 8.2481 51.6547 8.29678H51.6306ZM48.0367 11.6802C48.0367 11.6802 48.0367 11.7046 48.0367 11.6802C48.0367 11.7046 48.0367 11.6802 48.0367 11.6802ZM45.48 8.75927C45.48 8.73493 45.48 8.68624 45.5041 8.68624C45.48 8.68624 45.48 8.71059 45.48 8.75927ZM6.18811 11.7289C6.35695 11.7046 6.50167 11.7046 6.69463 11.7533C6.50167 11.7289 6.33283 11.7289 6.18811 11.7289C6.16399 11.7289 6.18811 11.7289 6.18811 11.7289ZM40.6077 49.7016C40.6077 49.6773 40.6077 49.6286 40.5835 49.6042C40.6077 49.6286 40.6318 49.799 40.6077 49.7016ZM45.5041 36.9467C45.48 37.0441 45.48 37.1414 45.4317 37.1901C45.4076 37.0927 45.4076 36.9954 45.3835 36.898C45.4317 36.898 45.4558 36.9223 45.5041 36.9467ZM49.5322 36.6546C49.5322 36.6546 49.5563 36.6546 49.5322 36.6546C49.6045 36.7276 49.6528 36.8493 49.7251 36.9954C49.6528 37.0441 49.6045 36.9467 49.5322 36.6546ZM56.5753 27.2588C56.5753 27.2101 56.5753 27.1858 56.5753 27.1371C56.5994 27.1858 56.5753 27.2101 56.5753 27.2588ZM55.9481 25.8957C55.8999 25.8713 55.8758 25.847 55.8275 25.8226C55.8275 25.7496 55.8516 25.6766 55.8516 25.6036C55.8758 25.7009 55.924 25.7983 55.9481 25.8957ZM55.6346 13.9197V13.944C55.6346 13.944 55.6346 13.944 55.6346 13.9197C55.6346 13.944 55.6346 13.9197 55.6346 13.9197ZM53.2467 13.0677V13.092C53.2467 13.0677 53.2467 13.0434 53.2467 13.019C53.2467 13.0434 53.2467 13.0434 53.2467 13.0677ZM53.0055 17.3518C53.0055 17.3761 53.0055 17.4005 53.0055 17.3761C53.0055 17.3518 53.0055 17.3518 53.0055 17.3518ZM52.0165 6.56854C52.0165 6.59288 52.0165 6.59288 52.0165 6.61722C52.0165 6.64156 52.0165 6.64156 52.0165 6.6659C52.0165 6.61722 52.0165 6.59288 52.0165 6.56854ZM49.0497 13.4572C49.0739 13.4085 49.0739 13.4085 49.1221 13.4328C49.0739 13.4328 49.0739 13.4328 49.0497 13.4572ZM40.1253 7.49351C40.1253 7.46917 40.1494 7.46917 40.1253 7.49351C40.1494 7.49351 40.1253 7.49351 40.1253 7.49351ZM32.7204 51.1378C32.7204 51.1134 32.7204 51.0891 32.7445 51.0404C32.7686 50.9674 32.7686 50.943 32.7927 50.9187C32.7686 50.9917 32.7445 51.0647 32.7204 51.1378ZM55.2728 12.946C55.2486 12.8973 55.2486 12.873 55.2245 12.8243C55.2486 12.8243 55.2486 12.8243 55.2728 12.8C55.2728 12.8486 55.2728 12.8973 55.2728 12.946ZM51.9683 6.78761C51.9683 6.76327 51.9683 6.76327 51.9683 6.73893C51.9442 6.78761 51.9442 6.83629 51.9201 6.88498C51.9201 6.90932 51.8959 6.958 51.8959 6.98234C51.8959 6.98234 51.8959 6.98234 51.8959 6.958C51.9201 6.93366 51.9442 6.86063 51.9683 6.78761ZM48.5191 8.92966C48.495 8.85664 48.4709 8.78361 48.4467 8.68624C48.4709 8.68624 48.495 8.68624 48.5191 8.68624C48.5191 8.75927 48.5191 8.83229 48.5191 8.92966ZM45.7935 5.42449C45.7935 5.13239 45.7694 4.88898 45.7453 4.64556C45.7453 4.64556 45.7453 4.64556 45.7453 4.6699C45.8176 4.91332 45.8418 5.13239 45.7935 5.42449ZM39.9082 6.34946C39.9082 6.37381 39.9082 6.39815 39.9082 6.42249C39.9082 6.39815 39.9082 6.37381 39.9082 6.34946ZM37.472 7.71259C37.4962 7.76127 37.5203 7.80995 37.5444 7.83429C37.5203 7.83429 37.4962 7.80995 37.472 7.71259ZM12.3146 5.81395C12.3146 5.78961 12.3146 5.78961 12.2905 5.78961C12.3146 5.78961 12.3629 5.78961 12.387 5.81395C12.3629 5.78961 12.3388 5.78961 12.3146 5.81395ZM8.19009 6.61722C8.19009 6.61722 8.19009 6.59288 8.19009 6.61722C8.19009 6.59288 8.19009 6.61722 8.19009 6.61722C8.21421 6.61722 8.21421 6.61722 8.21421 6.61722C8.19009 6.61722 8.19009 6.61722 8.19009 6.61722ZM23.7235 47.9003C23.7235 47.9247 23.7235 47.9247 23.7235 47.9003C23.7235 47.9247 23.7235 47.9247 23.7235 47.9003C23.7235 47.9247 23.7235 47.9247 23.7235 47.9003ZM28.7888 53.5232C28.7888 53.4745 28.7888 53.4502 28.7888 53.4502C28.7888 53.4745 28.7888 53.4989 28.7888 53.5232ZM32.4792 52.793C32.4792 52.8173 32.4792 52.866 32.4792 52.8903L32.455 52.866C32.4792 52.8417 32.4792 52.8173 32.4792 52.793ZM39.0881 50.9917C39.0881 50.9674 39.0881 50.943 39.0881 50.9187C39.0881 50.943 39.0881 50.943 39.1122 50.943C39.0881 50.9674 39.0881 50.9674 39.0881 50.9917ZM53.4637 36.2651C53.4637 36.2895 53.4637 36.2895 53.4637 36.2895V36.2651ZM55.5863 32.9303C55.5863 32.906 55.5863 32.906 55.5863 32.9303C55.5863 32.9303 55.6104 32.9547 55.6104 32.979C55.6104 32.9547 55.6104 32.9303 55.5863 32.9303ZM53.6085 4.42649C53.5843 4.40215 53.5843 4.40215 53.5602 4.37781C53.5843 4.37781 53.5843 4.37781 53.6085 4.35346C53.6085 4.37781 53.6085 4.40215 53.6085 4.42649ZM53.4637 6.86063C53.4637 6.88498 53.4637 6.88498 53.4637 6.86063C53.4637 6.88498 53.4637 6.86063 53.4637 6.86063ZM6.57403 6.32512C6.57403 6.32512 6.54991 6.34946 6.52579 6.34946V6.32512C6.52579 6.32512 6.54991 6.32512 6.57403 6.32512ZM2.64244 27.916C2.64244 27.9403 2.64244 27.9403 2.66656 27.9647C2.66656 27.9647 2.66656 27.989 2.64244 27.989C2.61832 27.9647 2.64244 27.9403 2.64244 27.916ZM10.3368 49.6042C10.385 49.6529 10.4091 49.7503 10.4333 49.8477C10.4574 49.8963 10.4574 49.945 10.4574 49.9937C10.4091 49.8477 10.3609 49.726 10.3368 49.6042ZM16.3186 43.2755C16.3186 43.3242 16.3186 43.3728 16.3186 43.4215C16.2945 43.4945 16.2462 43.5676 16.2221 43.6893C16.2462 43.5432 16.2704 43.3972 16.3186 43.2755ZM28.7888 53.5476C28.7888 53.5476 28.8129 53.5476 28.7888 53.5476C28.8129 53.5476 28.8129 53.5719 28.7888 53.5476C28.7888 53.5719 28.7888 53.5476 28.7888 53.5476ZM38.9675 53.0121C38.9675 53.0607 38.9434 53.1094 38.9434 53.1581C38.9434 53.1094 38.9675 53.0607 38.9675 53.0121ZM43.7192 9.05137C43.6468 9.27044 43.5986 9.31912 43.5262 9.22176C43.5986 9.19742 43.6709 9.14873 43.7192 9.05137ZM2.49771 27.8186C2.52183 27.8673 2.54595 27.989 2.57008 28.0864C2.47359 28.2081 2.40123 28.3298 2.32887 28.4272C2.32887 28.2568 2.35299 28.0621 2.35299 27.8917C2.35299 27.5022 2.42535 27.6726 2.49771 27.8186ZM2.08767 30.6666C2.08767 30.6909 2.08767 30.7153 2.08767 30.7153C2.08767 30.6909 2.08767 30.6666 2.08767 30.6666ZM4.21025 45.3688C4.25849 45.3445 4.28261 45.3445 4.33085 45.3688C4.28261 45.3932 4.25849 45.3932 4.21025 45.3688ZM34.2882 56.2495C34.264 56.2495 34.264 56.2008 34.2399 56.1521C34.264 56.1278 34.3123 56.0791 34.3364 56.0547C34.3364 56.1521 34.3123 56.2251 34.2882 56.2495Z" fill="#31A593"/>
<path d="M32.2342 33.8994V36.0979C32.2342 36.892 31.049 36.892 31.049 36.0979V33.8994H25.0282C24.5719 33.8994 24.2756 33.3423 24.5304 32.969L31.1438 23.0904C31.4401 22.6578 32.2342 22.8948 32.2342 23.4282V32.7083H33.1231C33.9172 32.7083 33.9172 33.8935 33.1231 33.8935H32.2342V33.8994ZM31.0431 32.7083V25.3837L26.1364 32.7083H31.0431Z" fill="#41C0A5"/>
<path d="M29.6563 16.5007C31.4341 16.5007 33.1527 16.8503 34.7764 17.5318C36.3408 18.1955 37.7512 19.1437 38.9601 20.3526C40.169 21.5615 41.1172 22.9659 41.7809 24.5363C42.4624 26.1541 42.812 27.8786 42.812 29.6564C42.812 31.4342 42.4624 33.1527 41.7809 34.7764C41.1172 36.3409 40.169 37.7513 38.9601 38.9602C37.7512 40.1691 36.3468 41.1172 34.7764 41.781C33.1527 42.4624 31.4341 42.8121 29.6563 42.8121C27.8785 42.8121 26.16 42.4624 24.5363 41.781C22.9718 41.1172 21.5614 40.1691 20.3525 38.9602C19.1436 37.7513 18.1955 36.3468 17.5317 34.7764C16.8503 33.1527 16.5006 31.4342 16.5006 29.6564C16.5006 27.8786 16.8503 26.1601 17.5317 24.5363C18.1955 22.9719 19.1436 21.5615 20.3525 20.3526C21.5614 19.1437 22.9659 18.1955 24.5363 17.5318C26.1541 16.8503 27.8785 16.5007 29.6563 16.5007ZM29.6563 15.3155C21.7333 15.3155 15.3154 21.7333 15.3154 29.6564C15.3154 37.5794 21.7333 43.9973 29.6563 43.9973C37.5794 43.9973 43.9972 37.5794 43.9972 29.6564C43.9972 21.7333 37.5734 15.3155 29.6563 15.3155Z" fill="#41C0A5"/>
<path d="M29.6562 18.7703C32.5659 18.7703 35.2977 19.9022 37.3541 21.9585C39.4104 24.0148 40.5422 26.7467 40.5422 29.6564C40.5422 32.566 39.4104 35.2979 37.3541 37.3542C35.2977 39.4105 32.5659 40.5424 29.6562 40.5424C26.7465 40.5424 24.0147 39.4105 21.9583 37.3542C19.902 35.2979 18.7702 32.5601 18.7702 29.6564C18.7702 26.7526 19.902 24.0148 21.9583 21.9585C24.0147 19.9022 26.7465 18.7703 29.6562 18.7703ZM29.6562 17.5851C22.9895 17.5851 17.585 22.9896 17.585 29.6564C17.585 36.3231 22.9895 41.7276 29.6562 41.7276C36.3229 41.7276 41.7274 36.3231 41.7274 29.6564C41.7274 22.9896 36.3229 17.5851 29.6562 17.5851Z" fill="#41C0A5"/>
</g>
</svg>
