<svg width="61" height="59" fill="none" xmlns="http://www.w3.org/2000/svg"><path opacity=".12" d="M60.766 34.778c.048-.317 0-.684.024-1.001a.502.502 0 010-.269c.049-.317 0-.66-.049-1.001-.024-.024-.024-.049-.049-.073-.073-1.71-.268-3.394-.39-5.08a1.227 1.227 0 01-.05-.292c0-.025 0-.098.025-.147-.024-.317-.024-.562.049-.757-.025-.415-.073-.806.024-1.123V24.4c.025 0 .05-.024.074-.049 0-.195 0-.342.048-.415a8.464 8.464 0 00-.244-1.685c-.122-.098-.195-.317-.244-.733-.195-.659-.415-1.27-.562-2.148-.024-.025-.024-.05-.048-.074-.025-.244-.05-.488 0-.708a3.603 3.603 0 00-.025-1.44l.025.024a20.8 20.8 0 01-.22-3.028c.049-.22.024-.562.024-.855l-.024-.097v-.098c-.025-.757-.122-1.538-.073-2.246.048-.171.024-.489.048-.709.074-.903-.073-1.587-.293-2.246-.024.097-.024.195-.048.293 0-.073 0-.147-.025-.22-.024-.122-.024-.22-.024-.342-.098-.244-.147-.635-.196-1.001-.048-.122-.073-.22-.122-.342-.22-.195-.342-.708-.39-1.465-.123-.342-.245-.66-.367-1.001-.073-.025-.146-.147-.22-.39-.048.024-.097-.074-.146-.27-.073 0-.147-.048-.22-.341-.073-.05-.146-.171-.22-.415-.048 0-.097.048-.146 0-.342-.293-.684-.416-1.026-.88h-.879c-.195-.317-.39-.195-.561-.17-.123 0-.245.097-.367-.22-.024.122-.024.22-.048.342-.318-.122-.635-.074-.928.024h-.098c-.318-.073.049-.293-.44-.342-.268-.146-.976-.073-1.416-.146a1.891 1.891 0 00-.415-.05h.024C50.192.91 49.753.86 49.46.763c-.195-.024-.17-.122-.415-.146h.025c-.22-.049-.562 0-.806 0-.073.024-.17.024-.244.024-.195-.024-.513.025-.733 0a1.937 1.937 0 00-.415-.048h.025c-.562-.074-1.148-.147-1.783-.22-.122-.025-.244-.025-.39-.05-.27-.072-.611-.194-1.002-.121-1.71.342-2.661-.025-4.053.049-.342 0-.635-.025-.928.049-.122-.123-.22-.147-.318 0-.17-.025-.342-.05-.464-.074-.854-.244-1.929-.342-3.492-.024-.903.17-1.904.268-2.881.317-.586.025-1.123.074-1.66.196-.611.073-1.246.122-1.856.195-.562.049-1.124.17-1.66.122-.196.025-.416.049-.611.073-.025.05-.122.098-.293.122 0 .025-.025.05-.074.098a52.4 52.4 0 01-2.05.244c-.44.025-.904.098-1.344.171-.22.122-.561.147-.903.196-.22.024-.415.048-.562.122-.22.024-.415.073-.635.097 0 .025-.024.05-.024.098-.196.024-.39.073-.562.098-.024.024-.024.049-.049.073h-.024c-.122 0-.22.024-.342.024 0 .025 0 .05-.024.098-.098.024-.22.024-.318.049v.098c-.17.024-.293.073-.342.122-.293.024-.537.073-.683.17-.367.05-.733.098-.977.22-.757.098-1.294.318-2.027.44-.61.146-.903.366-1.612.488-.146.098-.39.122-.659.171-.049.05-.17.098-.342.122-.195.171-.854.293-1 .489-.099.024-.196.024-.294.049-.098.17-.537.293-.977.39-.049.05-.146.098-.317.122v.098c-.098.024-.22.024-.318.049-.024.049-.146.098-.317.122-.024.049-.098.098-.269.146-.024.025-.024.05-.073.098-.122 0-.22.025-.317.049-.05.049-.147.098-.342.122-.196.122-.415.244-.61.366-.025.122-.245.245-.611.367-.025.073-.098.146-.342.22 0 .024.024.073.024.097-.097.024-.17.024-.268.049-.05.073-.098.146-.415.22-.098.073-.318.146-.586.195-.05.073-.147.147-.367.22 0 .097.098.22-.293.317-.024.05-.146.098-.317.122-.098.05-.22.098-.318.122-.024.05-.122.098-.293.147-.024.073-.122.146-.341.22 0 .073-.05.146-.318.22.024.097.073.195-.269.317a.26.26 0 01-.024.293h-.024a2.53 2.53 0 00-.562.244c-.22.073-.195.147 0 .196.17-.025.17 0 .049.048l-.025.025a.9.9 0 01-.268.122c-.196.073-.122.146-.293.22-.318.122-.049.22-.269.317-.44.195.073.317-.244.513-.244.073-.195.146-.293.22-.488.195.098.317-.269.512h.025c-.318.147-.244.269.049.367.146.195.757.317.512.561v.025c.269.073.05.22.416.268.097.025.17.05.244.098l.781 2.955c-.122.049-.244.097-.293.146-.44.196.098.318-.269.513h.025c-.147.049-.147.073 0 .098h.049l-.025.049c.245.146.318.317.098.512h.024c-.244.098-.244.147.025.171h-.025a.986.986 0 00.293.025c.025.122.123.244-.195.366.049.146.073.293.122.44.098.024.269.048.293.073.073.293.147.561.196.854 0 .05-.147.123-.245.196-.122.195.147.39-.195.61l.073.367h.269c.073.17.146.366.22.537.317.024.293.122.048.22.025.097.025.17.05.268.244.049.268.122.024.195.024.147.073.294.097.464.342.074.367.147.05.293.048.147.073.318.439.44.073 0 .146.024.195.024a4.788 4.788 0 00-.342.147c.196.366-.049.806.464 1.148.489.17-.024.463.489.634l.048.025-.024.024c.269.05.049.22.39.269-.048.122-.097.268-.195.39-.122.147-.195.318-.048.489.048.22 0 .415-.147.61-.098.123-.049.245.147.391h-.22c-.122.366-.269.733-.39 1.099-.025.049.023.098.048.147-.366.097-.171.268-.244.415-.074.122-.122.244-.196.39-.048.074 0 .171-.244.244 0 .294 0 .611-.39.88-.123.073-.098.17-.147.268-.049.098-.024.196-.17.293-.172.098-.245.22.072.342.367.147.269.269.22.39-.073.172-.269.343-.244.538 0 .171-.244.318-.342.488-.024.05 0 .098 0 .147.22.049.195.098-.049.098-.024.073-.17.122.025.195.39.17.44.317.048.44-.17.048-.146.122-.048.195.097.073.317.17.268.22-.146.22.366.488.196.708-.098.122-.05.244-.391.342-.147.024-.073.097-.049.17.244.05.415.123.44.196.024.22.024.415.048.635 0 .097-.097.17-.293.244-.268.098-.244.098.269.269.049.146.098.268-.122.366-.049.024-.098.073-.049.098.366.17.122.293 0 .44-.073.072-.17.194.147.292.366.122.317.22.317.318v.44c0 .048 0 .097-.049.146-.122.097-.44.195-.39.293.048.097.22.22.317.317.122.147 0 .244-.122.342-.147.098-.415.195-.025.366.074.025.074.074-.024.098-.147.024-.22.098-.122.146.415.293.268.538-.025.757.147.05.245.123.22.171-.097.367.098.733.171 1.124.025.146.196.317-.073.44-.073.023-.073.097.024.146.489.244.342.464.391.683.024.074-.024.147.024.22.025.073.025.147-.122.195-.342.123-.342.27.196.44.097.024.146.073.146.098-.024.22.244.488.122.708-.049.073.22.098.44.122l.146.146c-.512.025-.293.22-.659.27-.024 0 .024.048.073.072.415.098.318.22.489.318.049.024.22.024.342.049-.171.268-.171.341 0 .488.17.146.39.17.927.122.367-.024.342.098.538.147.097.122.195.244.268.366l-.073.073c.049.025.073.025.049.049.049.024.122.049.22.073v.049c.17.049.22.098.22.171.024.098.048.17.097.269.073-.025.22-.025.22-.074.049-.146.073-.268-.244-.415-.025-.146.073-.293-.269-.464 0-.049-.024-.097-.024-.122.073-.073.17-.122.244-.195.073 0 .17.024.244.024.098.22.293.464.586.684-.024.049 0 .122.22.17.024.025.073.099.098.099.244.024.146-.05.146-.074.049-.073.049-.146-.024-.22.048-.073.024-.146-.171-.244v-.488c.17.024.317-.073.512.024 0 .025 0 .05.025.074.024.048.122.073.268.073.074 0 .147 0 .171-.025.098-.073.05-.146-.17-.244-.098-.146.195-.22.244-.317.073 0 .146 0 .195.024.049.073.049.147.293.244 0 .098.049.196.244.293.147.562.025 1.1.05 1.661-.343.586-.245 1.197-.367 1.807 0 .049.049.122.073.17-.17.294-.146.611 0 .929a.295.295 0 00.024.366c-.048.171.05.342.294.537 0 .098-.025.196-.025.293.049.025.049.05.025.05a.677.677 0 00.22.024v.024c.024.098.024.195.048.269.073 0 .122.024.195.024a.875.875 0 00.098.269c.586.122.733.122.757-.025.025-.097.025-.195-.244-.293l.024-.024-.024-.05c.024-.072.024-.146.049-.194.024 0 .049-.025.097-.025.44-.049.635 0 .66.122.024.098-.074.171.244.269 0 .049 0 .098.024.146.074.196.147.22.977.293.415-.048.904 0 1.368.074.317.048.561.073.83.048.146-.024.22.05.293.074.22.073.366.073.44 0 .097-.098.22-.196.317-.318.415.025.635.098.683.22.05.171.098.342.147.489.024.048.122.121.171.17-.049.025-.049.025.024.05 0 .219.22.463.489.683 0 .024.024.049.024.073-.146.244.147.513.537.757-.024.147-.024.318-.048.464-.025.196.195.366.879.513.561.122.635.22.561.366.342.098.196.196.269.293.195.025.39.05.464.122.073.025.17.074.244.098-.073.024-.146.049-.22.049.025.024.05.049.025.049a.457.457 0 01.22.097c.073 0 .146.025.22.025.024.098.072.17.097.268.317.147.708.22 1.196.171.196-.024.391-.048.61-.073.147-.073.343-.049.563.025.22.048.463.073.683.048.025-.073.293-.097.415-.146.074 0 .147 0 .171-.025.074 0 .147.025.196.025.024-.098.073-.171.097-.269a.66.66 0 01.22.025c.025-.05.122-.05.269-.05.024-.048.049-.097.244-.121.024-.074.049-.122.073-.196h.195c0-.049.025-.122.245-.122.024-.073.049-.122.049-.195.146-.049.293-.073.44-.122.024-.049.072-.098.292-.122.073-.074.244-.147.537-.171.318-.147.415-.147.806-.025.537.147.562.171 1.026.098.317-.049.683-.024 1.05-.024 0-.074 0-.171.268-.196 0-.049.074-.049.22-.073.073-.073.073-.147.293-.17.025-.05.049-.074.049-.123.83.098 1.001-.073 1.245-.195.025-.098.245-.098.513-.098.025-.049.073-.098.269-.122 0-.098.244-.147.537-.171.024-.049.073-.098.244-.122.025-.073.073-.122.122-.195.22.024.44.024.635-.098.049.122.098.122.171.122.025.024.049-.098.073-.122l.025.024.024-.024v.024c0 .147.025.22.073.244.269.464.489-.122.757.245h.025c.049-.074.073-.147.146-.025.367.489.66-.195 1.002.196v-.025c.073.293.146.269.195.025l.049-.074.048.05c.294.512.538-.172.83.243v-.024c.074.244.147.244.196-.024v.024c.025-.098.073-.098.098-.098 0 .025 0 .05.024.074a31.103 31.103 0 011.49-.196c.122-.024.244-.098.39.196h.171c.05-.27.123-.27.22-.05.049 0 .122-.024.171-.024.073-.293.195-.342.318-.073.122-.122.244-.171.39-.098.171.098.318-.024.44-.268v.024a.91.91 0 00.122.39c.293-.121.635.172.903-.341.05-.22.147-.171.22-.049h.049c.537-.415 1.148-.244 1.71-.44.146-.048.341.172.439-.293l.024-.048.025.048c.073-.17.17-.17.244-.293 0 0 0-.024.024-.024.269.171.513.171.733-.195l.024-.05.025.025c.097-.317.268-.049.366-.342.195.025.44.074.61.098.05.244.098.464-.415.733v.268c.22.122.66 0 1.002 0 .268.147.195.342.195.538.415.048.293.195.562.268.512-.024.659-.22 1.123-.268.097-.123-.098-.27.317-.416 0-.073 0-.146.318-.22.024-.048.097-.097.268-.146v-.17c.074-.025.098-.05.05-.074l.292-.073v-.171c.098-.025.195-.025.269-.05l-.074-.072c.074-.025.123-.074.123-.098.17-.049.244-.073.195-.147.073-.024.098-.048.073-.073.171-.073.366-.122.537-.195v-.025c.025 0 .05-.024.074-.024.122-.024.22-.073.268-.098l-.024.025c.44-.269.855-.513.928-.782.44-.146.44-.293.635-.464h-.025c.684-.366.757-.732.977-1.099a.62.62 0 00.44-.292l.024-.074.049.025c.17-.44.44.073.586-.489v.025c.122-.415.366.049.464-.44.146-.464.44.122.561-.513l-.122-.049c.025-.097.074-.195.074-.317v-.024c.097-.025.195-.074.293-.098.048-.293.17-.342.268-.415l.073-.366v-.586c.025-.05.05-.098.074-.171.024-.098.048-.22.073-.342.024-.22.122-.171.146-.44.05-.073.074-.22.074-.39.073-.147.122-.391.146-.758.05-.17.147-.122.171-.415.073-.146.122-.39.122-.732l.025-.025c0-.146-.025-.268 0-.39v-.05c0-.121.024-.219.049-.316.048-.245.097-.513.146-.758 0-.341.073-.39.17-.415.05-.341.172-.366.27-.366.048-.342.146-.39.268-.44.049-.341.171-.293.269-.415.024-.122.049-.244.073-.342 0-.195.024-.317.073-.366.025-.146.025-.293.05-.44 0-.292 0-.536.072-.683 0-.195.025-.342.074-.366.024-.293.073-.391.146-.464 0-.196.049-.293.098-.318.024-.293.073-.415.17-.44.025-.268.098-.341.172-.39.024-.293.073-.39.146-.44.025-.097.049-.22.098-.317.049-.562.049-1.27-.024-2.051zM18.692 2.789c-.025.025-.025.025 0 0zM43.062.665c-.025 0-.073.024-.098.024h.025c0-.024.048-.024.073-.024zm15.677 29.522s-.025-.024 0 0c-.025-.024 0-.024 0 0v-.024c0 .024.024.049.024.073-.024-.024-.024-.049-.024-.049 0-.024 0 0 0 0zM20.816 3.18c.025 0 .05-.024.074-.024 0 .024-.025.024-.074.024.025 0 .025 0 0 0zm-10.06 3.394c.024 0 .024.025.024.049 0 .049-.049.073-.122.098.049-.05.073-.098.098-.147zM55.32 12.24zm-1.538-6.69v-.098c-.025.098-.05.195-.05.293 0-.049.025-.122.025-.171.025 0 .025 0 .025-.024zm0 0c0-.025 0-.074.024-.098v.073c-.024 0-.024 0-.024.024zm-2.442 6.593c0-.05.024-.05.049-.025 0 0-.025 0-.05.025zm2.173-5.03v-.098c.025.024.025.049.049.073-.024.024-.024.024-.049.024zm-.342 26.933c.074.074.122.171.196.293-.05.074-.122-.024-.196-.293zm.586-28.423c0 .049-.024.098-.024.146 0 .025-.025.074-.025.098v-.024c.025-.05.025-.122.05-.196v-.024zM23.551 53.214s.025 0 0 0c.025 0 0 0 0 0zM8.045 40.761c-.049 0-.122.024-.17.024.048 0 .121 0 .17-.024zm48.691-22.734c.025.024.05.097.05.17a.453.453 0 01-.05-.17zm-1.367-2.418v-.024.024zm-.025-4.078v-.049c-.024.025 0 .025 0 .05zM10.17 9.553c.244-.024.317.025.195.122-.049-.048-.122-.073-.195-.122zM7.386 12.41h.024c0-.024 0-.024-.024 0zM5.652 38.074c-.024-.024-.024-.024 0 0h.025c-.025-.024-.025-.024-.025 0zm3.443 7.228c-.024 0-.024-.024 0 0 0-.024 0 0 0 0zm13.162 8.376h.024-.024zM3.992 14.755c.049.024.073.073.024.097 0 0-.024 0-.049.025 0-.05 0-.074.025-.123zm2.735 14.431h-.05.05zM21.23 54.582c.025-.025.05-.074.074-.098.073.024.097.049.049.073-.025 0-.074.025-.123.025zm.22-.416c.025 0 .025.025.049.025h-.073l.024-.025zm37.9-29.521zm-.806-1.416c.025.098.074.195.122.293-.048-.025-.073-.049-.122-.073v-.22zm-.879-11.038zm-.39-.903c-.025-.024-.025-.073-.05-.098.025 0 .025 0 .05-.024v.122zm-2.076-5.64c0 .024 0 .024 0 0 0 .024 0 0 0 0zM17.153 4.351a.27.27 0 00-.122.024c.05 0 .074-.024.122-.024zM6.213 41.493c.074.024.147.024.172.049-.074-.025-.171-.025-.244-.049h.073zm4.494 8.254h-.025.025zm9.89 7.057h.024-.024zm28.887-3.395h.049c-.025 0-.049.025-.074.025h-.024c.024 0 .024-.024.049-.024zM11.83 5.77h.049-.049zM5.58 46.23c-.024 0-.024-.024 0-.024 0 0 .049-.025.073-.025h.049c-.049.025-.073.05-.122.05.024.024.024.024 0 0zm2.002.44c-.024 0-.073 0-.097.024 0-.024.024-.024.097-.024zm11.233 9.596h-.049c0-.024.024-.024.049 0-.024-.024 0-.024 0 0zM18.35 2.839c-.024 0-.049 0-.049-.024l.049.024zM8.167 6.745c-.024.025-.049.049-.073.049 0-.024.024-.049.073-.049zm5.3 46.567h.048c0 .024.024.024.049.049-.049-.025-.073-.05-.098-.05zm5.2 3.028c.025 0 .122-.025.196-.025.073.074.146.147.22.196a1.879 1.879 0 00-.367-.05c-.268-.048-.122-.097-.049-.121zm12.063.024c-.024-.024 0-.049 0-.073.025.024.025.049 0 .073zm9.01-2.881l-.048-.098c.024-.024.049-.073.073-.098 0 .074 0 .171-.024.196z" fill="#40C0A6"/><path d="M36.027 25.583c0 .794-1.186.794-1.186 0 0-1.423-.492-2.199-1.303-2.199h-3.372c-.794 0-1.245.711-1.268 2.199v2.198h4.634c1.546-.018 2.495 2.216 2.495 4.889 0 1.801-1.032 3.384-2.495 3.384h-3.366c-1.446 0-2.454-1.606-2.454-3.384v-7.087c.018-1.843 1.032-3.384 2.454-3.384h3.366c1.481 0 2.495 1.6 2.495 3.384zm-7.13 3.383v3.704c0 1.422.493 2.199 1.269 2.199h3.366c.83 0 1.303-.753 1.303-2.199 0-2.436-.557-3.722-1.285-3.704h-4.652z" fill="#41C0A5"/><path d="M31.884 15.805c1.778 0 3.497.35 5.12 1.03a13.163 13.163 0 014.184 2.822 13.096 13.096 0 013.852 9.303c0 1.778-.35 3.497-1.031 5.12a13.162 13.162 0 01-2.82 4.184 13.098 13.098 0 01-9.305 3.852 13.16 13.16 0 01-5.12-1.031 13.162 13.162 0 01-4.183-2.82 13.097 13.097 0 01-3.852-9.305c0-1.777.35-3.496 1.03-5.12a13.162 13.162 0 012.822-4.183 13.097 13.097 0 019.303-3.852zm0-1.185c-7.923 0-14.34 6.417-14.34 14.34s6.417 14.341 14.34 14.341 14.341-6.418 14.341-14.34c0-7.924-6.424-14.341-14.34-14.341z" fill="#41C0A5"/><path d="M31.884 18.074c2.91 0 5.642 1.132 7.698 3.188a10.811 10.811 0 013.188 7.698c0 2.91-1.132 5.642-3.188 7.698a10.811 10.811 0 01-7.698 3.188 10.81 10.81 0 01-7.698-3.188 10.821 10.821 0 01-3.188-7.698c0-2.903 1.132-5.641 3.188-7.698a10.811 10.811 0 017.698-3.188zm0-1.185c-6.666 0-12.071 5.405-12.071 12.071 0 6.667 5.405 12.072 12.071 12.072 6.667 0 12.072-5.405 12.072-12.072 0-6.666-5.405-12.07-12.072-12.07z" fill="#41C0A5"/></svg>