<svg width="61" height="59" fill="none" xmlns="http://www.w3.org/2000/svg"><path opacity=".1" d="M60.508 34.806c.048-.318 0-.684.024-1.002a.505.505 0 010-.269c.049-.318 0-.66-.049-1.002-.024-.024-.024-.049-.048-.073-.073-1.71-.268-3.397-.39-5.083-.024-.098-.048-.196-.048-.294 0-.024 0-.097.024-.146-.024-.318-.024-.562.049-.758-.024-.415-.073-.806.024-1.124v-.636c.025 0 .049-.024.073-.048 0-.196 0-.342.049-.416a8.516 8.516 0 00-.243-1.686c-.122-.098-.195-.318-.243-.733-.195-.66-.414-1.271-.56-2.15-.024-.025-.024-.05-.048-.074-.025-.245-.049-.489 0-.709a3.622 3.622 0 00-.025-1.442l.025.025a20.92 20.92 0 01-.22-3.03c.05-.22.025-.563.025-.856l-.024-.098v-.098c-.024-.757-.122-1.54-.073-2.248.049-.17.024-.489.049-.708.073-.905-.073-1.589-.292-2.249-.025.098-.025.196-.049.293 0-.073 0-.146-.024-.22-.025-.122-.025-.22-.025-.342-.097-.244-.145-.635-.194-1.002-.049-.122-.073-.22-.122-.342-.218-.195-.34-.709-.389-1.466-.121-.342-.243-.66-.364-1.002-.073-.025-.146-.147-.22-.391-.048.024-.096-.073-.145-.269-.073 0-.146-.049-.219-.342-.073-.049-.146-.171-.219-.416-.048 0-.097.05-.146 0-.34-.293-.68-.415-1.02-.88h-.876c-.195-.317-.39-.195-.56-.17-.121 0-.243.097-.364-.22-.025.122-.025.22-.049.342-.316-.122-.632-.073-.924.024h-.097c-.316-.073.049-.293-.438-.342-.267-.147-.972-.073-1.41-.147A1.96 1.96 0 0050.32.96h.024c-.365-.051-.804-.1-1.094-.197-.195-.024-.17-.122-.414-.147h.025c-.22-.048-.56 0-.803 0-.073.025-.17.025-.243.025-.194-.025-.51.024-.73 0a1.862 1.862 0 00-.413-.049h.025a120.3 120.3 0 00-1.775-.22c-.122-.024-.243-.024-.39-.049-.267-.073-.607-.195-.996-.122-1.702.342-2.65-.024-4.037.049-.34 0-.632-.025-.924.049-.121-.122-.219-.147-.316 0a9.495 9.495 0 01-.462-.074c-.85-.244-1.92-.342-3.477-.024a21.5 21.5 0 01-2.869.318c-.584.024-1.119.073-1.654.195-.607.074-1.24.122-1.847.196-.56.049-1.119.17-1.654.122l-.608.073c-.024.05-.121.098-.291.122 0 .025-.025.05-.073.098-.681.098-1.338.171-2.043.245-.438.024-.9.097-1.337.17-.22.123-.56.147-.9.196-.219.025-.413.049-.56.122-.218.025-.413.074-.631.098 0 .025-.025.049-.025.098-.194.024-.389.073-.559.098-.024.024-.024.048-.049.073h-.024c-.122 0-.219.024-.34.024 0 .025 0 .05-.025.098-.097.025-.218.025-.316.049v.098c-.17.024-.291.073-.34.122-.292.024-.535.073-.681.171-.365.049-.73.098-.973.22-.753.098-1.288.318-2.018.44-.608.146-.9.366-1.604.489-.146.097-.39.122-.657.17-.049.05-.17.098-.34.123-.195.17-.851.293-.997.489-.098.024-.195.024-.292.049-.097.17-.535.293-.973.39-.048.05-.146.098-.316.123v.097c-.097.025-.219.025-.316.05-.024.048-.146.097-.316.122-.024.048-.097.097-.268.146-.024.025-.024.05-.072.098-.122 0-.22.024-.317.049-.048.049-.145.098-.34.122-.195.122-.413.244-.608.367-.024.122-.243.244-.608.366-.024.073-.097.147-.34.22 0 .025.024.073.024.098-.097.024-.17.024-.267.049-.049.073-.098.146-.414.22-.097.073-.316.146-.583.195-.049.074-.146.147-.365.22 0 .098.097.22-.292.318-.024.049-.146.098-.316.122a1.683 1.683 0 01-.316.122c-.024.05-.122.098-.292.147-.024.073-.121.146-.34.22 0 .073-.049.146-.316.22.024.097.073.195-.268.317a.26.26 0 01-.024.294h-.024a2.512 2.512 0 00-.56.244c-.218.073-.194.147 0 .196.17-.025.17 0 .049.049l-.024.024a.895.895 0 01-.268.122c-.194.073-.121.147-.292.22-.316.122-.048.22-.267.318-.438.195.073.317-.243.513-.243.073-.195.147-.292.22-.486.195.097.318-.267.513h.024c-.316.147-.243.269.049.367.145.195.753.317.51.562v.024c.268.073.049.22.414.269.097.024.17.049.243.098l.778 2.957c-.122.049-.243.098-.292.146-.438.196.097.318-.267.514h.024c-.146.049-.146.073 0 .097h.048l-.024.05c.243.146.316.317.097.512h.025c-.243.098-.243.147.024.172h-.024c.073.024.17.024.291.024.025.122.122.244-.194.367.049.146.073.293.122.44.097.024.267.048.291.073.073.293.146.562.195.855 0 .049-.146.122-.243.196-.122.195.146.39-.195.61l.073.367h.268c.073.171.145.367.218.538.317.024.292.122.049.22.024.098.024.17.049.269.243.049.267.122.024.195.024.147.073.293.097.465.34.073.365.146.049.293.049.146.073.317.438.44.073 0 .145.024.194.024a4.708 4.708 0 00-.34.147c.194.366-.049.806.462 1.148.486.171-.025.465.486.636l.049.024-.025.025c.268.048.049.22.39.268-.05.123-.098.27-.195.391-.122.147-.195.318-.049.49.049.22 0 .415-.146.61-.097.122-.048.245.146.391h-.219c-.121.367-.267.733-.389 1.1-.024.049.025.098.049.146-.365.098-.17.27-.243.416-.073.122-.122.244-.195.391-.048.073 0 .171-.243.244 0 .294 0 .611-.389.88-.122.073-.097.171-.146.269-.048.098-.024.196-.17.293-.17.098-.243.22.073.342.365.147.267.27.219.391-.073.171-.268.342-.243.538 0 .171-.244.318-.34.489-.025.049 0 .098 0 .146.218.05.194.098-.05.098-.024.074-.17.122.025.196.389.17.438.317.048.44-.17.048-.145.122-.048.195.097.073.316.171.267.22-.146.22.365.489.195.709-.097.122-.049.244-.39.342-.145.024-.072.098-.048.171.243.049.414.122.438.195.024.22.024.416.048.636 0 .098-.097.171-.291.244-.268.098-.243.098.267.27.049.146.097.268-.121.366-.049.024-.098.073-.049.097.365.171.122.294 0 .44-.073.074-.17.196.146.294.365.122.316.22.316.317v.44c0 .05 0 .098-.049.147-.121.098-.437.195-.389.293.049.098.22.22.316.318.122.146 0 .244-.121.342-.146.098-.414.195-.025.366.073.025.073.074-.024.098-.146.025-.219.098-.121.147.413.293.267.538-.025.758.146.048.243.122.22.17-.098.367.096.734.17 1.125.024.146.194.317-.074.44-.073.024-.073.097.025.146.486.245.34.465.389.684.024.074-.025.147.024.22.024.074.024.147-.122.196-.34.122-.34.269.195.44.097.024.146.073.146.098-.024.22.243.488.121.708-.048.074.22.098.438.123l.146.146c-.51.025-.292.22-.656.269-.025 0 .024.049.072.073.414.098.317.22.487.318.048.024.219.024.34.049-.17.269-.17.342 0 .489.17.146.39.17.924.122.365-.025.34.098.535.146.097.123.195.245.268.367l-.073.073c.048.025.073.025.048.05.049.024.122.048.22.072v.05c.17.048.218.097.218.17.024.098.049.172.097.27.073-.025.219-.025.219-.074.049-.147.073-.269-.243-.416-.024-.146.073-.293-.268-.464 0-.049-.024-.098-.024-.122.073-.073.17-.122.243-.195.073 0 .17.024.243.024.098.22.292.464.584.684-.024.05 0 .122.219.171.024.025.073.098.097.098.243.024.146-.049.146-.073.049-.074.049-.147-.024-.22.048-.074.024-.147-.17-.245v-.488c.17.024.316-.074.51.024 0 .025 0 .049.024.073.025.05.122.074.268.074.073 0 .146 0 .17-.025.097-.073.049-.146-.17-.244-.097-.147.194-.22.243-.318.073 0 .146 0 .194.025.05.073.05.146.292.244 0 .098.049.196.243.293.146.562.025 1.1.05 1.662-.341.587-.244 1.198-.366 1.809 0 .048.049.122.073.17-.17.294-.146.612 0 .93a.297.297 0 00.025.366c-.049.17.048.342.291.538 0 .097-.024.195-.024.293.049.024.049.049.024.049.073.024.146.024.22.024v.025c.024.097.024.195.048.268.073 0 .121.025.194.025.025.098.049.195.098.269.583.122.73.122.753-.025.025-.098.025-.195-.243-.293l.025-.025-.025-.048c.025-.074.025-.147.049-.196.024 0 .049-.024.097-.024.438-.05.632 0 .657.122.024.098-.073.17.243.269 0 .049 0 .097.024.146.073.196.146.22.973.294.413-.05.9 0 1.361.073.316.049.56.073.827.049.146-.025.219.049.292.073.219.073.365.073.438 0 .097-.098.218-.196.316-.318.413.025.632.098.68.22.05.171.098.342.146.489.025.049.122.122.17.171-.048.025-.048.025.025.049 0 .22.219.464.486.684 0 .025.024.05.024.074-.145.244.146.513.535.757-.024.147-.024.318-.048.465-.024.195.194.366.875.513.56.122.632.22.56.366.34.098.194.196.267.294.194.024.389.048.462.122.073.024.17.073.243.098-.073.024-.146.048-.219.048.024.025.049.05.024.05a.454.454 0 01.22.097c.072 0 .145.024.218.024.024.098.073.172.097.27.316.146.706.22 1.192.17.194-.024.389-.049.608-.073.146-.073.34-.049.559.024.219.05.462.074.68.05.025-.074.293-.098.414-.147.073 0 .146 0 .17-.025.073 0 .146.025.195.025.024-.098.073-.171.097-.27a.67.67 0 01.219.025c.024-.049.122-.049.267-.049.025-.048.05-.097.244-.122.024-.073.048-.122.073-.195h.194c0-.05.024-.122.243-.122.025-.074.049-.123.049-.196.146-.049.292-.073.438-.122.024-.049.072-.098.291-.122.073-.074.243-.147.535-.171.316-.147.414-.147.803-.025.535.147.559.171 1.02.098.317-.049.682-.025 1.046-.025 0-.073 0-.17.268-.195 0-.049.073-.049.219-.073.073-.074.073-.147.292-.171.024-.05.048-.074.048-.123.827.098.997-.073 1.24-.195.025-.098.243-.098.51-.098.025-.049.074-.098.268-.122 0-.098.243-.147.535-.171.025-.049.073-.098.243-.122.025-.074.073-.123.122-.196.219.025.438.025.632-.098.049.123.097.123.17.123.025.024.05-.098.073-.123l.025.025.024-.025v.025c0 .146.024.22.073.244.267.465.486-.122.754.245h.024c.049-.074.073-.147.146-.025.365.489.657-.195.997.196v-.025c.073.294.146.27.194.025l.049-.074.049.05c.291.513.535-.172.826.244v-.025c.073.245.146.245.195-.024v.024c.024-.098.073-.098.097-.098 0 .025 0 .05.025.074.486-.074.996-.147 1.483-.196.121-.024.243-.097.389.196h.17c.049-.27.122-.27.219-.05.048 0 .121-.024.17-.024.073-.293.194-.342.316-.073.122-.122.243-.17.39-.098.17.098.315-.024.437-.269v.025a.912.912 0 00.121.391c.292-.122.633.171.9-.342.049-.22.146-.171.219-.049h.049c.534-.416 1.142-.244 1.702-.44.145-.049.34.171.437-.293l.025-.049.024.049c.073-.171.17-.171.243-.293 0 0 0-.025.024-.025.268.171.511.171.73-.195l.024-.05.024.025c.098-.318.268-.049.365-.342.195.024.438.073.608.098.049.244.097.464-.413.733v.269c.218.122.656 0 .997 0 .267.146.194.342.194.537.413.05.292.196.56.27.51-.025.656-.22 1.118-.27.097-.122-.097-.268.316-.415 0-.073 0-.147.316-.22.024-.049.097-.098.268-.147v-.17c.072-.025.097-.05.048-.074l.292-.073v-.171c.097-.025.195-.025.267-.05l-.072-.073c.072-.024.121-.073.121-.097.17-.05.243-.074.195-.147.072-.024.097-.049.072-.073.17-.074.365-.123.535-.196v-.024c.025 0 .05-.025.073-.025.122-.024.22-.073.268-.097l-.024.024c.437-.269.85-.513.924-.782.437-.147.437-.293.632-.464h-.025c.681-.367.754-.733.973-1.1a.617.617 0 00.438-.293l.024-.074.049.025c.17-.44.437.073.583-.489v.024c.122-.415.365.05.462-.44.146-.464.438.123.56-.513l-.122-.049c.024-.097.073-.195.073-.317v-.025c.097-.024.194-.073.292-.097.048-.294.17-.343.267-.416l.073-.366v-.587c.024-.049.049-.098.073-.171.024-.098.049-.22.073-.342.024-.22.121-.171.146-.44.048-.073.073-.22.073-.391.073-.147.121-.391.146-.758.048-.17.146-.122.17-.415.073-.147.121-.391.121-.733l.025-.025c0-.146-.025-.269 0-.39v-.05c0-.122.024-.22.048-.317.049-.245.098-.514.146-.758 0-.342.073-.39.17-.415.05-.343.17-.367.268-.367.049-.342.146-.39.267-.44.049-.342.17-.293.268-.415.024-.123.048-.245.073-.342 0-.196.024-.318.073-.367.024-.147.024-.293.048-.44 0-.293 0-.538.073-.684 0-.196.025-.342.073-.367.025-.293.073-.39.146-.464 0-.196.049-.293.097-.318.025-.293.073-.415.17-.44.025-.268.098-.342.17-.39.025-.294.074-.392.147-.44.024-.098.048-.22.097-.318.049-.562.049-1.271-.024-2.053zM18.612 2.79c-.024.025-.024.025 0 0zM42.88.665c-.024 0-.073.025-.097.025h.024c0-.025.049-.025.073-.025zm15.61 29.547s-.024-.025 0 0c-.024-.025 0-.025 0 0v-.025c0 .024.025.049.025.073-.025-.024-.025-.049-.025-.049 0-.024 0 0 0 0zM20.728 3.181c.024 0 .049-.024.073-.024 0 .025-.024.025-.073.025.024 0 .024 0 0 0zM10.71 6.58c.024 0 .024.025.024.05 0 .048-.048.073-.121.097a.51.51 0 00.097-.147zm44.375 5.67zm-1.532-6.696v-.098c-.024.098-.048.196-.048.294 0-.05.024-.123.024-.172.024 0 .024 0 .024-.024zm0 0c0-.024 0-.073.025-.098v.074c-.025 0-.025 0-.025.024zm-2.431 6.598c0-.049.024-.048.049-.024 0 0-.025 0-.049.024zm2.164-5.034V7.02c.024.025.024.05.049.074-.025.024-.025.024-.049.024zm-.34 26.956c.073.073.121.17.194.293-.048.073-.121-.024-.194-.293zm.583-28.447c0 .05-.024.098-.024.147 0 .024-.024.073-.024.098v-.025c.024-.049.024-.122.048-.195v-.025zm-30.078 47.63s.025 0 0 0c.025 0 0 0 0 0zM8.011 40.794c-.049 0-.121.025-.17.025.049 0 .121 0 .17-.025zm48.485-22.752c.024.024.048.098.048.171a.455.455 0 01-.048-.17zm-1.362-2.42v-.024.025zm-.024-4.08v-.05c-.025.024 0 .024 0 .048zM10.127 9.56c.243-.024.316.024.194.122-.049-.049-.121-.073-.194-.122zm-2.772 2.86h.024c0-.025 0-.025-.024 0zM5.628 38.104c-.024-.024-.024-.024 0 0h.025c-.025-.024-.025-.024-.025 0zm3.429 7.234c-.025 0-.025-.025 0 0 0-.025 0 0 0 0zm13.106 8.382h.024-.024zM3.975 14.766c.048.025.073.074.024.098 0 0-.024 0-.049.024 0-.048 0-.073.025-.122zM6.698 29.21H6.65h.05zm14.443 25.417c.025-.025.049-.074.073-.098.073.024.098.049.049.073-.024 0-.073.025-.122.025zm.22-.416c.023 0 .023.024.048.024h-.073l.024-.024zm37.736-29.546zm-.802-1.418c.024.098.073.196.122.294-.049-.025-.073-.05-.122-.074v-.22zM57.42 12.2zm-.39-.904c-.024-.024-.024-.073-.048-.098.024 0 .024 0 .049-.024v.122zm-2.066-5.645c0 .024 0 .024 0 0 0 .024 0 0 0 0zM17.08 4.356c-.025 0-.073 0-.122.024.049 0 .073-.024.122-.024zM6.187 41.526c.073.025.146.025.17.05-.072-.025-.17-.025-.243-.05h.073zm4.474 8.26h-.024.024zm9.848 7.063h.024-.024zm28.765-3.396h.049c-.025 0-.049.024-.073.024h-.025c.025 0 .025-.024.05-.024zM11.78 5.773h.049-.049zM5.555 46.268c-.024 0-.024-.025 0-.025 0 0 .049-.024.073-.024h.049c-.049.024-.073.048-.122.048.025.025.025.025 0 0zm1.994.44c-.024 0-.073 0-.097.024 0-.025.024-.025.097-.025zm11.185 9.604h-.049c0-.025.025-.025.05 0-.025-.025 0-.025 0 0zM18.272 2.84c-.024 0-.048 0-.048-.024l.048.024zM8.132 6.75c-.024.025-.048.05-.072.05 0-.025.024-.05.073-.05zm5.277 46.605h.049c0 .024.024.024.048.049-.048-.025-.073-.05-.097-.05zm5.18 3.03c.024 0 .12-.024.194-.024.073.073.146.146.219.195-.122-.024-.244-.049-.365-.049-.268-.049-.122-.097-.049-.122zm12.01.025c-.023-.025 0-.05 0-.074.025.025.025.05 0 .074zm8.973-2.884l-.048-.098c.024-.024.048-.073.073-.098 0 .074 0 .171-.025.196z" fill="#40C0A6"/><path d="M34.308 29.114c.723.73 1.156 2.063 1.156 3.55 0 1.801-1.032 3.384-2.495 3.384h-3.36c-1.446 0-2.454-1.606-2.454-3.384 0-1.5.427-2.827 1.138-3.55-.717-.729-1.138-2.032-1.138-3.336.018-1.961 1.008-3.585 2.477-3.585h3.343c1.481 0 2.494 1.7 2.494 3.585 0 1.286-.426 2.596-1.161 3.336zm-5.968-3.336c0 1.7.534 2.75 1.269 2.75h3.366c.77 0 1.303-1.09 1.303-2.75 0-1.564-.492-2.394-1.303-2.394h-3.343c-.794 0-1.268.794-1.292 2.394zm4.635 3.94H29.59c-.735-.017-1.245.949-1.245 2.952 0 1.422.492 2.198 1.269 2.198h3.366c.83 0 1.303-.752 1.303-2.198 0-1.98-.515-2.969-1.286-2.951h-.023z" fill="#41C0A5"/><path d="M31.327 15.805c1.778 0 3.497.35 5.12 1.03a13.163 13.163 0 014.184 2.822 13.097 13.097 0 013.852 9.303c0 1.778-.35 3.497-1.031 5.12a13.162 13.162 0 01-2.821 4.184 13.096 13.096 0 01-9.304 3.852c-1.778 0-3.496-.35-5.12-1.031a13.162 13.162 0 01-4.184-2.82 13.099 13.099 0 01-3.851-9.305c0-1.777.35-3.496 1.03-5.12a13.163 13.163 0 012.821-4.183 13.097 13.097 0 019.304-3.852zm0-1.186c-7.923 0-14.34 6.418-14.34 14.341 0 7.923 6.417 14.341 14.34 14.341s14.341-6.418 14.341-14.34c0-7.924-6.424-14.342-14.34-14.342z" fill="#41C0A5"/><path d="M31.327 18.074c2.91 0 5.642 1.132 7.698 3.188a10.811 10.811 0 013.188 7.698c0 2.91-1.132 5.642-3.188 7.698a10.812 10.812 0 01-7.698 3.188c-2.91 0-5.641-1.132-7.698-3.188a10.821 10.821 0 01-3.188-7.698c0-2.904 1.132-5.641 3.188-7.698a10.812 10.812 0 017.698-3.188zm0-1.185c-6.667 0-12.071 5.405-12.071 12.071 0 6.667 5.404 12.072 12.071 12.072s12.071-5.405 12.071-12.072c0-6.666-5.404-12.071-12.07-12.071z" fill="#41C0A5"/></svg>