<svg width="61" height="59" viewBox="0 0 61 59" fill="none" xmlns="http://www.w3.org/2000/svg">
<path opacity="0.1" d="M60.5077 34.8059C60.5563 34.4882 60.5077 34.1216 60.532 33.8039C60.5077 33.7062 60.5077 33.6329 60.532 33.5351C60.5806 33.2174 60.532 32.8753 60.4834 32.5331C60.4591 32.5087 60.4591 32.4842 60.4347 32.4598C60.3618 30.7491 60.1673 29.0629 60.0457 27.3766C60.0214 27.2788 59.9971 27.1811 59.9971 27.0833C59.9971 27.0589 59.9971 26.9856 60.0214 26.9367C59.9971 26.619 59.9971 26.3746 60.07 26.1791C60.0457 25.7637 59.9971 25.3726 60.0943 25.0549C60.0943 24.835 60.0943 24.6395 60.0943 24.4195C60.1186 24.4195 60.143 24.3951 60.1673 24.3707C60.1673 24.1752 60.1673 24.0285 60.2159 23.9552C60.1916 23.3198 60.0943 22.7822 59.9728 22.269C59.8512 22.1712 59.7782 21.9513 59.7296 21.5358C59.5351 20.876 59.3162 20.265 59.1704 19.3852C59.146 19.3608 59.146 19.3363 59.1217 19.3119C59.0974 19.0675 59.0731 18.8231 59.1217 18.6032C59.1947 18.1877 59.219 17.699 59.0974 17.1613L59.1217 17.1858C58.9758 16.1838 58.9029 15.1818 58.9029 14.1554C58.9515 13.9354 58.9272 13.5933 58.9272 13.3L58.9029 13.2023V13.1045C58.8786 12.3469 58.7813 11.5649 58.8299 10.8562C58.8786 10.6851 58.8543 10.3674 58.8786 10.1475C58.9515 9.24325 58.8056 8.55897 58.5868 7.89913C58.5625 7.99689 58.5625 8.09464 58.5382 8.19239C58.5382 8.11908 58.5382 8.04576 58.5138 7.97245C58.4895 7.85026 58.4895 7.7525 58.4895 7.63031C58.3923 7.38592 58.3436 6.99491 58.295 6.62833C58.2464 6.50614 58.2221 6.40838 58.1734 6.28619C57.9546 6.09068 57.833 5.57748 57.7844 4.81988C57.6628 4.47775 57.5412 4.16004 57.4197 3.81791C57.3467 3.79347 57.2738 3.67128 57.2008 3.42689C57.1522 3.45133 57.1036 3.35357 57.0549 3.15807C56.982 3.15807 56.909 3.10919 56.8361 2.81593C56.7631 2.76705 56.6902 2.64486 56.6173 2.40047C56.5686 2.40047 56.52 2.44935 56.4714 2.40047C56.1309 2.10721 55.7905 1.98502 55.4501 1.52069C55.1583 1.52069 54.8666 1.52069 54.5748 1.52069C54.3802 1.20299 54.1857 1.32518 54.0155 1.34962C53.8939 1.34962 53.7724 1.44737 53.6508 1.12967C53.6265 1.25187 53.6265 1.34962 53.6022 1.47181C53.2861 1.34962 52.97 1.3985 52.6782 1.49625C52.6539 1.49625 52.6052 1.49625 52.5809 1.49625C52.2648 1.42294 52.6296 1.20299 52.1432 1.15411C51.8758 1.00748 51.1706 1.0808 50.733 1.00748C50.6114 0.983043 50.4898 0.958604 50.3196 0.958604H50.3439C49.9792 0.909727 49.5415 0.86085 49.2497 0.763096C49.0552 0.738658 49.0795 0.640904 48.8364 0.616466H48.8607C48.6419 0.567589 48.3014 0.616466 48.0583 0.616466C47.9853 0.640904 47.8881 0.640904 47.8151 0.640904C47.6206 0.616466 47.3045 0.665343 47.0857 0.640904C46.9641 0.616466 46.8425 0.592027 46.6723 0.592027H46.6966C46.1374 0.518712 45.5538 0.445396 44.9216 0.372081C44.8 0.347642 44.6785 0.347642 44.5326 0.323204C44.2651 0.249888 43.9247 0.127696 43.5357 0.201011C41.8336 0.54315 40.8853 0.176573 39.4993 0.249888C39.1589 0.249888 38.8671 0.22545 38.5753 0.298765C38.4538 0.176573 38.3565 0.152134 38.2592 0.298765C38.089 0.274327 37.9188 0.249888 37.7973 0.22545C36.9462 -0.0189349 35.8764 -0.116689 34.3202 0.201011C33.4205 0.372081 32.4236 0.469835 31.451 0.518712C30.8674 0.54315 30.3325 0.592027 29.7975 0.714219C29.1897 0.787535 28.5575 0.836412 27.9496 0.909727C27.3903 0.958604 26.8311 1.0808 26.2962 1.03192C26.1016 1.05636 25.8828 1.0808 25.6883 1.10524C25.664 1.15411 25.5667 1.20299 25.3965 1.22743C25.3965 1.25187 25.3722 1.2763 25.3235 1.32518C24.6427 1.42294 23.9862 1.49625 23.2811 1.56957C22.8434 1.594 22.3814 1.66732 21.9437 1.74064C21.7249 1.86283 21.3845 1.88727 21.0441 1.93614C20.8252 1.96058 20.6307 1.98502 20.4848 2.05834C20.266 2.08277 20.0714 2.13165 19.8526 2.15609C19.8526 2.18053 19.8283 2.20497 19.8283 2.25384C19.6338 2.27828 19.4393 2.32716 19.269 2.3516C19.2447 2.37604 19.2447 2.40047 19.2204 2.42491H19.1961C19.0745 2.42491 18.9773 2.44935 18.8557 2.44935C18.8557 2.47379 18.8557 2.49823 18.8314 2.54711C18.7341 2.57154 18.6125 2.57154 18.5153 2.59598C18.5153 2.62042 18.5153 2.64486 18.5153 2.69374C18.3451 2.71817 18.2235 2.76705 18.1749 2.81593C17.8831 2.84037 17.6399 2.88924 17.494 2.987C17.1293 3.03587 16.7646 3.08475 16.5214 3.20694C15.7677 3.3047 15.2327 3.52464 14.5033 3.64684C13.8954 3.79347 13.6036 4.01341 12.8985 4.13561C12.7526 4.23336 12.5094 4.2578 12.2419 4.30668C12.1933 4.35555 12.0717 4.40443 11.9015 4.42887C11.707 4.59994 11.0505 4.72213 10.9046 4.91764C10.8073 4.94208 10.7101 4.94208 10.6128 4.96652C10.5156 5.13758 10.0779 5.25978 9.64021 5.35753C9.59158 5.40641 9.49432 5.45528 9.32411 5.47972C9.32411 5.50416 9.32411 5.5286 9.32411 5.57748C9.22685 5.60192 9.10528 5.60191 9.00802 5.62635C8.9837 5.67523 8.86212 5.72411 8.69192 5.74855C8.6676 5.79742 8.59466 5.8463 8.42445 5.89518C8.40014 5.91962 8.40014 5.94405 8.3515 5.99293C8.22993 5.99293 8.13267 6.01737 8.03541 6.04181C7.98678 6.09068 7.88951 6.13956 7.69499 6.164C7.50047 6.28619 7.28163 6.40838 7.08711 6.53058C7.0628 6.65277 6.84396 6.77496 6.47923 6.89715C6.45492 6.97047 6.38197 7.04379 6.13882 7.1171C6.13882 7.14154 6.16313 7.19042 6.16313 7.21485C6.06587 7.23929 5.99293 7.23929 5.89567 7.26373C5.84703 7.33705 5.7984 7.41036 5.48231 7.48368C5.38505 7.55699 5.16621 7.63031 4.89874 7.67919C4.85011 7.7525 4.75285 7.82582 4.53401 7.89913C4.53401 7.99689 4.63127 8.11908 4.24223 8.21683C4.21791 8.26571 4.09634 8.31459 3.92613 8.33902C3.82887 8.3879 3.70729 8.43678 3.61003 8.46122C3.58572 8.51009 3.48846 8.55897 3.31825 8.60785C3.29393 8.68116 3.19667 8.75448 2.97784 8.82779C2.97784 8.90111 2.92921 8.97442 2.66174 9.04774C2.68605 9.14549 2.73468 9.24325 2.39427 9.36544C2.4429 9.46319 2.4429 9.56095 2.36996 9.6587C2.36996 9.6587 2.36996 9.6587 2.34564 9.6587C2.10249 9.73202 1.90797 9.82977 1.78639 9.90309C1.56755 9.9764 1.59187 10.0497 1.78639 10.0986C1.9566 10.0742 1.9566 10.0986 1.83502 10.1475L1.8107 10.1719C1.73776 10.2208 1.6405 10.2697 1.54324 10.2941C1.34872 10.3674 1.42166 10.4407 1.25145 10.514C0.935356 10.6362 1.20282 10.734 0.983986 10.8317C0.546312 11.0273 1.05693 11.1494 0.740834 11.345C0.497682 11.4183 0.546312 11.4916 0.449051 11.5649C-0.0372536 11.7604 0.546312 11.8826 0.181584 12.0781H0.205899C-0.110199 12.2247 -0.0372536 12.3469 0.254529 12.4447C0.400421 12.6402 1.0083 12.7624 0.765149 13.0068V13.0312C1.03262 13.1045 0.81378 13.2512 1.17851 13.3C1.27577 13.3245 1.34872 13.3489 1.42166 13.3978L2.19975 16.3548C2.07817 16.4037 1.9566 16.4526 1.90797 16.5015C1.47029 16.697 2.00523 16.8192 1.6405 17.0147H1.66481C1.51892 17.0636 1.51892 17.088 1.66481 17.1124H1.71344L1.68913 17.1613C1.93228 17.3079 2.00523 17.479 1.78639 17.6745H1.8107C1.56755 17.7723 1.56755 17.8212 1.83502 17.8456H1.8107C1.88365 17.87 1.98091 17.87 2.10249 17.87C2.1268 17.9922 2.22406 18.1144 1.90797 18.2366C1.9566 18.3832 1.98091 18.5299 2.02954 18.6765C2.1268 18.7009 2.29701 18.7254 2.32132 18.7498C2.39427 19.0431 2.46722 19.3119 2.51585 19.6052C2.51585 19.654 2.36996 19.7274 2.27269 19.8007C2.15112 19.9962 2.41859 20.1917 2.07817 20.4116C2.10249 20.5338 2.1268 20.656 2.15112 20.7782C2.24838 20.7782 2.32132 20.7782 2.41859 20.7782C2.49153 20.9493 2.56448 21.1448 2.63742 21.3159C2.95352 21.3403 2.92921 21.438 2.68605 21.5358C2.71037 21.6336 2.71037 21.7069 2.73468 21.8046C2.97784 21.8535 3.00215 21.9268 2.759 22.0001C2.78331 22.1468 2.83194 22.2934 2.85626 22.4645C3.19667 22.5378 3.22099 22.6111 2.90489 22.7577C2.95352 22.9044 2.97784 23.0754 3.34256 23.1976C3.41551 23.1976 3.48846 23.2221 3.53709 23.2221C3.41551 23.2709 3.29393 23.3198 3.19667 23.3687C3.3912 23.7353 3.14804 24.1752 3.65866 24.5173C4.14497 24.6884 3.63435 24.9816 4.14497 25.1527L4.1936 25.1771L4.16928 25.2016C4.43675 25.2505 4.21791 25.4215 4.55833 25.4704C4.5097 25.5926 4.46107 25.7392 4.3638 25.8614C4.24223 26.008 4.16928 26.1791 4.31517 26.3502C4.3638 26.5701 4.31517 26.7656 4.16928 26.9611C4.07202 27.0833 4.12065 27.2055 4.31517 27.3522C4.24223 27.3522 4.16928 27.3522 4.09634 27.3522C3.97476 27.7187 3.82887 28.0853 3.70729 28.4519C3.68298 28.5008 3.73161 28.5496 3.75592 28.5985C3.3912 28.6963 3.58572 28.8673 3.51277 29.014C3.43983 29.1362 3.3912 29.2584 3.31825 29.405C3.26962 29.4783 3.31825 29.5761 3.0751 29.6494C3.0751 29.9426 3.0751 30.2603 2.68605 30.5292C2.56448 30.6025 2.58879 30.7002 2.54016 30.798C2.49153 30.8957 2.51585 30.9935 2.36996 31.0912C2.19975 31.189 2.1268 31.3112 2.4429 31.4334C2.80763 31.58 2.71037 31.7022 2.66174 31.8244C2.58879 31.9955 2.39427 32.1665 2.41859 32.362C2.41859 32.5331 2.17543 32.6797 2.07817 32.8508C2.05386 32.8997 2.07817 32.9486 2.07817 32.9974C2.29701 33.0463 2.27269 33.0952 2.02954 33.0952C2.00523 33.1685 1.85933 33.2174 2.05386 33.2907C2.4429 33.4618 2.49153 33.6084 2.10249 33.7306C1.93228 33.7795 1.9566 33.8528 2.05386 33.9261C2.15112 33.9994 2.36996 34.0972 2.32132 34.1461C2.17543 34.366 2.68605 34.6348 2.51585 34.8548C2.41859 34.977 2.46722 35.0992 2.1268 35.1969C1.98091 35.2214 2.05386 35.2947 2.07817 35.368C2.32132 35.4169 2.49153 35.4902 2.51585 35.5635C2.54016 35.7834 2.54016 35.9789 2.56448 36.1989C2.56448 36.2966 2.46722 36.37 2.27269 36.4433C2.00523 36.541 2.02954 36.541 2.54016 36.7121C2.58879 36.8587 2.63742 36.9809 2.41859 37.0787C2.36996 37.1031 2.32132 37.152 2.36996 37.1764C2.73468 37.3475 2.49153 37.4697 2.36996 37.6163C2.29701 37.6896 2.19975 37.8118 2.51585 37.9096C2.88058 38.0318 2.83194 38.1295 2.83194 38.2273C2.83194 38.3739 2.83194 38.5205 2.83194 38.6672C2.83194 38.7161 2.83194 38.7649 2.78331 38.8138C2.66174 38.9116 2.34564 39.0093 2.39427 39.1071C2.4429 39.2048 2.61311 39.327 2.71037 39.4248C2.83194 39.5714 2.71037 39.6692 2.58879 39.7669C2.4429 39.8647 2.17543 39.9624 2.56448 40.1335C2.63742 40.1579 2.63742 40.2068 2.54016 40.2312C2.39427 40.2557 2.32132 40.329 2.41859 40.3779C2.83194 40.6711 2.68605 40.9155 2.39427 41.1355C2.54016 41.1843 2.63742 41.2577 2.61311 41.3065C2.51585 41.6731 2.71037 42.0397 2.78331 42.4307C2.80763 42.5773 2.97784 42.7484 2.71037 42.8706C2.63742 42.895 2.63742 42.9683 2.73468 43.0172C3.22099 43.2616 3.0751 43.4816 3.12373 43.7015C3.14804 43.7748 3.09941 43.8481 3.14804 43.9214C3.17236 43.9948 3.17236 44.0681 3.02647 44.117C2.68605 44.2392 2.68605 44.3858 3.22099 44.5569C3.31825 44.5813 3.36688 44.6302 3.36688 44.6546C3.34256 44.8745 3.61003 45.1434 3.48846 45.3633C3.43983 45.4366 3.70729 45.4611 3.92613 45.4855C3.97476 45.5344 4.02339 45.5833 4.07202 45.6321C3.5614 45.6566 3.78024 45.8521 3.41551 45.901C3.3912 45.901 3.43983 45.9498 3.48846 45.9743C3.90182 46.072 3.80455 46.1942 3.97476 46.292C4.02339 46.3164 4.1936 46.3164 4.31517 46.3409C4.14497 46.6097 4.14497 46.683 4.31517 46.8296C4.48538 46.9763 4.70422 47.0007 5.23915 46.9518C5.60388 46.9274 5.57957 47.0496 5.77409 47.0984C5.87135 47.2206 5.96861 47.3428 6.04156 47.465C6.01724 47.4895 5.99293 47.5139 5.96861 47.5383C6.01724 47.5628 6.04156 47.5628 6.01724 47.5872C6.06587 47.6117 6.13882 47.6361 6.23608 47.6605C6.23608 47.685 6.23608 47.685 6.23608 47.7094C6.40628 47.7583 6.45492 47.8072 6.45492 47.8805C6.47923 47.9782 6.50355 48.0516 6.55218 48.1493C6.62512 48.1249 6.77101 48.1249 6.77101 48.076C6.81964 47.9294 6.84396 47.8072 6.52786 47.6605C6.50355 47.5139 6.60081 47.3673 6.26039 47.1962C6.26039 47.1473 6.23608 47.0984 6.23608 47.074C6.30902 47.0007 6.40628 46.9518 6.47923 46.8785C6.55218 46.8785 6.64944 46.9029 6.72238 46.9029C6.81964 47.1229 7.01417 47.3673 7.30595 47.5872C7.28163 47.6361 7.30595 47.7094 7.52479 47.7583C7.5491 47.7827 7.59773 47.856 7.62205 47.856C7.8652 47.8805 7.76794 47.8072 7.76794 47.7827C7.81657 47.7094 7.81657 47.6361 7.74362 47.5628C7.79225 47.4895 7.76794 47.4161 7.57342 47.3184C7.57342 47.1473 7.57342 47.0007 7.57342 46.8296C7.74362 46.8541 7.88951 46.7563 8.08404 46.8541C8.08404 46.8785 8.08404 46.9029 8.10835 46.9274C8.13267 46.9763 8.22993 47.0007 8.37582 47.0007C8.44877 47.0007 8.52171 47.0007 8.54603 46.9763C8.64329 46.9029 8.59466 46.8296 8.37582 46.7319C8.27856 46.5852 8.57034 46.5119 8.61897 46.4142C8.69192 46.4142 8.76486 46.4142 8.81349 46.4386C8.86212 46.5119 8.86212 46.5852 9.10528 46.683C9.10528 46.7808 9.15391 46.8785 9.34843 46.9763C9.49432 47.5383 9.37274 48.076 9.39706 48.6381C9.05665 49.2246 9.15391 49.8356 9.03233 50.4465C9.03233 50.4954 9.08096 50.5687 9.10528 50.6176C8.93507 50.9109 8.95939 51.2286 9.10528 51.5463C9.03233 51.6684 9.03233 51.7906 9.12959 51.9128C9.08096 52.0839 9.17822 52.255 9.42138 52.4505C9.42138 52.5482 9.39706 52.646 9.39706 52.7437C9.44569 52.7682 9.44569 52.7926 9.42138 52.7926C9.49432 52.8171 9.56727 52.8171 9.64021 52.8171V52.8415C9.66453 52.9392 9.66453 53.037 9.68884 53.1103C9.76179 53.1103 9.81042 53.1348 9.88336 53.1348C9.90768 53.2325 9.932 53.3303 9.98063 53.4036C10.5642 53.5258 10.7101 53.5258 10.7344 53.3791C10.7587 53.2814 10.7587 53.1836 10.4912 53.0859L10.5156 53.0614L10.4912 53.0126C10.5156 52.9392 10.5156 52.8659 10.5399 52.8171C10.5642 52.8171 10.5885 52.7926 10.6371 52.7926C11.0748 52.7437 11.2693 52.7926 11.2936 52.9148C11.318 53.0126 11.2207 53.0859 11.5368 53.1836C11.5368 53.2325 11.5368 53.2814 11.5611 53.3303C11.6341 53.5258 11.707 53.5502 12.5337 53.6235C12.9471 53.5746 13.4334 53.6235 13.8954 53.6968C14.2115 53.7457 14.4546 53.7702 14.7221 53.7457C14.868 53.7213 14.9409 53.7946 15.0139 53.819C15.2327 53.8923 15.3786 53.8923 15.4516 53.819C15.5488 53.7213 15.6704 53.6235 15.7677 53.5013C16.181 53.5258 16.3998 53.5991 16.4485 53.7213C16.4971 53.8923 16.5457 54.0634 16.5944 54.21C16.6187 54.2589 16.7159 54.3322 16.7646 54.3811C16.7159 54.4056 16.7159 54.4056 16.7889 54.43C16.7889 54.6499 17.0077 54.8943 17.2752 55.1143C17.2752 55.1387 17.2995 55.1632 17.2995 55.1876C17.1536 55.432 17.4454 55.7008 17.8344 55.9452C17.8101 56.0918 17.8101 56.2629 17.7858 56.4095C17.7615 56.605 17.9803 56.7761 18.6612 56.9227C19.2204 57.0449 19.2934 57.1427 19.2204 57.2893C19.5608 57.3871 19.4149 57.4848 19.4879 57.5826C19.6824 57.607 19.8769 57.6314 19.9499 57.7048C20.0228 57.7292 20.1201 57.7781 20.193 57.8025C20.1201 57.8269 20.0471 57.8514 19.9742 57.8514C19.9985 57.8758 20.0228 57.9003 19.9985 57.9003C20.1201 57.9247 20.193 57.9736 20.2173 57.998C20.2903 57.998 20.3632 58.0224 20.4362 58.0224C20.4605 58.1202 20.5091 58.1935 20.5334 58.2913C20.8495 58.4379 21.2386 58.5112 21.7249 58.4623C21.9194 58.4379 22.1139 58.4135 22.3328 58.389C22.4787 58.3157 22.6732 58.3402 22.892 58.4135C23.1109 58.4623 23.354 58.4868 23.5728 58.4623C23.5972 58.389 23.8646 58.3646 23.9862 58.3157C24.0591 58.3157 24.1321 58.3157 24.1564 58.2913C24.2294 58.2913 24.3023 58.3157 24.3509 58.3157C24.3752 58.218 24.4239 58.1446 24.4482 58.0469C24.5211 58.0469 24.5941 58.0469 24.667 58.0713C24.6913 58.0224 24.7886 58.0224 24.9345 58.0224C24.9588 57.9736 24.9831 57.9247 25.1777 57.9003C25.202 57.8269 25.2263 57.7781 25.2506 57.7048C25.3235 57.7048 25.3722 57.7048 25.4451 57.7048C25.4451 57.6559 25.4694 57.5826 25.6883 57.5826C25.7126 57.5092 25.7369 57.4604 25.7369 57.3871C25.8828 57.3382 26.0287 57.3137 26.1746 57.2649C26.1989 57.216 26.2475 57.1671 26.4664 57.1427C26.5393 57.0694 26.7095 56.996 27.0013 56.9716C27.3174 56.825 27.4147 56.825 27.8037 56.9472C28.3386 57.0938 28.3629 57.1182 28.8249 57.0449C29.141 56.996 29.5058 57.0205 29.8705 57.0205C29.8705 56.9472 29.8705 56.8494 30.138 56.825C30.138 56.7761 30.2109 56.7761 30.3568 56.7516C30.4297 56.6783 30.4297 56.605 30.6486 56.5806C30.6729 56.5317 30.6972 56.5073 30.6972 56.4584C31.5239 56.5561 31.6941 56.3851 31.9373 56.2629C31.9616 56.1651 32.1804 56.1651 32.4479 56.1651C32.4722 56.1162 32.5209 56.0674 32.7154 56.0429C32.7154 55.9452 32.9585 55.8963 33.2503 55.8719C33.2746 55.823 33.3233 55.7741 33.4935 55.7497C33.5178 55.6764 33.5664 55.6275 33.615 55.5542C33.8339 55.5786 34.0527 55.5786 34.2472 55.4564C34.2959 55.5786 34.3445 55.5786 34.4174 55.5786C34.4418 55.603 34.4661 55.4808 34.4904 55.4564L34.5147 55.4809L34.539 55.4564C34.539 55.4564 34.539 55.4564 34.539 55.4809C34.539 55.6275 34.5633 55.7008 34.612 55.7252C34.8794 56.1896 35.0983 55.603 35.3657 55.9696H35.39C35.4387 55.8963 35.463 55.823 35.5359 55.9452C35.9007 56.4339 36.1925 55.7497 36.5329 56.1407V56.1162C36.6058 56.4095 36.6788 56.3851 36.7274 56.1407L36.776 56.0674L36.8246 56.1162C37.1164 56.6295 37.3596 55.9452 37.6514 56.3606V56.3362C37.7243 56.5806 37.7973 56.5806 37.8459 56.3118V56.3362C37.8702 56.2384 37.9188 56.2384 37.9431 56.2384C37.9431 56.2629 37.9431 56.2873 37.9675 56.3118C38.4538 56.2384 38.9644 56.1651 39.4507 56.1162C39.5723 56.0918 39.6938 56.0185 39.8397 56.3118C39.8884 56.3118 39.9613 56.3118 40.0099 56.3118C40.0586 56.0429 40.1315 56.0429 40.2288 56.2629C40.2774 56.2629 40.3504 56.2384 40.399 56.2384C40.4719 55.9452 40.5935 55.8963 40.7151 56.1651C40.8367 56.0429 40.9582 55.9941 41.1041 56.0674C41.2743 56.1651 41.4202 56.0429 41.5418 55.7985V55.823C41.5661 56.0185 41.6147 56.1407 41.6634 56.214C41.9552 56.0918 42.2956 56.3851 42.563 55.8719C42.6117 55.6519 42.7089 55.7008 42.7819 55.823H42.8305C43.3654 55.4075 43.9733 55.5786 44.5326 55.3831C44.6785 55.3342 44.873 55.5542 44.9703 55.0898L44.9946 55.041L45.0189 55.0898C45.0918 54.9188 45.1891 54.9188 45.262 54.7966C45.262 54.7966 45.262 54.7721 45.2864 54.7721C45.5538 54.9432 45.797 54.9432 46.0158 54.5766L46.0401 54.5277L46.0644 54.5522C46.1617 54.2345 46.3319 54.5033 46.4292 54.21C46.6237 54.2345 46.8668 54.2834 47.037 54.3078C47.0857 54.5522 47.1343 54.7721 46.6237 55.041C46.6237 55.1387 46.6237 55.212 46.6237 55.3098C46.8425 55.432 47.2802 55.3098 47.6206 55.3098C47.8881 55.4564 47.8151 55.6519 47.8151 55.8474C48.2285 55.8963 48.1069 56.0429 48.3744 56.1162C48.885 56.0918 49.0309 55.8963 49.4929 55.8474C49.5901 55.7252 49.3956 55.5786 49.809 55.432C49.809 55.3587 49.809 55.2853 50.1251 55.212C50.1494 55.1631 50.2223 55.1143 50.3926 55.0654C50.3926 55.0165 50.3926 54.9432 50.3926 54.8943C50.4655 54.8699 50.4898 54.8455 50.4412 54.821C50.5384 54.7966 50.6357 54.7721 50.733 54.7477C50.733 54.6988 50.733 54.6255 50.733 54.5766C50.8302 54.5522 50.9275 54.5522 51.0004 54.5277C50.9761 54.5033 50.9518 54.4789 50.9275 54.4544C51.0004 54.43 51.0491 54.3811 51.0491 54.3567C51.2193 54.3078 51.2922 54.2834 51.2436 54.21C51.3165 54.1856 51.3408 54.1612 51.3165 54.1367C51.4867 54.0634 51.6813 54.0145 51.8515 53.9412C51.8515 53.9412 51.8515 53.9412 51.8515 53.9168C51.8758 53.9168 51.9001 53.8923 51.9244 53.8923C52.046 53.8679 52.1432 53.819 52.1919 53.7946L52.1676 53.819C52.6052 53.5502 53.0186 53.3058 53.0915 53.037C53.5292 52.8904 53.5292 52.7437 53.7237 52.5727H53.6994C54.3803 52.2061 54.4532 51.8395 54.672 51.4729C54.8179 51.4485 54.9881 51.3752 55.1097 51.1797L55.134 51.1064L55.1827 51.1308C55.3529 50.6909 55.6203 51.2041 55.7662 50.642V50.6665C55.8878 50.251 56.1309 50.7153 56.2282 50.2266C56.3741 49.7622 56.6659 50.3488 56.7875 49.7134L56.6659 49.6645C56.6902 49.5667 56.7388 49.469 56.7388 49.3468C56.7388 49.3468 56.7388 49.3468 56.7388 49.3224C56.8361 49.2979 56.9333 49.249 57.0306 49.2246C57.0792 48.9313 57.2008 48.8825 57.2981 48.8091C57.3224 48.687 57.3467 48.5648 57.371 48.4426C57.371 48.2471 57.371 48.0516 57.371 47.856C57.3953 47.8072 57.4197 47.7583 57.444 47.685C57.4683 47.5872 57.4926 47.465 57.5169 47.3428C57.5412 47.1229 57.6385 47.1718 57.6628 46.9029C57.7114 46.8296 57.7358 46.683 57.7358 46.5119C57.8087 46.3653 57.8573 46.1209 57.8816 45.7543C57.9303 45.5833 58.0275 45.6321 58.0519 45.3389C58.1248 45.1922 58.1734 44.9479 58.1734 44.6057L58.1977 44.5813C58.1977 44.4347 58.1734 44.3125 58.1977 44.1903C58.1977 44.1658 58.1977 44.1658 58.1977 44.1414C58.1977 44.0192 58.2221 43.9215 58.2464 43.8237C58.295 43.5793 58.3436 43.3105 58.3923 43.0661C58.3923 42.724 58.4652 42.6751 58.5625 42.6507C58.6111 42.3085 58.7327 42.2841 58.8299 42.2841C58.8786 41.9419 58.9758 41.8931 59.0974 41.8442C59.146 41.502 59.2676 41.5509 59.3649 41.4287C59.3892 41.3065 59.4135 41.1843 59.4378 41.0866C59.4378 40.8911 59.4621 40.7689 59.5108 40.72C59.5351 40.5734 59.5351 40.4267 59.5594 40.2801C59.5594 39.9869 59.5594 39.7425 59.6323 39.5958C59.6323 39.4003 59.6567 39.2537 59.7053 39.2293C59.7296 38.936 59.7782 38.8382 59.8512 38.7649C59.8512 38.5694 59.8998 38.4717 59.9484 38.4472C59.9728 38.154 60.0214 38.0318 60.1186 38.0073C60.143 37.7385 60.2159 37.6652 60.2889 37.6163C60.3132 37.3231 60.3618 37.2253 60.4347 37.1764C60.4591 37.0787 60.4834 36.9565 60.532 36.8587C60.5806 36.2966 60.5806 35.5879 60.5077 34.8059ZM18.6125 2.79149C18.5882 2.81593 18.5882 2.81593 18.6125 2.79149V2.79149ZM42.8791 0.665343C42.8548 0.665343 42.8062 0.689781 42.7819 0.689781C42.7819 0.689781 42.7819 0.689781 42.8062 0.689781C42.8062 0.665342 42.8548 0.665343 42.8791 0.665343ZM58.4895 30.2115C58.4895 30.2115 58.4652 30.187 58.4895 30.2115C58.4652 30.187 58.4895 30.187 58.4895 30.2115C58.4895 30.187 58.4895 30.187 58.4895 30.187C58.4895 30.2115 58.5138 30.2359 58.5138 30.2603C58.4895 30.2359 58.4895 30.2115 58.4895 30.2115C58.4895 30.187 58.4895 30.2115 58.4895 30.2115ZM20.728 3.18251C20.7523 3.18251 20.7766 3.15807 20.8009 3.15807C20.8009 3.18251 20.7766 3.18251 20.728 3.18251C20.7523 3.18251 20.7523 3.18251 20.728 3.18251ZM10.7101 6.57945C10.7344 6.57945 10.7344 6.60389 10.7344 6.62833C10.7344 6.67721 10.6858 6.70165 10.6128 6.72609C10.6615 6.67721 10.6858 6.62833 10.7101 6.57945ZM55.0854 12.2492C55.0854 12.2981 55.0854 12.3469 55.0854 12.3958C55.0854 12.3469 55.0854 12.2981 55.0854 12.2492ZM53.5535 5.55304C53.5535 5.5286 53.5535 5.5286 53.5535 5.50416C53.5535 5.47972 53.5535 5.47972 53.5535 5.45528C53.5292 5.55304 53.5049 5.65079 53.5049 5.74855C53.5049 5.69967 53.5292 5.62635 53.5292 5.57748C53.5535 5.57748 53.5535 5.57748 53.5535 5.55304ZM53.5535 5.55304C53.5535 5.5286 53.5535 5.47972 53.5779 5.45528C53.5779 5.45528 53.5779 5.45528 53.5779 5.47972C53.5779 5.50416 53.5779 5.50416 53.5779 5.5286C53.5535 5.5286 53.5535 5.5286 53.5535 5.55304ZM51.122 12.1514C51.122 12.1025 51.1463 12.1026 51.1706 12.127C51.1706 12.127 51.1463 12.127 51.122 12.1514ZM53.2861 7.1171C53.2861 7.09266 53.2861 7.06822 53.2861 7.01935C53.3104 7.04379 53.3104 7.06822 53.3347 7.09266C53.3104 7.1171 53.3104 7.1171 53.2861 7.1171ZM52.9457 34.0727C53.0186 34.1461 53.0672 34.2438 53.1402 34.366C53.0915 34.4393 53.0186 34.3416 52.9457 34.0727ZM53.5292 5.62635C53.5292 5.67523 53.5049 5.72411 53.5049 5.77298C53.5049 5.79742 53.4806 5.8463 53.4806 5.87074C53.4806 5.87074 53.4806 5.87074 53.4806 5.8463C53.5049 5.79742 53.5049 5.72411 53.5292 5.65079C53.5292 5.65079 53.5292 5.65079 53.5292 5.62635ZM23.4513 53.2569C23.4513 53.2569 23.4756 53.2569 23.4513 53.2569C23.4756 53.2569 23.4513 53.2569 23.4513 53.2569ZM8.01109 40.7933C7.96246 40.7933 7.88951 40.8178 7.84088 40.8178C7.88951 40.8178 7.96246 40.8178 8.01109 40.7933ZM56.4957 18.0411C56.52 18.0655 56.5443 18.1389 56.5443 18.2122C56.52 18.1633 56.4957 18.09 56.4957 18.0411ZM55.134 15.6217C55.134 15.5973 55.134 15.5973 55.134 15.5973C55.134 15.6217 55.134 15.6217 55.134 15.6217ZM55.1097 11.5405V11.5649C55.1097 11.5405 55.1097 11.516 55.1097 11.4916C55.0854 11.516 55.1097 11.516 55.1097 11.5405ZM10.1265 9.56095C10.3697 9.53651 10.4426 9.58539 10.321 9.68314C10.2724 9.63426 10.1995 9.60983 10.1265 9.56095ZM7.35458 12.4202H7.37889C7.37889 12.3958 7.37889 12.3958 7.35458 12.4202ZM5.6282 38.1051C5.60388 38.0807 5.60388 38.0807 5.6282 38.1051H5.65251C5.6282 38.0807 5.6282 38.0807 5.6282 38.1051ZM9.05665 45.3389C9.03233 45.3389 9.03233 45.3144 9.05665 45.3389C9.05665 45.3144 9.05665 45.3389 9.05665 45.3389ZM22.1626 53.7213H22.1869H22.1626ZM3.97476 14.7663C4.02339 14.7908 4.04771 14.8397 3.99908 14.8641C3.99908 14.8641 3.97476 14.8641 3.95045 14.8885C3.95045 14.8397 3.95045 14.8152 3.97476 14.7663ZM6.69807 29.2095C6.67375 29.2095 6.67375 29.2095 6.64944 29.2095C6.67375 29.2095 6.69807 29.2095 6.69807 29.2095ZM21.1413 54.6255C21.1656 54.6011 21.19 54.5522 21.2143 54.5277C21.2872 54.5522 21.3115 54.5766 21.2629 54.6011C21.2386 54.6011 21.19 54.6255 21.1413 54.6255ZM21.3602 54.21C21.3845 54.21 21.3845 54.2345 21.4088 54.2345C21.3845 54.2345 21.3602 54.2345 21.3358 54.2345C21.3602 54.21 21.3602 54.21 21.3602 54.21ZM59.0974 24.6639C59.0974 24.6884 59.0974 24.7372 59.0974 24.7861C59.0974 24.7372 59.0974 24.6884 59.0974 24.6639ZM58.295 23.2465C58.3193 23.3442 58.368 23.442 58.4166 23.5398C58.368 23.5153 58.3436 23.4909 58.295 23.4664C58.295 23.3931 58.295 23.3198 58.295 23.2465ZM57.4197 12.2003V12.2247C57.4197 12.2247 57.4197 12.2247 57.4197 12.2003ZM57.0306 11.2961C57.0063 11.2716 57.0063 11.2228 56.982 11.1983C57.0063 11.1983 57.0063 11.1983 57.0306 11.1739C57.0306 11.2228 57.0306 11.2716 57.0306 11.2961ZM54.9638 5.65079C54.9638 5.67523 54.9638 5.67523 54.9638 5.65079C54.9638 5.67523 54.9638 5.65079 54.9638 5.65079ZM17.0807 4.35555C17.0564 4.35555 17.0077 4.35555 16.9591 4.37999C17.0077 4.37999 17.032 4.35555 17.0807 4.35555ZM6.18745 41.5265C6.26039 41.5509 6.33334 41.5509 6.35765 41.5754C6.28471 41.5509 6.18745 41.5509 6.1145 41.5265C6.13882 41.5265 6.16313 41.5265 6.18745 41.5265ZM10.6615 49.7867C10.6371 49.7867 10.6371 49.7867 10.6371 49.7867H10.6615ZM20.5091 56.8494C20.5334 56.8494 20.5334 56.8494 20.5334 56.8494C20.5091 56.8494 20.5091 56.8494 20.5091 56.8494ZM49.2741 53.4525C49.2741 53.4525 49.2984 53.4525 49.3227 53.4525C49.2984 53.4525 49.2741 53.4769 49.2497 53.4769C49.2497 53.4769 49.2497 53.4769 49.2254 53.4769C49.2497 53.4769 49.2497 53.4525 49.2741 53.4525ZM11.78 5.77298C11.8043 5.77298 11.8043 5.77298 11.8286 5.77298C11.8043 5.77298 11.8043 5.77298 11.78 5.77298ZM5.55525 46.2675C5.53094 46.2675 5.53094 46.2431 5.55525 46.2431C5.55525 46.2431 5.60388 46.2187 5.6282 46.2187C5.65251 46.2187 5.65251 46.2187 5.67683 46.2187C5.6282 46.2431 5.60388 46.2675 5.55525 46.2675C5.57957 46.292 5.57957 46.292 5.55525 46.2675ZM7.5491 46.7074C7.52479 46.7074 7.47616 46.7074 7.45184 46.7319C7.45184 46.7074 7.47616 46.7074 7.5491 46.7074ZM18.7341 56.3118C18.7098 56.3118 18.7098 56.3118 18.6855 56.3118C18.6855 56.2873 18.7098 56.2873 18.7341 56.3118C18.7098 56.2873 18.7341 56.2873 18.7341 56.3118ZM18.2721 2.84037C18.2478 2.84037 18.2235 2.84037 18.2235 2.81593L18.2721 2.84037ZM8.13267 6.75052C8.10835 6.77496 8.08404 6.7994 8.05972 6.7994C8.05972 6.77496 8.08404 6.75052 8.13267 6.75052ZM13.4091 53.3547C13.4334 53.3547 13.4334 53.3547 13.4577 53.3547C13.4577 53.3791 13.482 53.3791 13.5063 53.4036C13.4577 53.3791 13.4334 53.3547 13.4091 53.3547ZM18.5882 56.3851C18.6125 56.3851 18.7098 56.3606 18.7827 56.3606C18.8557 56.4339 18.9286 56.5073 19.0016 56.5561C18.88 56.5317 18.7584 56.5073 18.6369 56.5073C18.3694 56.4584 18.5153 56.4095 18.5882 56.3851ZM30.5999 56.4095C30.5756 56.3851 30.5999 56.3606 30.5999 56.3362C30.6243 56.3606 30.6243 56.3851 30.5999 56.4095ZM39.5723 53.5258C39.5723 53.5258 39.548 53.4769 39.5236 53.428C39.548 53.4036 39.5723 53.3547 39.5966 53.3303C39.5966 53.4036 39.5966 53.5013 39.5723 53.5258Z" fill="#40C0A6"/>
<path d="M34.3079 29.1143C35.0309 29.8432 35.4635 31.1765 35.4635 32.664C35.4635 34.4655 34.4324 36.0477 32.9687 36.0477H29.6086C28.1627 36.0477 27.1553 34.4418 27.1553 32.664C27.1553 31.1647 27.5819 29.8373 28.2931 29.1143C27.576 28.3854 27.1553 27.0817 27.1553 25.778C27.1731 23.8165 28.1627 22.1927 29.6323 22.1927H32.9746C34.4561 22.1927 35.4694 23.8935 35.4694 25.778C35.4694 27.0639 35.0428 28.3735 34.3079 29.1143ZM28.3405 25.778C28.3405 27.4787 28.8738 28.5276 29.6086 28.5276H32.9746C33.745 28.5276 34.2783 27.4372 34.2783 25.778C34.2783 24.2135 33.7865 23.3839 32.9746 23.3839H29.6323C28.8383 23.3839 28.3642 24.1779 28.3405 25.778ZM32.9746 29.7187H29.6086H29.5909C28.856 29.701 28.3464 30.6669 28.3464 32.6699C28.3464 34.0921 28.8383 34.8684 29.6146 34.8684H32.9805C33.8102 34.8684 34.2842 34.1158 34.2842 32.6699C34.2842 30.6906 33.7687 29.701 32.9983 29.7187H32.9746Z" fill="#41C0A5"/>
<path d="M31.3272 15.8046C33.105 15.8046 34.8236 16.1542 36.4473 16.8357C38.0117 17.4994 39.4221 18.4476 40.631 19.6565C41.8399 20.8654 42.7881 22.2698 43.4518 23.8402C44.1333 25.458 44.4829 27.1825 44.4829 28.9603C44.4829 30.7381 44.1333 32.4566 43.4518 34.0803C42.7881 35.6448 41.8399 37.0552 40.631 38.2641C39.4221 39.473 38.0177 40.4211 36.4473 41.0848C34.8236 41.7663 33.105 42.116 31.3272 42.116C29.5494 42.116 27.8309 41.7663 26.2072 41.0848C24.6427 40.4211 23.2323 39.473 22.0234 38.2641C20.8145 37.0552 19.8664 35.6507 19.2026 34.0803C18.5212 32.4566 18.1715 30.7381 18.1715 28.9603C18.1715 27.1825 18.5212 25.4639 19.2026 23.8402C19.8664 22.2757 20.8145 20.8654 22.0234 19.6565C23.2323 18.4476 24.6368 17.4994 26.2072 16.8357C27.825 16.1542 29.5494 15.8046 31.3272 15.8046ZM31.3272 14.6194C23.4042 14.6194 16.9863 21.0372 16.9863 28.9603C16.9863 36.8833 23.4042 43.3012 31.3272 43.3012C39.2503 43.3012 45.6681 36.8833 45.6681 28.9603C45.6681 21.0372 39.2443 14.6194 31.3272 14.6194Z" fill="#41C0A5"/>
<path d="M31.3271 18.0742C34.2368 18.0742 36.9686 19.2061 39.025 21.2624C41.0813 23.3187 42.2131 26.0506 42.2131 28.9603C42.2131 31.8699 41.0813 34.6018 39.025 36.6581C36.9686 38.7144 34.2368 39.8463 31.3271 39.8463C28.4174 39.8463 25.6856 38.7144 23.6292 36.6581C21.5729 34.6018 20.4411 31.864 20.4411 28.9603C20.4411 26.0565 21.5729 23.3187 23.6292 21.2624C25.6856 19.2061 28.4174 18.0742 31.3271 18.0742ZM31.3271 16.889C24.6604 16.889 19.2559 22.2935 19.2559 28.9603C19.2559 35.627 24.6604 41.0315 31.3271 41.0315C37.9938 41.0315 43.3983 35.627 43.3983 28.9603C43.3983 22.2935 37.9938 16.889 31.3271 16.889Z" fill="#41C0A5"/>
</svg>
