<svg width="111" height="108" fill="none" xmlns="http://www.w3.org/2000/svg"><g opacity=".1" fill="#50D9C0"><path d="M63.817 105.778c0-.045 0-.045 0 0-.045-.045-.045-.045 0 0zm12.576-.308c0 .045 0 .045 0 0-.045.045-.045.045 0 0z"/><path d="M110.09 42.018c-.132-1.358.394-2.98.175-4.294-.088-.394 0-1.008-.088-1.446-.131-1.315.263-3.067-.131-4.12v.045c-.088-.395 0-1.052-.131-1.403-.088-.438.043-1.051-.132-1.402v.044c0-.263-.044-.35-.088-.263.044-.438.088-.832 0-1.183-.175-.57.132-1.578-.043-2.06v.044c-.088-.438 0-1.052-.088-1.446v.044c-.088-.395 0-1.052-.131-1.402v.044c-.088-.395 0-1.052-.132-1.403v.044l-.131-.526c.219-1.49.131-2.717-.219-3.637-.044-.307-.088-.526-.176-.745v.044c-.307-.394-.175-1.446-.307-2.103v.043c-.087-.394 0-1.007-.131-1.358-.044-.307-.088-.526-.175-.745-.132-.964-.307-1.84-.482-2.76-.176-1.052-.219-2.28-.658-2.717 0-.351-.131-.526-.219-.79-.131-.35 0-1.05-.131-1.358v.044c-.044-.307-.088-.526-.175-.701-.044-.307-.088-.526-.176-.745-.044-.307-.087-.526-.175-.745a2.304 2.304 0 00-.219-.657c-.132-.657-.526-.088-.657-.701-.132-.438-.351-.307-.482-.658l-.088.044-.088-.044c-.131.176-.219.176-.306-.043-.482-.92-1.227.219-1.709-.658l-.132.044-.131-.044c-.263-.482-.614-.438-1.008 0l-.044.088h-.088c-.219.307-.438.263-.613.657-.088.263-.219.482-.307.701-.088.22-.219.439-.307.658-.175.482-.394.306-.57.745-.262.613-.569.043-.832.745-.175.35-.394.262-.57.657-.657.964-1.183-.175-1.84.745-.132.044-.307.044-.438.087-.044 0-.088.044-.132.132-.043.044-.043.088-.043.175-.176 0-.307 0-.483.395-.35.657-.7-.132-1.095.7v-.043c-.175.35-.394.219-.57.657l-.087.088h-.088c-.044 0-.088.044-.131.131-.044.044-.044.088-.044.176-.175 0-.307 0-.438.394-.92.526-1.753.57-2.542.044-.526-.57-1.095-.614-1.753.044v-.044c-.394.482-.745.526-1.052 0-.525-.614-1.139-.526-1.752 0-.132.044-.307.044-.439.087-.131.132-.219.307-.263.57 0 .044-.043.088-.043.088h-.044c0 .087-.044.131-.044.219-.044.087-.088.219-.175.263l-.044.044c0-.044.044-.044.044-.088 0-.132.044-.22.044-.35-.044-.044-.088-.088-.088-.132-.35-.57-.789-.57-1.227.044-.131.306-.22.219-.307.044h-.394c-1.359.832-2.542-.176-3.9.657l-.132.131h-.131c-.132.22-.263.263-.307 0-.131-.438-.263-.438-.482 0-1.008 1.008-1.84-.35-2.848.79v-.045c-.395.438-.745.395-1.096.307-.043-.044-.043-.088-.043-.132-.482-.087-.614-.262-.658-.394-.526-.088-.7-.219-.745-.35a2.2 2.2 0 00-.57-.22c-1.007-.35-2.278-.525-3.68-.525-.526-.132-1.227-.132-1.753-.263-.175 0-.307 0-.482-.044-.57-.132-1.183-.132-1.797-.175-.044.043-.087.043-.131.087-3.068-.263-6.091-.263-9.159-.438-.175 0-.35.044-.526.044-.043 0-.175-.044-.262-.044-.57 0-1.008-.088-1.315-.22-.745-.043-1.446-.087-1.972-.262-.35-.044-.745-.088-1.095-.131 0-.044-.044-.088-.088-.132-.35-.044-.614-.088-.745-.175-1.14-.088-2.103-.044-3.068.044-.175.175-.613.306-1.358.263-1.227.219-2.366.438-3.944.482-.044.043-.087.043-.131.087-.438-.044-.877-.044-1.271-.131a6.684 6.684 0 00-2.542-.263h.044a56.38 56.38 0 01-5.434-.263c-.394-.175-1.007-.175-1.533-.263h-.175l-.176-.044c-1.358-.087-2.76-.131-4.031-.394-.263-.132-.877-.132-1.271-.263-1.578-.307-2.848-.22-4.031 0 .175.044.35.088.525.175-.131 0-.263 0-.394-.044-.22 0-.438 0-.614-.043-.482.131-1.183.131-1.84.131-.22.044-.438.088-.613.131-.395.351-1.315.482-2.717.395-.614.131-1.227.307-1.885.438-.043.131-.306.22-.745.307 0 .087-.175.175-.525.175-.044.132-.132.263-.658.307-.087.131-.35.219-.788.263 0 .087.043.175-.044.263-.57.525-.877 1.139-1.797 1.621-.044.526-.131 1.052-.175 1.577-.614.263-.438.614-.438.965 0 .219.087.482-.482.613.219.044.394.132.613.175-.657 1.271.263 2.586.614 3.9.131.57.263 1.14.043 1.666-.394.876-.043 1.84-.745 2.672-.043.088.176.176.263.264-.263.043-.219.13.088.219h.088-.132c-.131 1.007-.087 1.971-.35 2.98-.132.525-.176 1.095-.614 1.62-.307.395-.438.79-.087 1.228a1.784 1.784 0 01-.307 1.533c-.263.307-.088.614.35.964-.175 0-.35 0-.526.044-.306.92-.57 1.84-.876 2.76-.044.132.088.22.132.352-.877.306-.439.7-.614 1.051-.131.307-.307.658-.438.964-.088.22 0 .438-.57.614 0 .745.044 1.533-.92 2.19-.263.22-.22.439-.307.658-.087.263-.044.526-.438.745-.394.263-.57.57.175.833.964.35.701.613.57.964-.131.438-.614.876-.57 1.358.044.438-.57.833-.832 1.227-.088.088 0 .22.044.35.525.132.482.22-.088.22-.088.175-.394.306.088.526.964.394 1.095.745.131 1.051-.438.132-.35.307-.088.482.263.175.79.395.701.526-.35.57.965 1.183.57 1.753-.219.307-.087.657-.92.876-.394.088-.175.263-.132.438.614.132 1.052.263 1.096.482.088.526.088 1.052.175 1.578.044.263-.219.438-.7.614-.702.262-.614.262.656.657.132.35.263.657-.306.964-.132.088-.263.175-.132.263.964.438.307.745 0 1.095-.175.22-.394.482.35.701.921.263.833.526.833.79.044.35.044.7.044 1.05 0 .132.044.264-.087.352-.307.262-1.052.525-.964.788.087.22.57.526.832.789.307.35.044.57-.307.833-.35.263-1.051.525-.043.92.175.087.175.175-.088.219-.394.087-.526.263-.307.394 1.052.701.701 1.315.044 1.885.394.131.613.262.57.438-.176.92.306 1.84.525 2.76.088.395.526.79-.131 1.14-.175.087-.131.263.044.35 1.227.57.876 1.14 1.052 1.666.043.175-.044.35.087.525.088.176.088.35-.263.482-.832.35-.789.658.526 1.052.22.044.394.175.394.263-.043.57.658 1.183.395 1.753-.044.131.131.175.394.219 0 .088-.044.219-.044.307a5.295 5.295 0 01-.219.788c-.087.044-.175.044-.306.088-.044 0 .043.132.175.132h.044c-.263 1.007-.57 1.928-.79 3.023-.043.22-.087.438-.13.701-.263 1.403-.702 2.147-1.228 2.235-.219.044-.438.044-.613.088-.394 2.278-1.183 3.55-1.884 5.17-.22.176-.395.351-.57.92-.613.395-.613.439-.438 1.666 0 .088.044.175.044.263.219.044.482.087.7.087.132.22.308.439.439.658.307.044.613.131.92.175.132.482.395.526.614.657.394.22.788.395 1.051 1.183.22 0 .395.132.482.57.351.35.745.657 1.096 1.008 0 .175 0 .35-.044.526.22 0 .394.131.482.57.22 0 .35.175.438.657.22.088.439.131.658.219v.57c.306.043.613.131.92.175v.526c.219-.044.394.044.482.526l1.183.131c.131.219.307.438.438.657 1.052.044 2.104.088 3.155.088.745.657 1.578.57 2.41.482 3.418-.219 6.705.657 10.08.57.218 0 .437-.044.613.044 1.358.744 2.848.613 4.294.569 3.243-.087 6.442-.175 9.684-.263.438 0 .833.044 1.271.044.175.175.35.438.57.482.087 0 .219.044.306.044.263.307.92.57 2.06.745 1.402.219 1.621.526 1.446.832.877.22.526.482.701.745.482.044.964.132 1.14.263.219.088.394.132.613.219-.175.044-.35.088-.57.176.088.044.088.087.088.131.307.044.482.132.526.219.175.044.35.044.57.044l.262.657c.833.307 1.797.482 2.98.307.526-.088 1.008-.175 1.49-.219.395-.219.877-.131 1.402.044.57.087 1.14.131 1.71.087.043-.219.7-.262 1.007-.438.22 0 .35 0 .438-.044.176 0 .351.044.526.044.088-.219.132-.438.22-.657h.569c.044-.088.307-.131.657-.131.044-.132.132-.263.57-.307.482.526 1.096 0 1.621.175.088 0 .176-.131.263-.307.22.658.701-.044.92.57.526.657 1.096.613 1.753-.044.088-.131.176-.131.22 0 2.629.833 5.39.088 8.062.175.79.044 1.622.482 2.498-.394.175-.263.35-.394.526-.526 1.096.351 2.191.482 3.33-.219.088-.131.132-.131.176-.044 1.533-.92 2.892.263 4.425-.701.263-.219.482-.219.701-.087 1.184-.877 2.235.262 3.418-.745.132 0 .307-.044.439-.044 1.095-.877 2.06.306 3.155-.789.087-.131.131-.088.175 0 1.49-.482 2.98-.613 4.338-.044.044.219.132.219.22-.044v.044c.262-.613.57 0 .832-.789l-.044.044c.132-.131.175-.35.263-.657h.088c.087-.351.175-.614.306-.657.22-.745.526-1.271.877-1.534.131-.657.219-1.446.482-2.016.044-.394.088-.789.131-1.14 0-.043.044-.13.044-.174.044-.263.132-.526.219-.79.044 0 .044-.043.088-.043.044-.394.088-.789.175-1.183 0-.088.044-.175.044-.22.044-.175.131-.394.175-.569.044 0 .044-.044.088-.044.044-.131.044-.306.088-.438l.131-.526c.044-.087.044-.131.088-.219.044 0 .087-.044.131-.044.088-.394.175-.613.307-.7.044-.176.044-.308.088-.483 0-.044 0-.087.043-.131.132-.088.263-.132.439-.22.262-1.139.131-2.453.613-3.461.088-.439.131-.833.219-1.271.088-.044.132-.088.219-.132.088-.57.219-1.007.395-1.314.043-.394.131-.657.306-.789.088-.526.176-1.052.395-1.314.087-.526.175-1.052.394-1.403.088-.57.175-1.051.395-1.358.043-.394.131-.657.262-.833.088-.526.22-1.008.439-1.27a5.89 5.89 0 01.306-.79c.088-.262.219-.481.307-.744.044-.175.088-.35.132-.57l.043-.044c.176-.219.351-.306.482-.745.088-.131.132-.263.176-.525 0-.044.044-.132.044-.176.043 0 .043 0 .087-.044 0-.087.044-.175.044-.219l.044-.043c.087-.044.175-.176.263-.395l-.044.088c.219-.35.263-1.008.394-1.446.526-1.227.789-2.542.701-4.12-.043-.175 0-.306.044-.525-.131-.877.219-2.06.044-2.936-.088-1.315.175-2.673.263-4.032.219-3.023.789-6.09.745-9.114l-.132-.79c.044-.656.132-1.358.176-2.015-.176-.789-.044-1.796 0-2.76a108.01 108.01 0 01-.132-1.227s0-.044.044-.044c0 0 .044-.088.088-.307a1.245 1.245 0 000-.57c.175-.175.175-.35.219-.526zm-12.314 44.96l-.131-.526v-.044c.044.22.088.395.131.57zM27.094 9.723s.044 0 0 0h-.044.044zm-12.226 2.936s-.043 0 0 0c-.043 0-.043 0 0 0zm.35 84.179c0-.088.045-.22.045-.307 0 .087 0 .219-.044.307.044 0 0 0 0 0zm-.876-81.681c-.043 0-.043 0-.087-.044-.044 0-.044 0-.088-.044.175.044.35.131.526.175-.088-.044-.175-.044-.307-.088h-.044zm-.175-.044c.044 0 .044 0 .088.043.044 0 .044 0 .087.044-.087-.087-.131-.087-.175-.087zM99.53 35.4c.044-.175.088-.35.175-.482.088-.175.176-.175.263-.087-.131.175-.263.35-.438.57zM17.76 21.335c-.131.044-.263.044-.394.088v-.088h.394zm-.613 5.215c-.044 0-.131-.044-.131-.044.043.044.087.044.13.044zm.394 3.023c0 .044 0 .044 0 0h-.044.044zm41.63-12.664c-.176-.043-.263-.087-.307-.175.219 0 .394.088.307.175zm-42.243-.92c.044 0 .087-.044.131-.044v.044h-.131zM14.43 35.577c-.044-.044-.044-.044 0 0 0-.044 0-.044 0 0zm18.142-20.99h.043-.043zm-18.01.613c-.044 0-.044 0-.088-.043.088.043.175.043.263.087.044 0 .131.044.175.044h-.044a.813.813 0 01-.306-.088zm88.429 21.078c.044-.263.219-.438.351-.482.131-.044.262-.044.35.131-.131-.131-.35.044-.701.35zM59.302 11.914c-.044-.044-.044-.044 0 0 0-.044.044-.044.088-.044-.044 0-.088 0-.088.044zm-22.085.789c.087-.044.175-.044.35-.044-.131 0-.263.044-.35.044zM11.537 25.63h-1.314.044c.395-.088.789-.132 1.27 0zm.921 10.166h.132c-.044.044-.088.044-.132 0zm2.279 4.25c0 .044-.088.044-.22.088.088-.044.132-.044.22-.087zm92.461-9.158v.613c-.044-.087-.044-.262 0-.613zM37.304 98.634c0 .044 0 .044-.044.088l.044-.088zM89.32 84.393c.044.175.044.438-.044.657.044-.175.044-.394.044-.657zm15.469-70.814c.175 0 .263.131.306.35-.087-.087-.219-.175-.306-.35zm-57.405-3.067c-.044.087-.088.131-.132.219-.131 0-.219-.044-.394-.044.175-.088.35-.132.526-.175zm-22.217-.22c0-.043 0-.043-.044-.087.088 0 .175 0 .22.044-.044 0-.132.043-.176.043zm-14.417 1.84c-.044.045-.044.045-.088.045 0-.044 0-.044-.043-.088.043.044.087.044.131.044zM9.61 96.444zM49.794 9.591h-.219c.088-.043.131-.043.22 0zM7.99 97.758v.044c-.044 0 0 0 0-.044z"/></g><g clip-path="url(#clip0)" fill="#41C0A5"><path d="M73.126 39.94h-1.271c-4.441-.01-8.829-1.479-12.351-4.14l-3.47-2.617a.911.911 0 00-1.077 0l-3.46 2.626c-3.514 2.652-7.902 4.122-12.343 4.13h-1.271a.879.879 0 00-.883.87v11.4c.009 7.835 4.317 15.087 11.265 18.922l6.807 3.756c.132.07.282.113.432.113.15 0 .3-.034.433-.113l6.807-3.756C69.692 67.296 74 60.044 74.009 52.2V40.808a.885.885 0 00-.883-.87zm-.883 1.739v10.53c-.009 7.209-3.973 13.887-10.364 17.417l-6.375 3.513-6.374-3.521c-6.392-3.53-10.364-10.2-10.364-17.409v-10.53h.388c4.82-.01 9.597-1.61 13.428-4.505l2.922-2.217 2.923 2.217c3.831 2.896 8.598 4.487 13.428 4.496h.388v.009z"/><path d="M62.02 49.765v-3.4c0-3.539-2.922-6.426-6.524-6.426s-6.525 2.879-6.525 6.426v3.4c-1.641.4-2.816 1.87-2.816 3.54v9.721c0 2.009 1.66 3.644 3.7 3.644h11.273c2.04 0 3.7-1.635 3.7-3.644v-9.722c.008-1.678-1.166-3.139-2.808-3.539zm-6.515-7.043c-2.04 0-3.7 1.635-3.7 3.643v3.296h-1.059v-3.296c0-2.582 2.136-4.687 4.759-4.687 2.622 0 4.758 2.105 4.758 4.687v3.296h-1.06v-3.296c0-2.008-1.659-3.643-3.698-3.643zm-1.943 3.643c0-1.052.866-1.913 1.943-1.913s1.942.852 1.942 1.913v3.296H53.57v-3.296h-.009zm9.517 6.94v9.721c0 1.052-.865 1.913-1.942 1.913H49.863c-1.068 0-1.942-.852-1.942-1.913v-9.722c0-1.052.865-1.913 1.942-1.913h11.274c1.068.01 1.942.861 1.942 1.913z"/><path d="M56.396 52.548c-1.704-.426-3.487.409-4.246 1.965a3.626 3.626 0 001.05 4.435v2.687c0 1.243 1.024 2.26 2.296 2.26 1.27 0 2.295-1.008 2.295-2.26v-2.687a3.62 3.62 0 001.298-3.765 3.6 3.6 0 00-2.693-2.635zm-.37 5.94v3.147a.527.527 0 01-.53.522.527.527 0 01-.53-.522v-3.148a.87.87 0 00-.442-.756 1.899 1.899 0 01-.962-1.513 1.898 1.898 0 01.733-1.635c.335-.261.76-.409 1.192-.409h.009c.167 0 .326.017.485.061a1.88 1.88 0 011.386 1.357c.22.826-.15 1.712-.9 2.139a.87.87 0 00-.442.756z"/></g><defs><clipPath id="clip0"><path fill="#fff" transform="translate(37 33)" d="M0 0h37v42H0z"/></clipPath></defs></svg>