<svg width="117" height="109" fill="none" xmlns="http://www.w3.org/2000/svg"><g opacity=".1" fill="#50D9C0"><path d="M32.422 95.69c0 .044 0 .044 0 0-.047.044-.047.044 0 0z"/><path d="M116.431 12.718c0-.086-.046-.171-.046-.258-.229-.042-.504-.042-.733-.085-.183-.215-.32-.43-.504-.645l-.962-.129c-.183-.473-.458-.515-.687-.644-.412-.215-.824-.344-1.099-1.118-.229 0-.412-.128-.504-.558-.366-.3-.779-.645-1.191-.945V7.82c-.229 0-.412-.129-.504-.559-.229 0-.412-.171-.504-.601-.229-.086-.458-.13-.687-.215v-.559l-.962-.128v-.516c-.229.043-.412-.043-.504-.516-.412-.043-.824-.043-1.282-.086-.183-.214-.321-.43-.504-.601h-3.298c-.779-.645-1.695-.516-2.565-.43-3.528.3-7.009-.43-10.536-.258-.23 0-.458.043-.641-.043-1.466-.687-2.978-.515-4.535-.43-3.344.173-6.734.387-10.078.56h-1.328c-.183-.173-.367-.43-.596-.43-1.557-.172-3.115-.258-4.672-.387-.137 0-.275.172-.412.3-.733-.644-1.558-.386-2.336-.558-.275-.043-.596.086-.825-.473-.687-.043-1.328-.086-2.016-.129.046-.472-.045-.773-.274-.902-2.795-.043-5.68.645-8.475.13h-.458c-.55-.774-1.236-.13-1.878-.302-.091 0-.183.13-.275.301-.275-.644-.733.086-1.007-.516-.55-.601-1.191-.558-1.833.086-.091.13-.183.13-.229 0-2.748-.773-5.634.043-8.474.043-.87 0-1.695-.43-2.611.473-.046.215-.23.344-.412.516-1.145-.301-2.29-.387-3.482.3-.091.13-.137.13-.183.043-1.557.946-3.023-.172-4.58.817-.275.215-.504.258-.733.086-1.191.902-2.337-.215-3.528.816-.137 0-.32.043-.458.043-1.099.902-2.153-.215-3.298.86-.091.128-.137.128-.183 0-1.558.515-3.07.687-4.535.171-.091-.215-.137-.215-.229.043v-.043c-.275.602-.595 0-.87.817l.046-.043c-.092.129-.184.386-.23.644-.045 0-.091 0-.091.043-.092.344-.183.602-.32.688-.23.773-.505 1.246-.825 1.547-.138.687-.183 1.46-.413 1.976-.045.387-.045.774-.091 1.16 0 .043-.046.13-.046.172-.046.258-.137.516-.183.774-.046 0-.046.043-.092.043a98.08 98.08 0 00-.137 1.203c0 .085-.046.171-.046.214-.046.172-.092.387-.183.602-.046 0-.046.043-.092.043 0 .172-.046.3-.046.473l-.137.515a.318.318 0 01-.092.215c-.046 0-.091.043-.137.043-.046.387-.183.602-.32.688 0 .171-.047.3-.047.472 0 .043 0 .086-.045.13-.138.085-.275.17-.458.214-.23 1.117-.046 2.406-.504 3.394 0 .13-.046.301-.046.43-.046.043-.138.043-.23.043 0 .172.138.387-.549.559-.046.085-.275.171-.595.214-.23.086-.413.13-.642.215-.046.086-.229.172-.55.215-.045.129-.228.258-.64.344 0 .129-.092.258-.596.387.046.171.137.386-.504.558.092.172.046.344-.046.516h-.046c-.458.129-.824.258-1.053.43-.412.128-.367.257 0 .343.229.043.229.086 0 .13l-.046.042c-.137.086-.32.129-.55.215-.366.129-.229.258-.55.387-.595.172-.091.386-.503.558-.87.301.137.559-.504.86-.458.085-.367.257-.55.343-.916.301.138.602-.55.903h.046c-.595.258-.458.472.046.644.23.344 1.42.602.916 1.031l-.046-.043c.504.13.092.387.78.473.182.043.32.129.457.172l1.237 5.285c-.229.086-.458.129-.55.215-.87.3.184.559-.504.86h.046c-.275.085-.275.128 0 .171l.092.043-.138.086c.459.258.596.559.184.902h.045c-.503.13-.458.258.046.301h-.046c.092.043.23.043.367.043v.516a.999.999 0 01-.23.129c.047.257.138.558.184.816.046 0 .092.043.138.043 0 .086 0 .172-.046.3.137.774-.138 1.848 0 2.665-.046.043-.092.086-.138.086l.138.644h.091c.046 1.117-.183 2.32-.229 3.48-.137 2.965-.595 6.016-.504 8.938.046.258.092.516.138.73a28.526 28.526 0 00-.092 1.977c.23.773.092 1.762.046 2.707l.137 1.16s0 .043-.045.043c0 0-.046.086-.092.3-.046.173 0 .388.046.56a.985.985 0 010 .515c.183 1.332-.32 2.922-.046 4.21.092.388.046.99.137 1.376.184 1.246-.183 3.008.23 4.039v-.043c.137.387 0 1.031.183 1.375.091.43 0 1.031.137 1.375v-.043c0 .258.046.344.138.258-.046.43-.092.816.045 1.16.184.516-.091 1.547.138 2.02v-.044c.091.387 0 1.032.137 1.418v-.043c.138.387.046 1.032.183 1.375v-.043c.092.387 0 1.032.184 1.375v-.043l.137.516c-.183 1.461-.092 2.664.32 3.566.047.301.138.516.23.688v-.043c.32.387.229 1.418.366 2.062v-.043c.092.387 0 .989.138 1.332.045.301.137.516.229.73.183.946.412 1.806.595 2.665.183 1.031.32 2.234.779 2.664.046.344.137.516.229.73.137.344.046 1.032.183 1.332v-.043c.046.301.138.516.23.688.045.258.137.516.182.687.046.215.138.473.23.645.045.258.137.473.229.644.137.645.55.043.732.688.138.387.367.301.504.601l.092-.042.091.042c.138-.214.23-.171.321 0 .504.86 1.283-.257 1.833.602l.137-.043.137.043c.321.473.642.43 1.054-.043l.091-.086h.092c.183-.344.412-.258.641-.644.092-.258.184-.473.321-.688.092-.258.183-.473.32-.644.138-.473.413-.301.55-.774.275-.601.596-.043.87-.773.184-.344.413-.258.596-.645.642-.945 1.237.129 1.878-.773.138-.043.32-.043.458-.086.046 0 .092-.043.138-.129 0-.043.046-.086.046-.172.183 0 .32-.043.458-.387.366-.687.733.086 1.099-.73v.043c.183-.344.412-.258.596-.688l.091-.085h.092c.046 0 .091-.043.137-.13 0-.042.046-.085.046-.171.137 0 .32-.043.458-.387.916-.559 1.832-.602 2.657-.086.55.559 1.19.559 1.832-.129v.043c.412-.472.779-.516 1.1-.043.55.602 1.19.473 1.832-.043.137-.043.275-.043.458-.086.091-.129.183-.344.275-.601 0-.043.046-.086.046-.086h.045c0-.086 0-.13.046-.215.046-.086.092-.215.138-.3l.045-.044s0 .043-.045.086c0 .129 0 .215-.046.344.046.043.091.086.091.129.413.515.825.558 1.283-.043.092-.215.183-.258.275-.172.046.129-.046.3.366.387.413.043.32.215.779.257h-.046c.23.043.458.086.733.13h.183c.138 0 .275 0 .413-.044.274-.086.595-.129.778-.215l1.787-.128c.55.085.091.257.137.386.046.086.183.172.504.13 1.924-.216 2.016.128 2.336.429.458.129.825.3 1.374.344.825.086 1.283.171 1.146.43-.184.386.412.6 1.97.558h1.511c.092.215.183.387.32.602.825.171.55.515.825.773.596.215 1.878.043 2.565.172.275 0 .55.043.825.043 0 .043.046.043.046.086.046.129.183.257.229.386.091.387-.367.946 2.52.559.136-.043.457.086.686.129h-.046c.184.086.413.129.78.129h-.093c2.2-.215 3.161.258 4.719.386 1.557.215.916.688 1.145 1.075.183.343.137.773 2.382.386.229 0 .412-.043.641-.043.458.043.916.043 1.283-.128h-.046a.764.764 0 00.275-.129c.183 0 .366.043.504.043.137-.043.274-.043.458-.043.183-.043.32-.086.504-.129 1.099-.086 1.832-.215 1.923-.559a.583.583 0 01.23-.258c.091-.043.274-.086.457-.129.184 0 .504-.043.55 0 .458.301 1.695.473 1.374.903-.412.472 0 .859 1.237 1.117.046 0 .046.043.046.086.367 0 .596.043.687.129.504 0 .962 0 1.237.129.825 0 1.42 0 .825.3l-.459.215c-.32.258.459.215 1.008.215.962-.258 1.832-.473 2.932-.215.504.129 1.1.043 1.511-.172a27.78 27.78 0 001.237-.73c.183-.129.55-.215 1.008-.215.366 0 .596.086.87.172-.046.172-.137.344-.183.516-.046.3-.366.644-.046.902.275.215 1.329.344 2.016.473.091.429.137.816-.825 1.246 0 .172-.046.3-.046.472.413.215 1.237.043 1.879.043.458.301.32.645.32.946.779.086.55.343 1.008.515.962-.043 1.237-.344 2.107-.387.183-.214-.183-.472.641-.687 0-.129 0-.258.596-.387.046-.086.183-.172.55-.215 0-.085 0-.214.045-.3.138-.043.184-.086.092-.086a2.43 2.43 0 01.55-.086v-.301c.183 0 .366-.043.504-.086-.046-.043-.046-.086-.138-.129.183-.043.23-.086.23-.172.32-.043.457-.129.411-.215.138-.043.184-.085.138-.128.32-.086.687-.215 1.008-.301v-.043c.045 0 .091 0 .183-.043.275-.043.412-.086.504-.172l-.046.043c.824-.43 1.603-.859 1.786-1.289.825-.215.87-.516 1.191-.774h-.045c1.42-.687 1.465-1.375 2.015-2.062l.137-.129v-.043c.046-.129.092-.215.138-.344.091-.043.183-.129.412-.171.183-.301-.366-.56.596-.86-.046-.172-.184-.387.458-.558 0-.301-.138-.559.549-.86.046-.3-.045-.558.504-.86-.046-.257-.046-.515-.091-.816.045-.043.091-.043.091-.085.092-.086.092-.13 0-.215h.092c.321-.043.595-.086.779-.172.183-.086.274-.172.32-.258-.183-1.289.642-2.664.046-3.91 0-.086-.046-.172-.092-.258-.045-.129-.045-.258-.137-.387-.046-.086-.046-.172-.092-.257-.091-.13-.137-.301-.366-.43a1.144 1.144 0 00-.458-.473c.183-.687.046-1.418-.138-2.105 0-.086-.229-.13-.32-.215h-.046c.55-.344.412-.602-.137-.86h.045c.55-.343.229-.601.092-.902-.458-.86-.87-1.719-1.374-2.578-.779-1.418-1.145-2.879-1.787-4.34-.229-.558-.55-1.117-.87-1.675h.046c0-.258.046-.473.046-.73.045-.087.045-.216.091-.302l.092-.257c0-.043.046-.043.046-.086.045 0 .045 0 .091-.043v-.172c.046-.043.046-.086.092-.13a.819.819 0 00.229-.386c.091-.172.137-.386.137-.601.23-.043.458-.13.733-.172.046-.215.046-.43.046-.645l.046.086h.137l.138-.043c.091-.945 0-2.02.458-2.75 0-.258 0-.515.046-.773.091-.945.32-1.805.503-2.664l.138-.516c.229.215.366.387.412.602.321 0 .687-.043 1.008-.043.412-.344.229-.645.046-.989.183 0 .366-.042.549-.085-.045-.344-.137-.645-.183-.989.046-.129.046-.215.092-.343.183-.043.32-.043.504-.043-.046-.043-.046-.086.045-.172.367-.043.642-.086.779-.215.138 0 .321 0 .458-.043.367.129.596.043.825-.086.137-.086.275-.129.412-.215-.092-.3-.55-.558.504-.86-.183-.085-.412-.214-.596-.3.138-.129.184-.215.504-.344-.091-.043-.137-.129-.229-.172h.046c.321-.043.55-.129.687-.214 2.107-.301 1.329-.774 1.741-1.16l-.046-.087c-.595-.214.916-.515-.092-.687-.458-.258-.687-.516-.091-.816.275-.516.366-1.032-.412-1.504h.045c-.412-.172-.458-.344-.091-.516.229-.043.183-.086-.092-.129h.046c-.412-.215-.504-.43-.092-.687h-.045c.229-.086.229-.13 0-.13-.367-.128-.275-.343-1.1-.343-.046-.043-.091-.043-.229-.086.138-.086.321-.172.458-.215 0-.172-.046-.3-.046-.472-.687-.516-.916-1.032-1.053-1.59-.779-.13-.733-.387-.733-.645-.687-.129-.504-.386-.367-.601.138-.258.367-.516.092-.73h-.046c.138-.516.275-.946.55-1.16.366-.259.55-.946.641-1.805.092-.688.183-1.332.275-2.02.137-.773.412-1.031.687-1.16.046-.387.046-.73.092-1.117-.046-.258-.138-.559-.138-.817.184-1.633.367-3.265.596-4.898.091-.688.366-1.074.641-1.332.321-1.203.596-2.535 1.008-3.566.321-.774.412-1.59.55-2.45.274-1.46.045-2.964.366-4.382.321-1.332.733-2.578 1.008-3.996.046-.215.046-.43.091-.688.229-1.375.642-2.105 1.191-2.234.229-.043.458-.086.642-.086.366-2.235 1.145-3.524 1.786-5.113.229-.172.412-.344.55-.903.687-.129.687-.214.458-1.375zM9.38 91.608c.091.086.229.172.32.343-.183 0-.274-.128-.32-.343zM100.673 7.69c0 .086 0 .215-.045.3 0-.085-.001-.171.045-.3zM71.311 99.04s0-.043 0 0c0-.043 0-.043 0 0 .046 0 0 0 0 0zm-1.97-3.394c0-.043 0-.043 0 0zm3.115-.559h-.275c.046-.043.138-.043.184-.086.091 0 .091.043.091.086.046-.043.046-.043 0 0zm17.178-3.738s0-.043 0 0h.137-.137zM10.846 69.65a.751.751 0 01-.321.516c-.137.043-.275.043-.412-.086.183.043.412-.13.733-.43zm56.8 20.71zM6.586 74.464c.091.086.091.258.045.602-.045-.172-.045-.387-.045-.602zm60.602 20.324c.184 0 .367.043.55.043-.183.043-.366.043-.504.086-.046-.043-.046-.086-.046-.129zm28.263-7.218c.046 0 .046 0 0 0 .046 0 .046 0 0 0zm8.658-26.898l.046-.043h.183c-.046.043-.138.043-.229.043zM77.541 6.574s0 .043-.046.043c.046 0 .046 0 .046-.043zm4.351 92.21c-.045 0-.045 0 0 0-.045 0-.045 0 0 0-.045 0-.045 0 0 0-.045 0-.045 0 0 0zM67.555 6.53l-.046-.043c.046-.043.046-.086.092-.129-.046.043-.046.129-.046.172zm22.628 97.709h.092c-.046 0-.092.043-.137.043h-.046c.046 0 .046-.043.091-.043zm16.354-96.291v-.086.086zm-1.787 55.73l-.137.042h-.046c.046-.042.092-.042.183-.042zm3.481-57.105V6.53v.043z"/></g><path d="M65.838 46.6c.467 0 .85-.383.85-.85v-6.38a2.203 2.203 0 00-2.203-2.203h-27.72a2.203 2.203 0 00-2.203 2.203V56c0 1.216.987 2.203 2.203 2.203h1.923v6.31c0 .35.204.656.527.792a.848.848 0 00.927-.179l6.915-6.915h1.43c.467 0 .85-.383.85-.85a.853.853 0 00-.85-.85H46.64a.872.872 0 00-.544.246L40.38 62.47v-.297c0-1.65 0-4.772-.008-4.89a.851.851 0 00-.85-.775h-2.757a.503.503 0 01-.501-.502V39.37c0-.272.22-.501.501-.501h27.72c.272 0 .502.22.502.501v6.38c0 .476.383.85.85.85z" fill="#41C0A5"/><path d="M73.442 49.092h-19.41a2.203 2.203 0 00-2.203 2.203v11.347c0 1.216.987 2.203 2.203 2.203h12.197l4.959 4.958a.842.842 0 00.927.179.851.851 0 00.527-.791v-4.355h.791a2.203 2.203 0 002.203-2.203V51.295c0-.587-.23-1.14-.646-1.556a2.154 2.154 0 00-1.548-.647zm.502 13.55a.503.503 0 01-.502.502H71.8a.86.86 0 00-.85.782v3.215l-3.76-3.76c-.008-.008-.025-.016-.034-.025a.853.853 0 00-.561-.212H54.032a.503.503 0 01-.502-.502V51.295c0-.272.221-.502.502-.502h19.41c.272 0 .502.221.502.502v11.347z" fill="#41C0A5"/><path d="M63.736 56.118a.853.853 0 00-.85.85c0 .468.383.851.85.851.468 0 .85-.383.85-.85a.853.853 0 00-.85-.851zM59.5 43.615H41.758a.853.853 0 00-.85.85c0 .468.382.85.85.85H59.5c.468 0 .85-.382.85-.85a.853.853 0 00-.85-.85zm-11.014 6.447h-6.728a.853.853 0 00-.85.85c0 .468.382.851.85.851h6.736c.468 0 .85-.383.85-.85a.855.855 0 00-.858-.851zm10.717 6.056a.853.853 0 00-.85.85c0 .468.382.851.85.851.468 0 .85-.383.85-.85a.848.848 0 00-.85-.851zm9.067 0a.853.853 0 00-.85.85c0 .468.383.851.85.851a.853.853 0 00.851-.85.853.853 0 00-.85-.851z" fill="#41C0A5"/></svg>