<svg width="112" height="113" fill="none" xmlns="http://www.w3.org/2000/svg"><g opacity=".1" fill="#31A593"><path d="M85.976 106.774c0-.046-.045-.046 0 0z"/><path d="M110.911 46.968c-.232-.186-.371-.65-.418-1.53-.325-1.343-.696-2.594-.835-4.354-.047-.046-.047-.093-.093-.139 0-.51-.047-1.02.046-1.436v.046c.232-.834.279-1.76.14-2.872l.046.047a53.626 53.626 0 01-.093-6.116c.139-.416.139-1.158.186-1.714l-.047-.185.047-.185c.046-1.529-.047-3.104.139-4.54.139-.324.093-.973.186-1.436.232-1.76.046-3.197-.279-4.54-.046.231-.093.417-.139.602v-.417a1.767 1.767 0 010-.695c-.186-.51-.186-1.297-.279-2.038-.046-.232-.139-.463-.185-.695-.418-.417-.604-1.436-.604-3.011-.232-.695-.418-1.39-.65-2.039-.186-.046-.279-.324-.372-.833-.092 0-.185-.186-.232-.556-.139-.047-.325-.14-.418-.695-.139-.093-.278-.37-.371-.834-.093 0-.186.093-.279 0-.65-.602-1.3-.927-1.95-1.853-.604-.046-1.161-.046-1.765-.093-.371-.695-.743-.417-1.114-.417-.232 0-.511.14-.743-.51l-.139.696c-1.486-.649-2.88.463-4.319.926-.603.185-1.253.37-1.857.14-1.022-.371-2.043.045-3.065-.65-.093-.046-.185.186-.278.279-.093-.325-.186-.232-.233.138v.046c-1.114-.046-2.228.047-3.343-.138-.603-.14-1.254-.093-1.857-.556-.465-.324-.929-.463-1.393-.046a1.92 1.92 0 01-1.718-.232c-.372-.232-.697-.046-1.022.463-.046-.185-.046-.37-.046-.602a77.749 77.749 0 00-3.158-.741c-.14-.047-.278.092-.371.139-.372-.973-.79-.417-1.208-.602-.371-.14-.743-.278-1.114-.417-.232-.093-.51.046-.743-.603-.836.047-1.718.186-2.554-.834-.232-.324-.51-.231-.79-.324-.278-.092-.556 0-.881-.417-.326-.417-.697-.602-.93.278-.324 1.066-.65.834-1.02.741-.512-.139-1.022-.602-1.533-.555-.465.092-.975-.556-1.44-.834-.139-.093-.278.046-.371.046-.093.602-.186.556-.279-.093-.185-.092-.371-.417-.557.14-.371 1.111-.743 1.296-1.16.23-.187-.462-.372-.37-.558-.092-.186.278-.371.927-.51.834-.697-.37-1.255 1.158-1.951.741-.371-.231-.697-.046-1.021-.972-.14-.417-.326-.186-.465-.093-.093.695-.232 1.204-.418 1.25-.604.14-1.16.186-1.764.279-.279.046-.511-.186-.743-.742-.325-.74-.325-.648-.65.788-.372.185-.743.324-1.068-.278-.093-.139-.233-.278-.279-.093-.418 1.112-.79.417-1.207.093-.232-.185-.558-.417-.743.463-.232 1.02-.511.973-.79 1.02-.418.046-.789.092-1.207.138-.14 0-.279.047-.371-.046-.325-.324-.65-1.158-.93-1.02-.278.14-.556.65-.835.974-.325.37-.65.092-.975-.278-.325-.37-.696-1.112-1.022.046-.046.232-.185.232-.278-.046-.14-.417-.325-.602-.465-.324-.696 1.25-1.393.88-2.136.185-.139.417-.278.695-.464.648-1.021-.139-2.043.464-3.065.788-.417.139-.835.648-1.253-.093-.093-.185-.279-.139-.372.093-.557 1.39-1.207 1.065-1.81 1.297-.186.093-.419 0-.604.093-.186.139-.372.139-.558-.232-.418-.88-.835-.834-1.114.695-.046.232-.186.463-.279.463-.65 0-1.253.788-1.95.556-.232-.093-.232.602-.232 1.205a2.97 2.97 0 00-.372.417c-.185-1.39-.65-.742-.928-1.76 0-.047-.14.045-.14.184-.139 1.159-.51.927-.742 1.437v.046c-.279-.046-.511-.046-.79-.093h.047c-.279-.139-.79-.185-1.208-.231h-.139l-.14-.047v-.37c-.139-.417-.278-.417-.37-.047-.14.047-.233.093-.372.14v.185c-.79-.093-1.579-.14-2.322-.325-.186-.139-.65-.139-.975-.231-1.207-.278-2.183-.232-3.111-.093l.418.139c-.093 0-.186 0-.279-.046-.14 0-.325 0-.464-.047-.372.093-.883.047-1.393.047-.14.046-.325.046-.465.092-.325.232-1.021.325-2.09.232a31.51 31.51 0 01-1.67.37c-.047.093-.233.186-.605.186 0 .093-.139.139-.371.139-.046.093-.093.185-.51.232-.094.092-.28.185-.604.185 0 .046.046.139-.047.185-.464.417-.696.834-1.393 1.205-.046.416-.14.787-.186 1.204-.464.185-.325.463-.371.741 0 .186.046.37-.372.463.14.047.325.093.465.14-.557.926.14 1.992.325 3.01.093.418.186.88 0 1.298-.325.648-.093 1.39-.65 2.038-.047.046.139.14.185.186-.232.046-.185.092.047.185h.093-.093c-.093.741-.093 1.529-.325 2.27-.14.417-.14.834-.51 1.204-.233.278-.372.602-.094.927.093.417 0 .787-.278 1.158-.186.232-.093.463.278.741H8.43c-.232.695-.51 1.39-.743 2.085-.046.092.047.185.093.278-.696.185-.325.51-.464.787-.14.232-.232.463-.372.741-.092.14 0 .325-.464.464 0 .556 0 1.158-.743 1.667-.232.14-.186.325-.278.51-.093.185-.047.37-.326.556-.325.185-.464.417.14.649.696.278.51.51.418.74-.14.325-.511.65-.465 1.02 0 .324-.464.602-.65.926-.046.093 0 .186 0 .278.418.093.372.186-.093.186-.139-.047-.371.046-.046.231.743.325.836.602.093.834-.325.093-.279.232-.093.37.186.14.604.325.51.418-.278.417.697.926.372 1.343-.186.232-.093.463-.743.649-.278.046-.139.185-.093.324.465.093.79.232.836.37.047.418.047.788.093 1.205 0 .185-.186.324-.557.463-.51.186-.464.186.51.51.094.278.186.51-.232.695-.092.046-.185.139-.092.185.696.324.232.556 0 .834-.14.139-.325.37.278.556.697.232.604.417.604.602v.834c0 .093 0 .185-.093.278-.232.185-.836.37-.743.556.093.185.418.417.604.602.232.278 0 .463-.232.649-.233.185-.65.324-.326.556h-.278c-.557-.047-.975.648-1.161 2.548-.14 1.575-.464 1.852-.836 1.667-.186.973-.51.649-.79.834-.046.556-.046 1.112-.231 1.297-.047.232-.14.463-.186.695-.093-.185-.14-.417-.232-.602-.047.093-.093.139-.14.093-.046.37-.139.555-.232.602v.602c-.232.093-.464.232-.743.324-.325.927-.418 2.039-.139 3.336.14.556.232 1.112.371 1.668.28.416.233.972.093 1.575-.046.648-.046 1.297.047 1.899.232.046.371.741.557 1.065a.99.99 0 00.093.464v.556c.232.046.51.139.743.185 0 .185.046.417.046.602.093.046.186.324.186.695.14.046.325.139.418.649l.557.139c0 .185.047.37.047.556.185 0 .325.046.417.602.186.046.372.046.558.092.139.417.325.788.464 1.205.14.046.325.185.371.787.233.186.465.649.604 1.436.464.834.51 1.112.325 2.224-.278 1.529-.325 1.621.047 2.872.232.88.278 1.9.371 2.873.232 0 .418-.047.604.74.093 0 .185.232.232.603.186.185.418.139.604.787.092.047.232.093.325.14 0 2.316.464 2.733.928 3.381.232 0 .372.649.418 1.436.14.047.279.186.418.695.279 0 .464.603.604 1.436.139.047.325.14.418.649.743.232 1.486 1.343 2.228 1.807.976.602 1.904 1.621 2.926 1.575.79.834 1.625 1.482 2.46 1.25.047.093.14.279.187.279 1.532.37 3.064.926 4.597.648.557.927 1.16.695 1.764.788 1.161.231 2.322.972 3.483.787.093.371.14.51.232.046.371.649.79.603 1.16.556.187.556.419.51.604.603.233.046.418.046.604.602.325.046.697-.139 1.022.602.325.046.65.046.975.093.093.185.14.417.232.602.325.093.697-.185 1.021.556.883 0 1.719.556 2.6 1.297.326.046.697-.185 1.022.556.465.185.93-.324 1.393.648 1.533.325 3.112.649 4.644 1.02.325.092.65-.139.975.556 1.068-.232 2.09 0 3.158.231 1.393.278 2.786.556 4.132.788.186.046.325 0 .465.417.696-.047 1.44.278 2.136-.093.093.232.185.278.325.278.046.046.093-.185.139-.278l.046.093.047-.047v.047c0 .278.046.463.093.463.464.973.975-.185 1.486.556h.046c.093-.185.186-.278.279 0 .65 1.019 1.346-.324 1.996.509v-.092c.14.602.279.556.372.046l.093-.139.093.093c.51 1.065 1.114-.278 1.625.602v-.046c.139.509.278.509.371-.047v.047c.047-.186.14-.186.186-.186 0 .047 0 .093.046.186 1.022-.093 2.044-.139 3.019-.186.278 0 .51-.139.743.417.139 0 .232 0 .371.047.14-.51.279-.556.418-.047.14 0 .232-.046.371-.046.186-.602.418-.649.65-.093.28-.231.511-.324.79-.139.325.186.65 0 .929-.509v.046c.046.371.093.649.185.834.604-.185 1.254.417 1.858-.556.139-.463.325-.324.464-.046h.093c1.16-.788 2.322-.371 3.483-.695.325-.093.65.37.928-.556l.047-.093.046.093c.14-.371.372-.278.51-.556 0 0 0-.046.047-.046.511.417 1.022.417 1.486-.325l.047-.092.046.092c.279-.648.604.047.836-.787l.046-.139.047.046c.14-.231.325-.231.464-.787.14-.325.279-.278.372-.742.093-.37.232-.37.371-.602 0 .186 0 .371.046.602.047-.046.14-.046.186-.092.186.324.372-.139.558-.186.139-.555.37-.509.557-.555.51-.047.975-.139 1.486-.186a.624.624 0 00.185.139c.186.278.418-.092.65.371.14.509.233.463.372-.046.093-.186.14-.232.232-.047.14.51.279.463.371-.046.14-.371.28-.371.418-.046.79.648 1.58.463 2.369-.186l.046-.139.047.093c.092-.232.232-.232.325-.046h.278c1.161-.464 2.322-1.066 3.53-.093.185.139.324-.046.324-.834.047-.278.093-.463.14-.648 0 .231 0 .509.046.88.51-.371 1.114.324 1.579-.649v.046c.882-1.111 1.903.139 2.786-1.019l.046-.139.093.093c.372-.88.882.232 1.254-.88v.046c.278-.834.696.139.975-.834.371-.926.836.278 1.207-.926l-.046.046c.093-.185.139-.371.232-.649v-.046c.186-.046.371-.092.604-.185.139-.602.371-.649.603-.788.047-.231.14-.51.186-.74 0-.371.046-.788.046-1.16.047-.092.093-.184.186-.323.047-.232.139-.464.186-.695.093-.417.279-.325.371-.88.093-.14.14-.417.186-.742.186-.278.325-.787.372-1.482.139-.324.325-.232.371-.788.186-.278.279-.787.325-1.482l.047-.046c0-.278 0-.556.046-.788v-.093c.046-.231.046-.463.139-.602.14-.51.232-1.019.372-1.482.046-.695.232-.788.371-.788.14-.695.372-.695.604-.741.139-.648.371-.787.557-.834.139-.695.372-.556.557-.834.047-.231.14-.463.186-.695.047-.37.093-.648.186-.74.046-.279.093-.603.139-.881 0-.602.047-1.112.232-1.39 0-.417.093-.648.186-.741.046-.556.186-.787.372-.88.046-.37.092-.556.232-.602.093-.556.185-.788.371-.834.093-.556.232-.695.372-.742.046-.602.185-.787.371-.88.093-.231.139-.417.232-.648.325-1.158.418-2.548.325-4.123v-.047c.093-.602.047-1.343.14-1.992a.934.934 0 010-.51c.139-.648.092-1.343.046-2.038-.046-.046-.046-.092-.093-.138.047-3.429-.139-6.81-.139-10.239-.047-.185-.047-.37-.093-.602 0-.046.046-.185.046-.278 0-.648.047-1.111.186-1.528 0-.834-.046-1.622.186-2.224.046-.417.046-.834.093-1.25.046 0 .093-.047.139-.093 0-.417.047-.695.139-.834 0-1.297-.139-2.363-.325-3.428zm-72.623 53.876v-.092.092zm4.086-8.709c.046-.139.093-.092.14.046-.094-.046-.14-.092-.14-.046zm39.655-4.077v-.185c-.046-.37.14-.973.232-.88.047.046.093.139.14.185-.28-.046-.372.14-.372.88zm18.063-75.372v-.185c-.046.185-.093.417-.14.602.047-.092.047-.231.094-.324.046 0 .046-.046.046-.093zm2.275 13.574c.047.046.047.046 0 0zm-21.174 12.6c0 .047 0 0 0 0zm15.51 13.852c-.047 0-.094 0-.094-.046.047-.14.047-.278.093-.417v.463zm7.8-14.64a.71.71 0 01.093.371c-.046-.139-.093-.277-.093-.37zm-15.74-3.844c-.047 0-.047 0 0 0-.047 0-.047 0 0 0zm3.11-.14v.047-.046zm-1.625 8.756l-.093.093v-.926c.047.185.093.416.093.833zm-3.297 10.748v-.602h.047c0 .37 0 .556-.047.602zm7.151-29.185s-.046 0-.046-.047c0-.046.046-.046.046-.092v.139zm-10.03 48.688c0-.092 0-.185-.046-.324v-.185c.046.139.046.324.046.51zm-68.77-58.648h-.092l.418.139c-.093-.047-.14-.047-.232-.093-.047 0-.047-.046-.093-.046zm-.092-.047h.093c-.047.047-.093.047-.093 0zm2.275 4.865c.093 0 .232 0 .325.046-.093 0-.186.046-.325.046v-.092zm60.69 34.512zM23.707 19.172c-.046-.046-.093-.046 0-.093-.046.047 0 .093 0 .093zm53.446 44.287v.232-.232zm-.092 6.764c-.047.046-.047.093-.093.14a1.012 1.012 0 01-.14.23c.047-.092.14-.23.233-.37zM22.87 19.311s-.046 0 0 0c-.046.046-.092 0-.092 0h.093zm-5.618-4.17c.046 0 .093 0 .14-.046v.047h-.14zm-.14 8.061h-.046.047zm.604 50.31c0-.046 0-.046 0 0v-.139.14zm6.037-59.853c0 .046.046.046 0 0h-.047.047zm39.655 78.569s0 .046 0 0c0 .046 0 .046 0 0 0 .046 0 .046 0 0 0 .046 0 .046 0 0 0 .046 0 0 0 0zm14.07-6.717c0 .046 0 .046 0 0 0 .046 0 .046 0 0 0 .046 0 .046 0 0zM24.681 13.845c.047 0 .047 0 0 0 .093 0 .186 0 .233.046-.047-.046-.14-.046-.233-.046zm-9.194.648h-.046c.046 0 .14.046.186.046.046 0 .092.047.139.047-.093 0-.186-.047-.279-.093zm63.57 70.37v-.047.046zm-.047-.14v-.046.046zm22.567-22.19c-.046.232-.046.417-.186.37.047-.185.093-.277.186-.37zM99.396 15.79v-.185c0 .046.046.092.046.185h-.046zm-6.92 6.44s0 .046 0 0c0 .046 0 0 0 0zm-4.921-5.56c0-.046 0-.139.046-.139-.046 0-.046.047-.046.14zm-75.642 5.652c.325-.046.604-.046.975.046-.371-.046-.697-.046-.975-.046-.046 0 0 0 0 0zm66.262 72.269c0-.047 0-.14-.046-.186.046.046.092.37.046.186zm9.426-24.275c-.046.185-.046.37-.14.463-.046-.185-.046-.37-.092-.556.093 0 .14.046.232.093zm7.755-.556s.046 0 0 0c.14.139.232.37.371.648-.139.093-.232-.092-.371-.648zm13.559-17.882v-.232c.046.093 0 .14 0 .232zm-1.208-2.594c-.092-.047-.139-.093-.232-.14 0-.138.047-.277.047-.416.046.185.139.37.185.556zm-.603-22.793c0 .047 0 0 0 0zm-4.597-1.621v-.093.093zm-.465 8.153zm-1.903-20.522zm-5.712 13.11c.046-.092.046-.092.14-.046-.093 0-.093 0-.14.046zm-17.18-11.35c0-.046.046-.046 0 0 .046 0 0 0 0 0zM62.99 97.324c0-.047 0-.093.046-.186.047-.139.047-.185.093-.231l-.14.417zm43.416-72.686c-.046-.092-.046-.139-.093-.231.047 0 .047 0 .093-.047v.278zm-6.361-11.72v-.093c-.047.093-.047.186-.093.278 0 .047-.047.14-.047.186v-.047c.047-.046.093-.185.14-.324zm-6.64 4.077a5.853 5.853 0 01-.14-.464h.14v.464zm-5.248-6.671c0-.556-.046-1.02-.092-1.483v.047c.139.463.185.88.092 1.436zm-11.33 1.76zm-4.69 2.594c.047.093.093.186.14.232-.047 0-.093-.046-.14-.232zm-48.43-3.613c0-.046 0-.046-.047-.046.046 0 .14 0 .186.046-.047-.046-.093-.046-.14 0zm-7.941 1.529s0-.047 0 0c0-.047 0 0 0 0h.046-.046zM45.67 91.162c0 .047 0 .047 0 0 0 .047 0 .047 0 0 0 .047 0 .047 0 0zm9.751 10.702v-.139.139zm7.105-1.39v.185l-.047-.046c.047-.046.047-.093.047-.139zm12.723-3.428v-.14c0 .047 0 .047.046.047-.046.046-.046.046-.046.093zm27.675-28.027v.046-.046zm4.086-6.347c0-.046 0-.046 0 0 0 0 .046.046.046.093 0-.047 0-.093-.046-.093zm-3.808-54.248l-.093-.092c.047 0 .047 0 .093-.047v.14zm-.278 4.633c0 .046 0 .046 0 0 0 .046 0 0 0 0zm-90.27-1.02s-.046.047-.092.047v-.046h.093zM5.088 53.13c0 .046 0 .046.046.093 0 0 0 .046-.046.046-.046-.047 0-.093 0-.14zM19.9 94.405c.093.093.139.278.185.463a.587.587 0 01.047.278c-.093-.278-.186-.51-.232-.74zm11.515-12.044v.277c-.046.14-.139.278-.185.51.046-.278.093-.556.185-.787zm24.007 19.549s.047 0 0 0c.047 0 .047.046 0 0 0 .046 0 0 0 0zm19.596-1.019c0 .092-.047.185-.047.278 0-.093.046-.186.046-.278zm9.147-83.665c-.14.417-.232.51-.371.325a.62.62 0 00.371-.325zM4.808 52.944c.047.092.093.324.14.51-.186.23-.325.462-.465.648 0-.325.047-.695.047-1.02 0-.74.14-.416.278-.139zm-.789 5.42zm4.086 27.98c.093-.046.14-.046.232 0-.092.047-.139.047-.232 0zm57.904 20.708c-.046 0-.046-.092-.093-.185l.186-.185c0 .185-.046.324-.093.37z"/><path d="M28.35 7.637c-.185 0-.37.046-.603.046.325.927.325.927.604-.046z"/></g><g clip-path="url(#clip0)"><path d="M46.743 66.338l.396.017.017.388a3.394 3.394 0 001.02 2.238 3.526 3.526 0 002.283 1l.395.017.018.387a3.393 3.393 0 001.019 2.239 3.571 3.571 0 003.645.81l.413-.147.15.405c.175.482.448.912.825 1.283a3.533 3.533 0 002.477 1.007 3.48 3.48 0 002.477-1.007l2.407-2.36a3.394 3.394 0 001.02-2.239l.017-.387.395-.017a3.527 3.527 0 002.284-1 3.372 3.372 0 001.019-2.238l.018-.387.395-.018a3.526 3.526 0 002.284-.999 3.394 3.394 0 001.019-2.238l.017-.388.396-.017a3.526 3.526 0 002.284-.999l.017-.017c.22-.215.299-.328.562-.706l.185-.259.026-.026a12.669 12.669 0 00-.061-18.057l-1.257-1.231c-.36-.353-.36-.353-.395-.379-4.48-3.625-11.007-4.013-16.26-.956l-.228.13-.228-.13c-5.701-3.35-13.115-2.23-17.586 2.652l-1.063 1.163a11.913 11.913 0 00.457 16.602l1.063 1.059c1.44 1.447 3.768 3.78 3.794 3.806a3.503 3.503 0 002.284.999zm1.432-2.213c-.342.336-.79.5-1.238.5a1.76 1.76 0 01-1.239-.5l-.018-.017a1.696 1.696 0 01.01-2.42l3.724-3.651c.334-.327.773-.5 1.238-.5.466 0 .914.181 1.239.5.641.629.685 1.619.132 2.29v.267h-.255l-3.593 3.53zm2.477 4.15a1.76 1.76 0 01-1.238-.5 1.703 1.703 0 010-2.428l3.724-3.65a1.774 1.774 0 012.477 0 1.691 1.691 0 010 2.428l-3.724 3.65c-.343.328-.79.5-1.239.5zm4.963 3.143a1.76 1.76 0 01-2.477 0 1.691 1.691 0 010-2.428l3.725-3.651a1.774 1.774 0 012.477 0 1.691 1.691 0 010 2.428c-.448.44-3.294 3.23-3.725 3.651zm7.44 0l-2.406 2.36c-.343.335-.79.5-1.239.5a1.76 1.76 0 01-1.238-.5 1.691 1.691 0 010-2.429l2.406-2.359c.334-.327.773-.5 1.239-.5.465 0 .913.181 1.239.5.333.327.509.758.509 1.214 0 .457-.176.887-.51 1.214zm-4.822-29.294l.062-.043c.474-.31 2.362-1.481 4.963-2.067 3.724-.835 7.22-.043 10.119 2.273l.035.026 1.546 1.516c3.672 3.6 4.375 9.17 1.713 13.545l-.36.594-.387-.586c-.21-.318-.21-.318-1.87-1.937a1665.736 1665.736 0 01-5.772-5.657l-.606-.594.843-.138a5.998 5.998 0 003.268-1.645.839.839 0 00.255-.603.844.844 0 00-.255-.611.887.887 0 00-1.239 0c-1.616 1.584-4.277 1.61-5.92.06l-.378-.353a.877.877 0 00-1.089-.095l-6.746 4.41c-1.748 1.145-4.05 1.205-5.868.163l-.492-.276.395-.396c2.064-2.058 3.417-3.453 4.41-4.469 1.704-1.757 2.284-2.35 3.373-3.117zM44.451 60.482a3.34 3.34 0 00-.66.905l-.271.542-2.662-2.644-.009-.008a1.556 1.556 0 01-.114-.12l-.176-.181a10.219 10.219 0 01-.105-13.95l1.063-1.163c1.783-1.954 4.12-3.255 6.746-3.771 2.565-.5 5.27-.19 7.616.887l.606.275-.5.43c-.238.207-.457.414-.668.612-.062.069-.703.715-7.15 7.242a.85.85 0 00.008 1.206c2.45 2.402 6.316 2.78 9.206.895l6.149-4.021.255.198c.096.077 10.33 10.118 10.435 10.22.826.81.562 1.749.035 2.386l-.008.026-.088.078a1.783 1.783 0 01-2.416-.06l-7.44-7.294a.873.873 0 00-.615-.25.879.879 0 00-.624.25.844.844 0 00-.254.611.81.81 0 00.254.603l7.44 7.293a1.703 1.703 0 010 2.428c-.333.328-.772.5-1.238.5-.466 0-.914-.18-1.239-.5l-7.44-7.293a.873.873 0 00-.615-.25.879.879 0 00-.623.25.839.839 0 00-.255.603c0 .232.088.448.255.611l7.44 7.294a1.691 1.691 0 010 2.428c-.343.336-.79.5-1.239.5a1.76 1.76 0 01-1.238-.5 3.526 3.526 0 00-2.284-.999l-.395-.017-.018-.387a3.395 3.395 0 00-1.019-2.24 3.526 3.526 0 00-2.284-.998l-.395-.017-.018-.388a3.394 3.394 0 00-1.019-2.239 3.526 3.526 0 00-2.284-.999l-.395-.017-.017-.387a3.394 3.394 0 00-1.02-2.24 3.56 3.56 0 00-4.962 0l-3.751 3.66z" fill="#26B899"/></g><defs><clipPath id="clip0"><path fill="#fff" transform="translate(36 38)" d="M0 0h44v38H0z"/></clipPath></defs></svg>