<svg width="112" height="113" viewBox="0 0 112 113" fill="none" xmlns="http://www.w3.org/2000/svg">
<g opacity="0.1">
<path d="M85.9764 106.774C85.9764 106.728 85.9306 106.728 85.9764 106.774V106.774Z" fill="#31A593"/>
<path d="M110.911 46.9675C110.679 46.7822 110.54 46.3189 110.493 45.4387C110.168 44.0953 109.797 42.8445 109.658 41.0841C109.611 41.0378 109.611 40.9914 109.565 40.9451C109.565 40.4355 109.518 39.9259 109.611 39.509V39.5553C109.843 38.7215 109.89 37.795 109.751 36.6831L109.797 36.7295C109.658 34.6911 109.611 32.6991 109.704 30.6144C109.843 30.1975 109.843 29.4563 109.89 28.9004L109.843 28.7151L109.89 28.5298C109.936 27.001 109.843 25.4259 110.029 23.9898C110.168 23.6656 110.122 23.017 110.215 22.5537C110.447 20.7934 110.261 19.3573 109.936 18.0138C109.89 18.2454 109.843 18.4307 109.797 18.616C109.797 18.4771 109.797 18.3381 109.797 18.1991C109.751 17.9675 109.751 17.7358 109.797 17.5042C109.611 16.9946 109.611 16.2071 109.518 15.4659C109.472 15.2343 109.379 15.0026 109.333 14.771C108.915 14.3541 108.729 13.3349 108.729 11.7598C108.497 11.0649 108.311 10.37 108.079 9.72147C107.893 9.67515 107.8 9.39719 107.707 8.88761C107.615 8.88761 107.522 8.7023 107.475 8.3317C107.336 8.28537 107.15 8.19272 107.057 7.63681C106.918 7.54416 106.779 7.2662 106.686 6.80294C106.593 6.80294 106.5 6.89559 106.407 6.80294C105.757 6.20071 105.107 5.87642 104.457 4.94991C103.853 4.90358 103.296 4.90358 102.692 4.85725C102.321 4.16237 101.949 4.44032 101.578 4.44032C101.346 4.44032 101.067 4.5793 100.835 3.93074C100.789 4.16237 100.742 4.394 100.696 4.62563C99.2099 3.97706 97.8168 5.08888 96.3773 5.55214C95.7737 5.73745 95.1236 5.92275 94.52 5.69112C93.4984 5.32051 92.4769 5.73745 91.4553 5.04256C91.3624 4.99623 91.2696 5.22786 91.1767 5.32051C91.0838 4.99623 90.9909 5.08888 90.9445 5.45949V5.59847C90.9445 5.59847 90.9445 5.59847 90.9445 5.64479C90.9445 5.59847 90.9445 5.55214 90.9445 5.50582C89.8301 5.45949 88.7157 5.55214 87.6012 5.36684C86.9976 5.22786 86.3475 5.27419 85.7438 4.81093C85.2795 4.48665 84.8152 4.34767 84.3508 4.7646C83.7936 4.94991 83.1899 4.90358 82.6327 4.53297C82.2613 4.30134 81.9362 4.48665 81.6112 4.99623C81.5647 4.81093 81.5647 4.62563 81.5647 4.394C80.4967 4.11604 79.4752 3.88441 78.4072 3.65278C78.2679 3.60646 78.1286 3.74543 78.0357 3.79176C77.6642 2.81892 77.2463 3.37483 76.8284 3.18952C76.4569 3.05055 76.0855 2.91157 75.714 2.77259C75.4818 2.67994 75.2032 2.81892 74.971 2.17035C74.1352 2.21668 73.253 2.35566 72.4171 1.33649C72.185 1.01221 71.9063 1.10486 71.6277 1.01221C71.3491 0.919555 71.0705 1.01221 70.7455 0.595273C70.4204 0.178341 70.049 -0.00696296 69.8168 0.873229C69.4918 1.93872 69.1667 1.70709 68.7952 1.61444C68.2845 1.47547 67.7737 1.01221 67.2629 1.05853C66.7985 1.15118 66.2878 0.502622 65.8234 0.224666C65.6841 0.132015 65.5448 0.270992 65.4519 0.270992C65.3591 0.873229 65.2662 0.826903 65.1733 0.178341C64.9876 0.0856888 64.8019 -0.238592 64.6161 0.317318C64.2446 1.42914 63.8732 1.61444 63.4553 0.548948C63.2695 0.0856888 63.0838 0.178341 62.898 0.456296C62.7123 0.734251 62.5266 1.38281 62.3873 1.29016C61.6907 0.919555 61.1335 2.44831 60.437 2.03138C60.0655 1.79975 59.7405 1.98505 59.4155 1.05853C59.2761 0.641599 59.0904 0.873229 58.9511 0.965881C58.8582 1.66077 58.7189 2.17035 58.5332 2.21668C57.9295 2.35566 57.3723 2.40198 56.7687 2.49463C56.4901 2.54096 56.2579 2.30933 56.0257 1.75342C55.7007 1.01221 55.7007 1.10486 55.3756 2.54096C55.0042 2.72626 54.6327 2.86524 54.3077 2.26301C54.2148 2.12403 54.0755 1.98505 54.029 2.17035C53.6111 3.28217 53.2397 2.58729 52.8217 2.26301C52.5896 2.0777 52.2645 1.84607 52.0788 2.72626C51.8466 3.74543 51.568 3.69911 51.2894 3.74543C50.8715 3.79176 50.5 3.83808 50.0821 3.88441C49.9428 3.88441 49.8035 3.93074 49.7106 3.83809C49.3856 3.5138 49.0605 2.67994 48.7819 2.81892C48.5033 2.95789 48.2247 3.46748 47.9461 3.79176C47.6211 4.16237 47.296 3.88441 46.971 3.5138C46.646 3.1432 46.2745 2.40198 45.9494 3.56013C45.903 3.79176 45.7637 3.79176 45.6708 3.5138C45.5315 3.09687 45.3458 2.91157 45.2065 3.18952C44.51 4.44032 43.8134 4.06972 43.0705 3.37483C42.9312 3.79176 42.7919 4.06971 42.6061 4.02339C41.5846 3.88441 40.563 4.48665 39.5415 4.81093C39.1236 4.94991 38.7056 5.45949 38.2877 4.71828C38.1949 4.53297 38.0091 4.5793 37.9163 4.81093C37.359 6.20071 36.709 5.87642 36.1053 6.10805C35.9196 6.20071 35.6874 6.10805 35.5017 6.20071C35.3159 6.33968 35.1302 6.33968 34.9444 5.96908C34.5265 5.08888 34.1086 5.13521 33.83 6.66396C33.7836 6.89559 33.6443 7.12722 33.5514 7.12722C32.9013 7.12722 32.2977 7.91476 31.6012 7.68313C31.369 7.59048 31.369 8.28537 31.369 8.88761C31.2297 9.02658 31.0904 9.16556 30.9975 9.30454C30.8118 7.91476 30.3474 8.56332 30.0688 7.54416C30.0688 7.49783 29.9295 7.59048 29.9295 7.72946C29.7902 8.88761 29.4187 8.65598 29.1866 9.16556V9.21189C28.908 9.16556 28.6758 9.16556 28.3972 9.11924H28.4436C28.165 8.98026 27.6542 8.93393 27.2363 8.88761H27.097L26.9577 8.84128C26.9577 8.7023 26.9577 8.60965 26.9577 8.47067C26.8184 8.05374 26.6791 8.05374 26.5862 8.42435C26.4469 8.47067 26.3541 8.517 26.2147 8.56333C26.2147 8.60965 26.2147 8.7023 26.2147 8.74863C25.4254 8.65598 24.636 8.60965 23.893 8.42435C23.7073 8.28537 23.2429 8.28537 22.9179 8.19272C21.7106 7.91476 20.7355 7.96109 19.8068 8.10007C19.9461 8.14639 20.0854 8.19272 20.2247 8.23904C20.1318 8.23904 20.039 8.23905 19.9461 8.19272C19.8068 8.19272 19.621 8.19272 19.4817 8.14639C19.1103 8.23904 18.5995 8.19272 18.0887 8.19272C17.9494 8.23905 17.7637 8.23904 17.6244 8.28537C17.2993 8.517 16.6028 8.60965 15.5348 8.517C14.7919 8.7023 14.3275 8.79496 13.8632 8.88761C13.8167 8.98026 13.631 9.07291 13.2595 9.07291C13.2595 9.16556 13.1202 9.21189 12.888 9.21189C12.8416 9.30454 12.7952 9.39719 12.3773 9.44352C12.2844 9.53617 12.0986 9.62882 11.7736 9.62882C11.7736 9.67515 11.82 9.7678 11.7272 9.81413C11.2628 10.2311 11.0307 10.648 10.3341 11.0186C10.2877 11.4355 10.1948 11.8061 10.1484 12.2231C9.68405 12.4084 9.82335 12.6863 9.77692 12.9643C9.77692 13.1496 9.82335 13.3349 9.40544 13.4275C9.54475 13.4739 9.73048 13.5202 9.86979 13.5665C9.31257 14.493 10.0091 15.5585 10.1948 16.5777C10.2877 16.9946 10.3806 17.4579 10.1948 17.8748C9.86979 18.5234 10.102 19.2646 9.54475 19.9132C9.49831 19.9595 9.68405 20.0521 9.73048 20.0985C9.49831 20.1448 9.54475 20.1911 9.77692 20.2838H9.86979C9.82335 20.2838 9.82335 20.2838 9.77692 20.2838C9.68405 21.025 9.68405 21.8125 9.45188 22.5537C9.31257 22.9707 9.31257 23.3876 8.9411 23.7582C8.70893 24.0362 8.56962 24.3605 8.84823 24.6847C8.9411 25.1017 8.84823 25.4723 8.56962 25.8429C8.38388 26.0745 8.47675 26.3061 8.84823 26.5841C8.70893 26.5841 8.56962 26.5841 8.43032 26.5841C8.19814 27.279 7.91954 27.9739 7.68737 28.6688C7.64093 28.7614 7.7338 28.8541 7.78023 28.9467C7.08372 29.132 7.45519 29.4563 7.31589 29.7343C7.17658 29.9659 7.08372 30.1975 6.94441 30.4755C6.85154 30.6144 6.94441 30.7998 6.48007 30.9387C6.48007 31.4946 6.48007 32.0969 5.73711 32.6065C5.50494 32.7454 5.55138 32.9307 5.45851 33.116C5.36564 33.3013 5.41207 33.4866 5.13346 33.672C4.80842 33.8573 4.66912 34.0889 5.27277 34.3205C5.96929 34.5985 5.78355 34.8301 5.69068 35.0617C5.55138 35.386 5.1799 35.7103 5.22633 36.0809C5.22633 36.4052 4.76199 36.6831 4.57625 37.0074C4.52982 37.1001 4.57625 37.1927 4.57625 37.2854C4.99416 37.378 4.94773 37.4707 4.48338 37.4707C4.34408 37.4244 4.1119 37.517 4.43695 37.7023C5.1799 38.0266 5.27277 38.3045 4.52982 38.5362C4.20477 38.6288 4.25121 38.7678 4.43695 38.9068C4.62268 39.0458 5.0406 39.2311 4.94773 39.3237C4.66912 39.7406 5.64425 40.2502 5.3192 40.6672C5.13347 40.8988 5.22633 41.1304 4.57625 41.3157C4.29764 41.362 4.43695 41.501 4.48338 41.64C4.94773 41.7327 5.27277 41.8716 5.3192 42.0106C5.36564 42.4275 5.36564 42.7982 5.41207 43.2151C5.41207 43.4004 5.22633 43.5394 4.85486 43.6783C4.34408 43.8637 4.39051 43.8637 5.36564 44.1879C5.45851 44.4659 5.55138 44.6975 5.13346 44.8828C5.0406 44.9291 4.94773 45.0218 5.0406 45.0681C5.73711 45.3924 5.27277 45.624 5.0406 45.902C4.90129 46.041 4.71555 46.2726 5.3192 46.4579C6.01572 46.6895 5.92285 46.8748 5.92285 47.0601C5.92285 47.3381 5.92285 47.616 5.92285 47.894C5.92285 47.9867 5.92285 48.0793 5.82998 48.172C5.59781 48.3573 4.99416 48.5426 5.08703 48.7279C5.1799 48.9132 5.50494 49.1448 5.69068 49.3301C5.92285 49.6081 5.69068 49.7934 5.45851 49.9787C5.22633 50.164 4.80842 50.3029 5.13346 50.5346C5.0406 50.5346 4.94773 50.5346 4.85486 50.5346C4.29764 50.4883 3.87973 51.1831 3.69399 53.0825C3.55469 54.6576 3.22965 54.9355 2.85817 54.7502C2.67243 55.7231 2.34739 55.3988 2.06878 55.5841C2.02235 56.14 2.02235 56.6959 1.83661 56.8812C1.79018 57.1129 1.69731 57.3445 1.65087 57.5761C1.558 57.3908 1.51157 57.1592 1.4187 56.9739C1.37227 57.0665 1.32583 57.1129 1.2794 57.0665C1.23296 57.4371 1.14009 57.6224 1.04722 57.6688C1.04722 57.8541 1.04722 58.0857 1.04722 58.271C0.815052 58.3637 0.582879 58.5026 0.304272 58.5953C-0.0207699 59.5218 -0.113639 60.6336 0.164968 61.9307C0.304272 62.4867 0.397141 63.0426 0.536445 63.5985C0.815052 64.0154 0.768617 64.5713 0.629314 65.1736C0.582879 65.8221 0.582879 66.4707 0.675748 67.0729C0.907921 67.1192 1.04722 67.8141 1.23296 68.1384C1.23296 68.37 1.2794 68.509 1.32583 68.6017C1.32583 68.787 1.32583 68.9723 1.32583 69.1576C1.558 69.2039 1.83661 69.2966 2.06878 69.3429C2.06878 69.5282 2.11522 69.7598 2.11522 69.9451C2.20809 69.9914 2.30096 70.2694 2.30096 70.64C2.44026 70.6863 2.626 70.779 2.71887 71.2886C2.90461 71.3349 3.09034 71.3812 3.27608 71.4276C3.27608 71.6129 3.32252 71.7982 3.32252 71.9835C3.50826 71.9835 3.64756 72.0298 3.74043 72.5857C3.92617 72.632 4.1119 72.632 4.29764 72.6783C4.43695 73.0953 4.62268 73.4659 4.76199 73.8828C4.90129 73.9291 5.08703 74.0681 5.13346 74.6704C5.36564 74.8557 5.59781 75.3189 5.73711 76.1065C6.20146 76.9403 6.24789 77.2183 6.06216 78.3301C5.78355 79.8589 5.73711 79.9515 6.10859 81.2023C6.34076 82.0825 6.3872 83.1017 6.48007 84.0745C6.71224 84.0745 6.89798 84.0282 7.08372 84.8157C7.17658 84.8157 7.26945 85.0474 7.31589 85.418C7.50163 85.6033 7.7338 85.5569 7.91954 86.2055C8.01241 86.2518 8.15171 86.2982 8.24458 86.3445C8.24458 88.6608 8.70893 89.0777 9.17327 89.7263C9.40544 89.7263 9.54475 90.3748 9.59118 91.1624C9.73048 91.2087 9.86979 91.3477 10.0091 91.8573C10.2877 91.8573 10.4734 92.4595 10.6127 93.2934C10.752 93.3397 10.9378 93.4323 11.0307 93.9419C11.7736 94.1736 12.5166 95.2854 13.2595 95.7486C14.2346 96.3509 15.1633 97.37 16.1849 97.3237C16.9743 98.1576 17.8101 98.8061 18.6459 98.5745C18.6924 98.6672 18.7852 98.8525 18.8317 98.8525C20.364 99.2231 21.8963 99.779 23.4287 99.501C23.9859 100.428 24.5895 100.196 25.1932 100.289C26.3541 100.52 27.5149 101.261 28.6758 101.076C28.7687 101.447 28.8151 101.586 28.908 101.122C29.2794 101.771 29.6973 101.725 30.0688 101.678C30.2546 102.234 30.4867 102.188 30.6725 102.281C30.9046 102.327 31.0904 102.327 31.2761 102.883C31.6012 102.929 31.9726 102.744 32.2977 103.485C32.6227 103.531 32.9478 103.531 33.2728 103.578C33.3657 103.763 33.4121 103.995 33.505 104.18C33.83 104.273 34.2015 103.995 34.5265 104.736C35.4088 104.736 36.2446 105.292 37.1269 106.033C37.4519 106.079 37.8234 105.848 38.1484 106.589C38.6128 106.774 39.0771 106.265 39.5415 107.237C41.0738 107.562 42.6526 107.886 44.1849 108.257C44.51 108.349 44.835 108.118 45.16 108.813C46.228 108.581 47.2496 108.813 48.3176 109.044C49.7106 109.322 51.1037 109.6 52.4503 109.832C52.636 109.878 52.7753 109.832 52.9146 110.249C53.6111 110.202 54.3541 110.527 55.0506 110.156C55.1435 110.388 55.2363 110.434 55.3756 110.434C55.4221 110.48 55.4685 110.249 55.5149 110.156L55.5614 110.249L55.6078 110.202C55.6078 110.202 55.6078 110.202 55.6078 110.249C55.6078 110.527 55.6543 110.712 55.7007 110.712C56.165 111.685 56.6758 110.527 57.1866 111.268H57.233C57.3259 111.083 57.4188 110.99 57.5116 111.268C58.1617 112.287 58.8582 110.944 59.5083 111.777V111.685C59.6476 112.287 59.7869 112.241 59.8798 111.731L59.9727 111.592L60.0655 111.685C60.5763 112.75 61.18 111.407 61.6907 112.287V112.241C61.83 112.75 61.9694 112.75 62.0622 112.194V112.241C62.1087 112.055 62.2015 112.055 62.248 112.055C62.248 112.102 62.248 112.148 62.2944 112.241C63.316 112.148 64.3375 112.102 65.3126 112.055C65.5912 112.055 65.8234 111.916 66.0556 112.472C66.1949 112.472 66.2878 112.472 66.4271 112.519C66.5664 112.009 66.7057 111.963 66.845 112.472C66.9843 112.472 67.0771 112.426 67.2165 112.426C67.4022 111.824 67.6344 111.777 67.8665 112.333C68.1451 112.102 68.3773 112.009 68.6559 112.194C68.981 112.38 69.306 112.194 69.5846 111.685V111.731C69.6311 112.102 69.6775 112.38 69.7704 112.565C70.374 112.38 71.0241 112.982 71.6277 112.009C71.767 111.546 71.9528 111.685 72.0921 111.963H72.185C73.3458 111.175 74.5067 111.592 75.6675 111.268C75.9926 111.175 76.3176 111.638 76.5962 110.712L76.6427 110.619L76.6891 110.712C76.8284 110.341 77.0606 110.434 77.1999 110.156C77.1999 110.156 77.1999 110.11 77.2463 110.11C77.7571 110.527 78.2679 110.527 78.7322 109.785L78.7787 109.693L78.8251 109.785C79.1037 109.137 79.4287 109.832 79.6609 108.998L79.7074 108.859L79.7538 108.905C79.8931 108.674 80.0788 108.674 80.2181 108.118C80.3574 107.793 80.4967 107.84 80.5896 107.376C80.6825 107.006 80.8218 107.006 80.9611 106.774C80.9611 106.96 80.9611 107.145 81.0075 107.376C81.054 107.33 81.1468 107.33 81.1933 107.284C81.379 107.608 81.5647 107.145 81.7505 107.098C81.8898 106.543 82.1219 106.589 82.3077 106.543C82.8185 106.496 83.2828 106.404 83.7936 106.357C83.84 106.404 83.8865 106.45 83.9793 106.496C84.1651 106.774 84.3972 106.404 84.6294 106.867C84.7687 107.376 84.8616 107.33 85.0009 106.821C85.0938 106.635 85.1402 106.589 85.2331 106.774C85.3724 107.284 85.5117 107.237 85.6045 106.728C85.7438 106.357 85.8831 106.357 86.0224 106.682C86.8118 107.33 87.6012 107.145 88.3906 106.496L88.437 106.357L88.4835 106.45C88.5763 106.218 88.7157 106.218 88.8085 106.404C88.9014 106.404 88.9943 106.404 89.0871 106.404C90.248 105.94 91.4089 105.338 92.6162 106.311C92.8019 106.45 92.9412 106.265 92.9412 105.477C92.9876 105.199 93.0341 105.014 93.0805 104.829C93.0805 105.06 93.0805 105.338 93.1269 105.709C93.6377 105.338 94.2414 106.033 94.7057 105.06V105.106C95.588 103.995 96.6095 105.245 97.4918 104.087L97.5382 103.948L97.6311 104.041C98.0026 103.161 98.5133 104.273 98.8848 103.161V103.207C99.1634 102.373 99.5813 103.346 99.8599 102.373C100.231 101.447 100.696 102.651 101.067 101.447L101.021 101.493C101.114 101.308 101.16 101.122 101.253 100.844V100.798C101.439 100.752 101.624 100.706 101.857 100.613C101.996 100.011 102.228 99.9643 102.46 99.8253C102.507 99.5937 102.6 99.3157 102.646 99.0841C102.646 98.7135 102.692 98.2966 102.692 97.9259C102.739 97.8333 102.785 97.7406 102.878 97.6017C102.925 97.37 103.017 97.1384 103.064 96.9068C103.157 96.4899 103.343 96.5825 103.435 96.0266C103.528 95.8876 103.575 95.6097 103.621 95.2854C103.807 95.0074 103.946 94.4978 103.993 93.8029C104.132 93.4787 104.318 93.5713 104.364 93.0154C104.55 92.7375 104.643 92.2279 104.689 91.533L104.736 91.4867C104.736 91.2087 104.736 90.9307 104.782 90.6991C104.782 90.6528 104.782 90.6528 104.782 90.6065C104.828 90.3748 104.828 90.1432 104.921 90.0042C105.061 89.4946 105.153 88.9851 105.293 88.5218C105.339 87.8269 105.525 87.7343 105.664 87.7343C105.804 87.0394 106.036 87.0394 106.268 86.993C106.407 86.3445 106.639 86.2055 106.825 86.1592C106.964 85.4643 107.197 85.6033 107.382 85.3253C107.429 85.0937 107.522 84.8621 107.568 84.6304C107.615 84.2598 107.661 83.9819 107.754 83.8892C107.8 83.6113 107.847 83.287 107.893 83.009C107.893 82.4068 107.94 81.8972 108.125 81.6192C108.125 81.2023 108.218 80.9707 108.311 80.878C108.357 80.3221 108.497 80.0905 108.683 79.9978C108.729 79.6272 108.775 79.4419 108.915 79.3956C109.008 78.8397 109.1 78.6081 109.286 78.5617C109.379 78.0058 109.518 77.8668 109.658 77.8205C109.704 77.2183 109.843 77.033 110.029 76.9403C110.122 76.7087 110.168 76.5234 110.261 76.2918C110.586 75.1336 110.679 73.7438 110.586 72.1688C110.586 72.1688 110.586 72.1688 110.586 72.1224C110.679 71.5202 110.633 70.779 110.726 70.1304C110.679 69.9451 110.679 69.7598 110.726 69.6208C110.865 68.9723 110.818 68.2774 110.772 67.5825C110.726 67.5362 110.726 67.4899 110.679 67.4435C110.726 64.0154 110.54 60.6336 110.54 57.2055C110.493 57.0202 110.493 56.8349 110.447 56.6033C110.447 56.5569 110.493 56.418 110.493 56.3253C110.493 55.6767 110.54 55.2135 110.679 54.7966C110.679 53.9627 110.633 53.1752 110.865 52.5729C110.911 52.156 110.911 51.7391 110.958 51.3221C111.004 51.3221 111.051 51.2758 111.097 51.2295C111.097 50.8125 111.144 50.5346 111.236 50.3956C111.236 49.0985 111.097 48.033 110.911 46.9675ZM38.2877 100.844V100.798C38.2877 100.798 38.2877 100.798 38.2877 100.752C38.2877 100.798 38.2877 100.844 38.2877 100.844ZM42.374 92.1352C42.4204 91.9962 42.4668 92.0426 42.5133 92.1815C42.4204 92.1352 42.374 92.0889 42.374 92.1352ZM82.0291 88.0585C82.0291 88.0122 82.0291 87.9659 82.0291 87.8732C81.9826 87.5026 82.1684 86.9004 82.2613 86.993C82.3077 87.0394 82.3541 87.132 82.4006 87.1783C82.1219 87.132 82.0291 87.3173 82.0291 88.0585ZM100.092 12.6863C100.092 12.64 100.092 12.64 100.092 12.5937C100.092 12.5474 100.092 12.5474 100.092 12.501C100.046 12.6863 99.9992 12.918 99.9528 13.1033C99.9992 13.0106 99.9993 12.8716 100.046 12.779C100.092 12.779 100.092 12.7327 100.092 12.6863ZM102.367 26.2598C102.414 26.3061 102.414 26.3061 102.367 26.2598C102.367 26.3988 102.367 26.4914 102.367 26.6304C102.367 26.4914 102.367 26.3988 102.367 26.2598ZM81.1933 38.8605C81.1933 38.9068 81.1933 38.8605 81.1933 38.8605V38.8605ZM96.7024 52.7119C96.656 52.7119 96.6095 52.7119 96.6095 52.6656C96.656 52.5266 96.656 52.3876 96.7024 52.2486C96.7024 52.3876 96.7024 52.5729 96.7024 52.7119ZM104.503 38.0729C104.55 38.1656 104.596 38.2582 104.596 38.4435C104.55 38.3045 104.503 38.1656 104.503 38.0729ZM88.7621 34.2279C88.7157 34.2279 88.7157 34.2279 88.7621 34.2279C88.7157 34.2279 88.7157 34.2279 88.7621 34.2279ZM91.8732 34.0889C91.8732 34.1352 91.8732 34.1352 91.8732 34.1352V34.0889ZM90.248 42.8445C90.2016 42.8908 90.2016 42.8908 90.1551 42.9371C90.1551 42.7055 90.1551 42.3812 90.1551 42.0106C90.2016 42.1959 90.248 42.4275 90.248 42.8445ZM86.9511 53.5921C86.9511 53.4068 86.9511 53.1752 86.9511 52.9898H86.9976C86.9976 53.3605 86.9976 53.5458 86.9511 53.5921ZM94.1021 24.4068C94.1021 24.4068 94.0556 24.4068 94.0556 24.3605C94.0556 24.3141 94.1021 24.3141 94.1021 24.2678C94.1021 24.3141 94.1021 24.3605 94.1021 24.4068ZM84.0722 73.0953C84.0722 73.0026 84.0722 72.91 84.0258 72.771C84.0258 72.7247 84.0258 72.632 84.0258 72.5857C84.0722 72.7247 84.0722 72.91 84.0722 73.0953ZM15.3026 14.4467H15.2562H15.2098C15.3491 14.493 15.4884 14.5394 15.6277 14.5857C15.5348 14.5394 15.4884 14.5394 15.3955 14.493C15.3491 14.493 15.3491 14.4467 15.3026 14.4467ZM15.2098 14.4004H15.2562H15.3026C15.2562 14.4467 15.2098 14.4467 15.2098 14.4004ZM17.4851 19.2646C17.5779 19.2646 17.7172 19.2646 17.8101 19.3109C17.7172 19.3109 17.6244 19.3573 17.4851 19.3573C17.4851 19.3109 17.4851 19.2646 17.4851 19.2646ZM78.175 53.7774V53.8237V53.87C78.175 53.8237 78.175 53.8237 78.175 53.7774ZM23.7073 19.172C23.6609 19.1256 23.6144 19.1256 23.7073 19.0793C23.6609 19.1256 23.7073 19.172 23.7073 19.172ZM77.1535 63.4595C77.1535 63.5522 77.1535 63.5985 77.1535 63.6911V63.6448C77.1535 63.5985 77.1535 63.5058 77.1535 63.4595ZM77.0606 70.2231C77.0142 70.2694 77.0141 70.3157 76.9677 70.3621C76.9213 70.4547 76.8748 70.5474 76.8284 70.5937C76.8748 70.501 76.9677 70.3621 77.0606 70.2231ZM22.8715 19.3109C22.8715 19.3109 22.825 19.3109 22.8715 19.3109C22.825 19.3573 22.7786 19.3109 22.7786 19.3109C22.7786 19.3109 22.825 19.3109 22.8715 19.3109ZM17.2529 15.1416C17.2993 15.1416 17.3458 15.1416 17.3922 15.0953V15.1416C17.3458 15.1416 17.2993 15.1416 17.2529 15.1416ZM17.1136 23.2023C17.0671 23.2023 17.0671 23.2023 17.0671 23.2023H17.1136ZM17.7172 73.5122C17.7172 73.4659 17.7172 73.4659 17.7172 73.5122C17.7172 73.4659 17.7172 73.4196 17.7172 73.3732C17.7172 73.4196 17.7172 73.4659 17.7172 73.5122ZM23.7537 13.6592C23.7537 13.7055 23.8002 13.7055 23.7537 13.6592C23.7537 13.6592 23.7537 13.6592 23.7073 13.6592H23.7537ZM63.4088 92.2279C63.4088 92.2279 63.4088 92.2742 63.4088 92.2279C63.4088 92.2742 63.4088 92.2742 63.4088 92.2279C63.4088 92.2742 63.4088 92.2742 63.4088 92.2279C63.4088 92.2742 63.4088 92.2742 63.4088 92.2279C63.4088 92.2742 63.4088 92.2742 63.4088 92.3205C63.4088 92.2742 63.4088 92.2279 63.4088 92.2279C63.4088 92.2742 63.4088 92.2279 63.4088 92.2279ZM77.4785 85.5106C77.4785 85.5569 77.4785 85.5569 77.4785 85.5106C77.4785 85.5569 77.4785 85.5569 77.4785 85.5106C77.4785 85.5569 77.4785 85.5569 77.4785 85.5106ZM24.6824 13.8445C24.7288 13.8445 24.7288 13.8445 24.6824 13.8445C24.7753 13.8445 24.8681 13.8445 24.9146 13.8908C24.8681 13.8445 24.7753 13.8445 24.6824 13.8445ZM15.4884 14.493H15.4419C15.4884 14.493 15.5812 14.5394 15.6277 14.5394C15.6741 14.5394 15.7205 14.5857 15.767 14.5857C15.6741 14.5857 15.5812 14.5394 15.4884 14.493ZM79.0573 84.8621V84.8157V84.8621ZM79.0108 84.7231V84.6768C79.0108 84.6768 79.0108 84.6768 79.0108 84.7231ZM101.578 62.533C101.532 62.7646 101.532 62.9499 101.392 62.9036C101.439 62.7183 101.485 62.6256 101.578 62.533ZM99.3956 15.7902C99.3956 15.7438 99.3956 15.6512 99.3956 15.6049C99.3956 15.6512 99.442 15.6975 99.442 15.7902H99.3956ZM92.4769 22.2295C92.4769 22.2295 92.4769 22.2758 92.4769 22.2295C92.4769 22.2758 92.4769 22.2295 92.4769 22.2295ZM87.5548 16.6704C87.5548 16.624 87.5548 16.5314 87.6012 16.5314C87.5548 16.5314 87.5548 16.5777 87.5548 16.6704ZM11.9129 22.3221C12.238 22.2758 12.5166 22.2758 12.888 22.3684C12.5166 22.3221 12.1915 22.3221 11.9129 22.3221C11.8665 22.3221 11.9129 22.3221 11.9129 22.3221ZM78.175 94.5905C78.175 94.5442 78.175 94.4515 78.1286 94.4052C78.175 94.4515 78.2214 94.7758 78.175 94.5905ZM87.6012 70.3157C87.5548 70.501 87.5548 70.6863 87.4619 70.779C87.4155 70.5937 87.4155 70.4084 87.369 70.2231C87.4619 70.2231 87.5084 70.2694 87.6012 70.3157ZM95.3558 69.7598C95.3558 69.7598 95.4022 69.7598 95.3558 69.7598C95.4951 69.8988 95.588 70.1304 95.7273 70.4084C95.588 70.501 95.4951 70.3157 95.3558 69.7598ZM108.915 51.878C108.915 51.7854 108.915 51.739 108.915 51.6464C108.961 51.739 108.915 51.7854 108.915 51.878ZM107.707 49.2838C107.615 49.2375 107.568 49.1911 107.475 49.1448C107.475 49.0058 107.522 48.8668 107.522 48.7279C107.568 48.9132 107.661 49.0985 107.707 49.2838ZM107.104 26.4914V26.5378C107.104 26.5378 107.104 26.5378 107.104 26.4914C107.104 26.5378 107.104 26.4914 107.104 26.4914ZM102.507 24.87V24.9164C102.507 24.87 102.507 24.8237 102.507 24.7774C102.507 24.8237 102.507 24.8237 102.507 24.87ZM102.042 33.0234C102.042 33.0697 102.042 33.116 102.042 33.0697C102.042 33.0234 102.042 33.0234 102.042 33.0234ZM100.139 12.501C100.139 12.5474 100.139 12.5474 100.139 12.5937C100.139 12.64 100.139 12.64 100.139 12.6863C100.139 12.5937 100.139 12.5474 100.139 12.501ZM94.4271 25.6112C94.4735 25.5186 94.4735 25.5186 94.5664 25.5649C94.4735 25.5649 94.4735 25.5649 94.4271 25.6112ZM77.2463 14.2614C77.2463 14.2151 77.2928 14.2151 77.2463 14.2614C77.2928 14.2614 77.2463 14.2614 77.2463 14.2614ZM62.9909 97.3237C62.9909 97.2774 62.9909 97.2311 63.0373 97.1384C63.0838 96.9994 63.0838 96.9531 63.1302 96.9068C63.0838 97.0458 63.0373 97.1847 62.9909 97.3237ZM106.407 24.6384C106.361 24.5458 106.361 24.4994 106.314 24.4068C106.361 24.4068 106.361 24.4068 106.407 24.3605C106.407 24.4531 106.407 24.5458 106.407 24.6384ZM100.046 12.918C100.046 12.8716 100.046 12.8716 100.046 12.8253C99.9993 12.918 99.9992 13.0106 99.9528 13.1033C99.9528 13.1496 99.9064 13.2422 99.9064 13.2886C99.9064 13.2886 99.9064 13.2886 99.9064 13.2422C99.9528 13.1959 99.9993 13.0569 100.046 12.918ZM93.4055 16.9946C93.3591 16.8557 93.3127 16.7167 93.2662 16.5314C93.3127 16.5314 93.3591 16.5314 93.4055 16.5314C93.4055 16.6704 93.4055 16.8093 93.4055 16.9946ZM88.1584 10.3237C88.1584 9.7678 88.112 9.30454 88.0656 8.84128C88.0656 8.84128 88.0656 8.84128 88.0656 8.88761C88.2049 9.35087 88.2513 9.7678 88.1584 10.3237ZM76.8284 12.0841C76.8284 12.1304 76.8284 12.1767 76.8284 12.2231C76.8284 12.1767 76.8284 12.1304 76.8284 12.0841ZM72.1385 14.6783C72.185 14.771 72.2314 14.8636 72.2778 14.91C72.2314 14.91 72.185 14.8636 72.1385 14.6783ZM23.7073 11.0649C23.7073 11.0186 23.7073 11.0186 23.6608 11.0186C23.7073 11.0186 23.8002 11.0186 23.8466 11.0649C23.8002 11.0186 23.7537 11.0186 23.7073 11.0649ZM15.767 12.5937C15.767 12.5937 15.767 12.5474 15.767 12.5937C15.767 12.5474 15.767 12.5937 15.767 12.5937C15.8134 12.5937 15.8134 12.5937 15.8134 12.5937C15.767 12.5937 15.767 12.5937 15.767 12.5937ZM45.6708 91.1624C45.6708 91.2087 45.6708 91.2087 45.6708 91.1624C45.6708 91.2087 45.6708 91.2087 45.6708 91.1624C45.6708 91.2087 45.6708 91.2087 45.6708 91.1624ZM55.4221 101.864C55.4221 101.771 55.4221 101.725 55.4221 101.725C55.4221 101.771 55.4221 101.817 55.4221 101.864ZM62.5266 100.474C62.5266 100.52 62.5266 100.613 62.5266 100.659L62.4801 100.613C62.5266 100.567 62.5266 100.52 62.5266 100.474ZM75.2496 97.0458C75.2496 96.9994 75.2496 96.9531 75.2496 96.9068C75.2496 96.9531 75.2496 96.9531 75.2961 96.9531C75.2496 96.9994 75.2496 96.9994 75.2496 97.0458ZM102.925 69.0186C102.925 69.0649 102.925 69.0649 102.925 69.0649V69.0186ZM107.011 62.672C107.011 62.6256 107.011 62.6256 107.011 62.672C107.011 62.672 107.057 62.7183 107.057 62.7646C107.057 62.7183 107.057 62.672 107.011 62.672ZM103.203 8.42435C103.157 8.37802 103.157 8.37802 103.11 8.3317C103.157 8.3317 103.157 8.3317 103.203 8.28537C103.203 8.3317 103.203 8.37802 103.203 8.42435ZM102.925 13.0569C102.925 13.1033 102.925 13.1033 102.925 13.0569C102.925 13.1033 102.925 13.0569 102.925 13.0569ZM12.6559 12.0378C12.6559 12.0378 12.6094 12.0841 12.563 12.0841V12.0378C12.563 12.0378 12.6094 12.0378 12.6559 12.0378ZM5.08703 53.1288C5.08703 53.1751 5.08703 53.1752 5.13346 53.2215C5.13346 53.2215 5.13347 53.2678 5.08703 53.2678C5.0406 53.2215 5.08703 53.1751 5.08703 53.1288ZM19.8997 94.4052C19.9925 94.4978 20.039 94.6831 20.0854 94.8684C20.1318 94.9611 20.1318 95.0537 20.1318 95.1464C20.039 94.8684 19.9461 94.6368 19.8997 94.4052ZM31.4154 82.3605C31.4154 82.4531 31.4154 82.5458 31.4154 82.6384C31.369 82.7774 31.2761 82.9164 31.2297 83.148C31.2761 82.87 31.3226 82.5921 31.4154 82.3605ZM55.4221 101.91C55.4221 101.91 55.4685 101.91 55.4221 101.91C55.4685 101.91 55.4685 101.956 55.4221 101.91C55.4221 101.956 55.4221 101.91 55.4221 101.91ZM75.0175 100.891C75.0175 100.983 74.971 101.076 74.971 101.169C74.971 101.076 75.0175 100.983 75.0175 100.891ZM84.1651 17.2263C84.0258 17.6432 83.9329 17.7359 83.7936 17.5505C83.9329 17.5042 84.0722 17.4116 84.1651 17.2263ZM4.80842 52.9435C4.85486 53.0362 4.90129 53.2678 4.94773 53.4531C4.76199 53.6847 4.62268 53.9164 4.48338 54.1017C4.48338 53.7774 4.52982 53.4068 4.52982 53.0825C4.52982 52.3413 4.66912 52.6656 4.80842 52.9435ZM4.01904 58.3637C4.01904 58.41 4.01904 58.4563 4.01904 58.4563C4.01904 58.41 4.01904 58.3637 4.01904 58.3637ZM8.10528 86.3445C8.19814 86.2982 8.24458 86.2982 8.33745 86.3445C8.24458 86.3908 8.19814 86.3908 8.10528 86.3445ZM66.0092 107.052C65.9627 107.052 65.9627 106.96 65.9163 106.867C65.9627 106.821 66.0556 106.728 66.102 106.682C66.102 106.867 66.0556 107.006 66.0092 107.052Z" fill="#31A593"/>
<path d="M28.3507 7.63672C28.165 7.63672 27.9792 7.68304 27.7471 7.68304C28.0721 8.60956 28.0721 8.60956 28.3507 7.63672Z" fill="#31A593"/>
</g>
<g clip-path="url(#clip0)">
<path d="M46.7433 66.3379L47.1386 66.3551L47.1562 66.7426C47.2001 67.5864 47.569 68.3872 48.1751 68.9814C48.7813 69.5756 49.5982 69.9372 50.459 69.9803L50.8543 69.9975L50.8719 70.385C50.9158 71.2289 51.2847 72.0297 51.8909 72.6238C52.8395 73.5538 54.2714 73.8724 55.5363 73.4333L55.9491 73.2869L56.0985 73.6916C56.2742 74.1738 56.5465 74.6043 56.9242 74.9746C57.583 75.6204 58.4702 75.9821 59.4013 75.9821C60.3412 75.9821 61.2197 75.629 61.8785 74.9746L64.2853 72.6152C64.8915 72.0211 65.2604 71.2202 65.3043 70.3764L65.3219 69.9889L65.7172 69.9717C66.578 69.9286 67.3949 69.5669 68.0011 68.9728C68.6159 68.37 68.9761 67.5778 69.02 66.734L69.0376 66.3465L69.4329 66.3292C70.2937 66.2862 71.1107 65.9245 71.7168 65.3304C72.3229 64.7362 72.6918 63.9354 72.7357 63.0915L72.7533 62.704L73.1486 62.6868C74.0094 62.6438 74.8264 62.2821 75.4325 61.688L75.45 61.6707C75.6697 61.4555 75.7487 61.3435 76.0122 60.9646L76.1967 60.7063L76.2231 60.6805C81.2476 55.6861 81.2213 47.5833 76.1616 42.6234C75.5291 42.0034 75.1426 41.6245 74.9054 41.392C74.5453 41.039 74.5453 41.039 74.5101 41.0131C70.0302 37.3879 63.5035 37.0004 58.2506 40.0573L58.0222 40.1865L57.7938 40.0573C52.0929 36.7077 44.679 37.8271 40.2079 42.7095L39.145 43.872C34.7793 48.6424 34.9813 55.9445 39.6018 60.4738L40.6647 61.533C42.1053 62.9796 44.4331 65.3131 44.4594 65.339C45.0743 65.9417 45.8825 66.2948 46.7433 66.3379ZM48.1751 64.1248C47.8326 64.4607 47.3846 64.6243 46.9366 64.6243C46.4886 64.6243 46.0406 64.4607 45.698 64.1248L45.6804 64.1076C45.004 63.436 45.0128 62.351 45.6892 61.688L49.4137 58.0369C49.7475 57.7097 50.1867 57.5375 50.6523 57.5375C51.1178 57.5375 51.5658 57.7183 51.8909 58.0369C52.5321 58.6655 52.576 59.6558 52.0226 60.3274V60.5944H51.7679L48.1751 64.1248ZM50.6523 68.2753C50.2043 68.2753 49.7563 68.1117 49.4137 67.7759C49.0799 67.4487 48.9042 67.0181 48.9042 66.5617C48.9042 66.1054 49.0887 65.6662 49.4137 65.3476L53.1382 61.6966C53.8234 61.0249 54.939 61.0249 55.6153 61.6966C56.3005 62.3682 56.3005 63.4618 55.6153 64.1248L51.8909 67.7759C51.5483 68.1031 51.1003 68.2753 50.6523 68.2753ZM55.6153 71.4183C55.2815 71.7455 54.8423 71.9263 54.3768 71.9263C53.9112 71.9263 53.472 71.7455 53.1382 71.4183C52.453 70.7466 52.453 69.6531 53.1382 68.99L56.8627 65.339C57.5479 64.6673 58.6635 64.6673 59.3398 65.339C60.025 66.0106 60.025 67.1042 59.3398 67.7673C58.8919 68.2064 56.0458 70.9964 55.6153 71.4183ZM63.0556 71.4183L60.6487 73.7777C60.3061 74.1135 59.8581 74.2771 59.4101 74.2771C58.9621 74.2771 58.5141 74.1135 58.1715 73.7777C57.4864 73.106 57.4864 72.0124 58.1715 71.3494L60.5784 68.99C60.9122 68.6628 61.3514 68.4906 61.817 68.4906C62.2825 68.4906 62.7305 68.6714 63.0556 68.99C63.3894 69.3172 63.565 69.7478 63.565 70.2042C63.565 70.6605 63.3894 71.0911 63.0556 71.4183ZM58.233 42.1239L58.2945 42.0809C58.7689 41.7709 60.6575 40.5998 63.2576 40.0143C66.9821 39.179 70.4782 39.9712 73.377 42.2875L73.4121 42.3134L74.9581 43.8289C78.6299 47.4283 79.3327 52.9995 76.671 57.3739L76.3109 57.968L75.9244 57.3825C75.7136 57.0639 75.7136 57.0639 74.0534 55.445C72.9905 54.4117 71.2249 52.6809 68.2822 49.7877L67.676 49.1935L68.5193 49.0557C69.7579 48.8577 70.8911 48.2894 71.787 47.411C71.9539 47.2474 72.0418 47.0322 72.0418 46.8083C72.0418 46.5758 71.9539 46.3605 71.787 46.1969C71.4445 45.8611 70.8911 45.8611 70.5485 46.1969C68.9322 47.7813 66.2706 47.8071 64.6279 46.2572L64.2502 45.9041C63.9515 45.62 63.5036 45.5855 63.161 45.8094L56.4147 50.2182C54.6667 51.3635 52.3652 51.4237 50.5469 50.3818L50.055 50.1063L50.4502 49.7102C52.5145 47.6521 53.8673 46.2572 54.8599 45.2411C56.564 43.4845 57.1438 42.8903 58.233 42.1239ZM44.4506 60.4824C44.1783 60.7494 43.9587 61.0507 43.7918 61.3866L43.5195 61.9291L40.8579 59.2855L40.8491 59.2769C40.814 59.2425 40.7701 59.1994 40.7349 59.1563L40.5593 58.9755C36.8787 55.0662 36.7996 49.0213 40.4538 45.0258L41.5167 43.8633C43.2999 41.9087 45.6365 40.6084 48.263 40.0918C50.828 39.5923 53.5335 39.9023 55.8789 40.9787L56.485 41.2542L55.9843 41.6848C55.7471 41.8914 55.5275 42.0981 55.3167 42.2962C55.2552 42.365 54.614 43.0109 48.1664 49.5379C47.8326 49.8738 47.8413 50.4163 48.1751 50.7435C50.6259 53.1459 54.491 53.5248 57.381 51.639L63.5299 47.6177L63.7846 47.8158C63.8813 47.8933 74.1148 57.9336 74.2203 58.0369C75.046 58.8463 74.7824 59.7849 74.2554 60.4221L74.2466 60.448L74.1588 60.5255C73.4648 61.1369 72.4019 61.111 71.7431 60.4652L64.3029 53.1717C64.136 53.0081 63.9164 52.922 63.688 52.922C63.4508 52.922 63.2312 53.0081 63.0643 53.1717C62.8974 53.3354 62.8096 53.5506 62.8096 53.7831C62.8096 54.0156 62.8974 54.2309 63.0643 54.3859L70.5045 61.6793C70.8383 62.0066 71.014 62.4371 71.014 62.8935C71.014 63.3499 70.8296 63.789 70.5045 64.1076C70.1707 64.4348 69.7315 64.6071 69.266 64.6071C68.8004 64.6071 68.3524 64.4262 68.0274 64.1076L60.5872 56.8142C60.4203 56.6506 60.2007 56.5645 59.9723 56.5645C59.7351 56.5645 59.5155 56.6506 59.3486 56.8142C59.1817 56.9778 59.0939 57.1931 59.0939 57.4169C59.0939 57.6494 59.1817 57.8647 59.3486 58.0283L66.7888 65.3218C67.474 65.9934 67.474 67.087 66.7888 67.75C66.4463 68.0859 65.9983 68.2495 65.5503 68.2495C65.1023 68.2495 64.6543 68.0859 64.3117 67.75C63.7056 67.1559 62.8887 66.7942 62.0278 66.7512L61.6325 66.734L61.615 66.3465C61.571 65.5026 61.2021 64.7018 60.596 64.1076C59.9899 63.5135 59.1729 63.1518 58.3121 63.1088L57.9168 63.0915L57.8992 62.704C57.8553 61.8602 57.4864 61.0594 56.8803 60.4652C56.2742 59.871 55.4572 59.5094 54.5964 59.4663L54.2011 59.4491L54.1835 59.0616C54.1396 58.2178 53.7707 57.4169 53.1646 56.8228C51.7942 55.4795 49.5718 55.4795 48.2015 56.8228L44.4506 60.4824Z" fill="#26B899"/>
</g>
<defs>
<clipPath id="clip0">
<rect width="44" height="38" fill="white" transform="translate(36 38)"/>
</clipPath>
</defs>
</svg>
