<svg width="117" height="112" fill="none" xmlns="http://www.w3.org/2000/svg"><g opacity=".1" fill="#40C0A6"><path d="M6.895 89.84c-.28.046-.28.14-.046.28 0 .093.046.187.046.28.562.047.936.047.982-.14.094-.234-.28-.374-.982-.42zm.983 1.309c.374.093.701.14 1.029.093 0-.047 0-.093.046-.14-.841-.234-.841-.234-1.075.047zm1.777-1.169c-.234-.047-1.029.093-1.029.187-.047.047.468.187.748.187.421.047.561 0 .561-.094.047-.093.047-.187-.28-.28zm-3.273-1.31v.421c.655-.14.655-.14 0-.42zm106.803-69.3c0 .047-.047.047 0 0v.047-.047z"/><path d="M116.364 66.599c.094-.608 0-1.31.047-1.917a.956.956 0 010-.515c.094-.608 0-1.262-.093-1.917-.047-.047-.047-.093-.094-.14-.14-3.274-.514-6.5-.748-9.727a2.335 2.335 0 01-.094-.56c0-.047 0-.188.047-.281-.047-.608-.047-1.076.094-1.45-.047-.795-.141-1.543.046-2.151v-1.216c.047 0 .094-.047.141-.093 0-.374 0-.655.093-.795-.047-1.216-.234-2.245-.467-3.227-.234-.187-.374-.608-.468-1.403-.374-1.262-.795-2.431-1.076-4.115-.046-.046-.046-.093-.093-.14-.047-.468-.094-.935 0-1.356a6.9 6.9 0 00-.047-2.759l.047.047a39.771 39.771 0 01-.421-5.799c.094-.42.047-1.075.047-1.636l-.047-.187v-.187c-.047-1.45-.234-2.946-.14-4.302.093-.328.047-.936.093-1.357.141-1.73-.14-3.039-.561-4.302-.047.188-.047.375-.093.562 0-.14 0-.281-.047-.421-.047-.234-.047-.421-.047-.655-.187-.467-.28-1.216-.374-1.917-.093-.234-.14-.421-.234-.655-.421-.374-.654-1.356-.748-2.805-.234-.655-.468-1.263-.701-1.918-.141-.046-.281-.28-.421-.748-.094.047-.187-.14-.281-.514-.14 0-.28-.094-.421-.655-.14-.093-.28-.327-.42-.795-.094 0-.188.094-.281 0-.655-.561-1.309-.795-1.964-1.683h-1.683c-.375-.608-.749-.374-1.076-.328-.234 0-.468.187-.701-.42-.047.233-.047.42-.094.654-.608-.234-1.216-.14-1.777.047h-.187c-.608-.14.094-.561-.842-.655-.514-.28-1.87-.14-2.712-.28a3.71 3.71 0 00-.795-.094h.047c-.701-.093-1.543-.187-2.104-.374-.374-.047-.328-.234-.795-.28h.047c-.421-.094-1.076 0-1.543 0-.14.046-.328.046-.468.046-.374-.046-.982.047-1.403 0-.234-.046-.468-.093-.795-.093h.047c-1.076-.14-2.198-.28-3.414-.421-.234-.047-.467-.047-.748-.094-.514-.14-1.169-.374-1.917-.233-3.273.654-5.097-.047-7.762.093-.655 0-1.216-.047-1.777.094-.234-.234-.421-.28-.608 0a18.383 18.383 0 01-.889-.14c-1.636-.468-3.694-.655-6.687-.047-1.73.327-3.647.514-5.518.608-1.122.046-2.15.14-3.18.374-1.168.14-2.384.233-3.553.374-1.076.093-2.151.327-3.18.234-.374.046-.795.093-1.169.14-.047.093-.234.187-.561.234 0 .046-.047.093-.14.187-1.31.187-2.572.327-3.928.467-.842.047-1.73.187-2.572.328-.421.233-1.076.28-1.73.374-.421.046-.795.093-1.076.233-.42.047-.795.14-1.216.188 0 .046-.047.093-.047.187-.374.046-.748.14-1.075.187-.047.046-.047.093-.094.14h-.046c-.234 0-.421.047-.655.047 0 .046 0 .093-.047.187-.187.046-.42.046-.608.093v.187c-.327.047-.56.14-.654.234-.562.047-1.03.14-1.31.327-.701.094-1.403.187-1.87.421-1.45.187-2.479.608-3.881.842-1.17.28-1.73.701-3.087.935-.28.187-.748.234-1.262.328-.094.093-.327.187-.655.233-.374.328-1.636.561-1.917.936-.187.046-.374.046-.561.093-.187.327-1.029.561-1.87.748-.094.094-.281.187-.608.234v.187c-.188.047-.421.047-.608.094-.047.093-.281.187-.608.233-.047.094-.187.188-.515.281-.046.047-.046.094-.14.187-.234 0-.42.047-.608.094-.093.093-.28.187-.654.233-.375.234-.795.468-1.17.702-.046.234-.467.467-1.169.701-.046.14-.187.28-.654.421 0 .047.046.14.046.187-.187.047-.327.047-.514.094-.093.14-.187.28-.795.42-.187.14-.608.281-1.122.375-.094.14-.28.28-.701.42 0 .188.187.421-.562.608-.046.094-.28.187-.608.234a3.25 3.25 0 01-.607.234c-.047.093-.234.187-.562.28-.046.14-.233.281-.654.421 0 .14-.094.281-.608.421.047.187.14.374-.514.608a.497.497 0 01-.047.561H4.51c-.468.14-.842.328-1.076.468-.42.14-.374.28 0 .374.328-.047.328 0 .094.093l-.047.047a1.73 1.73 0 01-.514.234c-.374.14-.234.28-.561.421-.608.234-.094.42-.515.608-.841.374.14.608-.467.982-.468.14-.374.28-.561.42-.936.375.187.609-.515.983h.047c-.608.28-.468.514.093.701.281.374 1.45.608.982 1.076v.046c.515.14.094.421.795.515a1.4 1.4 0 01.468.187l1.496 5.658c-.233.093-.467.187-.56.28-.842.375.186.608-.515.982h.047c-.28.094-.28.14 0 .188h.093l-.047.093c.468.28.608.608.187.982h.047c-.467.187-.467.28.047.327h-.047c.14.047.328.047.561.047.047.234.234.468-.374.702.094.28.14.56.234.841.187.047.514.094.561.14.14.562.28 1.076.374 1.637 0 .094-.28.234-.467.374-.234.374.28.748-.374 1.17l.14.7h.514c.14.328.28.702.421 1.03.608.046.561.233.094.42.046.187.046.328.093.515.468.093.515.234.047.374.047.28.14.561.187.888.655.14.701.28.093.561.094.281.14.608.842.842.14 0 .28.047.374.047a9.164 9.164 0 00-.654.28c.374.702-.094 1.544.888 2.198.935.328-.047.889.935 1.216l.094.047-.047.047c.514.093.094.42.748.514-.093.234-.187.514-.374.748-.234.28-.374.608-.093.935.093.421 0 .795-.28 1.17-.188.233-.094.467.28.748h-.421c-.234.701-.515 1.402-.748 2.104-.047.093.046.187.093.28-.701.188-.327.515-.467.795-.14.234-.234.468-.375.749-.093.14 0 .327-.467.467 0 .561 0 1.17-.748 1.684-.234.14-.187.327-.28.514-.094.187-.048.374-.328.561-.328.187-.468.42.14.655.701.28.514.514.42.748-.14.327-.514.655-.467 1.029 0 .327-.467.608-.654.935-.047.093 0 .187 0 .28.42.094.374.188-.094.188-.047.14-.327.233.047.374.748.327.842.608.093.841-.327.094-.28.234-.093.374.187.14.608.328.514.421-.28.421.702.936.374 1.356-.187.234-.093.468-.748.655-.28.047-.14.187-.093.327.467.094.795.234.841.374.047.421.047.795.094 1.216 0 .187-.187.328-.561.468-.515.187-.468.187.514.514.094.28.187.515-.234.702-.093.046-.187.14-.093.187.701.327.234.56 0 .841-.14.14-.328.374.28.561.702.234.608.421.608.608v.842c0 .094 0 .187-.093.28-.234.188-.842.375-.748.562.093.187.42.42.607.608.234.28 0 .467-.233.654-.281.188-.795.375-.047.702.14.047.14.14-.047.187-.28.047-.42.187-.234.28.795.562.515 1.03-.046 1.45.28.094.467.234.42.327-.187.702.187 1.403.328 2.151.046.281.374.608-.14.842-.14.047-.14.187.046.28.935.468.655.89.748 1.31.047.14-.046.28.047.42.047.141.047.281-.234.375-.654.234-.654.514.374.842.187.046.281.14.281.187-.047.42.468.935.234 1.356-.094.14.42.187.841.234l.281.28c-.982.047-.561.421-1.263.515-.046 0 .047.093.14.14.796.187.609.42.936.608.094.047.42.047.655.093-.328.515-.328.655 0 .936.327.28.748.327 1.777.233.701-.046.654.187 1.028.28.187.235.374.469.515.702l-.14.14c.093.047.14.047.093.094.094.047.234.094.42.14v.094c.328.093.422.187.422.327.046.187.093.328.187.515.14-.047.42-.047.42-.14.094-.281.14-.515-.467-.796-.047-.28.14-.56-.514-.888 0-.094-.047-.187-.047-.234.14-.14.327-.234.467-.374.14 0 .328.047.468.047.187.42.561.888 1.122 1.31-.046.093 0 .233.421.326.047.047.14.188.187.188.468.046.28-.094.28-.14.094-.141.094-.281-.046-.422.094-.14.047-.28-.327-.467v-.935c.327.046.608-.14.982.046 0 .047 0 .094.046.14.047.094.234.14.515.14.14 0 .28 0 .327-.046.187-.14.094-.28-.327-.468-.187-.28.374-.42.467-.608.14 0 .281 0 .375.047.093.14.093.28.56.468 0 .187.094.374.468.561.28 1.076.047 2.104.094 3.18-.655 1.122-.468 2.291-.702 3.46 0 .094.094.234.14.328-.327.56-.28 1.168 0 1.776-.14.234-.14.468.047.702-.093.327.094.655.562 1.029 0 .187-.047.374-.047.561.093.047.093.093.047.093.14.047.28.047.42.047v.047c.047.187.047.374.094.514.14 0 .234.047.374.047.047.187.094.374.187.514 1.122.234 1.403.234 1.45-.046.046-.188.046-.375-.468-.562l.047-.046-.047-.094c.047-.14.047-.28.094-.374.046 0 .093-.047.187-.047.841-.093 1.215 0 1.262.234.047.187-.14.327.468.514 0 .094 0 .187.047.281.14.374.28.421 1.87.561.795-.093 1.73 0 2.619.14.608.094 1.075.141 1.59.094.28-.047.42.093.56.14.421.141.702.141.842 0 .187-.187.421-.374.608-.608.795.047 1.216.187 1.31.421.093.328.187.655.28.935.047.094.234.234.327.328-.093.047-.093.047.047.093 0 .421.421.889.935 1.31 0 .046.047.093.047.14-.28.467.28.982 1.029 1.449-.047.281-.047.608-.093.889-.047.374.374.701 1.683.982 1.075.234 1.216.421 1.075.701.655.187.374.374.515.562.374.046.748.093.888.233.14.047.328.141.468.187a1.36 1.36 0 01-.421.094c.047.047.094.093.047.093.234.047.374.141.42.187.14 0 .281.047.421.047.047.187.14.328.188.515.607.28 1.356.42 2.29.327a70.27 70.27 0 011.17-.14c.28-.141.655-.094 1.075.046.421.094.889.141 1.31.094.046-.14.56-.187.795-.281.14 0 .28 0 .327-.046.14 0 .28.046.374.046.047-.187.14-.327.187-.514.14 0 .28 0 .421.047.047-.094.234-.094.514-.094.047-.093.094-.187.468-.234.047-.14.093-.233.14-.374h.374c0-.093.047-.233.468-.233.047-.141.093-.234.093-.375.281-.093.562-.14.842-.233.047-.094.14-.187.561-.234.14-.14.468-.281 1.03-.328.607-.28.794-.28 1.542-.046 1.029.28 1.076.327 1.964.187.608-.094 1.31-.047 2.01-.047 0-.14 0-.327.515-.374 0-.094.14-.094.421-.14.14-.141.14-.281.561-.328.047-.093.094-.14.094-.234 1.59.188 1.917-.14 2.385-.374.046-.187.467-.187.982-.187.046-.093.14-.187.514-.233 0-.188.468-.281 1.029-.328.047-.093.14-.187.467-.234.047-.14.14-.233.234-.374.421.047.842.047 1.216-.187.094.234.187.234.327.234.047.047.094-.187.14-.234l.047.047.047-.047v.047c0 .281.047.421.14.468.515.888.936-.234 1.45.467h.047c.093-.14.14-.28.28-.047.702.936 1.263-.374 1.918.375v-.047c.14.561.28.514.374.047l.093-.141.094.094c.56.982 1.028-.328 1.59.467v-.046c.14.467.28.467.374-.047v.047c.046-.187.14-.187.187-.187 0 .046 0 .093.046.14.936-.14 1.918-.281 2.853-.374.234-.047.468-.187.748.374h.328c.093-.514.233-.514.42-.094.094 0 .234-.046.328-.046.14-.562.374-.655.608-.141.233-.233.467-.327.748-.187.327.187.608-.046.841-.514v.047c.047.374.14.608.234.748.561-.234 1.216.327 1.73-.655.094-.421.281-.327.421-.093h.094c1.029-.795 2.198-.468 3.273-.842.28-.094.655.327.842-.561l.047-.094.046.094c.14-.327.328-.327.468-.561 0 0 0-.047.047-.047.514.327.982.327 1.403-.374l.046-.094.047.047c.187-.608.514-.093.702-.655.374.047.841.141 1.168.187.094.468.188.889-.794 1.403v.515c.42.233 1.262 0 1.917 0 .514.28.374.654.374 1.028.795.094.561.375 1.075.515.982-.047 1.263-.421 2.151-.515.188-.233-.187-.514.608-.795 0-.14 0-.28.608-.42.047-.094.187-.187.515-.281v-.327c.14-.047.187-.094.093-.141l.561-.14v-.327c.187-.047.374-.047.515-.094a18.492 18.492 0 01-.14-.14c.14-.047.233-.14.233-.187.327-.094.468-.14.374-.281.14-.046.187-.093.14-.14.328-.14.702-.234 1.03-.374v-.047c.046 0 .093-.046.14-.046.233-.047.42-.141.514-.188l-.047.047c.842-.514 1.637-.982 1.777-1.496.842-.281.842-.561 1.216-.889h-.047c1.309-.701 1.45-1.402 1.871-2.104.28-.047.608-.187.841-.561l.047-.14.094.046c.327-.841.841.14 1.122-.935v.047c.234-.795.701.093.888-.842.281-.888.842.234 1.076-.982l-.234-.093c.047-.187.14-.374.14-.608v-.047c.187-.047.374-.14.561-.187.094-.561.328-.655.515-.795l.14-.701V91.57c.047-.094.094-.188.14-.328.047-.187.094-.42.141-.654.046-.421.234-.328.28-.842.094-.14.141-.421.141-.748.14-.281.233-.749.28-1.45.094-.327.281-.234.327-.795.141-.28.234-.748.234-1.403l.047-.047c0-.28-.047-.514 0-.748v-.093c0-.234.047-.421.094-.608.093-.468.187-.982.28-1.45 0-.654.14-.748.327-.795.094-.654.328-.701.515-.701.093-.655.28-.748.514-.842.094-.654.328-.561.515-.795.046-.234.093-.467.14-.654 0-.375.047-.608.14-.702.047-.28.047-.561.094-.842 0-.56 0-1.028.14-1.309 0-.374.047-.655.14-.701.047-.562.141-.749.281-.889 0-.374.093-.56.187-.608.047-.56.14-.795.327-.841.047-.515.187-.655.328-.749.046-.56.14-.748.28-.841.047-.187.094-.421.187-.608.094-1.076.094-2.432-.047-3.928zM35.794 5.34c-.046.047-.046.047 0 0zm46.668-4.068c-.046 0-.14.047-.187.047h.047c0-.047.094-.047.14-.047zm30.021 56.535s-.047-.047 0 0c-.047-.047 0-.047 0 0v-.047c0 .047.047.093.047.14-.047-.047-.047-.093-.047-.093 0-.047 0 0 0 0zM39.863 6.09c.046 0 .093-.047.14-.047 0 .047-.047.047-.14.047.046 0 .046 0 0 0zm-19.266 6.5c.047 0 .047.046.047.093 0 .093-.094.14-.234.187a.977.977 0 00.187-.28zm85.34 10.848zm-2.946-12.813v-.187c-.047.187-.094.374-.094.561 0-.093.047-.233.047-.327.047 0 .047 0 .047-.047zm0 0c0-.046 0-.14.046-.187v.142c-.046 0-.046 0-.046.046zm-4.677 12.626c0-.094.047-.094.094-.047 0 0-.047 0-.094.047zm4.162-9.633v-.187c.047.047.047.094.094.14-.047.047-.047.047-.094.047zm-.654 51.578c.14.14.233.327.374.561-.094.14-.234-.047-.374-.561zm1.122-54.43c0 .093-.047.187-.047.28 0 .047-.047.14-.047.187v-.046c.047-.094.047-.234.094-.375v-.046zM45.1 101.904s.047 0 0 0c.047 0 0 0 0 0zM15.406 78.055c-.093 0-.233.047-.327.047.094 0 .234 0 .327-.047zM108.65 34.52c.046.047.093.188.093.328a.861.861 0 01-.093-.328zm-2.619-4.629v-.047.047zm-.047-7.81v-.091c-.046.046 0 .046 0 .093zm-86.508-3.787c.467-.047.607.047.374.234-.094-.093-.234-.14-.374-.234zm-5.331 5.471h.047c0-.046 0-.046-.047 0zm-3.32 49.147c-.047-.047-.047-.047 0 0h.046c-.046-.047-.046-.047-.046 0zm6.593 13.841c-.047 0-.047-.047 0 0 0-.047 0 0 0 0zm25.205 16.039h.046-.046zM7.644 28.254c.094.047.14.14.047.188 0 0-.047 0-.094.046 0-.093 0-.14.047-.234zm5.237 27.637h-.093.093zm27.777 48.631c.046-.046.093-.14.14-.187.14.047.187.094.093.141-.046 0-.14.046-.233.046zm.42-.795c.047 0 .047.047.094.047h-.14l.046-.047zm72.574-56.534zm-1.543-2.712c.047.187.14.374.234.56-.094-.046-.14-.093-.234-.14v-.42zm-1.683-21.137v.002zm-.749-1.73c-.046-.046-.046-.14-.093-.187.047 0 .047 0 .093-.046v.233zm-3.974-10.802c0 .047 0 .047 0 0 0 .047 0 0 0 0zM32.848 8.334c-.046 0-.14 0-.233.047.093 0 .14-.047.233-.047zM11.9 79.458c.14.047.28.047.328.094-.14-.047-.328-.047-.468-.094h.14zm8.604 15.806h-.046.046zm18.939 13.514h.047-.047zm55.319-6.5h.093c-.047 0-.093.047-.14.047h-.047c.047 0 .047-.047.094-.047zM22.654 11.046h.094-.094zM10.684 88.53c-.047 0-.047-.047 0-.047 0 0 .093-.047.14-.047h.093c-.093.047-.14.094-.233.094.046.047.046.047 0 0zm3.834.842c-.047 0-.14 0-.187.046 0-.046.047-.046.187-.046zm21.51 18.377h-.093c0-.047.046-.047.093 0-.047-.047 0-.047 0 0zM35.14 5.435c-.047 0-.094 0-.094-.047l.094.047zm-19.5 7.482c-.047.046-.093.093-.14.093 0-.046.047-.093.14-.093zm10.147 89.174h.094c0 .047.047.047.093.093-.093-.046-.14-.093-.187-.093zm9.96 5.798c.047 0 .234-.047.375-.047.14.141.28.281.42.375a3.578 3.578 0 00-.7-.094c-.515-.094-.235-.187-.094-.234zm23.1.047c-.046-.047 0-.094 0-.14.048.046.048.093 0 .14zm17.256-5.518l-.094-.187c.047-.047.094-.14.14-.187 0 .14 0 .327-.046.374z"/></g><path d="M48.482 44.611a4.766 4.766 0 004.763-4.763 4.766 4.766 0 00-4.763-4.763 4.766 4.766 0 00-4.763 4.763 4.766 4.766 0 004.763 4.763zm0-8.165a3.401 3.401 0 013.402 3.402 3.401 3.401 0 01-3.402 3.402 3.401 3.401 0 110-6.804z" fill="#26B899"/><path d="M57.327 53.287v-4.083a6.153 6.153 0 00-3.096-5.324.674.674 0 00-.876.178c-2.033 2.688-5.86 3.215-8.556 1.183a6.223 6.223 0 01-1.183-1.183.674.674 0 00-.876-.178 6.143 6.143 0 00-3.104 5.324v4.083c0 1.131.91 2.041 2.041 2.041h13.609c1.131 0 2.041-.91 2.041-2.041zm-1.36 0c0 .374-.307.68-.681.68H41.677a.683.683 0 01-.68-.68v-4.083c0-1.276.519-2.492 1.412-3.385a.678.678 0 01.944-.017 7.443 7.443 0 005.128 2.041 7.404 7.404 0 005.13-2.041.678.678 0 01.944.017 4.798 4.798 0 011.411 3.385v4.083zm19.494 3.121H65.254a4.766 4.766 0 00-4.763 4.764v10.206a4.766 4.766 0 004.763 4.763h10.207a4.766 4.766 0 004.763-4.763V61.172a4.76 4.76 0 00-4.763-4.764zm3.402 14.97a3.401 3.401 0 01-3.402 3.403H65.254a3.401 3.401 0 01-3.402-3.403v-8.165h17.011v8.165zm0-9.526h-17.01v-.68a3.401 3.401 0 013.401-3.403h10.207a3.401 3.401 0 013.402 3.403v.68z" fill="#26B899"/><path d="M65.06 59.326a.683.683 0 00-.962 0 .683.683 0 000 .961.683.683 0 00.961 0 .903.903 0 00.145-.221.615.615 0 000-.519.558.558 0 00-.145-.221zm2.1-.187a.287.287 0 00-.119.042.514.514 0 00-.12.06c-.033.025-.067.05-.101.085a.693.693 0 000 .97l.102.085a.518.518 0 00.119.06c.043.016.077.033.119.042.043.008.094.008.136.017.374 0 .68-.298.68-.68a.662.662 0 00-.204-.486.652.652 0 00-.612-.195zm2.603.042a.667.667 0 00-.222.145.693.693 0 000 .97.684.684 0 00.476.196.678.678 0 00.681-.681.662.662 0 00-.204-.485.665.665 0 00-.731-.145zm-6.958-17.972a11.59 11.59 0 0110.606 8.854l-.348-.297c-.468-.4-1.191-.043-1.14.578a.716.716 0 00.238.476l1.684 1.455a.754.754 0 001.063-.077l1.455-1.684a.721.721 0 00.17-.502c-.043-.612-.808-.867-1.216-.4l-.485.562a12.942 12.942 0 00-11.933-10.309.682.682 0 00-.724.68c-.017.35.273.638.63.664zm-5.903 29.157a11.59 11.59 0 01-10.607-8.854l.349.298c.468.4 1.19.042 1.14-.579a.716.716 0 00-.239-.476L45.861 59.3a.754.754 0 00-1.063.077l-1.454 1.684a.72.72 0 00-.17.502c.042.612.808.867 1.216.4l.485-.562a12.942 12.942 0 0011.933 10.31.682.682 0 00.723-.681c.017-.35-.264-.638-.63-.664z" fill="#26B899"/></svg>