<svg width="117" height="112" viewBox="0 0 117 112" fill="none" xmlns="http://www.w3.org/2000/svg">
<g opacity="0.1">
<path d="M6.89538 89.8394C6.61481 89.8861 6.61481 89.9796 6.84862 90.1199C6.84862 90.2134 6.89538 90.307 6.89538 90.4005C7.45652 90.4473 7.83061 90.4473 7.87737 90.2602C7.97089 90.0264 7.5968 89.8861 6.89538 89.8394Z" fill="#40C0A6"/>
<path d="M7.87793 91.1486C8.25202 91.2421 8.57935 91.2888 8.90668 91.2421C8.90668 91.1953 8.90668 91.1486 8.95344 91.1018C8.11174 90.868 8.11174 90.868 7.87793 91.1486Z" fill="#40C0A6"/>
<path d="M9.65478 89.9797C9.42097 89.933 8.62603 90.0733 8.62603 90.1668C8.57927 90.2136 9.09364 90.3538 9.37421 90.3538C9.79507 90.4006 9.93535 90.3538 9.93535 90.2603C9.98211 90.1668 9.98211 90.0733 9.65478 89.9797Z" fill="#40C0A6"/>
<path d="M6.38184 88.6704C6.38184 88.8107 6.38184 88.951 6.38184 89.0913C7.0365 88.951 7.0365 88.951 6.38184 88.6704Z" fill="#40C0A6"/>
<path d="M113.185 19.3699C113.185 19.4173 113.138 19.4173 113.185 19.3699C113.185 19.4173 113.185 19.4173 113.185 19.4173V19.3699Z" fill="#40C0A6"/>
<path d="M116.364 66.5988C116.458 65.9909 116.364 65.2895 116.411 64.6816C116.364 64.4946 116.364 64.3543 116.411 64.1672C116.505 63.5593 116.411 62.9047 116.318 62.25C116.271 62.2033 116.271 62.1565 116.224 62.1097C116.084 58.8364 115.71 55.6099 115.476 52.3834C115.429 52.1963 115.382 52.0093 115.382 51.8222C115.382 51.7755 115.382 51.6352 115.429 51.5416C115.382 50.9338 115.382 50.4661 115.523 50.092C115.476 49.2971 115.382 48.5489 115.569 47.941C115.569 47.5202 115.569 47.1461 115.569 46.7252C115.616 46.7252 115.663 46.6785 115.71 46.6317C115.71 46.2576 115.71 45.977 115.803 45.8368C115.756 44.621 115.569 43.5922 115.336 42.6102C115.102 42.4232 114.962 42.0023 114.868 41.2074C114.494 39.9448 114.073 38.7758 113.792 37.0924C113.746 37.0456 113.746 36.9988 113.699 36.9521C113.652 36.4845 113.605 36.0168 113.699 35.596C113.839 34.801 113.886 33.8658 113.652 32.8371L113.699 32.8838C113.418 30.9666 113.278 29.0494 113.278 27.0854C113.372 26.6646 113.325 26.0099 113.325 25.4488L113.278 25.2617V25.0747C113.231 23.6251 113.044 22.1287 113.138 20.7726C113.231 20.4453 113.185 19.8374 113.231 19.4165C113.372 17.6864 113.091 16.377 112.67 15.1145C112.623 15.3015 112.623 15.4886 112.577 15.6756C112.577 15.5353 112.577 15.395 112.53 15.2548C112.483 15.021 112.483 14.8339 112.483 14.6001C112.296 14.1325 112.203 13.3843 112.109 12.6829C112.016 12.4491 111.969 12.262 111.875 12.0282C111.454 11.6541 111.221 10.6721 111.127 9.22254C110.893 8.56788 110.659 7.95998 110.426 7.30532C110.285 7.25856 110.145 7.02475 110.005 6.55713C109.911 6.6039 109.818 6.41685 109.724 6.04276C109.584 6.04276 109.444 5.94923 109.303 5.3881C109.163 5.29457 109.023 5.06077 108.883 4.59315C108.789 4.59315 108.695 4.68668 108.602 4.59315C107.947 4.03202 107.293 3.79821 106.638 2.90974C106.077 2.90974 105.516 2.90974 104.955 2.90974C104.58 2.30184 104.206 2.53565 103.879 2.58241C103.645 2.58241 103.411 2.76946 103.178 2.16156C103.131 2.39536 103.131 2.58241 103.084 2.81622C102.476 2.58241 101.868 2.67593 101.307 2.86298C101.26 2.86298 101.167 2.86298 101.12 2.86298C100.512 2.72269 101.214 2.30184 100.278 2.20832C99.7641 1.92775 98.408 2.06803 97.5663 1.92775C97.3325 1.88099 97.0986 1.83423 96.7713 1.83423H96.8181C96.1167 1.7407 95.275 1.64718 94.7138 1.46014C94.3397 1.41337 94.3865 1.22633 93.9189 1.17957H93.9656C93.5448 1.08604 92.8901 1.17957 92.4225 1.17957C92.2822 1.22633 92.0952 1.22633 91.9549 1.22633C91.5808 1.17957 90.9729 1.27309 90.5521 1.22633C90.3182 1.17957 90.0844 1.13281 89.7571 1.13281H89.8039C88.7284 0.992521 87.6061 0.852237 86.3903 0.711952C86.1565 0.665191 85.9227 0.665191 85.6421 0.61843C85.1277 0.478145 84.4731 0.244338 83.7249 0.384622C80.4516 1.03928 78.6279 0.337861 75.9625 0.478145C75.3078 0.478145 74.7467 0.431384 74.1855 0.571668C73.9517 0.337861 73.7647 0.291099 73.5776 0.571668C73.2503 0.524907 72.923 0.478145 72.6892 0.431384C71.0525 -0.0362307 68.995 -0.223276 66.0023 0.384622C64.2721 0.711953 62.3549 0.898998 60.4844 0.992521C59.3622 1.03928 58.3334 1.13281 57.3047 1.36661C56.1356 1.5069 54.9198 1.60042 53.7508 1.7407C52.6753 1.83423 51.5998 2.06803 50.571 1.97451C50.1969 2.02127 49.7761 2.06803 49.402 2.1148C49.3552 2.20832 49.1682 2.30184 48.8408 2.3486C48.8408 2.39536 48.7941 2.44213 48.7006 2.53565C47.3912 2.72269 46.1287 2.86298 44.7726 3.00326C43.9309 3.05002 43.0424 3.19031 42.2007 3.33059C41.7799 3.5644 41.1252 3.61116 40.4705 3.70469C40.0497 3.75145 39.6756 3.79821 39.395 3.93849C38.9742 3.98525 38.6001 4.07878 38.1792 4.12554C38.1792 4.1723 38.1325 4.21906 38.1325 4.31258C37.7584 4.35935 37.3843 4.45287 37.0569 4.49963C37.0102 4.54639 37.0102 4.59315 36.9634 4.63991H36.9167C36.6829 4.63991 36.4958 4.68668 36.262 4.68668C36.262 4.73344 36.262 4.7802 36.2152 4.87372C36.0282 4.92048 35.7944 4.92048 35.6073 4.96724C35.6073 5.01401 35.6073 5.06077 35.6073 5.15429C35.28 5.20105 35.0462 5.29457 34.9527 5.3881C34.3915 5.43486 33.9239 5.52838 33.6434 5.71543C32.9419 5.80895 32.2405 5.90247 31.7729 6.13628C30.3233 6.32333 29.2945 6.74418 27.8917 6.97799C26.7227 7.25856 26.1615 7.67941 24.8055 7.91322C24.5249 8.10026 24.0573 8.14702 23.5429 8.24055C23.4494 8.33407 23.2156 8.42759 22.8882 8.47435C22.5141 8.80168 21.2516 9.03549 20.971 9.40958C20.784 9.45634 20.5969 9.45634 20.4099 9.50311C20.2228 9.83044 19.3811 10.0642 18.5394 10.2513C18.4459 10.3448 18.2588 10.4383 17.9315 10.4851C17.9315 10.5319 17.9315 10.5786 17.9315 10.6721C17.7445 10.7189 17.5107 10.7189 17.3236 10.7657C17.2769 10.8592 17.043 10.9527 16.7157 10.9995C16.669 11.093 16.5287 11.1865 16.2013 11.28C16.1546 11.3268 16.1546 11.3736 16.0611 11.4671C15.8273 11.4671 15.6402 11.5138 15.4532 11.5606C15.3596 11.6541 15.1726 11.7477 14.7985 11.7944C14.4244 12.0282 14.0036 12.262 13.6295 12.4958C13.5827 12.7296 13.1618 12.9635 12.4604 13.1973C12.4137 13.3375 12.2734 13.4778 11.8058 13.6181C11.8058 13.6649 11.8525 13.7584 11.8525 13.8052C11.6655 13.8519 11.5252 13.8519 11.3382 13.8987C11.2446 14.039 11.1511 14.1793 10.5432 14.3195C10.3562 14.4598 9.93531 14.6001 9.42093 14.6936C9.32741 14.8339 9.14036 14.9742 8.71951 15.1145C8.71951 15.3015 8.90656 15.5353 8.15837 15.7224C8.11161 15.8159 7.8778 15.9094 7.55047 15.9562C7.36343 16.0497 7.12962 16.1432 6.94257 16.19C6.89581 16.2835 6.70877 16.377 6.38144 16.4706C6.33468 16.6108 6.14763 16.7511 5.72678 16.8914C5.72678 17.0317 5.63325 17.172 5.11888 17.3123C5.16564 17.4993 5.25916 17.6864 4.6045 17.9202C4.69802 18.1072 4.69802 18.2943 4.55774 18.4813C4.55774 18.4813 4.55774 18.4813 4.51098 18.4813C4.04336 18.6216 3.66927 18.8086 3.43547 18.9489C3.01461 19.0892 3.06137 19.2295 3.43547 19.323C3.7628 19.2762 3.7628 19.323 3.52899 19.4165L3.48223 19.4633C3.34194 19.5568 3.1549 19.6503 2.96785 19.6971C2.59376 19.8374 2.73404 19.9777 2.40671 20.118C1.79881 20.3518 2.31319 20.5388 1.89234 20.7259C1.05063 21.0999 2.03262 21.3338 1.42472 21.7078C0.957108 21.8481 1.05063 21.9884 0.863585 22.1287C-0.0716436 22.5028 1.05063 22.7366 0.34921 23.1107H0.395971C-0.211928 23.3913 -0.0716436 23.6251 0.489494 23.8121C0.770063 24.1862 1.9391 24.42 1.47148 24.8876V24.9344C1.98586 25.0747 1.56501 25.3552 2.26643 25.4488C2.45347 25.4955 2.59376 25.5423 2.73404 25.6358L4.23041 31.2939C3.9966 31.3875 3.7628 31.481 3.66927 31.5745C2.82757 31.9486 3.85632 32.1824 3.1549 32.5565H3.20166C2.92109 32.65 2.92109 32.6968 3.20166 32.7435H3.29518L3.24842 32.8371C3.71603 33.1176 3.85632 33.445 3.43547 33.8191H3.48223C3.01461 34.0061 3.01461 34.0996 3.52899 34.1464H3.48223C3.62251 34.1932 3.80956 34.1931 4.04336 34.1931C4.09013 34.427 4.27717 34.6608 3.66927 34.8946C3.7628 35.1751 3.80956 35.4557 3.90308 35.7363C4.09013 35.783 4.41746 35.8298 4.46422 35.8766C4.6045 36.4377 4.74479 36.9521 4.83831 37.5132C4.83831 37.6067 4.55774 37.747 4.37069 37.8873C4.13689 38.2614 4.65126 38.6355 3.9966 39.0563C4.04336 39.2901 4.09013 39.524 4.13689 39.7578C4.32393 39.7578 4.46422 39.7578 4.65126 39.7578C4.79155 40.0851 4.93183 40.4592 5.07212 40.7865C5.68002 40.8333 5.63325 41.0203 5.16564 41.2074C5.2124 41.3944 5.2124 41.5347 5.25916 41.7217C5.72678 41.8153 5.77354 41.9556 5.30592 42.0958C5.35268 42.3764 5.44621 42.657 5.49297 42.9843C6.14763 43.1246 6.19439 43.2649 5.58649 43.5454C5.68002 43.826 5.72678 44.1533 6.4282 44.3871C6.56848 44.3871 6.70877 44.4339 6.80229 44.4339C6.56848 44.5274 6.33468 44.621 6.14763 44.7145C6.52172 45.4159 6.05411 46.2576 7.0361 46.9123C7.97133 47.2396 6.98934 47.8007 7.97133 48.1281L8.06485 48.1748L8.01809 48.2216C8.53246 48.3151 8.11161 48.6424 8.76627 48.736C8.67275 48.9698 8.57922 49.2503 8.39218 49.4841C8.15837 49.7647 8.01809 50.092 8.29866 50.4194C8.39218 50.8402 8.29866 51.2143 8.01809 51.5884C7.83104 51.8222 7.92457 52.056 8.29866 52.3366C8.15837 52.3366 8.01809 52.3366 7.8778 52.3366C7.644 53.038 7.36343 53.7394 7.12962 54.4409C7.08286 54.5344 7.17638 54.6279 7.22314 54.7214C6.52172 54.9085 6.89581 55.2358 6.75553 55.5164C6.61524 55.7502 6.52172 55.984 6.38144 56.2646C6.28791 56.4048 6.38144 56.5919 5.91382 56.7322C5.91382 57.2933 5.91382 57.9012 5.16564 58.4156C4.93183 58.5559 4.97859 58.7429 4.88507 58.93C4.79155 59.117 4.83831 59.3041 4.55774 59.4911C4.23041 59.6781 4.09013 59.9119 4.69802 60.1458C5.39945 60.4263 5.2124 60.6601 5.11888 60.8939C4.97859 61.2213 4.6045 61.5486 4.65126 61.9227C4.65126 62.25 4.18365 62.5306 3.9966 62.8579C3.94984 62.9514 3.9966 63.045 3.9966 63.1385C4.41746 63.232 4.37069 63.3255 3.90308 63.3255C3.85632 63.4658 3.57575 63.5593 3.94984 63.6996C4.69802 64.027 4.79155 64.3075 4.04336 64.5413C3.71603 64.6349 3.7628 64.7751 3.94984 64.9154C4.13689 65.0557 4.55774 65.2428 4.46422 65.3363C4.18365 65.7571 5.16564 66.2715 4.83831 66.6924C4.65126 66.9262 4.74479 67.16 4.09013 67.347C3.80956 67.3938 3.94984 67.5341 3.9966 67.6743C4.46422 67.7679 4.79155 67.9082 4.83831 68.0484C4.88507 68.4693 4.88507 68.8434 4.93183 69.2642C4.93183 69.4513 4.74479 69.5916 4.37069 69.7318C3.85632 69.9189 3.90308 69.9189 4.88507 70.2462C4.97859 70.5268 5.07212 70.7606 4.65126 70.9476C4.55774 70.9944 4.46422 71.0879 4.55774 71.1347C5.25916 71.462 4.79155 71.6958 4.55774 71.9764C4.41746 72.1167 4.23041 72.3505 4.83831 72.5375C5.53973 72.7713 5.44621 72.9584 5.44621 73.1454C5.44621 73.426 5.44621 73.7066 5.44621 73.9871C5.44621 74.0807 5.44621 74.1742 5.35268 74.2677C5.11888 74.4548 4.51098 74.6418 4.6045 74.8288C4.69802 75.0159 5.02535 75.2497 5.2124 75.4368C5.44621 75.7173 5.2124 75.9044 4.97859 76.0914C4.69802 76.2785 4.18365 76.4655 4.93183 76.7928C5.07212 76.8396 5.07212 76.9331 4.88507 76.9799C4.6045 77.0266 4.46422 77.1669 4.65126 77.2604C5.44621 77.8216 5.16564 78.2892 4.6045 78.7101C4.88507 78.8036 5.07212 78.9439 5.02535 79.0374C4.83831 79.7388 5.2124 80.4402 5.35268 81.1884C5.39945 81.469 5.72678 81.7963 5.2124 82.0301C5.07212 82.0769 5.07212 82.2172 5.25916 82.3107C6.19439 82.7783 5.91382 83.1992 6.00735 83.62C6.05411 83.7603 5.96058 83.9006 6.05411 84.0409C6.10087 84.1811 6.10087 84.3214 5.8203 84.4149C5.16564 84.6488 5.16564 84.9293 6.19439 85.2567C6.38144 85.3034 6.47496 85.3969 6.47496 85.4437C6.4282 85.8646 6.94257 86.3789 6.70877 86.7998C6.61524 86.9401 7.12962 86.9868 7.55047 87.0336C7.644 87.1271 7.73752 87.2206 7.83104 87.3142C6.84905 87.3609 7.2699 87.735 6.56848 87.8285C6.52172 87.8285 6.61524 87.9221 6.70877 87.9688C7.50371 88.1559 7.31667 88.3897 7.644 88.5767C7.73752 88.6235 8.06485 88.6235 8.29866 88.6702C7.97133 89.1846 7.97133 89.3249 8.29866 89.6055C8.62599 89.886 9.04684 89.9328 10.0756 89.8393C10.777 89.7925 10.7303 90.0263 11.1043 90.1198C11.2914 90.3537 11.4784 90.5875 11.6187 90.8213C11.572 90.868 11.5252 90.9148 11.4784 90.9616C11.572 91.0083 11.6187 91.0083 11.572 91.0551C11.6655 91.1018 11.8058 91.1486 11.9928 91.1954C11.9928 91.2421 11.9928 91.2421 11.9928 91.2889C12.3201 91.3824 12.4137 91.4759 12.4137 91.6162C12.4604 91.8033 12.5072 91.9435 12.6007 92.1306C12.741 92.0838 13.0216 92.0838 13.0216 91.9903C13.1151 91.7097 13.1618 91.4759 12.5539 91.1954C12.5072 90.9148 12.6942 90.6342 12.0396 90.3069C12.0396 90.2134 11.9928 90.1198 11.9928 90.0731C12.1331 89.9328 12.3201 89.8393 12.4604 89.699C12.6007 89.699 12.7878 89.7458 12.928 89.7458C13.1151 90.1666 13.4892 90.6342 14.0503 91.0551C14.0036 91.1486 14.0503 91.2889 14.4712 91.3824C14.5179 91.4292 14.6115 91.5695 14.6582 91.5695C15.1258 91.6162 14.9388 91.4759 14.9388 91.4292C15.0323 91.2889 15.0323 91.1486 14.892 91.0083C14.9855 90.868 14.9388 90.7277 14.5647 90.5407C14.5647 90.2134 14.5647 89.9328 14.5647 89.6055C14.892 89.6522 15.1726 89.4652 15.5467 89.6522C15.5467 89.699 15.5467 89.7458 15.5934 89.7925C15.6402 89.886 15.8273 89.9328 16.1078 89.9328C16.2481 89.9328 16.3884 89.9328 16.4352 89.886C16.6222 89.7458 16.5287 89.6055 16.1078 89.4184C15.9208 89.1379 16.4819 88.9976 16.5754 88.8105C16.7157 88.8105 16.856 88.8105 16.9495 88.8573C17.043 88.9976 17.0431 89.1379 17.5107 89.3249C17.5107 89.5119 17.6042 89.699 17.9783 89.886C18.2588 90.9615 18.025 91.9903 18.0718 93.0658C17.4171 94.1881 17.6042 95.3571 17.3704 96.5262C17.3704 96.6197 17.4639 96.76 17.5107 96.8535C17.1833 97.4146 17.2301 98.0225 17.5107 98.6304C17.3704 98.8642 17.3704 99.098 17.5574 99.3318C17.4639 99.6592 17.6509 99.9865 18.1186 100.361C18.1186 100.548 18.0718 100.735 18.0718 100.922C18.1653 100.969 18.1653 101.015 18.1186 101.015C18.2588 101.062 18.3991 101.062 18.5394 101.062V101.109C18.5862 101.296 18.5862 101.483 18.6329 101.623C18.7732 101.623 18.8667 101.67 19.007 101.67C19.0538 101.857 19.1006 102.044 19.1941 102.184C20.3164 102.418 20.5969 102.418 20.6437 102.138C20.6904 101.95 20.6904 101.763 20.1761 101.576L20.2228 101.53L20.1761 101.436C20.2228 101.296 20.2228 101.156 20.2696 101.062C20.3164 101.062 20.3631 101.015 20.4566 101.015C21.2983 100.922 21.6724 101.015 21.7192 101.249C21.766 101.436 21.5789 101.576 22.1868 101.763C22.1868 101.857 22.1868 101.95 22.2336 102.044C22.3739 102.418 22.5141 102.465 24.104 102.605C24.899 102.512 25.8342 102.605 26.7227 102.745C27.3306 102.839 27.7982 102.886 28.3126 102.839C28.5931 102.792 28.7334 102.932 28.8737 102.979C29.2945 103.12 29.5751 103.12 29.7154 102.979C29.9024 102.792 30.1363 102.605 30.3233 102.371C31.1182 102.418 31.5391 102.558 31.6326 102.792C31.7261 103.12 31.8197 103.447 31.9132 103.727C31.96 103.821 32.147 103.961 32.2405 104.055C32.147 104.102 32.147 104.102 32.2873 104.148C32.2873 104.569 32.7081 105.037 33.2225 105.458C33.2225 105.504 33.2693 105.551 33.2693 105.598C32.9887 106.065 33.5498 106.58 34.298 107.047C34.2513 107.328 34.2513 107.655 34.2045 107.936C34.1577 108.31 34.5786 108.637 35.8879 108.918C36.9634 109.152 37.1037 109.339 36.9634 109.619C37.6181 109.806 37.3375 109.993 37.4778 110.181C37.8519 110.227 38.226 110.274 38.3663 110.414C38.5066 110.461 38.6936 110.555 38.8339 110.601C38.6936 110.648 38.5533 110.695 38.413 110.695C38.4598 110.742 38.5066 110.788 38.4598 110.788C38.6936 110.835 38.8339 110.929 38.8806 110.975C39.0209 110.975 39.1612 111.022 39.3015 111.022C39.3483 111.209 39.4418 111.35 39.4885 111.537C40.0964 111.817 40.8446 111.957 41.7799 111.864C42.1539 111.817 42.528 111.77 42.9489 111.724C43.2295 111.583 43.6036 111.63 44.0244 111.77C44.4453 111.864 44.9129 111.911 45.3337 111.864C45.3805 111.724 45.8949 111.677 46.1287 111.583C46.269 111.583 46.4092 111.583 46.456 111.537C46.5963 111.537 46.7366 111.583 46.8301 111.583C46.8769 111.396 46.9704 111.256 47.0171 111.069C47.1574 111.069 47.2977 111.069 47.438 111.116C47.4848 111.022 47.6718 111.022 47.9524 111.022C47.9991 110.929 48.0459 110.835 48.42 110.788C48.4667 110.648 48.5135 110.555 48.5603 110.414C48.7006 110.414 48.7941 110.414 48.9344 110.414C48.9344 110.321 48.9811 110.181 49.402 110.181C49.4487 110.04 49.4955 109.947 49.4955 109.806C49.7761 109.713 50.0566 109.666 50.3372 109.573C50.384 109.479 50.4775 109.386 50.8983 109.339C51.0386 109.199 51.366 109.058 51.9271 109.011C52.535 108.731 52.722 108.731 53.4702 108.965C54.499 109.245 54.5457 109.292 55.4342 109.152C56.0421 109.058 56.7435 109.105 57.4449 109.105C57.4449 108.965 57.4449 108.778 57.9593 108.731C57.9593 108.637 58.0996 108.637 58.3802 108.591C58.5205 108.45 58.5205 108.31 58.9413 108.263C58.9881 108.17 59.0348 108.123 59.0348 108.029C60.6247 108.217 60.9521 107.889 61.4197 107.655C61.4664 107.468 61.8873 107.468 62.4017 107.468C62.4484 107.375 62.5419 107.281 62.916 107.235C62.916 107.047 63.3836 106.954 63.9448 106.907C63.9915 106.814 64.0851 106.72 64.4124 106.673C64.4592 106.533 64.5527 106.44 64.6462 106.299C65.0671 106.346 65.4879 106.346 65.862 106.112C65.9555 106.346 66.049 106.346 66.1893 106.346C66.2361 106.393 66.2829 106.159 66.3296 106.112L66.3764 106.159L66.4231 106.112C66.4231 106.112 66.4231 106.112 66.4231 106.159C66.4231 106.44 66.4699 106.58 66.5634 106.627C67.0778 107.515 67.4986 106.393 68.013 107.094H68.0598C68.1533 106.954 68.2001 106.814 68.3404 107.047C69.0418 107.983 69.6029 106.673 70.2576 107.422V107.375C70.3979 107.936 70.5381 107.889 70.6317 107.422L70.7252 107.281L70.8187 107.375C71.3799 108.357 71.8475 107.047 72.4086 107.842V107.796C72.5489 108.263 72.6892 108.263 72.7827 107.749V107.796C72.8295 107.609 72.923 107.609 72.9697 107.609C72.9697 107.655 72.9697 107.702 73.0165 107.749C73.9517 107.609 74.9337 107.468 75.8689 107.375C76.1028 107.328 76.3366 107.188 76.6171 107.749C76.7107 107.749 76.8509 107.749 76.9445 107.749C77.038 107.235 77.1783 107.235 77.3653 107.655C77.4588 107.655 77.5991 107.609 77.6926 107.609C77.8329 107.047 78.0667 106.954 78.3005 107.468C78.5344 107.235 78.7682 107.141 79.0487 107.281C79.3761 107.468 79.6566 107.235 79.8904 106.767V106.814C79.9372 107.188 80.0307 107.422 80.1242 107.562C80.6854 107.328 81.34 107.889 81.8544 106.907C81.9479 106.486 82.135 106.58 82.2753 106.814H82.3688C83.3976 106.019 84.5666 106.346 85.6421 105.972C85.9227 105.878 86.2968 106.299 86.4838 105.411L86.5306 105.317L86.5773 105.411C86.7176 105.084 86.9047 105.084 87.0449 104.85C87.0449 104.85 87.0449 104.803 87.0917 104.803C87.6061 105.13 88.0737 105.13 88.4945 104.429L88.5413 104.335L88.5881 104.382C88.7751 103.774 89.1024 104.289 89.2895 103.727C89.6636 103.774 90.1312 103.868 90.4585 103.914C90.552 104.382 90.6456 104.803 89.6636 105.317C89.6636 105.504 89.6636 105.645 89.6636 105.832C90.0844 106.065 90.9261 105.832 91.5808 105.832C92.0952 106.112 91.9549 106.486 91.9549 106.86C92.7498 106.954 92.516 107.235 93.0304 107.375C94.0124 107.328 94.293 106.954 95.1814 106.86C95.3685 106.627 94.9944 106.346 95.7893 106.065C95.7893 105.925 95.7893 105.785 96.3972 105.645C96.444 105.551 96.5843 105.458 96.9116 105.364C96.9116 105.271 96.9116 105.13 96.9116 105.037C97.0519 104.99 97.0986 104.943 97.0051 104.896C97.1922 104.85 97.3792 104.803 97.5663 104.756C97.5663 104.663 97.5663 104.522 97.5663 104.429C97.7533 104.382 97.9404 104.382 98.0806 104.335C98.0339 104.289 97.9871 104.242 97.9404 104.195C98.0806 104.148 98.1742 104.055 98.1742 104.008C98.5015 103.914 98.6418 103.868 98.5483 103.727C98.6885 103.681 98.7353 103.634 98.6885 103.587C99.0159 103.447 99.39 103.353 99.7173 103.213C99.7173 103.213 99.7173 103.213 99.7173 103.166C99.7641 103.166 99.8108 103.12 99.8576 103.12C100.091 103.073 100.278 102.979 100.372 102.932L100.325 102.979C101.167 102.465 101.962 101.997 102.102 101.483C102.944 101.202 102.944 100.922 103.318 100.594H103.271C104.58 99.893 104.721 99.1916 105.142 98.4901C105.422 98.4434 105.75 98.3031 105.983 97.929L106.03 97.7887L106.124 97.8355C106.451 96.9938 106.965 97.9758 107.246 96.9003V96.947C107.48 96.1521 107.947 97.0405 108.134 96.1053C108.415 95.2168 108.976 96.3391 109.21 95.1233L108.976 95.0298C109.023 94.8428 109.116 94.6557 109.116 94.4219C109.116 94.4219 109.116 94.4219 109.116 94.3751C109.303 94.3284 109.49 94.2348 109.677 94.1881C109.771 93.627 110.005 93.5334 110.192 93.3931C110.239 93.1593 110.285 92.9255 110.332 92.6917C110.332 92.3176 110.332 91.9435 110.332 91.5695C110.379 91.4759 110.426 91.3824 110.472 91.2421C110.519 91.0551 110.566 90.8213 110.613 90.5875C110.659 90.1666 110.847 90.2601 110.893 89.7458C110.987 89.6055 111.034 89.3249 111.034 88.9976C111.174 88.717 111.267 88.2494 111.314 87.548C111.408 87.2206 111.595 87.3142 111.641 86.753C111.782 86.4725 111.875 86.0048 111.875 85.3502L111.922 85.3034C111.922 85.0228 111.875 84.789 111.922 84.5552C111.922 84.5085 111.922 84.5085 111.922 84.4617C111.922 84.2279 111.969 84.0409 112.016 83.8538C112.109 83.3862 112.203 82.8718 112.296 82.4042C112.296 81.7495 112.436 81.656 112.623 81.6093C112.717 80.9546 112.951 80.9078 113.138 80.9078C113.231 80.2532 113.418 80.1597 113.652 80.0661C113.746 79.4115 113.98 79.505 114.167 79.2712C114.213 79.0374 114.26 78.8036 114.307 78.6165C114.307 78.2424 114.354 78.0086 114.447 77.9151C114.494 77.6345 114.494 77.354 114.541 77.0734C114.541 76.5123 114.541 76.0446 114.681 75.7641C114.681 75.39 114.728 75.1094 114.821 75.0627C114.868 74.5015 114.962 74.3145 115.102 74.1742C115.102 73.8001 115.195 73.6131 115.289 73.5663C115.336 73.0052 115.429 72.7713 115.616 72.7246C115.663 72.2102 115.803 72.0699 115.944 71.9764C115.99 71.4153 116.084 71.2282 116.224 71.1347C116.271 70.9476 116.318 70.7138 116.411 70.5268C116.505 69.4513 116.505 68.0952 116.364 66.5988ZM35.7944 5.34134C35.7476 5.3881 35.7476 5.3881 35.7944 5.34134V5.34134ZM82.4623 1.27309C82.4156 1.27309 82.322 1.31985 82.2753 1.31985C82.2753 1.31985 82.2753 1.31985 82.322 1.31985C82.322 1.27309 82.4156 1.27309 82.4623 1.27309ZM112.483 57.8077C112.483 57.8077 112.436 57.7609 112.483 57.8077C112.436 57.7609 112.483 57.7609 112.483 57.8077C112.483 57.7609 112.483 57.7609 112.483 57.7609C112.483 57.8077 112.53 57.8544 112.53 57.9012C112.483 57.8544 112.483 57.8077 112.483 57.8077C112.483 57.7609 112.483 57.8077 112.483 57.8077ZM39.8626 6.08952C39.9094 6.08952 39.9562 6.04276 40.0029 6.04276C40.0029 6.08952 39.9562 6.08952 39.8626 6.08952C39.9094 6.08952 39.9094 6.08952 39.8626 6.08952ZM20.5969 12.5894C20.6437 12.5894 20.6437 12.6361 20.6437 12.6829C20.6437 12.7764 20.5502 12.8232 20.4099 12.8699C20.5034 12.7764 20.5502 12.6829 20.5969 12.5894ZM105.937 23.438C105.937 23.5315 105.937 23.6251 105.937 23.7186C105.937 23.6251 105.937 23.5315 105.937 23.438ZM102.991 10.6254C102.991 10.5786 102.991 10.5786 102.991 10.5319C102.991 10.4851 102.991 10.4851 102.991 10.4383C102.944 10.6254 102.897 10.8124 102.897 10.9995C102.897 10.9059 102.944 10.7657 102.944 10.6721C102.991 10.6721 102.991 10.6721 102.991 10.6254ZM102.991 10.6254C102.991 10.5786 102.991 10.4851 103.037 10.4383C103.037 10.4383 103.037 10.4383 103.037 10.4851C103.037 10.5319 103.037 10.5319 103.037 10.5786C102.991 10.5786 102.991 10.5786 102.991 10.6254ZM98.3145 23.251C98.3145 23.1574 98.3612 23.1574 98.408 23.2042C98.408 23.2042 98.3612 23.2042 98.3145 23.251ZM102.476 13.6181C102.476 13.5714 102.476 13.5246 102.476 13.4311C102.523 13.4778 102.523 13.5246 102.57 13.5714C102.523 13.6181 102.523 13.6181 102.476 13.6181ZM101.822 65.196C101.962 65.3363 102.055 65.5233 102.196 65.7571C102.102 65.8974 101.962 65.7104 101.822 65.196ZM102.944 10.7657C102.944 10.8592 102.897 10.9527 102.897 11.0462C102.897 11.093 102.85 11.1865 102.85 11.2333C102.85 11.2333 102.85 11.2333 102.85 11.1865C102.897 11.093 102.897 10.9527 102.944 10.8124C102.944 10.8124 102.944 10.8124 102.944 10.7657ZM45.0999 101.904C45.0999 101.904 45.1467 101.904 45.0999 101.904C45.1467 101.904 45.0999 101.904 45.0999 101.904ZM15.4064 78.0554C15.3129 78.0554 15.1726 78.1021 15.0791 78.1021C15.1726 78.1021 15.3129 78.1021 15.4064 78.0554ZM108.649 34.5205C108.695 34.5672 108.742 34.7075 108.742 34.8478C108.695 34.7543 108.649 34.614 108.649 34.5205ZM106.03 29.8911C106.03 29.8443 106.03 29.8443 106.03 29.8443C106.03 29.8911 106.03 29.8911 106.03 29.8911ZM105.983 22.0819V22.1287C105.983 22.0819 105.983 22.0352 105.983 21.9884C105.937 22.0352 105.983 22.0352 105.983 22.0819ZM19.4746 18.2943C19.9423 18.2475 20.0825 18.341 19.8487 18.5281C19.7552 18.4345 19.6149 18.3878 19.4746 18.2943ZM14.1438 23.7653H14.1906C14.1906 23.7186 14.1906 23.7186 14.1438 23.7653ZM10.8238 72.9116C10.777 72.8649 10.777 72.8649 10.8238 72.9116H10.8705C10.8238 72.8649 10.8238 72.8649 10.8238 72.9116ZM17.4171 86.753C17.3704 86.753 17.3704 86.7063 17.4171 86.753C17.4171 86.7063 17.4171 86.753 17.4171 86.753ZM42.6216 102.792H42.6683H42.6216ZM7.644 28.2544C7.73752 28.3012 7.78428 28.3947 7.69076 28.4415C7.69076 28.4415 7.644 28.4415 7.59724 28.4883C7.59724 28.3947 7.59723 28.348 7.644 28.2544ZM12.8813 55.8905C12.8345 55.8905 12.8345 55.8905 12.7878 55.8905C12.8345 55.8905 12.8813 55.8905 12.8813 55.8905ZM40.6576 104.522C40.7043 104.476 40.7511 104.382 40.7979 104.335C40.9381 104.382 40.9849 104.429 40.8914 104.476C40.8446 104.476 40.7511 104.522 40.6576 104.522ZM41.0784 103.727C41.1252 103.727 41.1252 103.774 41.172 103.774C41.1252 103.774 41.0784 103.774 41.0317 103.774C41.0784 103.727 41.0784 103.727 41.0784 103.727ZM113.652 47.1928C113.652 47.2396 113.652 47.3331 113.652 47.4266C113.652 47.3331 113.652 47.2396 113.652 47.1928ZM112.109 44.4807C112.156 44.6677 112.249 44.8548 112.343 45.0418C112.249 44.995 112.203 44.9483 112.109 44.9015C112.109 44.7612 112.109 44.621 112.109 44.4807ZM110.426 23.3445V23.3913C110.426 23.3913 110.426 23.3913 110.426 23.3445ZM109.677 21.6143C109.631 21.5676 109.631 21.474 109.584 21.4273C109.631 21.4273 109.631 21.4273 109.677 21.3805C109.677 21.474 109.677 21.5676 109.677 21.6143ZM105.703 10.8124C105.703 10.8592 105.703 10.8592 105.703 10.8124C105.703 10.8592 105.703 10.8124 105.703 10.8124ZM32.8484 8.33407C32.8017 8.33407 32.7081 8.33407 32.6146 8.38083C32.7081 8.38083 32.7549 8.33407 32.8484 8.33407ZM11.8993 79.4582C12.0396 79.505 12.1799 79.505 12.2266 79.5518C12.0863 79.505 11.8993 79.505 11.759 79.4582C11.8058 79.4582 11.8525 79.4582 11.8993 79.4582ZM20.5034 95.2636C20.4566 95.2636 20.4566 95.2636 20.4566 95.2636H20.5034ZM39.4418 108.778C39.4885 108.778 39.4885 108.778 39.4885 108.778C39.4418 108.778 39.4418 108.778 39.4418 108.778ZM94.7606 102.278C94.7606 102.278 94.8073 102.278 94.8541 102.278C94.8073 102.278 94.7606 102.325 94.7138 102.325C94.7138 102.325 94.7138 102.325 94.6671 102.325C94.7138 102.325 94.7138 102.278 94.7606 102.278ZM22.6544 11.0462C22.7012 11.0462 22.7012 11.0462 22.7479 11.0462C22.7012 11.0462 22.7012 11.0462 22.6544 11.0462ZM10.6835 88.53C10.6367 88.53 10.6367 88.4832 10.6835 88.4832C10.6835 88.4832 10.777 88.4364 10.8238 88.4364C10.8705 88.4364 10.8705 88.4364 10.9173 88.4364C10.8238 88.4832 10.777 88.53 10.6835 88.53C10.7303 88.5767 10.7303 88.5767 10.6835 88.53ZM14.5179 89.3717C14.4712 89.3717 14.3776 89.3717 14.3309 89.4184C14.3309 89.3717 14.3776 89.3717 14.5179 89.3717ZM36.0282 107.749C35.9814 107.749 35.9814 107.749 35.9347 107.749C35.9347 107.702 35.9814 107.702 36.0282 107.749C35.9814 107.702 36.0282 107.702 36.0282 107.749ZM35.1397 5.43486C35.093 5.43486 35.0462 5.43486 35.0462 5.3881L35.1397 5.43486ZM15.6402 12.9167C15.5934 12.9635 15.5467 13.0102 15.4999 13.0102C15.4999 12.9635 15.5467 12.9167 15.6402 12.9167ZM25.7874 102.091C25.8342 102.091 25.8342 102.091 25.881 102.091C25.881 102.138 25.9277 102.138 25.9745 102.184C25.881 102.138 25.8342 102.091 25.7874 102.091ZM35.7476 107.889C35.7944 107.889 35.9814 107.842 36.1217 107.842C36.262 107.983 36.4023 108.123 36.5426 108.217C36.3088 108.17 36.075 108.123 35.8412 108.123C35.3268 108.029 35.6073 107.936 35.7476 107.889ZM58.8478 107.936C58.801 107.889 58.8478 107.842 58.8478 107.796C58.8946 107.842 58.8946 107.889 58.8478 107.936ZM76.1028 102.418C76.1028 102.418 76.056 102.325 76.0092 102.231C76.056 102.184 76.1028 102.091 76.1495 102.044C76.1495 102.184 76.1495 102.371 76.1028 102.418Z" fill="#40C0A6"/>
</g>
<path d="M48.4819 44.6112C51.1101 44.6112 53.245 42.4763 53.245 39.8481C53.245 37.2199 51.1101 35.085 48.4819 35.085C45.8536 35.085 43.7188 37.2199 43.7188 39.8481C43.7188 42.4763 45.8536 44.6112 48.4819 44.6112ZM48.4819 36.4459C50.3616 36.4459 51.8841 37.9683 51.8841 39.8481C51.8841 41.7278 50.3616 43.2503 48.4819 43.2503C46.6021 43.2503 45.0796 41.7278 45.0796 39.8481C45.0796 37.9683 46.6021 36.4459 48.4819 36.4459Z" fill="#26B899"/>
<path d="M57.3273 53.2869V49.2042C57.3273 47.0013 56.1365 44.977 54.2313 43.8798C53.9336 43.7096 53.5593 43.7862 53.3552 44.0584C51.3224 46.7461 47.4949 47.2735 44.7986 45.2406C44.3478 44.9004 43.9566 44.5007 43.6163 44.0584C43.4122 43.7862 43.038 43.7096 42.7403 43.8798C40.8265 44.977 39.6357 47.0013 39.6357 49.2042V53.2869C39.6357 54.4181 40.5458 55.3282 41.6771 55.3282H55.286C56.4172 55.3282 57.3273 54.4181 57.3273 53.2869ZM55.9664 53.2869C55.9664 53.6611 55.6602 53.9674 55.286 53.9674H41.6771C41.3028 53.9674 40.9966 53.6611 40.9966 53.2869V49.2042C40.9966 47.9284 41.5155 46.7121 42.4086 45.819C42.6637 45.5639 43.089 45.5468 43.3527 45.802C44.7306 47.1119 46.5678 47.8433 48.4815 47.8433C50.3953 47.8519 52.2325 47.1119 53.6104 45.802C53.8741 45.5468 54.2908 45.5639 54.5545 45.819C55.4476 46.7121 55.9664 47.9284 55.9664 49.2042V53.2869Z" fill="#26B899"/>
<path d="M75.461 56.4084H65.2543C62.6261 56.4084 60.4912 58.5433 60.4912 61.1716V71.3782C60.4912 74.0065 62.6261 76.1414 65.2543 76.1414H75.461C78.0892 76.1414 80.2241 74.0065 80.2241 71.3782V61.1716C80.2241 58.5433 78.0977 56.4084 75.461 56.4084ZM78.8632 71.3782C78.8632 73.258 77.3407 74.7805 75.461 74.7805H65.2543C63.3746 74.7805 61.8521 73.258 61.8521 71.3782V63.2129H78.8632V71.3782ZM78.8632 61.852H61.8521V61.1716C61.8521 59.2918 63.3746 57.7693 65.2543 57.7693H75.461C77.3407 57.7693 78.8632 59.2918 78.8632 61.1716V61.852Z" fill="#26B899"/>
<path d="M65.0593 59.3259C64.7956 59.0623 64.3618 59.0623 64.0981 59.3259C63.8345 59.5896 63.8345 60.0234 64.0981 60.2871C64.3618 60.5507 64.7871 60.5507 65.0593 60.2871C65.1188 60.219 65.1698 60.1425 65.2039 60.0659C65.2804 59.9043 65.2804 59.7172 65.2039 59.5471C65.1698 59.462 65.1273 59.3855 65.0593 59.3259Z" fill="#26B899"/>
<path d="M67.16 59.1388C67.1175 59.1473 67.075 59.1558 67.041 59.1813C66.9984 59.1983 66.9559 59.2153 66.9219 59.2409C66.8879 59.2664 66.8538 59.2919 66.8198 59.3259C66.5562 59.5981 66.5562 60.0234 66.8198 60.2956L66.9219 60.3806C66.9559 60.4061 66.9984 60.4231 67.041 60.4401C67.0835 60.4572 67.1175 60.4742 67.16 60.4827C67.2026 60.4912 67.2536 60.4912 67.2961 60.4997C67.6704 60.4997 67.9766 60.202 67.9766 59.8192C67.9766 59.6406 67.9085 59.462 67.7724 59.3344C67.6193 59.1643 67.3897 59.0963 67.16 59.1388Z" fill="#26B899"/>
<path d="M69.7626 59.1812C69.6776 59.2153 69.601 59.2663 69.5415 59.3258C69.2778 59.598 69.2778 60.0233 69.5415 60.2955C69.6095 60.355 69.6861 60.406 69.7626 60.4401C69.8477 60.4741 69.9328 60.4911 70.0178 60.4911C70.3921 60.4911 70.6983 60.1934 70.6983 59.8106C70.6983 59.632 70.6302 59.4534 70.4941 59.3258C70.307 59.1302 70.0178 59.0792 69.7626 59.1812Z" fill="#26B899"/>
<path d="M62.8049 41.2089C67.8828 41.498 72.2121 45.0789 73.4114 50.0631L73.0626 49.7655C72.5948 49.3657 71.8719 49.7229 71.9229 50.3438C71.9399 50.5309 72.025 50.7011 72.161 50.8201L73.8452 52.2746C74.1599 52.5468 74.6362 52.5127 74.9083 52.198L76.3628 50.5139C76.4819 50.3778 76.5414 50.1907 76.5329 50.0121C76.4904 49.3997 75.7249 49.1445 75.3166 49.6123L74.8318 50.1737C73.641 44.3984 68.7163 40.1967 62.8985 39.865C62.5072 39.8395 62.1755 40.1542 62.1755 40.5454C62.1585 40.8941 62.4477 41.1833 62.8049 41.2089Z" fill="#26B899"/>
<path d="M56.9016 70.3662C51.8238 70.077 47.4945 66.4962 46.2952 61.5119L46.6439 61.8096C47.1117 62.2094 47.8347 61.8521 47.7837 61.2312C47.7667 61.0441 47.6816 60.874 47.5455 60.7549L45.8614 59.3005C45.5467 59.0283 45.0704 59.0623 44.7982 59.377L43.3438 61.0611C43.2247 61.1972 43.1651 61.3843 43.1737 61.5629C43.2162 62.1753 43.9817 62.4305 44.3899 61.9627L44.8748 61.4013C46.0655 67.1766 50.9903 71.3784 56.8081 71.7101C57.1993 71.7356 57.531 71.4209 57.531 71.0296C57.5481 70.6809 57.2674 70.3917 56.9016 70.3662Z" fill="#26B899"/>
</svg>
