<svg width="108" height="113" viewBox="0 0 108 113" fill="none" xmlns="http://www.w3.org/2000/svg">
<g opacity="0.1">
<path d="M35.9629 0.64784C35.9629 0.64784 35.9629 0.603064 35.9629 0.64784C35.9629 0.603064 36.0077 0.603064 35.9629 0.64784Z" fill="#40C0A6"/>
<path d="M47.9697 102.617C47.9697 102.836 47.9697 103.055 47.9697 103.231C48.0135 103.231 48.0574 103.231 48.1012 103.231C48.1012 103.143 48.1012 103.055 48.145 102.924C48.1888 102.661 48.2326 102.31 48.145 102.135C48.0574 102.047 48.0135 102.31 47.9697 102.617Z" fill="#40C0A6"/>
<path d="M107.17 73.1697C107.039 71.4607 107.039 69.6641 107.083 67.8675C107.127 66.8158 107.127 65.8079 106.995 64.8C106.995 63.6607 106.995 62.5214 106.995 61.3821C106.995 60.3742 106.907 59.3225 107.039 58.3585C107.039 57.9641 106.995 57.6135 106.995 57.2191C106.907 57.1315 106.864 57 106.82 56.6495C106.776 56.6495 106.732 56.6056 106.688 56.518C106.644 55.291 106.601 54.0202 106.601 52.7495C106.601 51.9169 106.557 51.0843 106.557 50.2517C106.425 49.8573 106.382 49.2 106.382 48.5865C106.382 48.1921 106.338 47.7978 106.25 47.5348C106.25 47.1405 106.206 46.7461 106.206 46.3517C106.162 46.3079 106.119 46.3079 106.075 46.264C106.031 45.9135 106.031 45.5629 105.987 45.2124C105.943 45.1685 105.9 45.1685 105.856 45.1247V45.0809C105.856 44.8618 105.856 44.6865 105.856 44.4674C105.812 44.4674 105.768 44.4236 105.724 44.4236C105.724 44.2045 105.724 44.0292 105.724 43.8101C105.68 43.8101 105.637 43.7663 105.593 43.7663C105.593 43.4157 105.505 43.1966 105.418 43.109L105.374 43.1966C105.374 43.1528 105.418 43.1528 105.418 43.109C105.418 42.5831 105.374 42.1011 105.242 41.8382C105.198 41.1809 105.198 40.4798 105.023 40.0416C104.979 38.6393 104.716 37.6314 104.629 36.273C104.497 35.1337 104.147 34.564 104.059 33.2494C103.928 32.9865 103.884 32.5045 103.884 32.0224C103.796 31.9348 103.752 31.7157 103.709 31.3651C103.446 30.9708 103.314 29.7438 103.051 29.437C103.051 29.2618 103.051 29.0865 103.007 28.9112C102.744 28.6921 102.613 27.8595 102.482 27.0269C102.394 26.9393 102.35 26.764 102.306 26.4134C102.262 26.4134 102.219 26.4134 102.175 26.4134C102.175 26.2382 102.131 26.0191 102.131 25.8C102.043 25.7123 102 25.537 101.956 25.1865C101.868 25.1427 101.824 24.9674 101.78 24.6606C101.737 24.6168 101.693 24.573 101.649 24.5292C101.649 24.3101 101.649 24.1348 101.649 23.9157C101.561 23.828 101.518 23.6089 101.474 23.2584C101.298 22.864 101.123 22.4696 100.948 22.0752C100.729 22.0314 100.553 21.5494 100.422 20.9359C100.291 20.8921 100.159 20.7606 100.115 20.2786C100.071 20.2786 99.9838 20.2786 99.94 20.3224C99.94 20.1471 99.8962 20.0157 99.8962 19.8404C99.7647 19.7528 99.6332 19.6213 99.5894 19.0516C99.458 18.8763 99.4141 18.4381 99.3703 17.9561C99.2389 17.8247 99.1512 17.6494 99.0636 17.255C98.8883 17.2112 98.713 17.3865 98.5816 16.6853C98.4939 16.6415 98.4501 16.4224 98.4063 16.0718C98.3625 15.8527 98.2748 15.6775 98.231 15.4584C98.1433 15.4145 98.0995 15.1954 98.0557 14.8887C97.9242 14.8449 97.8366 14.6696 97.749 14.2314C97.6175 14.2314 97.486 14.0999 97.3984 13.6179C97.2231 13.6617 97.0478 13.7494 96.9164 13.0921C96.7411 13.1797 96.6096 13.1359 96.4344 13.0044C96.4344 13.0044 96.4344 13.0044 96.4344 12.9606C96.3467 12.5224 96.2153 12.128 96.0838 11.9089C95.9962 11.4707 95.8647 11.5145 95.7771 11.8651C95.7332 12.0842 95.6894 12.0842 95.6456 11.8651V11.8213C95.6018 11.6898 95.5141 11.5145 95.4703 11.2954C95.3827 10.9449 95.2074 11.0325 95.1198 10.7258C94.9883 10.1123 94.7692 10.5943 94.5939 10.1999C94.331 9.32352 94.0242 10.2876 93.7613 9.67408C93.6737 9.23588 93.5422 9.32352 93.4546 9.10442C93.1917 8.18419 92.8849 9.19206 92.622 8.49093V8.53475C92.4029 7.96509 92.1838 8.05273 91.9647 8.57857C91.6141 8.79768 91.3074 9.89318 90.913 9.41116H90.8692C90.7377 9.89318 90.4748 9.45498 90.3433 10.1123C90.2995 10.2876 90.2119 10.419 90.1242 10.5067L84.9973 11.3831C84.9534 11.1202 84.9096 10.9011 84.822 10.8134C84.5591 9.98082 84.2523 10.9449 84.0332 10.2437V10.2876C83.9894 10.0246 83.9456 10.0246 83.8579 10.2876L83.8141 10.3752L83.7703 10.3314C83.4635 10.7258 83.2006 10.8572 82.8939 10.419V10.4628C82.8062 9.98082 82.6748 9.98082 82.5871 10.5067V10.4628C82.5433 10.5943 82.5433 10.7696 82.4995 10.9887C82.2804 10.9887 82.0613 11.164 81.886 10.5505C81.6231 10.5943 81.3602 10.6381 81.0973 10.6819C81.0534 10.8572 80.9658 11.164 80.922 11.2078C80.4399 11.2954 79.9141 11.3831 79.4321 11.3831C79.3444 11.3831 79.2568 11.0763 79.1253 10.901C78.8186 10.6381 78.468 11.0763 78.1175 10.419C77.8984 10.4628 77.7231 10.4628 77.504 10.5067C77.504 10.6819 77.504 10.8134 77.4602 10.9887C77.4602 10.9887 77.4602 10.9887 77.4163 10.9887C77.3287 10.9887 77.2411 10.9887 77.1534 10.9449C76.1017 10.7258 75.0939 10.0685 74.0422 10.2437C73.9545 9.89318 73.9107 9.80554 73.8231 10.1999C73.4725 9.58644 73.1219 9.67408 72.7714 9.7179C72.5961 9.19206 72.4208 9.23588 72.2017 9.19206C72.0264 9.14824 71.8073 9.14824 71.6321 8.62239C71.3253 8.57857 71.0186 8.75385 70.7118 8.09655C70.4051 8.05273 70.1422 8.05273 69.8354 8.00891C69.7916 7.83363 69.704 7.65835 69.6601 7.48307C69.3534 7.39542 69.0467 7.65835 68.7399 7.00104C67.9512 7.00104 67.2062 6.4752 66.4174 5.81789C66.1107 5.77407 65.804 5.99317 65.4972 5.29205C65.1028 5.11677 64.6646 5.59879 64.2702 4.72238C62.9118 4.41564 61.5096 4.15272 60.1511 3.80216C59.8444 3.71452 59.5815 3.8898 59.2747 3.32014C58.3545 3.53924 57.3904 3.32013 56.4702 3.14485C55.2433 2.88193 54.0163 2.66283 52.7893 2.44373C52.6579 2.39991 52.4826 2.44373 52.3511 2.09317C52.0444 2.22463 51.3871 1.91788 50.7736 2.22463C50.6859 2.00553 50.5983 1.96171 50.5107 2.00553C50.4668 1.96171 50.423 2.18081 50.3792 2.22463L50.3354 2.13699L50.2916 2.22463C50.2916 2.22463 50.2916 2.22463 50.2916 2.18081C50.2916 1.91788 50.2477 1.78642 50.2039 1.7426C49.7657 0.910018 49.3275 1.91788 48.8893 1.21676H48.8455C48.7578 1.34822 48.6702 1.47968 48.5826 1.21676C48.0129 0.340353 47.3994 1.47968 46.7859 0.778557V0.822377C46.6545 0.296533 46.5668 0.340353 46.4354 0.778557L46.3477 0.910017L46.2601 0.822377C45.7781 -0.14167 45.296 1.0853 44.814 0.296533V0.340353C44.6826 -0.14167 44.5949 -0.0978498 44.4635 0.384174C44.4196 0.559455 44.332 0.559455 44.2882 0.559455C44.2882 0.515635 44.2882 0.471814 44.2444 0.384174C43.3241 0.427994 42.4477 0.515635 41.5275 0.559455C41.3084 0.559455 41.0455 0.690916 40.8264 0.165072C40.7387 0.165072 40.6073 0.165072 40.5196 0.121252C40.3882 0.603275 40.2567 0.603275 40.1252 0.165072C40.0376 0.165072 39.9061 0.208892 39.8185 0.208892C39.6432 0.734736 39.4679 0.778557 39.2488 0.296533C39.0297 0.471814 38.8106 0.559455 38.5477 0.427994C38.241 0.252713 37.9781 0.427994 37.7151 0.866197V0.822377C37.7151 0.471814 37.6275 0.252713 37.5398 0.0774315C36.9702 0.252713 36.4005 -0.273131 35.8747 0.559455C35.7432 0.953838 35.6117 0.822377 35.4803 0.603275H35.3926C34.341 1.3044 33.2893 0.910017 32.2814 1.21676C32.1061 1.39204 31.7994 0.997658 31.5365 1.78642L31.4926 1.87406L31.4488 1.78642C31.3174 2.09317 31.1421 2.04935 31.0106 2.31227C31.0106 2.31227 31.0106 2.35609 30.9668 2.35609C30.5286 2.00553 30.0466 2.00553 29.6522 2.61901L29.6084 2.70665L29.4769 2.61901C29.2578 3.18867 28.9072 2.57519 28.732 3.32014L28.6881 3.40778L28.6443 3.36396C28.5129 3.58306 28.3376 3.53924 28.2499 4.06508C28.1623 4.37182 27.987 4.328 27.8994 4.72238C27.8117 5.07295 27.6803 5.02913 27.5926 5.24823C27.5926 5.07295 27.5926 4.89767 27.5488 4.72238C27.505 4.76621 27.4174 4.76621 27.3735 4.81003C27.1982 4.5471 27.023 4.94149 26.8915 4.94149C26.76 5.42351 26.5848 5.42351 26.4095 5.42351C25.9713 5.46733 25.5331 5.55497 25.0949 5.59879C25.0511 5.55497 25.0072 5.55497 24.9634 5.46733C24.7881 5.24823 24.569 5.55497 24.3937 5.11677C24.2623 4.67857 24.1746 4.72238 24.0432 5.16059C23.9994 5.33587 23.9117 5.33587 23.8679 5.20441C23.7364 4.76621 23.6488 4.76621 23.5173 5.24823C23.3859 5.55497 23.2982 5.55497 23.1668 5.29205C22.4657 4.67857 21.7645 4.85385 21.0634 5.46733L21.0196 5.59879L20.9758 5.51115C20.7128 5.73025 20.6252 5.73025 20.5376 5.55497C20.4499 5.55497 20.3623 5.55497 20.3185 5.55497C19.2668 5.99317 18.2151 6.4752 17.1634 5.64261C16.9881 5.51115 16.9005 5.68643 16.8567 6.38756C16.8128 6.65048 16.769 6.82576 16.7252 6.95722C16.7252 6.73812 16.7252 6.4752 16.6814 6.16846C16.1993 6.4752 15.7173 5.90553 15.2353 6.73812V6.6943C14.4465 7.70217 13.5701 6.56284 12.7375 7.61453L12.6937 7.70217L12.6499 7.65835C12.2993 8.44711 11.8611 7.48307 11.5544 8.44711V8.40329C11.2915 9.14824 10.9409 8.27183 10.678 9.14824C10.3712 9.98082 9.93304 8.88532 9.6263 9.98082L9.67012 9.937C9.58248 10.1123 9.53866 10.2876 9.49484 10.5067C9.49484 10.5067 9.49484 10.5067 9.49484 10.5505C9.31956 10.5943 9.14428 10.6381 8.969 10.6819C8.83753 11.2078 8.61843 11.2954 8.44315 11.3831C8.39933 11.6022 8.31169 11.8213 8.26787 12.0404C8.26787 12.3909 8.22405 12.7415 8.22405 13.0921C8.18023 13.1797 8.13641 13.2235 8.09259 13.355C8.04877 13.6179 8.00495 13.837 7.91731 14.0561C7.82967 14.4505 7.65439 14.319 7.61057 14.8449C7.52292 14.9763 7.4791 15.1954 7.43528 15.5022C7.26 15.7651 7.17236 16.2033 7.08472 16.8606C6.99708 17.1674 6.8218 17.0797 6.73416 17.5617C6.55888 17.8247 6.47124 18.2629 6.47124 18.8763L6.42742 18.9202C6.42742 19.1831 6.42742 19.4022 6.3836 19.6213C6.3836 19.6651 6.3836 19.6651 6.3836 19.7089C6.33978 19.928 6.33978 20.1033 6.25213 20.2348C6.12067 20.673 6.03303 21.1112 5.90157 21.5932C5.85775 22.2067 5.72629 22.2943 5.55101 22.3382C5.41955 22.9516 5.20045 22.9516 5.02517 22.9955C4.93752 23.5213 4.71842 23.6089 4.54314 23.6966C4.41168 24.3101 4.19258 24.2224 4.0173 24.4415C3.97348 24.6606 3.88584 24.8359 3.84202 25.055C3.7982 25.4056 3.75438 25.6247 3.66674 25.7123C3.62292 25.9752 3.5791 26.2382 3.53527 26.5011C3.53527 27.0269 3.49145 27.4651 3.35999 27.7281C3.35999 28.0786 3.27235 28.2977 3.18471 28.3854C3.14089 28.9112 3.00943 29.0865 2.87797 29.1741C2.83415 29.5247 2.79033 29.7 2.65887 29.7438C2.57123 30.2696 2.48359 30.4449 2.30831 30.4887C2.22067 30.9708 2.0892 31.1022 1.95774 31.1899C1.91392 31.7157 1.78246 31.891 1.651 31.9786C1.60718 32.1539 1.51954 32.373 1.47572 32.5483C1.2128 33.6 1.12516 34.8269 1.16898 36.2292C1.08134 36.755 1.12516 37.4562 1.03752 37.982C1.08134 38.1573 1.08134 38.2887 1.03752 38.464C0.906056 39.0337 0.993696 39.6472 0.993696 40.2607C0.993696 40.3045 0.993696 40.3483 1.03752 40.3921C0.993696 43.4595 1.16898 46.4832 1.16898 49.5506C1.2128 49.7259 1.2128 49.9011 1.25662 50.0764C1.25662 50.1202 1.2128 50.2517 1.2128 50.3393C1.2128 50.909 1.16898 51.3472 1.08134 51.6978C1.08134 52.4427 1.12516 53.1438 0.949876 53.6697C0.906056 54.0641 0.906056 54.4146 0.862235 54.809C0.818415 54.809 0.774595 54.8528 0.730774 54.8966C0.730774 55.2472 0.686954 55.5101 0.599313 55.6416C0.555493 56.7809 0.686954 57.745 0.862235 58.709C1.03752 58.8843 1.16898 59.2787 1.2128 60.0674C1.51954 61.2944 1.82628 62.3899 1.95774 63.9675C2.00156 64.0113 2.00156 64.0551 2.04538 64.0989C2.04538 64.5371 2.0892 64.9753 2.00156 65.3697C1.82628 66.1147 1.73864 66.9472 1.91392 67.9551V67.9113C2.04538 69.7079 2.0892 71.5484 2.00156 73.345C1.8701 73.7394 1.91392 74.3529 1.8701 74.8787L1.91392 75.054L1.8701 75.2293C1.8701 76.5877 1.91392 77.99 1.73864 79.3046C1.60718 79.6113 1.651 80.181 1.56336 80.5754C1.34426 82.1529 1.51954 83.4675 1.82628 84.6068C1.8701 84.4315 1.91392 84.2563 1.95774 84.081C1.95774 84.2124 1.95774 84.3439 1.95774 84.4754C1.95774 84.6945 2.00156 84.9136 1.95774 85.0889C2.13302 85.5271 2.13302 86.272 2.22067 86.8855C2.26449 87.1046 2.35213 87.2799 2.39595 87.499C2.74651 87.8495 2.92179 88.7698 2.96561 90.172C3.14089 90.7855 3.35999 91.399 3.53527 92.0125C3.66674 92.0563 3.7982 92.3192 3.88584 92.7574C3.97348 92.7574 4.06112 92.8889 4.10494 93.2394C4.2364 93.2832 4.36786 93.3271 4.4555 93.8529C4.58696 93.9406 4.71842 94.2035 4.80606 94.5979C4.8937 94.5979 4.98135 94.554 5.06899 94.5979C5.63865 95.1675 6.25213 95.4305 6.8218 96.263C7.34764 96.3069 7.87349 96.3069 8.39933 96.3507C8.70607 96.9642 9.05664 96.7451 9.4072 96.7451C9.6263 96.7451 9.8454 96.6136 10.0645 97.1833C10.1083 96.9642 10.1521 96.7889 10.196 96.5698C11.5106 97.1833 12.7814 96.1316 14.0522 95.7372C14.096 95.7372 14.096 95.7372 14.1398 95.6934C14.1836 95.8687 14.2274 96.0439 14.2713 96.1316L14.2274 96.0878C14.578 96.9203 14.9724 97.7091 15.4106 97.9282C15.5859 98.7608 15.8488 98.8046 16.0679 99.1552V99.1114C16.6376 100.557 17.2949 100.645 17.9522 101.215C17.996 101.259 18.0398 101.302 18.0836 101.346C18.1713 101.434 18.3027 101.434 18.3904 101.478C18.4342 101.565 18.478 101.697 18.5218 101.872C18.7847 102.047 19.0915 101.521 19.3106 102.486C19.4859 102.442 19.6612 102.354 19.8364 102.968C20.0994 103.011 20.4061 102.88 20.6252 103.581C20.8881 103.625 21.1949 103.581 21.4578 104.107C21.7207 104.107 21.9836 104.063 22.2466 104.063C22.2904 104.107 22.2904 104.151 22.3342 104.195C22.378 104.282 22.4657 104.282 22.5095 104.195C22.5095 104.238 22.5095 104.238 22.5095 104.282C22.5095 104.589 22.5533 104.852 22.5971 105.071C22.6848 105.246 22.7286 105.378 22.8162 105.421C24.087 105.334 25.314 106.21 26.5848 105.684C26.6724 105.684 26.76 105.641 26.8477 105.641C26.9791 105.597 27.1106 105.597 27.1982 105.553C27.2859 105.509 27.3735 105.509 27.4173 105.465C27.5488 105.378 27.7241 105.334 27.8556 105.115C28.0308 105.027 28.2061 104.896 28.3376 104.677C28.9949 104.896 29.696 104.808 30.3533 104.677C30.441 104.677 30.4848 104.457 30.5724 104.37C30.5724 104.37 30.5724 104.37 30.5724 104.326C30.8792 104.896 31.1421 104.764 31.405 104.238V104.282C31.7117 104.852 31.9747 104.545 32.2814 104.414C33.114 104.019 33.9904 103.669 34.823 103.23C36.2252 102.529 37.6713 102.31 39.0736 101.784C39.95 101.478 40.7826 101.039 41.659 100.645C41.7028 100.645 41.7466 100.557 41.7904 100.47C41.9657 100.557 42.141 100.82 42.2724 100.382C42.3163 100.295 42.3163 100.207 42.3601 100.163C42.4477 100.119 42.5354 100.119 42.623 100.075C42.9297 100.295 43.2803 99.7687 43.5432 100.996C43.6747 101.521 43.8061 100.777 43.9376 100.514C44.7702 100.777 45.6028 100.119 46.4354 100.032C46.6106 99.9878 46.7859 99.9001 46.9174 99.7687C47.005 99.9878 47.1365 99.9439 47.2241 99.8563C47.4432 100.338 47.7062 100.47 47.9691 100.514C48.232 100.514 48.4949 100.645 48.6264 101.39C48.8455 102.573 49.1522 102.573 49.459 102.705C49.8095 102.836 50.2039 102.88 50.5545 102.968C50.6421 103.45 50.7736 103.537 50.8612 103.625C50.8612 103.8 50.8612 103.975 50.8174 104.107C50.8612 104.107 50.905 104.107 50.905 104.107C50.905 104.151 50.905 104.195 50.905 104.238C50.8612 104.195 50.8612 104.151 50.8174 104.107C50.423 104.501 50.0725 105.071 49.6343 105.071C49.6343 105.378 49.6343 105.728 49.6343 106.035C49.941 106.473 50.2477 106.298 50.5983 106.123C50.5983 106.298 50.5983 106.473 50.6421 106.648C50.9489 106.605 51.2556 106.561 51.6062 106.517C51.6938 106.561 51.8253 106.605 51.9129 106.605C51.9567 106.78 51.9567 106.911 51.9567 107.13C52.0006 107.087 52.0444 107.13 52.0882 107.174C52.0882 107.525 52.1758 107.788 52.2635 107.919C52.2635 108.095 52.2635 108.226 52.2635 108.401C52.132 108.752 52.2197 108.971 52.3073 109.19C52.3511 109.321 52.4388 109.453 52.4826 109.628C52.7455 109.541 53.0522 109.146 53.3152 110.154C53.4466 109.979 53.5343 109.804 53.6657 109.584C53.7534 109.716 53.8848 109.804 53.9725 110.11C54.0163 110.066 54.1039 109.979 54.1477 109.935L54.1039 109.979C54.1477 110.329 54.1916 110.548 54.2792 110.636C54.4545 112.696 54.9365 111.995 55.2871 112.433L55.3309 112.389C55.55 111.819 55.8129 113.309 56.032 112.345C56.2949 111.907 56.5579 111.732 56.8208 112.301C57.3028 112.608 57.7848 112.739 58.2669 111.995V112.038C58.4421 111.644 58.6174 111.6 58.7927 111.951C58.8365 112.17 58.8803 112.126 58.9242 111.863V111.907C59.1433 111.513 59.3624 111.425 59.6253 111.863V111.819C59.6691 112.038 59.7129 112.038 59.7568 111.819C59.8882 111.469 60.1073 111.556 60.1511 110.768C60.195 110.768 60.195 110.68 60.2388 110.548C60.2826 110.724 60.3702 110.855 60.4141 111.03C60.5455 111.03 60.7208 111.03 60.8523 110.987C61.3781 110.373 61.9039 110.154 62.4298 110.066C62.6051 109.321 62.868 109.365 63.0871 109.409C63.2624 108.752 63.4815 108.927 63.6568 109.059C63.8759 109.234 64.1388 109.453 64.3579 109.19C64.5332 108.27 64.7523 108.27 65.0152 108.664C65.3658 109.278 65.7163 109.453 66.1107 109.278C66.2422 109.234 66.3736 109.453 66.5051 109.541C66.6804 108.971 66.8556 109.059 67.0309 109.497C67.3377 109.453 67.6444 109.409 67.995 109.365C68.3017 108.533 68.6523 108.796 68.959 108.577C69.0905 108.095 69.2658 108.138 69.3972 108.051C70.3175 107.525 71.2377 106.999 72.2017 106.429C72.7714 106.298 73.3849 105.904 73.9545 105.29C74.1736 104.414 74.5242 104.677 74.7871 104.72C75.2691 104.808 75.7073 104.589 76.1456 104.195C76.2332 104.151 76.3647 104.063 76.4523 103.888C76.8905 103.756 77.3287 103.712 77.7231 103.493C78.6433 102.968 79.5635 102.179 80.4838 101.872C81.0534 101.697 81.6669 101.521 82.1928 102.398C82.5433 102.354 82.8939 102.442 83.2444 102.179C83.5074 102.003 83.7265 102.135 83.9456 102.179C84.1208 101.215 84.2961 100.908 84.6029 101.565C84.7343 102.354 84.9096 102.266 85.0849 102.266C85.3916 102.266 85.6984 102.179 86.0489 102.135C86.0489 102.31 86.0489 102.486 86.0928 102.661C86.9692 102.792 87.8456 102.924 88.6782 103.011C88.722 103.011 88.7658 102.968 88.8096 102.968C88.8096 103.011 88.8096 103.011 88.8096 103.055C88.9849 103.362 89.204 103.055 89.3793 103.406H89.4231C90.2995 102.748 91.2197 104.063 92.0961 103.45C92.14 103.362 92.1838 103.318 92.1838 103.23C92.1838 103.274 92.1838 103.274 92.1838 103.318C92.2714 103.932 92.3591 104.238 92.5343 104.238C92.7534 104.282 92.9287 104.282 93.1478 104.282C93.1478 104.457 93.1478 104.633 93.1917 104.808C93.3669 105.553 93.6299 105.641 93.849 105.991C93.9366 106.429 94.0681 106.342 94.1995 106.561V106.517C94.6815 107.13 95.2074 107.087 95.7332 107.656C95.7771 107.569 95.8209 107.612 95.8209 107.7C95.9523 108.226 96.1714 107.788 96.3029 108.182C96.4782 108.839 96.6973 108.445 96.8726 108.445C96.9164 108.357 96.9164 108.226 96.9164 108.138C96.9602 108.314 97.0478 108.533 97.0917 108.708C97.2231 108.752 97.3984 108.796 97.5299 108.839C97.5299 109.015 97.5737 109.19 97.5737 109.365C97.749 109.365 97.8804 109.365 98.0557 109.365C98.0557 109.365 98.0557 109.409 98.0557 109.453C98.0557 109.628 98.0557 109.76 98.0995 109.935C98.1434 109.847 98.1872 109.891 98.1872 110.023C98.2748 110.373 98.4501 110.286 98.5377 110.548V110.505C98.8007 110.855 99.0636 110.855 99.3265 110.373V110.417C99.4141 110.154 99.5894 110.154 99.6771 109.804C99.94 108.883 100.334 109.935 100.641 108.971V109.015C100.641 109.015 100.685 108.971 100.685 108.839C100.685 108.752 100.685 108.708 100.685 108.62C100.773 108.489 100.86 108.401 100.948 108.357C100.992 108.357 101.035 108.314 101.123 108.314C101.123 108.27 101.123 108.226 101.123 108.226C101.123 108.182 101.167 108.182 101.167 108.138C101.255 108.051 101.386 108.051 101.43 107.656V107.7C101.518 107.35 101.693 107.437 101.737 106.955C101.824 106.692 102 106.736 102.043 106.254C102.219 105.684 102.525 106.386 102.701 105.553C102.964 105.071 102.964 103.8 103.139 103.011C103.183 102.792 103.27 102.573 103.27 102.266V102.31C103.446 101.653 103.577 100.864 103.752 100.338C103.84 99.9878 104.015 100.075 104.059 99.5934V99.6372C104.191 99.2428 104.147 98.6293 104.191 98.1473C104.147 97.972 104.191 97.8406 104.191 97.7091C104.278 97.3585 104.234 96.7889 104.322 96.3945C104.366 96.1754 104.453 95.9563 104.453 95.6495V95.6934C104.673 94.6855 104.892 93.6338 105.111 92.4945C105.155 92.2754 105.198 92.0563 105.242 91.7934C105.418 91.3113 105.68 90.7417 105.637 89.9967C105.33 86.8417 106.075 85.1327 106.206 82.6349C106.25 81.9338 106.382 81.4079 106.206 80.7506C106.294 80.3124 106.382 79.8742 106.469 79.5237C107.127 78.0338 107.433 76.1057 107.17 73.1697ZM65.5849 10.5505V10.5943C65.5849 10.5943 65.5849 10.5943 65.5849 10.6381C65.5849 10.5943 65.5849 10.5943 65.5849 10.5505ZM61.9478 18.3505C61.9039 18.482 61.8601 18.4381 61.8163 18.3067C61.8601 18.3505 61.9039 18.3943 61.9478 18.3505ZM78.0736 86.5349C78.0736 86.3596 78.1175 86.2282 78.1613 86.2282C78.1175 86.3596 78.1175 86.4473 78.0736 86.5349ZM10.4589 89.2956C10.4589 89.3394 10.4589 89.3394 10.4589 89.3832C10.4589 89.4271 10.4589 89.4271 10.4589 89.4709C10.5027 89.2956 10.5465 89.1203 10.5903 88.945C10.5465 89.0327 10.5465 89.1641 10.5027 89.2518C10.4589 89.2518 10.4589 89.2956 10.4589 89.2956ZM8.44315 77.2012C8.39933 77.1574 8.39933 77.1574 8.44315 77.2012C8.44315 77.0697 8.44315 76.9821 8.44315 76.8944C8.44315 76.9821 8.44315 77.0697 8.44315 77.2012ZM104.41 47.7978C104.453 47.7978 104.453 47.8416 104.453 47.8854C104.41 47.8854 104.41 47.8416 104.41 47.7978ZM91.0883 59.191C91.0883 59.1034 91.0883 58.9719 91.1321 58.8843C91.1759 58.709 91.2197 58.5337 91.2636 58.4461C91.2636 58.4461 91.3074 58.4461 91.3074 58.4023C91.2197 58.6214 91.1321 58.8843 91.0883 59.191ZM97.7928 54.5461C97.7928 54.5023 97.7928 54.5023 97.7928 54.5461C97.7928 54.5023 97.7928 54.5023 97.7928 54.5461C97.7928 54.5023 97.7928 54.5023 97.7928 54.5461ZM6.55888 66.6405C6.51506 66.5529 6.51506 66.4652 6.47124 66.2899C6.51506 66.4214 6.51506 66.5529 6.55888 66.6405ZM101.035 55.4225V55.3787V55.4225ZM43.1488 18.219C43.1488 18.219 43.1488 18.1752 43.1488 18.219C43.1488 18.219 43.1488 18.219 43.1488 18.2629C43.1488 18.2629 43.1488 18.2629 43.1488 18.219ZM86.0489 89.8214C86.0489 89.8653 86.0489 89.9091 86.0051 89.9091C86.0051 89.8214 86.0489 89.7776 86.0489 89.8214ZM95.1198 27.5528C95.2074 27.4651 95.2512 27.3337 95.3389 27.2022C95.3389 27.6404 95.2512 27.7719 95.1198 27.5528ZM30.0027 16.1595C30.0027 16.2033 30.0028 16.2471 30.0466 16.2909C30.0028 16.2471 29.9589 15.9842 30.0027 16.1595ZM2.57123 54.2832C2.57123 54.3708 2.57123 54.4146 2.57123 54.5023C2.57123 54.4585 2.57123 54.3708 2.57123 54.2832ZM11.1162 86.5349C11.1162 86.5787 11.1162 86.6226 11.1162 86.7102C11.1162 86.6664 11.0724 86.6226 11.0724 86.5787C11.0724 86.5349 11.0724 86.5349 11.1162 86.5349ZM99.9838 92.6259V92.5821C99.9838 92.5821 99.9838 92.5821 99.9838 92.6259C99.9838 92.5821 99.9838 92.5821 99.9838 92.6259V92.6698C99.9838 92.6259 99.9838 92.6259 99.9838 92.6259ZM101.474 30.9269C101.518 30.9708 101.474 30.9708 101.474 31.0146C101.474 30.9708 101.474 30.9269 101.474 30.9269ZM43.5432 13.7056C43.5432 13.7494 43.5432 13.7932 43.4994 13.8808C43.4556 14.0123 43.4556 14.0561 43.4118 14.0999C43.4556 13.9247 43.4994 13.7932 43.5432 13.7056ZM3.66674 56.6056C3.75438 56.6495 3.7982 56.6933 3.88584 56.7371C3.88584 56.8686 3.84202 56.9562 3.84202 57.1315C3.7982 56.9562 3.75438 56.7809 3.66674 56.6056ZM4.2364 76.9821V76.9383C4.2364 76.9383 4.2364 76.9383 4.2364 76.9821C4.2364 76.9383 4.2364 76.9821 4.2364 76.9821ZM8.31169 78.4282V78.3843C8.31169 78.4282 8.31169 78.472 8.31169 78.5158C8.31169 78.472 8.31169 78.472 8.31169 78.4282ZM8.70607 71.154C8.70607 71.1102 8.70607 71.0663 8.70607 71.1102C8.74989 71.1102 8.74989 71.154 8.70607 71.154C8.74989 71.154 8.70607 71.154 8.70607 71.154ZM10.4151 89.4709C10.4151 89.4271 10.4151 89.4271 10.4151 89.3832C10.4151 89.3394 10.4151 89.3394 10.4151 89.2956C10.4589 89.3832 10.4151 89.4271 10.4151 89.4709ZM103.007 40.8303C103.007 40.7427 103.007 40.6989 103.007 40.6112C103.007 40.6989 103.007 40.7865 103.007 40.8303ZM50.2916 9.67408C50.2916 9.76172 50.2916 9.80554 50.2916 9.80554C50.2916 9.76172 50.2916 9.7179 50.2916 9.67408ZM43.9376 10.8572C43.9376 10.8134 43.9376 10.7258 43.9376 10.6819L43.9814 10.7258C43.9376 10.8134 43.9376 10.8572 43.9376 10.8572ZM32.632 13.9685C32.632 14.0123 32.632 14.0561 32.632 14.0999C32.632 14.0999 32.632 14.0561 32.5881 14.0561C32.5881 14.0123 32.5881 13.9685 32.632 13.9685ZM7.96113 38.9899C7.91731 38.9461 7.91731 38.9461 7.96113 38.9899C7.96113 38.9461 7.96113 38.9899 7.96113 38.9899ZM4.28022 44.6865C4.28022 44.6865 4.2364 44.6427 4.2364 44.5989C4.28022 44.5989 4.28022 44.6427 4.28022 44.6865C4.28022 44.6427 4.28022 44.6427 4.28022 44.6865C4.28022 44.6427 4.28022 44.6427 4.28022 44.6865ZM4.84988 78.6473C4.8937 78.6911 4.8937 78.7787 4.93752 78.8664C4.8937 78.8664 4.8937 78.8664 4.84988 78.9102C4.84988 78.7787 4.84988 78.7349 4.84988 78.6473ZM10.5027 89.0765C10.5027 89.1203 10.5027 89.1203 10.5027 89.1641C10.5027 89.0765 10.5465 88.9889 10.5465 88.9012C10.5465 88.8574 10.5903 88.7698 10.5903 88.7259C10.5903 88.7259 10.5903 88.7259 10.5903 88.7698C10.5903 88.8574 10.5465 88.9889 10.5027 89.0765ZM56.2073 107.437C56.2073 107.481 56.2073 107.569 56.2073 107.612C56.2073 107.525 56.2073 107.437 56.2073 107.393C56.1635 107.393 56.1635 107.393 56.2073 107.437ZM100.247 28.8674C100.203 28.8236 100.115 28.7359 100.115 28.6045C100.203 28.6921 100.247 28.7359 100.334 28.8236C100.291 28.8236 100.247 28.8674 100.247 28.8674ZM50.2916 9.58644C50.2477 9.58644 50.2477 9.58644 50.2916 9.58644C50.2477 9.58644 50.2477 9.58644 50.2916 9.58644ZM32.8072 10.5067C32.8072 10.419 32.8511 10.3314 32.8511 10.2876C32.8511 10.3752 32.8511 10.4628 32.8072 10.5067ZM7.69821 93.108C7.74203 93.108 7.74203 93.1518 7.74203 93.1956C7.74203 93.1956 7.69821 93.1956 7.65439 93.2394C7.69821 93.1956 7.69821 93.1518 7.69821 93.108ZM7.91731 88.9889C7.96113 88.945 7.96113 88.945 7.91731 88.9889C7.96113 88.945 7.96113 88.9889 7.91731 88.9889C7.96113 88.9889 7.91731 88.9889 7.91731 88.9889ZM52.614 103.23C52.6579 103.23 52.6579 103.23 52.614 103.23C52.614 103.318 52.614 103.406 52.614 103.45C52.614 103.362 52.614 103.274 52.614 103.23ZM66.7242 98.7608C66.7242 98.7608 66.7242 98.8046 66.7242 98.7608C66.7242 98.8046 66.6804 98.7608 66.7242 98.7608C66.6804 98.7608 66.7242 98.7608 66.7242 98.7608ZM99.2827 101.872C99.2827 102.003 99.2827 102.091 99.2389 102.223C99.2827 102.091 99.2827 101.96 99.2827 101.872ZM100.466 24.0471C100.422 24.0033 100.422 23.9595 100.378 23.8719C100.378 23.9157 100.422 23.9595 100.466 24.0471ZM40.8702 4.98531C40.8702 4.98531 40.914 5.07295 40.9578 5.16059C40.914 5.20441 40.8702 5.29205 40.7826 5.33587C40.7826 5.20441 40.7825 5.02913 40.8702 4.98531ZM53.2275 107.569C53.2275 107.612 53.2713 107.7 53.2713 107.744L53.2275 107.569C53.2275 107.612 53.2275 107.612 53.2275 107.569ZM78.4242 102.31C78.4242 102.003 78.4242 101.784 78.3366 101.653C78.2927 101.521 78.2489 101.39 78.2489 101.259V101.215C78.2927 101.39 78.3366 101.521 78.3366 101.653C78.4242 101.784 78.4242 102.003 78.4242 102.31ZM105.111 88.5507C105.111 88.5945 105.111 88.5945 105.111 88.5507C105.111 88.6383 105.111 88.6821 105.111 88.7259C105.111 88.6821 105.111 88.6383 105.111 88.5507Z" fill="#40C0A6"/>
</g>
<path d="M72.7116 72.6458H70.8488V45.5641C70.8488 44.2968 69.8197 43.2761 68.5608 43.2761H64.3931C63.1343 43.2761 62.1051 44.3053 62.1051 45.5641V72.6543H57.3675V57.8376C57.3675 56.5788 56.3384 55.5497 55.0795 55.5497H50.9118C49.653 55.5497 48.6238 56.5788 48.6238 57.8376V72.6543H43.8862V64.9823C43.8862 63.7235 42.857 62.6943 41.5982 62.6943H37.4305C36.1717 62.6943 35.1425 63.7235 35.1425 64.9823V72.6543H33.1777C32.7099 72.6543 32.3271 73.0371 32.3271 73.5049C32.3271 73.9727 32.7099 74.3554 33.1777 74.3554H72.7116C73.1794 74.3554 73.5621 73.9727 73.5621 73.5049C73.5621 73.0371 73.1794 72.6458 72.7116 72.6458ZM42.1851 72.6458H36.8436V64.9738C36.8436 64.6506 37.1073 64.3869 37.4305 64.3869H41.5982C41.9214 64.3869 42.1851 64.6506 42.1851 64.9738V72.6458ZM55.6664 72.6458H50.3249V57.8376C50.3249 57.5144 50.5886 57.2508 50.9118 57.2508H55.0795C55.4027 57.2508 55.6664 57.5144 55.6664 57.8376V72.6458ZM69.1477 72.6458H63.8062V45.5641C63.8062 45.2409 64.0699 44.9772 64.3931 44.9772H68.5608C68.8841 44.9772 69.1477 45.2409 69.1477 45.5641V72.6458Z" fill="#26B899"/>
<path d="M39.2423 56.1449C39.3614 56.2045 39.489 56.23 39.6165 56.23C39.9313 56.23 40.2289 56.0514 40.382 55.7537C41.105 54.2822 42.8231 51.586 46.2084 50.0294C48.76 48.8557 51.1671 48.8387 52.7321 49.0343C52.9618 49.0598 53.1914 48.9918 53.3785 48.8472C53.5572 48.7026 53.6677 48.4814 53.6847 48.2518C53.7018 48.0391 53.8634 46.1339 54.765 43.9224C55.9047 41.1156 57.6739 39.0573 60.0384 37.8154C62.4285 36.5566 64.8355 36.4631 66.4261 36.6077C66.8939 36.6502 67.3107 36.3015 67.3532 35.8336C67.3957 35.3658 67.047 34.9491 66.5792 34.9065C64.759 34.7449 62.0032 34.8555 59.2474 36.3015C53.8293 39.1508 52.4344 44.9856 52.0942 47.2566C50.3506 47.146 47.9945 47.3332 45.5024 48.4729C41.6324 50.2506 39.6761 53.3211 38.8596 54.9967C38.6469 55.422 38.8255 55.9323 39.2423 56.1449Z" fill="#26B899"/>
</svg>
