<svg width="108" height="113" fill="none" xmlns="http://www.w3.org/2000/svg"><g opacity=".1" fill="#40C0A6"><path d="M35.963.648s0-.045 0 0c0-.045.045-.045 0 0zM47.97 102.617v.614h.131c0-.088 0-.176.044-.307.044-.263.088-.614 0-.789-.088-.088-.132.175-.175.482z"/><path d="M107.17 73.17c-.131-1.71-.131-3.506-.087-5.302.044-1.052.044-2.06-.088-3.068v-3.418c0-1.008-.088-2.06.044-3.023 0-.395-.044-.745-.044-1.14-.088-.087-.131-.219-.175-.57-.044 0-.088-.043-.132-.131a105.261 105.261 0 01-.087-3.769c0-.832-.044-1.665-.044-2.497-.132-.395-.175-1.052-.175-1.666 0-.394-.044-.788-.132-1.051 0-.394-.044-.789-.044-1.183-.044-.044-.087-.044-.131-.088-.044-.35-.044-.701-.088-1.052-.044-.044-.087-.044-.131-.087v-.658c-.044 0-.088-.043-.132-.043v-.614c-.044 0-.087-.044-.131-.044 0-.35-.088-.57-.175-.657l-.044.088c0-.044.044-.044.044-.088 0-.526-.044-1.008-.176-1.27-.044-.658-.044-1.36-.219-1.797-.044-1.403-.307-2.41-.394-3.769-.132-1.14-.482-1.709-.57-3.024-.131-.263-.175-.745-.175-1.227-.088-.087-.132-.306-.175-.657-.263-.394-.395-1.621-.658-1.928 0-.175 0-.35-.044-.526-.263-.219-.394-1.052-.525-1.884-.088-.088-.132-.263-.176-.614h-.131c0-.175-.044-.394-.044-.613-.088-.088-.131-.263-.175-.614-.088-.043-.132-.219-.176-.525l-.131-.132v-.613c-.088-.088-.131-.307-.175-.658l-.526-1.183c-.219-.044-.395-.526-.526-1.14-.131-.043-.263-.174-.307-.656-.044 0-.131 0-.175.043 0-.175-.044-.306-.044-.482-.131-.087-.263-.219-.307-.788-.131-.176-.175-.614-.219-1.096-.131-.131-.219-.307-.306-.701-.176-.044-.351.132-.482-.57-.088-.043-.132-.263-.176-.613-.044-.22-.131-.394-.175-.614-.088-.043-.131-.263-.175-.57-.132-.043-.22-.218-.307-.657-.131 0-.263-.131-.35-.613-.176.044-.351.131-.483-.526-.175.088-.306.044-.482-.088v-.043c-.087-.439-.219-.833-.35-1.052-.088-.438-.22-.395-.307-.044-.044.22-.088.22-.131 0v-.044c-.044-.131-.132-.306-.176-.526-.087-.35-.263-.262-.35-.57-.132-.613-.35-.13-.526-.525-.263-.876-.57.088-.833-.526-.087-.438-.219-.35-.306-.57-.263-.92-.57.088-.833-.613v.044c-.22-.57-.438-.482-.657.044-.35.219-.658 1.314-1.052.832h-.044c-.131.482-.394.044-.526.701a.847.847 0 01-.219.395l-5.127.876c-.044-.263-.087-.482-.175-.57-.263-.832-.57.132-.789-.57v.045c-.044-.263-.087-.263-.175 0l-.044.087-.044-.044c-.306.395-.57.526-.876.088v.044c-.088-.482-.22-.482-.307.044v-.044c-.044.131-.044.307-.088.526-.219 0-.438.175-.613-.439l-.789.132c-.044.175-.131.482-.175.526-.482.087-1.008.175-1.49.175-.088 0-.175-.307-.307-.482-.306-.263-.657.175-1.007-.482-.22.044-.395.044-.614.088 0 .175 0 .306-.044.482h-.044c-.087 0-.175 0-.263-.044-1.051-.22-2.06-.877-3.11-.701-.089-.35-.132-.438-.22-.044-.35-.614-.701-.526-1.052-.482-.175-.526-.35-.482-.57-.526-.175-.044-.394-.044-.569-.57-.307-.043-.613.132-.92-.525-.307-.044-.57-.044-.877-.088-.043-.175-.131-.35-.175-.526-.307-.088-.613.175-.92-.482-.789 0-1.534-.526-2.323-1.183-.306-.044-.613.175-.92-.526-.394-.175-.832.307-1.227-.57-1.358-.306-2.76-.57-4.119-.92-.307-.087-.57.088-.876-.482-.92.22-1.885 0-2.805-.175a108.686 108.686 0 00-3.68-.701c-.132-.044-.307 0-.439-.35-.307.13-.964-.176-1.577.13-.088-.218-.176-.262-.263-.218-.044-.044-.088.175-.132.219l-.044-.088-.043.088V2.18c0-.263-.044-.395-.088-.438-.438-.833-.877.175-1.315-.526h-.044c-.087.131-.175.263-.262 0-.57-.877-1.184.263-1.797-.438v.043c-.132-.525-.22-.482-.35-.043l-.088.131-.088-.088c-.482-.964-.964.263-1.446-.525V.34c-.131-.482-.22-.438-.35.044-.044.175-.132.175-.176.175 0-.043 0-.087-.044-.175-.92.044-1.796.132-2.716.175-.22 0-.483.132-.702-.394-.087 0-.219 0-.306-.044-.132.482-.263.482-.395.044-.087 0-.219.044-.306.044-.176.526-.351.57-.57.088-.22.175-.438.262-.701.131-.307-.175-.57 0-.833.438V.822c0-.35-.088-.57-.175-.745-.57.176-1.14-.35-1.665.482-.132.395-.263.263-.395.044h-.087c-1.052.701-2.104.307-3.112.614-.175.175-.482-.22-.744.57l-.044.087-.044-.088c-.132.307-.307.263-.438.526 0 0 0 .044-.044.044-.438-.35-.92-.35-1.315.263l-.044.088-.131-.088c-.22.57-.57-.044-.745.701l-.044.088-.044-.044c-.131.22-.306.175-.394.701-.088.307-.263.263-.35.657-.088.35-.22.307-.307.526 0-.175 0-.35-.044-.526-.044.044-.132.044-.175.088-.176-.263-.351.131-.482.131-.132.483-.307.483-.482.483-.439.043-.877.131-1.315.175-.044-.044-.088-.044-.132-.132-.175-.219-.394.088-.57-.35-.13-.438-.218-.395-.35.044-.044.175-.131.175-.175.043-.132-.438-.22-.438-.35.044-.132.307-.22.307-.351.044-.701-.613-1.402-.438-2.104.175l-.043.132-.044-.088c-.263.22-.35.22-.438.044h-.22c-1.051.438-2.103.92-3.155.088-.175-.132-.262.043-.306.745a3.767 3.767 0 01-.132.57c0-.22 0-.483-.044-.79-.482.307-.964-.262-1.446.57v-.044c-.788 1.008-1.665-.131-2.497.92l-.044.088-.044-.044c-.35.79-.789-.175-1.096.79v-.045c-.263.745-.613-.131-.876.745-.307.833-.745-.263-1.052.833l.044-.044a2.17 2.17 0 00-.175.57v.043l-.526.132c-.131.526-.35.613-.526.701-.044.22-.131.438-.175.657 0 .35-.044.702-.044 1.052-.044.088-.088.131-.131.263a3.283 3.283 0 01-.176.701c-.087.395-.263.263-.306.789-.088.131-.132.35-.176.657-.175.263-.263.701-.35 1.359-.088.306-.263.219-.35.7-.176.264-.264.702-.264 1.315l-.044.044c0 .263 0 .482-.043.701v.088c-.044.219-.044.394-.132.526-.131.438-.219.876-.35 1.358-.044.614-.176.701-.351.745-.131.614-.35.614-.526.657-.087.526-.307.614-.482.702-.131.613-.35.525-.526.745-.044.219-.131.394-.175.613-.044.35-.088.57-.175.657l-.132.79c0 .525-.044.963-.175 1.226 0 .35-.088.57-.175.657-.044.526-.176.701-.307.79-.044.35-.088.525-.22.569-.087.526-.174.7-.35.745-.087.482-.219.613-.35.7-.044.527-.176.702-.307.79-.044.175-.131.394-.175.57-.263 1.051-.35 2.278-.307 3.68-.088.526-.044 1.227-.131 1.753a.9.9 0 010 .482c-.132.57-.044 1.183-.044 1.797 0 .043 0 .087.044.131-.044 3.067.131 6.091.131 9.159.044.175.044.35.088.525 0 .044-.044.176-.044.263 0 .57-.044 1.008-.132 1.359 0 .745.044 1.446-.131 1.972-.044.394-.044.745-.088 1.139-.044 0-.087.044-.131.088 0 .35-.044.613-.132.745-.044 1.139.088 2.103.263 3.067.176.175.307.57.35 1.358.308 1.227.614 2.323.746 3.9.044.044.044.088.087.132 0 .438.044.876-.043 1.27a6.244 6.244 0 00-.088 2.586v-.044c.131 1.797.175 3.637.088 5.434-.132.394-.088 1.008-.132 1.534l.044.175-.044.175c0 1.359.044 2.761-.131 4.076-.132.306-.088.876-.176 1.27a9.884 9.884 0 00.263 4.032l.132-.526v.394c0 .22.044.439 0 .614.175.438.175 1.183.263 1.796.043.22.131.395.175.614.35.35.526 1.27.57 2.673.175.614.394 1.227.57 1.84.13.044.262.307.35.745.087 0 .175.132.219.482.131.044.263.088.35.614.132.088.263.35.351.745.088 0 .175-.044.263 0 .57.57 1.183.832 1.753 1.665.526.044 1.051.044 1.577.088.307.613.658.394 1.008.394.22 0 .438-.131.658.438.043-.219.087-.394.131-.613 1.315.613 2.585-.438 3.856-.833.044 0 .044 0 .088-.044.044.176.087.35.131.439l-.044-.044c.351.832.745 1.621 1.184 1.84.175.833.438.877.657 1.227v-.044c.57 1.446 1.227 1.534 1.884 2.104l.132.131c.087.088.219.088.306.132.044.087.088.219.132.394.263.175.57-.351.789.614.175-.044.35-.132.525.482.263.043.57-.088.79.613.262.044.569 0 .832.526.263 0 .526-.044.789-.044.043.044.043.088.087.132.044.087.132.087.175 0v.087c0 .307.044.57.088.789.088.175.132.307.22.35 1.27-.087 2.497.789 3.768.263.087 0 .175-.043.263-.043.131-.044.263-.044.35-.088.088-.044.175-.044.22-.088.13-.087.306-.131.438-.35.175-.088.35-.219.482-.438.657.219 1.358.131 2.015 0 .088 0 .132-.22.22-.307v-.044c.306.57.57.438.832-.088v.044c.307.57.57.263.876.132.833-.395 1.71-.745 2.542-1.184 1.402-.701 2.848-.92 4.25-1.446.877-.306 1.71-.745 2.586-1.139.044 0 .088-.088.131-.175.176.087.351.35.482-.088.044-.087.044-.175.088-.219.088-.044.175-.044.263-.088.307.22.657-.306.92.921.132.525.263-.219.395-.482.832.263 1.665-.395 2.497-.482a1.05 1.05 0 00.482-.263c.088.219.22.175.307.087.22.482.482.614.745.658.263 0 .526.131.657.876.22 1.183.526 1.183.833 1.315.35.131.745.175 1.095.263.088.482.22.569.307.657 0 .175 0 .35-.044.482h.088v.131c-.044-.043-.044-.087-.088-.131-.394.394-.745.964-1.183.964v.964c.307.438.614.263.964.088 0 .175 0 .35.044.525.307-.043.614-.087.964-.131a.81.81 0 00.307.088c.044.175.044.306.044.525.044-.043.087 0 .131.044 0 .351.088.614.175.745v.482c-.131.351-.043.57.044.789.044.131.132.263.176.438.263-.087.57-.482.832.526.132-.175.22-.35.35-.57.088.132.22.22.307.526l.176-.175-.044.044c.044.35.088.569.175.657.175 2.06.657 1.359 1.008 1.797l.044-.044c.219-.57.482.92.701-.044.263-.438.526-.613.789-.044.482.307.964.438 1.446-.306v.043c.175-.394.35-.438.526-.087.044.219.087.175.131-.088v.044c.22-.394.438-.482.701-.044v-.044c.044.219.088.219.132 0 .131-.35.35-.263.394-1.051.044 0 .044-.088.088-.22.044.176.131.307.175.482.131 0 .307 0 .438-.043.526-.614 1.052-.833 1.578-.921.175-.745.438-.701.657-.657.175-.657.394-.482.57-.35.219.175.482.394.7.131.176-.92.395-.92.658-.526.35.614.701.789 1.096.614.131-.044.263.175.394.263.175-.57.35-.482.526-.044.307-.044.613-.088.964-.132.307-.832.657-.569.964-.788.132-.482.307-.439.438-.526.92-.526 1.84-1.052 2.805-1.622.57-.131 1.183-.525 1.752-1.139.22-.876.57-.613.833-.57.482.088.92-.131 1.359-.525a.679.679 0 00.306-.307c.439-.132.877-.176 1.271-.395.92-.525 1.84-1.314 2.76-1.621.57-.175 1.184-.351 1.71.526.35-.044.7.044 1.051-.219.263-.176.483-.044.702 0 .175-.964.35-1.271.657-.614.131.789.307.701.482.701.307 0 .613-.087.964-.131 0 .175 0 .351.044.526.876.131 1.753.263 2.585.35.044 0 .088-.043.132-.043v.087c.175.307.394 0 .57.351h.043c.876-.658 1.797.657 2.673.044.044-.088.088-.132.088-.22v.088c.087.614.175.92.35.92.22.044.395.044.614.044 0 .175 0 .351.044.526.175.745.438.833.657 1.183.088.438.22.351.35.57v-.044c.483.613 1.008.57 1.534 1.139.044-.087.088-.044.088.044.131.526.35.088.482.482.175.657.394.263.57.263.043-.088.043-.219.043-.307.044.176.132.395.176.57.131.044.306.088.438.131 0 .176.044.351.044.526h.482v.088c0 .175 0 .307.044.482.043-.088.087-.044.087.088.088.35.263.263.35.525v-.043c.264.35.527.35.79-.132v.044c.087-.263.262-.263.35-.613.263-.921.657.131.964-.833v.044s.044-.044.044-.176v-.219a.75.75 0 01.263-.263c.044 0 .087-.043.175-.043v-.088c0-.044.044-.044.044-.088.088-.087.219-.087.263-.482v.044c.088-.35.263-.263.307-.745.087-.263.263-.219.306-.701.176-.57.482.132.658-.701.263-.482.263-1.753.438-2.542.044-.219.131-.438.131-.745v.044c.176-.657.307-1.446.482-1.972.088-.35.263-.263.307-.745v.044c.132-.394.088-1.008.132-1.49-.044-.175 0-.306 0-.438.087-.35.043-.92.131-1.315.044-.219.131-.438.131-.745v.044a129.395 129.395 0 00.789-3.9c.176-.482.438-1.051.395-1.796-.307-3.155.438-4.864.569-7.362.044-.701.176-1.227 0-1.884.088-.439.176-.877.263-1.227.658-1.49.964-3.418.701-6.354zM65.585 10.55zm-3.637 7.8c-.044.132-.088.088-.132-.043.044.044.088.087.132.044zm16.126 68.185c0-.175.044-.307.087-.307-.043.132-.043.22-.087.307zm-67.615 2.76v.176l.131-.526c-.043.088-.043.22-.087.307-.044 0-.044.044-.044.044zM8.443 77.202c-.044-.044-.044-.044 0 0v-.307.307zm95.967-29.403c.043 0 .043.044.043.087-.043 0-.043-.043-.043-.087zM91.088 59.19c0-.088 0-.22.044-.307.044-.175.088-.35.132-.438 0 0 .043 0 .043-.044-.087.22-.175.482-.219.789zm6.705-4.645c0-.044 0-.044 0 0 0-.044 0-.044 0 0 0-.044 0-.044 0 0zM6.559 66.641c-.044-.088-.044-.176-.088-.351.044.131.044.263.088.35zm94.476-11.219v-.043.044zM43.149 18.22s0-.044 0 0zm42.9 71.602c0 .044 0 .088-.044.088 0-.088.044-.131.044-.088zm9.07-62.268c.088-.088.132-.22.22-.35 0 .437-.088.569-.22.35zM30.004 16.16c0 .043 0 .087.044.13-.044-.043-.088-.306-.044-.13zM2.57 54.282zm8.545 32.252v.175c0-.044-.044-.087-.044-.131 0-.044 0-.044.044-.044zm88.868 6.09v-.043.044c0-.044 0-.044 0 0zm1.49-61.698c.044.044 0 .044 0 .088v-.088zm-57.93-17.221c0 .043 0 .087-.045.175-.043.131-.043.175-.087.219.044-.175.087-.307.131-.394zm-39.877 42.9c.087.044.131.087.219.131 0 .132-.044.22-.044.395a2.47 2.47 0 00-.175-.526zm.57 20.376v-.044.044c0-.044 0 0 0 0zm4.075 1.446v-.044.045zm.394-7.274v-.044c.044 0 .044.044 0 .044.044 0 0 0 0 0zm1.71 18.317v-.175c.043.087 0 .131 0 .175zm92.591-48.64v-.22.22zM50.292 9.673zm-6.354 1.183v-.175l.043.044c-.043.087-.043.131-.043.131zM32.632 13.97v.13s0-.043-.044-.043c0-.044 0-.087.044-.087zM7.962 38.99c-.045-.043-.045-.043 0 0 0-.043 0 0 0 0zM4.28 44.688s-.044-.044-.044-.088c.044 0 .044.044.044.088 0-.044 0-.044 0 0 0-.044 0-.044 0 0zm.57 33.96c.044.044.044.132.088.22-.044 0-.044 0-.088.043v-.263zm5.653 10.43v.087c0-.088.043-.175.043-.263 0-.044.044-.131.044-.175v.044a.804.804 0 01-.087.306zm45.704 18.36v-.045c-.044 0-.044 0 0 .044zm44.04-78.57c-.044-.043-.132-.131-.132-.262.088.087.132.13.219.219-.043 0-.087.043-.087.043zM50.292 9.587c-.044 0-.044 0 0 0-.044 0-.044 0 0 0zm-17.485.92c0-.088.044-.176.044-.22 0 .088 0 .176-.044.22zM7.698 93.108c.044 0 .044.044.044.088 0 0-.044 0-.088.043.044-.043.044-.087.044-.131zm.22-4.12c.043-.043.043-.043 0 0 .043-.043.043 0 0 0 .043 0 0 0 0 0zm44.696 14.242c.044 0 .044 0 0 0zm14.11-4.47s0 .045 0 0c0 .045-.044 0 0 0-.044 0 0 0 0 0zm32.559 3.112c0 .131 0 .219-.044.351.044-.132.044-.263.044-.351zm1.183-77.825c-.044-.044-.044-.088-.088-.175 0 .044.044.087.088.175zM40.87 4.985l.088.176c-.044.043-.088.131-.175.175 0-.132 0-.307.087-.35zM53.228 107.57c0 .043.043.131.043.175l-.044-.175c0 .043 0 .043 0 0zm25.196-5.259c0-.307 0-.526-.087-.657-.044-.132-.088-.263-.088-.394v-.044c.044.175.088.306.088.438.087.131.087.35.087.657zm26.687-13.76c0 .044 0 .044 0 0v.001z"/></g><path d="M72.712 72.646h-1.863V45.564a2.289 2.289 0 00-2.288-2.288h-4.168a2.294 2.294 0 00-2.288 2.288v27.09h-4.737V57.838a2.294 2.294 0 00-2.288-2.288h-4.168a2.294 2.294 0 00-2.288 2.288v14.816h-4.738v-7.672a2.294 2.294 0 00-2.288-2.288h-4.167a2.294 2.294 0 00-2.288 2.288v7.672h-1.965a.853.853 0 00-.85.85c0 .469.382.851.85.851h39.534c.467 0 .85-.382.85-.85a.86.86 0 00-.85-.86zm-30.527 0h-5.341v-7.672c0-.323.263-.587.587-.587h4.167c.323 0 .587.264.587.587v7.672zm13.481 0h-5.341V57.838c0-.324.264-.587.587-.587h4.168c.323 0 .586.263.586.587v14.808zm13.482 0h-5.342V45.564c0-.323.264-.587.587-.587h4.168c.323 0 .587.264.587.587v27.082zM39.242 56.145a.83.83 0 00.375.085.864.864 0 00.765-.476c.723-1.472 2.441-4.168 5.826-5.725 2.552-1.173 4.96-1.19 6.524-.995.23.026.46-.042.647-.187a.852.852 0 00.306-.595c.017-.213.178-2.118 1.08-4.33 1.14-2.806 2.909-4.865 5.273-6.107 2.39-1.258 4.797-1.352 6.388-1.207a.856.856 0 00.927-.774.857.857 0 00-.774-.928c-1.82-.161-4.576-.05-7.332 1.395-5.418 2.85-6.813 8.685-7.153 10.956-1.743-.111-4.1.076-6.592 1.216-3.87 1.778-5.826 4.848-6.642 6.524a.86.86 0 00.382 1.148z" fill="#26B899"/></svg>