<svg width="111" height="108" viewBox="0 0 111 108" fill="none" xmlns="http://www.w3.org/2000/svg">
<g opacity="0.1">
<path d="M63.8168 105.778C63.8168 105.733 63.8168 105.733 63.8168 105.778C63.772 105.733 63.772 105.733 63.8168 105.778Z" fill="#50D9C0"/>
<path d="M76.393 105.47C76.393 105.515 76.393 105.515 76.393 105.47C76.3482 105.515 76.3482 105.515 76.393 105.47Z" fill="#50D9C0"/>
<path d="M110.09 42.0184C109.958 40.66 110.484 39.0386 110.265 37.724C110.177 37.3296 110.265 36.7161 110.177 36.2779C110.046 34.9633 110.44 33.2105 110.046 32.1588V32.2027C109.958 31.8083 110.046 31.151 109.915 30.8004C109.827 30.3622 109.958 29.7487 109.783 29.3982V29.442C109.783 29.1791 109.739 29.0914 109.695 29.1791C109.739 28.7408 109.783 28.3465 109.695 27.9959C109.52 27.4262 109.827 26.4184 109.652 25.9363V25.9802C109.564 25.542 109.652 24.9285 109.564 24.5341V24.5779C109.476 24.1835 109.564 23.5262 109.433 23.1757V23.2195C109.345 22.8251 109.433 22.1678 109.301 21.8172V21.8611C109.257 21.6858 109.213 21.5105 109.17 21.3352C109.389 19.8453 109.301 18.6184 108.951 17.6981C108.907 17.3914 108.863 17.1723 108.775 16.9532V16.997C108.468 16.6026 108.6 15.5509 108.468 14.8936V14.9374C108.381 14.5431 108.468 13.9296 108.337 13.579C108.293 13.2723 108.249 13.0532 108.162 12.8341C108.03 11.87 107.855 10.9936 107.68 10.0734C107.504 9.0217 107.461 7.79473 107.022 7.35653C107.022 7.00597 106.891 6.83069 106.803 6.56777C106.672 6.2172 106.803 5.51608 106.672 5.20934V5.25316C106.628 4.94641 106.584 4.72731 106.497 4.55203C106.453 4.24529 106.409 4.02619 106.321 3.80709C106.277 3.50034 106.234 3.28124 106.146 3.06214C106.102 2.79922 106.015 2.58012 105.927 2.40484C105.795 1.74753 105.401 2.31719 105.27 1.70371C105.138 1.26551 104.919 1.39697 104.788 1.04641L104.7 1.09023L104.612 1.04641C104.481 1.22169 104.393 1.22169 104.306 1.00259C103.824 0.0823586 103.079 1.22169 102.597 0.34528L102.465 0.389101L102.334 0.34528C102.071 -0.136743 101.72 -0.0929228 101.326 0.34528L101.282 0.432921H101.194C100.975 0.739663 100.756 0.695843 100.581 1.09023C100.493 1.35315 100.362 1.57225 100.274 1.79135C100.186 2.01045 100.055 2.22955 99.9674 2.44866C99.7921 2.93068 99.573 2.7554 99.3977 3.1936C99.1348 3.80709 98.828 3.23742 98.5651 3.93855C98.3898 4.28911 98.1707 4.20147 97.9954 4.59585C97.3381 5.5599 96.8123 4.42057 96.155 5.3408C96.0235 5.38462 95.8482 5.38462 95.7168 5.42844C95.673 5.42844 95.6291 5.47226 95.5853 5.5599C95.5415 5.60372 95.5415 5.64754 95.5415 5.73518C95.3662 5.73518 95.2348 5.73518 95.0595 6.12956C94.7089 6.78687 94.3584 5.9981 93.964 6.83069V6.78687C93.7887 7.13743 93.5696 7.00597 93.3943 7.44417L93.3067 7.53181H93.219C93.1752 7.53181 93.1314 7.57563 93.0876 7.66327C93.0437 7.70709 93.0437 7.75091 93.0437 7.83855C92.8685 7.83855 92.737 7.83855 92.6055 8.23294C91.6853 8.75878 90.8527 8.8026 90.064 8.27676C89.5381 7.70709 88.9685 7.66327 88.3112 8.32058V8.27676C87.9168 8.75878 87.5662 8.8026 87.2595 8.27676C86.7336 7.66327 86.1201 7.75091 85.5067 8.27676C85.3752 8.32058 85.1999 8.32058 85.0684 8.3644C84.937 8.49586 84.8493 8.67114 84.8055 8.93406C84.8055 8.97788 84.7617 9.0217 84.7617 9.0217H84.7179C84.7179 9.10934 84.6741 9.15316 84.6741 9.24081C84.6302 9.32845 84.5864 9.45991 84.4988 9.50373L84.455 9.54755C84.455 9.50373 84.4988 9.50373 84.4988 9.45991C84.4988 9.32845 84.5426 9.24081 84.5426 9.10934C84.4988 9.06552 84.455 9.0217 84.455 8.97788C84.1044 8.40822 83.6662 8.40822 83.228 9.0217C83.0965 9.32845 83.0089 9.24081 82.9212 9.06553C82.7898 9.06553 82.6583 9.06553 82.5269 9.06553C81.1684 9.89811 79.9853 8.89024 78.6269 9.72283L78.4954 9.85429H78.3639C78.2325 10.0734 78.101 10.1172 78.0572 9.85429C77.9257 9.41609 77.7943 9.41609 77.5752 9.85429C76.5673 10.8622 75.7347 9.50373 74.7269 10.6431V10.5992C74.3325 11.0374 73.9819 10.9936 73.6313 10.906C73.5875 10.8622 73.5875 10.8183 73.5875 10.7745C73.1055 10.6869 72.974 10.5116 72.9302 10.3801C72.4044 10.2925 72.2291 10.161 72.1853 10.0296C72.01 9.94193 71.8347 9.85429 71.6156 9.81047C70.6077 9.45991 69.337 9.28463 67.9347 9.28463C67.4089 9.15316 66.7077 9.15316 66.1819 9.0217C66.0066 9.0217 65.8751 9.0217 65.6999 8.97788C65.1302 8.84642 64.5167 8.84642 63.9032 8.8026C63.8594 8.84642 63.8156 8.84642 63.7718 8.89024C60.7043 8.62732 57.6807 8.62732 54.6133 8.45204C54.438 8.45204 54.2628 8.49586 54.0875 8.49586C54.0437 8.49586 53.9122 8.45204 53.8246 8.45204C53.2549 8.45204 52.8167 8.3644 52.5099 8.23294C51.765 8.18912 51.0639 8.1453 50.538 7.97002C50.1875 7.9262 49.7931 7.88238 49.4425 7.83855C49.4425 7.79473 49.3987 7.75091 49.3549 7.70709C49.0043 7.66327 48.7414 7.61945 48.6099 7.53181C47.4706 7.44417 46.5066 7.48799 45.5425 7.57563C45.3672 7.75091 44.929 7.88238 44.1841 7.83855C42.9571 8.05766 41.8178 8.27676 40.2403 8.32058C40.1964 8.3644 40.1526 8.3644 40.1088 8.40822C39.6706 8.3644 39.2324 8.3644 38.838 8.27676C38.0931 8.05766 37.2605 7.9262 36.2964 8.01384H36.3402C34.5436 8.01384 32.7032 7.9262 30.9065 7.75092C30.5121 7.57563 29.8987 7.57563 29.3728 7.48799H29.1975L29.0223 7.44417C27.6638 7.35653 26.2616 7.31271 24.9908 7.04979C24.7279 6.91833 24.1144 6.91833 23.72 6.78687C22.1425 6.48013 20.8717 6.56777 19.6885 6.78687C19.8638 6.83069 20.0391 6.87451 20.2144 6.96215C20.0829 6.96215 19.9514 6.96215 19.82 6.91833C19.6009 6.91833 19.3818 6.91833 19.2065 6.87451C18.7245 7.00597 18.0234 7.00597 17.3661 7.00597C17.1469 7.04979 16.9278 7.09361 16.7526 7.13743C16.3582 7.48799 15.438 7.61945 14.0357 7.53181C13.4222 7.66327 12.8087 7.83856 12.1514 7.97002C12.1076 8.10148 11.8447 8.18912 11.4065 8.27676C11.4065 8.3644 11.2312 8.45204 10.8806 8.45204C10.8368 8.5835 10.7492 8.71496 10.2233 8.75878C10.1357 8.89024 9.87278 8.97788 9.43457 9.0217C9.43457 9.10934 9.47839 9.19699 9.39075 9.28463C8.82109 9.81047 8.51435 10.424 7.59412 10.906C7.5503 11.4318 7.46266 11.9577 7.41884 12.4835C6.80535 12.7464 6.98063 13.097 6.98063 13.4476C6.98063 13.6667 7.06827 13.9296 6.49861 14.061C6.71771 14.1049 6.89299 14.1925 7.1121 14.2363C6.45479 15.5071 7.37502 16.8217 7.72558 18.1363C7.85704 18.706 7.9885 19.2757 7.7694 19.8015C7.37502 20.6779 7.72558 21.642 7.02446 22.4745C6.98064 22.5622 7.19974 22.6498 7.28738 22.7375C7.02446 22.7813 7.06828 22.8689 7.37502 22.9566H7.46266C7.41884 22.9566 7.37502 22.9566 7.3312 22.9566C7.19974 23.9644 7.24356 24.9285 6.98063 25.9363C6.84917 26.4622 6.80535 27.0319 6.36715 27.5577C6.06041 27.9521 5.92895 28.3465 6.27951 28.7847C6.41097 29.3105 6.32333 29.8364 5.97277 30.3184C5.70985 30.6251 5.88513 30.9319 6.32333 31.2824C6.14805 31.2824 5.97277 31.2824 5.79749 31.3262C5.49074 32.2465 5.22782 33.1667 4.92108 34.0869C4.87726 34.2184 5.00872 34.306 5.05254 34.4375C4.17613 34.7442 4.61434 35.1386 4.43906 35.4892C4.30759 35.7959 4.13231 36.1465 4.00085 36.4532C3.91321 36.6723 4.00085 36.8914 3.43119 37.0667C3.43119 37.8117 3.47501 38.6004 2.51096 39.2577C2.24804 39.4768 2.29186 39.6959 2.20422 39.915C2.11658 40.178 2.1604 40.4409 1.76602 40.66C1.37163 40.9229 1.19635 41.2296 1.9413 41.4926C2.90534 41.8431 2.64242 42.106 2.51096 42.4566C2.3795 42.8948 1.89748 43.333 1.9413 43.815C1.98512 44.2532 1.37163 44.6476 1.10871 45.042C1.02107 45.1297 1.10871 45.2611 1.15253 45.3926C1.67838 45.524 1.63456 45.6117 1.06489 45.6117C0.977251 45.787 0.670508 45.9184 1.15253 46.1375C2.11658 46.5319 2.24804 46.8825 1.28399 47.1892C0.84579 47.3207 0.93343 47.4959 1.19635 47.6712C1.45927 47.8465 1.98512 48.0656 1.89748 48.1971C1.54691 48.7667 2.86152 49.3802 2.46714 49.9499C2.24804 50.2566 2.3795 50.6072 1.54691 50.8263C1.15253 50.9139 1.37163 51.0892 1.41545 51.2645C2.02894 51.396 2.46714 51.5274 2.51096 51.7465C2.5986 52.2724 2.5986 52.7982 2.68624 53.324C2.73006 53.587 2.46714 53.7623 1.98512 53.9375C1.28399 54.2005 1.37163 54.2005 2.64242 54.5948C2.77388 54.9454 2.90534 55.2521 2.33568 55.5589C2.20422 55.6465 2.07276 55.7342 2.20422 55.8218C3.16827 56.26 2.51096 56.5667 2.20422 56.9173C2.02894 57.1364 1.80984 57.3993 2.55478 57.6184C3.47501 57.8814 3.38737 58.1443 3.38737 58.4072C3.43119 58.7578 3.43119 59.1083 3.43119 59.4589C3.43119 59.5904 3.47501 59.7218 3.34355 59.8095C3.03681 60.0724 2.29186 60.3353 2.3795 60.5982C2.46714 60.8173 2.94917 61.1241 3.21209 61.387C3.51883 61.7376 3.25591 61.9567 2.90534 62.2196C2.55478 62.4825 1.85366 62.7454 2.86152 63.1398C3.03681 63.2274 3.03681 63.3151 2.77388 63.3589C2.3795 63.4465 2.24804 63.6218 2.46714 63.7533C3.51883 64.4544 3.16827 65.0679 2.51096 65.6376C2.90534 65.769 3.12445 65.9005 3.08063 66.0758C2.90534 66.996 3.38737 67.9162 3.60647 68.8364C3.69411 69.2308 4.13231 69.6252 3.47501 69.9758C3.29973 70.0634 3.34355 70.2387 3.51883 70.3263C4.7458 70.896 4.39524 71.4657 4.57052 71.9915C4.61434 72.1668 4.5267 72.3421 4.65816 72.5173C4.7458 72.6926 4.7458 72.8679 4.39524 72.9994C3.56265 73.3499 3.60647 73.6567 4.92108 74.0511C5.14018 74.0949 5.31546 74.2263 5.31546 74.314C5.27164 74.8837 5.97277 75.4971 5.70985 76.0668C5.66603 76.1983 5.84131 76.2421 6.10423 76.2859C6.10423 76.3735 6.06041 76.505 6.06041 76.5926C6.01659 76.8556 5.92895 77.1185 5.84131 77.3814C5.75367 77.4252 5.66602 77.4252 5.53456 77.469C5.49074 77.469 5.57838 77.6005 5.70985 77.6005H5.75367C5.49074 78.6084 5.184 79.5286 4.9649 80.6241C4.92108 80.8432 4.87726 81.0623 4.83344 81.3252C4.57052 82.7275 4.13231 83.4724 3.60647 83.5601C3.38737 83.6039 3.16827 83.6039 2.99299 83.6477C2.5986 85.9264 1.80984 87.1972 1.10871 88.8185C0.88961 88.9938 0.714329 89.1691 0.539047 89.7387C-0.074437 90.1331 -0.074437 90.1769 0.100844 91.4039C0.100844 91.4916 0.144665 91.5792 0.144665 91.6668C0.363766 91.7106 0.626688 91.7545 0.84579 91.7545C0.977251 91.9736 1.15253 92.1927 1.28399 92.4118C1.59074 92.4556 1.89748 92.5432 2.20422 92.5871C2.33568 93.0691 2.5986 93.1129 2.8177 93.2444C3.21209 93.4635 3.60647 93.6387 3.86939 94.4275C4.08849 94.4275 4.26377 94.559 4.35142 94.9972C4.70198 95.3477 5.09636 95.6545 5.44692 96.005C5.44692 96.1803 5.44692 96.3556 5.4031 96.5309C5.6222 96.5309 5.79749 96.6624 5.88513 97.1006C6.10423 97.1006 6.23569 97.2758 6.32333 97.7579C6.54243 97.8455 6.76153 97.8893 6.98063 97.977C6.98063 98.1522 6.98063 98.3713 6.98063 98.5466C7.28738 98.5904 7.59412 98.6781 7.90086 98.7219C7.90086 98.8972 7.90086 99.0725 7.90086 99.2477C8.11996 99.2039 8.29525 99.2916 8.38289 99.7736C8.77727 99.8174 9.17165 99.8612 9.56603 99.9051C9.69749 100.124 9.87278 100.343 10.0042 100.562C11.0559 100.606 12.1076 100.65 13.1593 100.65C13.9042 101.307 14.7368 101.22 15.5694 101.132C18.9874 100.913 22.2739 101.789 25.6481 101.702C25.8672 101.702 26.0863 101.658 26.2616 101.746C27.62 102.49 29.1099 102.359 30.556 102.315C33.7987 102.228 36.9976 102.14 40.2403 102.052C40.6785 102.052 41.0728 102.096 41.511 102.096C41.6863 102.271 41.8616 102.534 42.0807 102.578C42.1684 102.578 42.2998 102.622 42.3875 102.622C42.6504 102.929 43.3077 103.192 44.447 103.367C45.8493 103.586 46.0684 103.893 45.8931 104.199C46.7695 104.419 46.4189 104.681 46.5942 104.944C47.0762 104.988 47.5583 105.076 47.7335 105.207C47.9526 105.295 48.1279 105.339 48.347 105.426C48.1717 105.47 47.9965 105.514 47.7774 105.602C47.865 105.646 47.865 105.689 47.865 105.733C48.1717 105.777 48.347 105.865 48.3908 105.952C48.5661 105.996 48.7414 105.996 48.9605 105.996C49.0481 106.215 49.1358 106.434 49.2234 106.653C50.056 106.96 51.0201 107.135 52.2032 106.96C52.729 106.872 53.2111 106.785 53.6931 106.741C54.0875 106.522 54.5695 106.61 55.0953 106.785C55.665 106.872 56.2347 106.916 56.8043 106.872C56.8482 106.653 57.5055 106.61 57.8122 106.434C58.0313 106.434 58.1628 106.434 58.2504 106.39C58.4257 106.39 58.601 106.434 58.7763 106.434C58.8639 106.215 58.9077 105.996 58.9954 105.777C59.1706 105.777 59.3459 105.777 59.565 105.777C59.6088 105.689 59.8718 105.646 60.2223 105.646C60.2661 105.514 60.3538 105.383 60.792 105.339C61.274 105.865 61.8875 105.339 62.4133 105.514C62.501 105.514 62.5886 105.383 62.6763 105.207C62.8954 105.865 63.3774 105.163 63.5965 105.777C64.1223 106.434 64.692 106.39 65.3493 105.733C65.4369 105.602 65.5246 105.602 65.5684 105.733C68.1976 106.566 70.9583 105.821 73.6313 105.908C74.4201 105.952 75.2527 106.39 76.1291 105.514C76.3044 105.251 76.4797 105.12 76.6549 104.988C77.7505 105.339 78.846 105.47 79.9853 104.769C80.0729 104.638 80.1168 104.638 80.1606 104.725C81.6943 103.805 83.0527 104.988 84.5864 104.024C84.8493 103.805 85.0684 103.805 85.2875 103.937C86.4707 103.06 87.5224 104.199 88.7055 103.192C88.837 103.192 89.0123 103.148 89.1437 103.148C90.2392 102.271 91.2033 103.454 92.2988 102.359C92.3864 102.228 92.4303 102.271 92.4741 102.359C93.964 101.877 95.4539 101.746 96.8123 102.315C96.8561 102.534 96.9438 102.534 97.0314 102.271V102.315C97.2943 101.702 97.6011 102.315 97.864 101.526L97.8202 101.57C97.9516 101.439 97.9954 101.22 98.0831 100.913C98.1269 100.913 98.1707 100.913 98.1707 100.913C98.2584 100.562 98.346 100.299 98.4775 100.256C98.6966 99.5107 99.0033 98.9848 99.3539 98.7219C99.4853 98.0646 99.573 97.2758 99.8359 96.7062C99.8797 96.3118 99.9235 95.9174 99.9674 95.5668C99.9674 95.523 100.011 95.4354 100.011 95.3916C100.055 95.1286 100.143 94.8657 100.23 94.6028C100.274 94.6028 100.274 94.559 100.318 94.559C100.362 94.1646 100.406 93.7702 100.493 93.3758C100.493 93.2882 100.537 93.2005 100.537 93.1567C100.581 92.9814 100.668 92.7623 100.712 92.5871C100.756 92.5871 100.756 92.5432 100.8 92.5432C100.844 92.4118 100.844 92.2365 100.888 92.105C100.931 91.9297 100.975 91.7545 101.019 91.5792C101.063 91.4915 101.063 91.4477 101.107 91.3601C101.151 91.3601 101.194 91.3163 101.238 91.3163C101.326 90.9219 101.413 90.7028 101.545 90.6151C101.589 90.4399 101.589 90.3084 101.633 90.1331C101.633 90.0893 101.633 90.0455 101.676 90.0017C101.808 89.914 101.939 89.8702 102.115 89.7826C102.377 88.6432 102.246 87.3286 102.728 86.3207C102.816 85.8825 102.859 85.4882 102.947 85.05C103.035 85.0061 103.079 84.9623 103.166 84.9185C103.254 84.3488 103.385 83.9106 103.561 83.6039C103.604 83.2095 103.692 82.9466 103.867 82.8151C103.955 82.2893 104.043 81.7634 104.262 81.5005C104.349 80.9747 104.437 80.4488 104.656 80.0983C104.744 79.5286 104.831 79.0466 105.051 78.7398C105.094 78.3455 105.182 78.0825 105.313 77.9072C105.401 77.3814 105.533 76.8994 105.752 76.6365C105.839 76.3735 105.927 76.1106 106.058 75.8477C106.146 75.5848 106.277 75.3657 106.365 75.1027C106.409 74.9275 106.453 74.7522 106.497 74.5331L106.54 74.4893C106.716 74.2702 106.891 74.1825 107.022 73.7443C107.11 73.6129 107.154 73.4814 107.198 73.2185C107.198 73.1747 107.242 73.087 107.242 73.0432C107.285 73.0432 107.285 73.0432 107.329 72.9994C107.329 72.9117 107.373 72.8241 107.373 72.7803L107.417 72.7365C107.504 72.6926 107.592 72.5612 107.68 72.3421L107.636 72.4297C107.855 72.0791 107.899 71.4218 108.03 70.9836C108.556 69.7567 108.819 68.4421 108.731 66.8645C108.688 66.6892 108.731 66.5578 108.775 66.3387C108.644 65.4623 108.994 64.2791 108.819 63.4027C108.731 62.0881 108.994 60.7297 109.082 59.3713C109.301 56.3477 109.871 53.2802 109.827 50.2566C109.783 49.9937 109.739 49.7308 109.695 49.4679C109.739 48.8106 109.827 48.1094 109.871 47.4521C109.695 46.6634 109.827 45.6555 109.871 44.6914C109.827 44.2971 109.783 43.9027 109.739 43.4645C109.739 43.4645 109.739 43.4207 109.783 43.4207C109.783 43.4207 109.827 43.333 109.871 43.1139C109.915 42.9386 109.915 42.7195 109.871 42.5443C110.046 42.369 110.046 42.1937 110.09 42.0184ZM97.7763 86.9781C97.7325 86.8028 97.6887 86.6275 97.6449 86.4522C97.6449 86.4522 97.6449 86.4522 97.6449 86.4084C97.6887 86.6275 97.7325 86.8028 97.7763 86.9781C97.7325 86.8028 97.6887 86.6275 97.6449 86.4522C97.6887 86.6275 97.7325 86.8028 97.7763 86.9781ZM27.0942 9.72283C27.0942 9.72283 27.138 9.72283 27.0942 9.72283C27.0503 9.72283 27.0503 9.72283 27.0503 9.72283H27.0942ZM14.8683 12.6588C14.8683 12.6588 14.8245 12.6588 14.8683 12.6588C14.8245 12.6588 14.8245 12.6588 14.8683 12.6588ZM15.2189 96.8376C15.2189 96.75 15.2627 96.6185 15.2627 96.5309C15.2627 96.6185 15.2627 96.75 15.2189 96.8376C15.2627 96.8376 15.2189 96.8376 15.2189 96.8376ZM14.3424 15.1565C14.2986 15.1565 14.2986 15.1565 14.2548 15.1127C14.211 15.1127 14.211 15.1127 14.1672 15.0689C14.3424 15.1127 14.5177 15.2004 14.693 15.2442C14.6054 15.2004 14.5177 15.2004 14.3863 15.1565C14.3863 15.1565 14.3863 15.1565 14.3424 15.1565ZM14.1672 15.1127C14.211 15.1127 14.211 15.1127 14.2548 15.1565C14.2986 15.1565 14.2986 15.1565 14.3424 15.2004C14.2548 15.1127 14.211 15.1127 14.1672 15.1127ZM99.5292 35.4015C99.573 35.2263 99.6168 35.051 99.7044 34.9195C99.7921 34.7442 99.8797 34.7442 99.9674 34.8319C99.8359 35.0072 99.7044 35.1824 99.5292 35.4015ZM17.7604 21.3352C17.629 21.379 17.4975 21.379 17.3661 21.4229C17.3661 21.379 17.3661 21.3352 17.3661 21.3352C17.4975 21.3352 17.629 21.3352 17.7604 21.3352ZM17.1469 26.5498C17.1031 26.5498 17.0155 26.506 17.0155 26.506C17.0593 26.5498 17.1031 26.5498 17.1469 26.5498ZM17.5413 29.5734C17.5413 29.6173 17.5413 29.6173 17.5413 29.5734C17.4975 29.5734 17.4975 29.5734 17.4975 29.5734C17.4975 29.5734 17.4975 29.5734 17.5413 29.5734ZM59.1706 16.9094C58.9954 16.8655 58.9077 16.8217 58.8639 16.7341C59.083 16.7341 59.2583 16.8217 59.1706 16.9094ZM16.9278 15.9891C16.9717 15.9891 17.0155 15.9453 17.0593 15.9453V15.9891C17.0155 15.9891 16.9717 15.9891 16.9278 15.9891ZM14.4301 35.5768C14.3863 35.533 14.3863 35.533 14.4301 35.5768C14.4301 35.533 14.4301 35.533 14.4301 35.5768ZM32.5717 14.5869C32.6155 14.5869 32.6155 14.5869 32.6155 14.5869H32.5717ZM14.5615 15.2004C14.5177 15.2004 14.5177 15.2004 14.4739 15.1565C14.5615 15.2004 14.6492 15.2004 14.7368 15.2442C14.7807 15.2442 14.8683 15.288 14.9121 15.288C14.9121 15.288 14.9121 15.288 14.8683 15.288C14.7807 15.288 14.6492 15.2442 14.5615 15.2004ZM102.991 36.2779C103.035 36.015 103.21 35.8397 103.342 35.7959C103.473 35.7521 103.604 35.7521 103.692 35.9274C103.561 35.7959 103.342 35.9712 102.991 36.2779ZM59.3021 11.9138C59.2583 11.87 59.2583 11.87 59.3021 11.9138C59.3021 11.87 59.3459 11.87 59.3897 11.87C59.3459 11.87 59.3021 11.87 59.3021 11.9138ZM37.2167 12.7026C37.3043 12.6588 37.3919 12.6588 37.5672 12.6588C37.4358 12.6588 37.3043 12.7026 37.2167 12.7026ZM11.5379 25.6296C11.0559 25.6296 10.6177 25.6296 10.2233 25.6296C10.2233 25.6296 10.2233 25.6296 10.2672 25.6296C10.6615 25.542 11.0559 25.4981 11.5379 25.6296ZM12.4582 35.7959C12.502 35.7959 12.5458 35.7959 12.5896 35.7959C12.5458 35.8397 12.502 35.8397 12.4582 35.7959ZM14.7368 40.0465C14.7368 40.0903 14.6492 40.0903 14.5177 40.1341C14.6054 40.0903 14.6492 40.0903 14.7368 40.0465ZM107.198 30.888C107.198 31.1071 107.198 31.2824 107.198 31.5015C107.154 31.4139 107.154 31.2386 107.198 30.888ZM37.3043 98.6343C37.3043 98.6781 37.3043 98.6781 37.2605 98.7219C37.3043 98.6343 37.3043 98.6343 37.3043 98.6343ZM89.319 84.3927C89.3628 84.5679 89.3628 84.8309 89.2752 85.05C89.319 84.8747 89.319 84.6556 89.319 84.3927ZM104.788 13.579C104.963 13.579 105.051 13.7105 105.094 13.9296C105.007 13.8419 104.875 13.7543 104.788 13.579ZM47.383 10.5116C47.3391 10.5992 47.2953 10.6431 47.2515 10.7307C47.12 10.7307 47.0324 10.6869 46.8571 10.6869C47.0324 10.5992 47.2077 10.5554 47.383 10.5116ZM25.1661 10.2925C25.1661 10.2487 25.1661 10.2487 25.1222 10.2049C25.2099 10.2049 25.2975 10.2049 25.3413 10.2487C25.2975 10.2487 25.2099 10.2925 25.1661 10.2925ZM10.7492 12.1329C10.7054 12.1768 10.7054 12.1768 10.6615 12.1768C10.6615 12.1329 10.6615 12.1329 10.6177 12.0891C10.6615 12.1329 10.7054 12.1329 10.7492 12.1329ZM9.60985 96.4432C9.60985 96.4871 9.60985 96.5309 9.60985 96.5309C9.60985 96.4871 9.60985 96.4432 9.60985 96.4432ZM49.7931 9.59137C49.7054 9.59137 49.6616 9.59137 49.574 9.59137C49.6616 9.54755 49.7054 9.54755 49.7931 9.59137ZM7.9885 97.7579V97.8017C7.94468 97.8017 7.9885 97.8017 7.9885 97.7579Z" fill="#50D9C0"/>
</g>
<g clip-path="url(#clip0)">
<path d="M73.126 39.9394H71.8547C67.414 39.9307 63.0262 38.4612 59.5037 35.8003L56.0341 33.1829C55.7163 32.9481 55.2749 32.9481 54.9571 33.1829L51.4963 35.809C47.9826 38.4612 43.5948 39.9307 39.1541 39.9394H37.8828C37.3973 39.9394 37 40.3307 37 40.809V52.209C37.0088 60.0438 41.3171 67.296 48.2651 71.1307L55.0718 74.8873C55.2042 74.9568 55.3543 75.0003 55.5044 75.0003C55.6545 75.0003 55.8046 74.9655 55.937 74.8873L62.7437 71.1307C69.6917 67.296 74 60.0438 74.0088 52.2003V40.809C74 40.3307 73.6116 39.9394 73.126 39.9394ZM72.2431 41.6786V52.209C72.2343 59.4177 68.2703 66.096 61.8785 69.6264L55.5044 73.1394L49.1303 69.6177C42.7385 66.0873 38.7657 59.4177 38.7657 52.209V41.6786H39.1541C43.9745 41.6699 48.7507 40.0699 52.5822 37.1742L55.5044 34.9568L58.4266 37.1742C62.2582 40.0699 67.0255 41.6612 71.8547 41.6699H72.2431V41.6786Z" fill="#41C0A5"/>
<path d="M62.02 49.7653V46.3653C62.02 42.8262 59.0978 39.9392 55.4958 39.9392C51.8938 39.9392 48.9715 42.8175 48.9715 46.3653V49.7653C47.3295 50.1653 46.1553 51.6349 46.1553 53.3044V63.0262C46.1553 65.0349 47.815 66.6696 49.8544 66.6696H61.1283C63.1677 66.6696 64.8274 65.0349 64.8274 63.0262V53.3044C64.8363 51.6262 63.6621 50.1653 62.02 49.7653ZM55.5046 42.7218C53.4652 42.7218 51.8055 44.3566 51.8055 46.3653V49.6609H50.7461V46.3653C50.7461 43.7827 52.8825 41.6783 55.5046 41.6783C58.1266 41.6783 60.2631 43.7827 60.2631 46.3653V49.6609H59.2037V46.3653C59.2037 44.3566 57.544 42.7218 55.5046 42.7218ZM53.5623 46.3653C53.5623 45.3131 54.4275 44.4523 55.5046 44.4523C56.5817 44.4523 57.4469 45.3044 57.4469 46.3653V49.6609H53.5712V46.3653H53.5623ZM63.0794 53.3044V63.0262C63.0794 64.0783 62.2142 64.9392 61.1371 64.9392H49.8632C48.795 64.9392 47.921 64.087 47.921 63.0262V53.3044C47.921 52.2523 48.7861 51.3914 49.8632 51.3914H61.1371C62.2054 51.4001 63.0794 52.2523 63.0794 53.3044Z" fill="#41C0A5"/>
<path d="M56.3961 52.548C54.6922 52.1219 52.9088 52.9567 52.1496 54.5132C51.408 56.0523 51.8494 57.8958 53.2002 58.948V61.6349C53.2002 62.8784 54.2243 63.8958 55.4956 63.8958C56.7668 63.8958 57.7909 62.8871 57.7909 61.6349V58.948C58.9386 58.0523 59.4507 56.5828 59.0887 55.1828C58.7621 53.8697 57.7291 52.861 56.3961 52.548ZM56.0253 58.4871V61.6349C56.0253 61.9219 55.7869 62.1567 55.4956 62.1567C55.2042 62.1567 54.9658 61.9219 54.9658 61.6349V58.4871C54.9658 58.1741 54.7981 57.8871 54.5244 57.7306C53.9682 57.4176 53.6063 56.8436 53.5621 56.2176C53.518 55.5828 53.7917 54.9741 54.2949 54.5828C54.6304 54.3219 55.0541 54.1741 55.4867 54.1741H55.4956C55.6633 54.1741 55.8222 54.1915 55.9811 54.235C56.6609 54.4002 57.1994 54.9219 57.3672 55.5915C57.5879 56.4176 57.2171 57.3045 56.4667 57.7306C56.193 57.8871 56.0253 58.1741 56.0253 58.4871Z" fill="#41C0A5"/>
</g>
<defs>
<clipPath id="clip0">
<rect width="37" height="42" fill="white" transform="translate(37 33)"/>
</clipPath>
</defs>
</svg>
