<svg width="117" height="109" viewBox="0 0 117 109" fill="none" xmlns="http://www.w3.org/2000/svg">
<g opacity="0.1">
<path d="M32.4225 95.6902C32.4225 95.7337 32.4225 95.7337 32.4225 95.6902C32.3748 95.7337 32.3748 95.7337 32.4225 95.6902Z" fill="#50D9C0"/>
<path d="M116.431 12.7183C116.431 12.6324 116.385 12.5465 116.385 12.4605C116.156 12.4176 115.881 12.4176 115.652 12.3746C115.469 12.1598 115.332 11.9449 115.148 11.7301C114.828 11.6871 114.507 11.6441 114.186 11.6012C114.003 11.1285 113.728 11.0856 113.499 10.9566C113.087 10.7418 112.675 10.6129 112.4 9.83948C112.171 9.83948 111.988 9.71057 111.896 9.28089C111.53 8.98011 111.117 8.63637 110.705 8.33559C110.705 8.16372 110.705 7.99185 110.705 7.81998C110.476 7.81998 110.293 7.69107 110.201 7.26139C109.972 7.26139 109.789 7.08952 109.697 6.65984C109.468 6.5739 109.239 6.53093 109.01 6.445C109.01 6.27313 109.01 6.05828 109.01 5.88641C108.69 5.84344 108.369 5.80048 108.048 5.75751C108.048 5.58564 108.048 5.41376 108.048 5.24189C107.819 5.28486 107.636 5.19892 107.544 4.72627C107.132 4.68331 106.72 4.68331 106.262 4.64034C106.079 4.4255 105.941 4.21066 105.758 4.03878C104.659 4.03878 103.559 4.03878 102.46 4.03878C101.681 3.39426 100.765 3.52317 99.8946 3.6091C96.3674 3.90988 92.8861 3.17942 89.359 3.3513C89.1299 3.3513 88.9009 3.39426 88.7177 3.30833C87.2518 2.62084 85.7402 2.79271 84.1828 2.87865C80.8388 3.05052 77.4491 3.26536 74.1052 3.43723C73.6471 3.43723 73.2349 3.43723 72.7768 3.43723C72.5936 3.26536 72.4103 3.00755 72.1813 3.00755C70.6239 2.83568 69.0664 2.74974 67.509 2.62084C67.3716 2.62084 67.2341 2.79271 67.0967 2.92161C66.3638 2.27709 65.5393 2.5349 64.7606 2.36303C64.4857 2.32006 64.1651 2.44897 63.936 1.89038C63.2489 1.84741 62.6076 1.80444 61.9205 1.76148C61.9663 1.28883 61.8747 0.988051 61.6457 0.859147C58.8514 0.816179 55.9656 1.50367 53.1714 0.988051C53.034 0.988051 52.8965 0.988051 52.7133 0.988051C52.1636 0.214626 51.4765 0.859147 50.8352 0.687275C50.7436 0.687275 50.652 0.816179 50.5604 0.988051C50.2855 0.34353 49.8275 1.07399 49.5526 0.472434C49.0029 -0.129119 48.3616 -0.0861509 47.7203 0.55837C47.6287 0.687275 47.5371 0.687275 47.4913 0.55837C44.7429 -0.215055 41.857 0.601339 39.017 0.601339C38.1467 0.601339 37.3221 0.171658 36.406 1.07399C36.3602 1.28883 36.1769 1.41773 35.9937 1.5896C34.8485 1.28883 33.7034 1.20289 32.5124 1.89038C32.4208 2.01929 32.375 2.01929 32.3292 1.93335C30.7717 2.87865 29.3059 1.76148 27.7484 2.74974C27.4736 2.96458 27.2446 3.00755 27.0155 2.83568C25.8246 3.73801 24.6794 2.62084 23.4884 3.65207C23.351 3.65207 23.1677 3.69504 23.0303 3.69504C21.931 4.59737 20.8774 3.4802 19.7322 4.5544C19.6406 4.68331 19.5948 4.68331 19.549 4.5544C17.9915 5.07002 16.4799 5.24189 15.0141 4.72627C14.9225 4.51143 14.8767 4.51143 14.785 4.76924V4.72627C14.5102 5.32783 14.1896 4.72627 13.9147 5.54267L13.9605 5.4997C13.8689 5.6286 13.7773 5.88641 13.7315 6.14422C13.6857 6.14422 13.6399 6.14422 13.6399 6.18719C13.5483 6.53093 13.4566 6.78874 13.3192 6.87468C13.0902 7.6481 12.8153 8.12075 12.4947 8.42153C12.3573 9.10902 12.3115 9.88244 12.0824 10.3981C12.0366 10.7848 12.0366 11.1715 11.9908 11.5582C11.9908 11.6012 11.945 11.6871 11.945 11.7301C11.8992 11.9879 11.8076 12.2457 11.7618 12.5035C11.716 12.5035 11.716 12.5465 11.6702 12.5465C11.6244 12.9332 11.5786 13.3199 11.5327 13.7496C11.5327 13.8355 11.4869 13.9214 11.4869 13.9644C11.4411 14.1363 11.3953 14.3511 11.3037 14.566C11.2579 14.566 11.2579 14.6089 11.2121 14.6089C11.2121 14.7808 11.1663 14.9097 11.1663 15.0816C11.1205 15.2535 11.0747 15.4253 11.0289 15.5972C11.0289 15.6831 10.9831 15.7691 10.9373 15.812C10.8914 15.812 10.8456 15.855 10.7998 15.855C10.754 16.2417 10.6166 16.4566 10.4792 16.5425C10.4792 16.7144 10.4334 16.8433 10.4334 17.0151C10.4334 17.0581 10.4334 17.1011 10.3876 17.1441C10.2501 17.23 10.1127 17.3159 9.9295 17.3589C9.70046 18.4761 9.88369 19.7651 9.42562 20.7534C9.42562 20.8823 9.37981 21.0541 9.37981 21.1831C9.334 21.226 9.24239 21.226 9.15078 21.226C9.15078 21.3979 9.2882 21.6127 8.60109 21.7846C8.55529 21.8705 8.32625 21.9565 8.0056 21.9994C7.77656 22.0854 7.59334 22.1283 7.3643 22.2143C7.31849 22.3002 7.13527 22.3862 6.81462 22.4291C6.76881 22.558 6.58558 22.6869 6.17332 22.7729C6.17332 22.9018 6.0817 23.0307 5.57783 23.1596C5.62363 23.3315 5.71525 23.5463 5.07395 23.7182C5.16556 23.89 5.11975 24.0619 5.02814 24.2338C5.02814 24.2338 5.02814 24.2338 4.98233 24.2338C4.52426 24.3627 4.15781 24.4916 3.92877 24.6635C3.51651 24.7924 3.56231 24.9213 3.92877 25.0072C4.15781 25.0502 4.15781 25.0931 3.92877 25.1361L3.88296 25.1791C3.74554 25.265 3.56231 25.308 3.33328 25.3939C2.96682 25.5228 3.10424 25.6517 2.78359 25.7806C2.1881 25.9525 2.69198 26.1673 2.27972 26.3392C1.40938 26.64 2.41714 26.8978 1.77584 27.1986C1.31777 27.2845 1.40938 27.4564 1.22615 27.5423C0.310012 27.8431 1.36357 28.1439 0.676468 28.4447H0.722275C0.126783 28.7025 0.264204 28.9173 0.768082 29.0892C0.997118 29.4329 2.1881 29.6907 1.68422 30.1204L1.63842 30.0774C2.14229 30.2063 1.73003 30.4642 2.41714 30.5501C2.60036 30.5931 2.73779 30.679 2.87521 30.722L4.112 36.007C3.88296 36.093 3.65393 36.1359 3.56231 36.2219C2.69198 36.5227 3.74554 36.7805 3.05844 37.0812H3.10424C2.8294 37.1672 2.8294 37.2101 3.10424 37.2531L3.19586 37.2961L3.05844 37.382C3.51651 37.6398 3.65393 37.9406 3.24166 38.2843H3.28747C2.78359 38.4133 2.8294 38.5422 3.33328 38.5851H3.28747C3.37909 38.6281 3.51651 38.6281 3.65393 38.6281C3.65393 38.8 3.65393 38.9718 3.65393 39.1437C3.60812 39.1867 3.51651 39.2296 3.42489 39.2726C3.4707 39.5304 3.56231 39.8312 3.60812 40.089C3.65393 40.089 3.69973 40.132 3.74554 40.132C3.74554 40.2179 3.74554 40.3038 3.69973 40.4328C3.83716 41.2062 3.56231 42.2804 3.69973 43.0968C3.65393 43.1397 3.60812 43.1827 3.56231 43.1827C3.60812 43.3975 3.65393 43.6124 3.69973 43.8272C3.74554 43.8272 3.79135 43.8272 3.79135 43.8272C3.83716 44.9444 3.60812 46.1475 3.56231 47.3076C3.42489 50.2724 2.96682 53.3232 3.05844 56.245C3.10424 56.5028 3.15005 56.7606 3.19586 56.9755C3.15005 57.62 3.10424 58.3075 3.10424 58.952C3.33328 59.7254 3.19586 60.7137 3.15005 61.659C3.19586 62.0457 3.24166 62.4324 3.28747 62.8191C3.28747 62.8191 3.28747 62.8621 3.24166 62.8621C3.24166 62.8621 3.19586 62.948 3.15005 63.1629C3.10424 63.3347 3.15005 63.5496 3.19586 63.7215C3.24166 63.8933 3.24166 64.0652 3.19586 64.2371C3.37909 65.5691 2.87521 67.1589 3.15005 68.4479C3.24166 68.8347 3.19586 69.4362 3.28747 69.8229C3.4707 71.069 3.10424 72.8307 3.51651 73.8619V73.819C3.65393 74.2057 3.51651 74.8502 3.69973 75.1939C3.79135 75.6236 3.69973 76.2252 3.83716 76.5689V76.5259C3.83716 76.7838 3.88296 76.8697 3.97458 76.7838C3.92877 77.2134 3.88296 77.6001 4.02038 77.9439C4.20361 78.4595 3.92877 79.4907 4.15781 79.9634V79.9204C4.24942 80.3071 4.15781 80.9517 4.29523 81.3384V81.2954C4.43265 81.6821 4.34103 82.3266 4.47846 82.6704V82.6274C4.57007 83.0141 4.47846 83.6586 4.66168 84.0024V83.9594C4.70749 84.1313 4.7533 84.3032 4.7991 84.475C4.61588 85.936 4.70749 87.1391 5.11975 88.0414C5.16556 88.3422 5.25718 88.557 5.34879 88.7289V88.6859C5.66944 89.0726 5.57782 90.1039 5.71525 90.7484V90.7054C5.80686 91.0921 5.71525 91.6937 5.85267 92.0374C5.89847 92.3382 5.99009 92.553 6.0817 92.7679C6.26493 93.7132 6.49397 94.5725 6.67719 95.4319C6.86042 96.4631 6.99784 97.6662 7.45591 98.0959C7.50172 98.4397 7.59334 98.6115 7.68495 98.8264C7.82237 99.1701 7.73076 99.8576 7.86818 100.158V100.115C7.91399 100.416 8.0056 100.631 8.09721 100.803C8.14302 101.061 8.23464 101.319 8.28044 101.49C8.32625 101.705 8.41786 101.963 8.50948 102.135C8.55528 102.393 8.6469 102.608 8.73851 102.779C8.87593 103.424 9.2882 102.822 9.47143 103.467C9.60885 103.854 9.83788 103.768 9.9753 104.068L10.0669 104.026L10.1585 104.068C10.296 103.854 10.3876 103.897 10.4792 104.068C10.9831 104.928 11.7618 103.811 12.3115 104.67L12.4489 104.627L12.5863 104.67C12.907 105.143 13.2276 105.1 13.6399 104.627L13.7315 104.541H13.8231C14.0063 104.197 14.2354 104.283 14.4644 103.897C14.556 103.639 14.6476 103.424 14.785 103.209C14.8767 102.951 14.9683 102.736 15.1057 102.565C15.2431 102.092 15.518 102.264 15.6554 101.791C15.9302 101.19 16.2509 101.748 16.5257 101.018C16.7089 100.674 16.938 100.76 17.1212 100.373C17.7625 99.4279 18.358 100.502 18.9993 99.5998C19.1367 99.5568 19.3199 99.5568 19.4574 99.5139C19.5032 99.5139 19.549 99.4709 19.5948 99.385C19.5948 99.342 19.6406 99.299 19.6406 99.2131C19.8238 99.2131 19.9612 99.1701 20.0987 98.8264C20.4651 98.1389 20.8316 98.9123 21.198 98.0959V98.1389C21.3813 97.7951 21.6103 97.8811 21.7935 97.4514L21.8851 97.3655H21.9768C22.0226 97.3655 22.0684 97.3225 22.1142 97.2366C22.1142 97.1936 22.16 97.1506 22.16 97.0647C22.2974 97.0647 22.4806 97.0217 22.6181 96.678C23.5342 96.1194 24.4503 96.0764 25.2749 96.592C25.8246 97.1506 26.4658 97.1506 27.1071 96.4631V96.5061C27.5194 96.0335 27.8859 95.9905 28.2065 96.4631C28.7562 97.0647 29.3975 96.9358 30.0388 96.4202C30.1762 96.3772 30.3136 96.3772 30.4969 96.3342C30.5885 96.2053 30.6801 95.9905 30.7717 95.7327C30.7717 95.6897 30.8175 95.6467 30.8175 95.6467H30.8633C30.8633 95.5608 30.8633 95.5178 30.9091 95.4319C30.9549 95.346 31.0007 95.2171 31.0466 95.1311L31.0924 95.0882C31.0924 95.0882 31.0924 95.1311 31.0466 95.1741C31.0466 95.303 31.0466 95.3889 31.0007 95.5178C31.0466 95.5608 31.0924 95.6038 31.0924 95.6467C31.5046 96.1624 31.9169 96.2053 32.375 95.6038C32.4666 95.3889 32.5582 95.346 32.6498 95.4319C32.6956 95.5608 32.604 95.7327 33.0163 95.8186C33.4285 95.8616 33.3369 96.0335 33.795 96.0764H33.7492C33.9782 96.1194 34.2072 96.1624 34.4821 96.2053C34.4821 96.2053 34.5737 96.2053 34.6653 96.2053C34.8027 96.2053 34.9402 96.2053 35.0776 96.1624C35.3524 96.0764 35.6731 96.0335 35.8563 95.9475C36.4518 95.9045 37.0473 95.8616 37.6428 95.8186C38.1925 95.9045 37.7344 96.0764 37.7802 96.2053C37.826 96.2913 37.9634 96.3772 38.2841 96.3342C40.208 96.1194 40.2996 96.4631 40.6202 96.7639C41.0783 96.8928 41.4448 97.0647 41.9944 97.1077C42.819 97.1936 43.277 97.2795 43.1396 97.5373C42.9564 97.924 43.5519 98.1389 45.1093 98.0959C45.6132 98.0959 46.1171 98.0959 46.621 98.0959C46.7126 98.3108 46.8042 98.4826 46.9416 98.6975C47.7661 98.8693 47.4913 99.2131 47.7661 99.4709C48.3616 99.6857 49.6442 99.5139 50.3313 99.6428C50.6062 99.6428 50.881 99.6857 51.1559 99.6857C51.1559 99.7287 51.2017 99.7287 51.2017 99.7717C51.2475 99.9006 51.3849 100.029 51.4307 100.158C51.5223 100.545 51.0642 101.104 53.9501 100.717C54.0875 100.674 54.4082 100.803 54.6372 100.846H54.5914C54.7746 100.932 55.0037 100.975 55.3701 100.975H55.2785C57.4772 100.76 58.4392 101.233 59.9966 101.361C61.5541 101.576 60.9128 102.049 61.1418 102.436C61.325 102.779 61.2792 103.209 63.5238 102.822C63.7528 102.822 63.936 102.779 64.1651 102.779C64.6231 102.822 65.0812 102.822 65.4477 102.651H65.4019C65.5393 102.608 65.6309 102.565 65.6767 102.522C65.8599 102.522 66.0432 102.565 66.1806 102.565C66.318 102.522 66.4554 102.522 66.6386 102.522C66.8219 102.479 66.9593 102.436 67.1425 102.393C68.2419 102.307 68.9748 102.178 69.0664 101.834C69.1122 101.748 69.158 101.662 69.2955 101.576C69.3871 101.533 69.5703 101.49 69.7535 101.447C69.9368 101.447 70.2574 101.404 70.3032 101.447C70.7613 101.748 71.9981 101.92 71.6774 102.35C71.2652 102.822 71.6774 103.209 72.9142 103.467C72.96 103.467 72.96 103.51 72.96 103.553C73.3265 103.553 73.5555 103.596 73.6471 103.682C74.151 103.682 74.6091 103.682 74.8839 103.811C75.7085 103.811 76.3039 103.811 75.7085 104.111C75.5252 104.197 75.342 104.283 75.2504 104.326C74.9297 104.584 75.7085 104.541 76.2581 104.541C77.2201 104.283 78.0904 104.068 79.1898 104.326C79.6937 104.455 80.2892 104.369 80.7014 104.154C81.1595 103.897 81.5259 103.682 81.9382 103.424C82.1214 103.295 82.4879 103.209 82.946 103.209C83.3124 103.209 83.5415 103.295 83.8163 103.381C83.7705 103.553 83.6789 103.725 83.6331 103.897C83.5873 104.197 83.2666 104.541 83.5873 104.799C83.8621 105.014 84.9157 105.143 85.6028 105.272C85.6944 105.701 85.7402 106.088 84.7783 106.518C84.7783 106.69 84.7324 106.818 84.7324 106.99C85.1447 107.205 85.9692 107.033 86.6105 107.033C87.0686 107.334 86.9312 107.678 86.9312 107.979C87.7099 108.065 87.4809 108.322 87.9389 108.494C88.9009 108.451 89.1757 108.15 90.0461 108.107C90.2293 107.893 89.8628 107.635 90.6874 107.42C90.6874 107.291 90.6874 107.162 91.2829 107.033C91.3287 106.947 91.4661 106.861 91.8325 106.818C91.8325 106.733 91.8325 106.604 91.8783 106.518C92.0158 106.475 92.0616 106.432 91.97 106.432C92.1532 106.389 92.3364 106.346 92.5196 106.346C92.5196 106.26 92.5196 106.131 92.5196 106.045C92.7029 106.045 92.8861 106.002 93.0235 105.959C92.9777 105.916 92.9777 105.873 92.8861 105.83C93.0693 105.787 93.1151 105.744 93.1151 105.658C93.4358 105.615 93.5732 105.529 93.5274 105.443C93.6648 105.4 93.7106 105.358 93.6648 105.315C93.9855 105.229 94.3519 105.1 94.6726 105.014C94.6726 105.014 94.6726 105.014 94.6726 104.971C94.7184 104.971 94.7642 104.971 94.8558 104.928C95.1306 104.885 95.2681 104.842 95.3597 104.756L95.3139 104.799C96.1384 104.369 96.9171 103.94 97.1003 103.51C97.9249 103.295 97.9707 102.994 98.2913 102.736H98.2455C99.6655 102.049 99.7114 101.361 100.261 100.674C100.307 100.631 100.353 100.588 100.398 100.545C100.398 100.545 100.398 100.545 100.398 100.502C100.444 100.373 100.49 100.287 100.536 100.158C100.627 100.115 100.719 100.029 100.948 99.9865C101.131 99.6857 100.582 99.4279 101.544 99.1272C101.498 98.9553 101.36 98.7404 102.002 98.5686C102.002 98.2678 101.864 98.01 102.551 97.7092C102.597 97.4084 102.506 97.1506 103.055 96.8498C103.009 96.592 103.009 96.3342 102.964 96.0335C103.009 95.9905 103.055 95.9905 103.055 95.9475C103.147 95.8616 103.147 95.8186 103.055 95.7327C103.101 95.7327 103.101 95.7327 103.147 95.7327C103.468 95.6897 103.742 95.6467 103.926 95.5608C104.109 95.4749 104.2 95.3889 104.246 95.303C104.063 94.014 104.888 92.639 104.292 91.3929C104.292 91.307 104.246 91.221 104.2 91.1351C104.155 91.0062 104.155 90.8773 104.063 90.7484C104.017 90.6624 104.017 90.5765 103.971 90.4906C103.88 90.3617 103.834 90.1898 103.605 90.0609C103.513 89.889 103.376 89.7171 103.147 89.5882C103.33 88.9007 103.193 88.1703 103.009 87.4828C103.009 87.3969 102.78 87.3539 102.689 87.268C102.689 87.268 102.689 87.268 102.643 87.268C103.193 86.9242 103.055 86.6664 102.506 86.4086H102.551C103.101 86.0649 102.78 85.807 102.643 85.5063C102.185 84.6469 101.773 83.7875 101.269 82.9282C100.49 81.5102 100.124 80.0493 99.4823 78.5884C99.2533 78.0298 98.9326 77.4712 98.612 76.9127H98.6578C98.6578 76.6548 98.7036 76.44 98.7036 76.1822C98.7494 76.0963 98.7494 75.9674 98.7952 75.8814L98.8868 75.6236C98.8868 75.5806 98.9326 75.5806 98.9326 75.5377C98.9784 75.5377 98.9784 75.5377 99.0243 75.4947C99.0243 75.4517 99.0243 75.3658 99.0243 75.3228C99.0701 75.2799 99.0701 75.2369 99.1159 75.1939C99.2075 75.108 99.2991 74.9791 99.3449 74.8072C99.4365 74.6353 99.4823 74.4205 99.4823 74.2057C99.7114 74.1627 99.9404 74.0768 100.215 74.0338C100.261 73.819 100.261 73.6041 100.261 73.3893L100.307 73.4752H100.444L100.582 73.4322C100.673 72.4869 100.582 71.4127 101.04 70.6823C101.04 70.4245 101.04 70.1667 101.086 69.9089C101.177 68.9636 101.406 68.1042 101.589 67.2448C101.635 67.073 101.681 66.9011 101.727 66.7292C101.956 66.9441 102.093 67.1159 102.139 67.3308C102.46 67.3308 102.826 67.2878 103.147 67.2878C103.559 66.9441 103.376 66.6433 103.193 66.2995C103.376 66.2995 103.559 66.2566 103.742 66.2136C103.697 65.8699 103.605 65.5691 103.559 65.2253C103.605 65.0964 103.605 65.0105 103.651 64.8816C103.834 64.8386 103.971 64.8386 104.155 64.8386C104.109 64.7957 104.109 64.7527 104.2 64.6667C104.567 64.6238 104.842 64.5808 104.979 64.4519C105.117 64.4519 105.3 64.4519 105.437 64.4089C105.804 64.5378 106.033 64.4519 106.262 64.323C106.399 64.2371 106.537 64.1941 106.674 64.1082C106.582 63.8074 106.124 63.5496 107.178 63.2488C106.995 63.1629 106.766 63.034 106.582 62.948C106.72 62.8191 106.766 62.7332 107.086 62.6043C106.995 62.5613 106.949 62.4754 106.857 62.4324H106.903C107.224 62.3894 107.453 62.3035 107.59 62.2176C109.697 61.9168 108.919 61.4441 109.331 61.0574L109.285 60.9715C108.69 60.7567 110.201 60.4559 109.193 60.284C108.735 60.0262 108.506 59.7684 109.102 59.4676C109.377 58.952 109.468 58.4364 108.69 57.9637H108.735C108.323 57.7919 108.277 57.62 108.644 57.4481C108.873 57.4051 108.827 57.3622 108.552 57.3192H108.598C108.186 57.1044 108.094 56.8895 108.506 56.6317H108.461C108.69 56.5458 108.69 56.5028 108.461 56.5028C108.094 56.3739 108.186 56.1591 107.361 56.1591C107.315 56.1161 107.27 56.1161 107.132 56.0731C107.27 55.9872 107.453 55.9013 107.59 55.8583C107.59 55.6864 107.544 55.5575 107.544 55.3856C106.857 54.87 106.628 54.3544 106.491 53.7958C105.712 53.6669 105.758 53.4091 105.758 53.1513C105.071 53.0224 105.254 52.7646 105.391 52.5498C105.529 52.2919 105.758 52.0341 105.483 51.8193H105.437C105.575 51.3037 105.712 50.874 105.987 50.6592C106.353 50.4013 106.537 49.7139 106.628 48.8545C106.72 48.167 106.811 47.5225 106.903 46.835C107.04 46.0616 107.315 45.8038 107.59 45.6749C107.636 45.2881 107.636 44.9444 107.682 44.5577C107.636 44.2999 107.544 43.9991 107.544 43.7413C107.728 42.1085 107.911 40.4757 108.14 38.8429C108.231 38.1554 108.506 37.7687 108.781 37.5109C109.102 36.3078 109.377 34.9758 109.789 33.9446C110.11 33.1711 110.201 32.3548 110.339 31.4954C110.613 30.0345 110.384 28.5306 110.705 27.1126C111.026 25.7806 111.438 24.5346 111.713 23.1166C111.759 22.9018 111.759 22.6869 111.804 22.4291C112.033 21.0541 112.446 20.3237 112.995 20.1948C113.224 20.1518 113.453 20.1088 113.637 20.1088C114.003 17.8745 114.782 16.5855 115.423 14.9956C115.652 14.8238 115.835 14.6519 115.973 14.0933C116.66 13.9644 116.66 13.8785 116.431 12.7183ZM9.37981 91.6077C9.47143 91.6937 9.60885 91.7796 9.70046 91.9515C9.51723 91.9515 9.42562 91.8226 9.37981 91.6077ZM100.673 7.69107C100.673 7.77701 100.673 7.90591 100.628 7.99185C100.628 7.90591 100.627 7.81998 100.673 7.69107ZM71.311 99.0412C71.311 99.0412 71.311 98.9982 71.311 99.0412C71.311 98.9982 71.311 98.9982 71.311 99.0412C71.3568 99.0412 71.311 99.0412 71.311 99.0412ZM69.3413 95.6467C69.3413 95.6038 69.3413 95.6038 69.3413 95.6467V95.6467ZM72.4562 95.0882C72.3645 95.0882 72.2729 95.0882 72.1813 95.0882C72.2271 95.0452 72.3187 95.0452 72.3645 95.0022C72.4561 95.0022 72.4562 95.0452 72.4562 95.0882C72.502 95.0452 72.502 95.0452 72.4562 95.0882ZM89.6338 91.3499C89.6338 91.3499 89.6338 91.307 89.6338 91.3499C89.6796 91.3499 89.7254 91.3499 89.7712 91.3499C89.7254 91.3499 89.6796 91.3499 89.6338 91.3499ZM10.8456 69.6511C10.7998 69.9089 10.6624 70.0807 10.525 70.1667C10.3876 70.2096 10.2501 70.2096 10.1127 70.0807C10.296 70.1237 10.525 69.9518 10.8456 69.6511ZM67.6464 90.3617H67.6922C67.6922 90.3617 67.6922 90.3617 67.6464 90.3617ZM6.58558 74.4635C6.6772 74.5494 6.67719 74.7213 6.63139 75.065C6.58558 74.8932 6.58558 74.6783 6.58558 74.4635ZM67.1883 94.7874C67.3716 94.7874 67.5548 94.8303 67.738 94.8303C67.5548 94.8733 67.3716 94.8733 67.2341 94.9163C67.1883 94.8733 67.1883 94.8303 67.1883 94.7874ZM95.4513 87.5687C95.4971 87.5687 95.4971 87.5687 95.4513 87.5687C95.4971 87.5687 95.4971 87.5687 95.4513 87.5687ZM104.109 60.6707L104.155 60.6278C104.2 60.6278 104.292 60.6278 104.338 60.6278C104.292 60.6707 104.2 60.6707 104.109 60.6707ZM77.5407 6.5739C77.5407 6.5739 77.5407 6.61687 77.4949 6.61687C77.5407 6.61687 77.5407 6.61687 77.5407 6.5739ZM81.8924 98.7834C81.8466 98.7834 81.8466 98.7834 81.8924 98.7834C81.8466 98.7834 81.8466 98.7834 81.8924 98.7834C81.8466 98.7834 81.8466 98.7834 81.8924 98.7834C81.8466 98.7834 81.8466 98.7834 81.8924 98.7834ZM67.5548 6.53093L67.509 6.48797C67.5548 6.445 67.5548 6.40203 67.6006 6.35906C67.5548 6.40203 67.5548 6.48797 67.5548 6.53093ZM90.1835 104.24C90.2293 104.24 90.2293 104.24 90.2751 104.24C90.2293 104.24 90.1835 104.283 90.1377 104.283C90.1377 104.283 90.1377 104.283 90.0919 104.283C90.1377 104.283 90.1377 104.24 90.1835 104.24ZM106.537 7.94888C106.537 7.90591 106.537 7.86294 106.537 7.86294C106.537 7.90591 106.537 7.90591 106.537 7.94888ZM104.75 63.6785L104.613 63.7215H104.567C104.613 63.6785 104.659 63.6785 104.75 63.6785ZM108.231 6.5739V6.53093V6.5739Z" fill="#50D9C0"/>
</g>
<path d="M65.8375 46.6001C66.3053 46.6001 66.688 46.2174 66.688 45.7496V39.3704C66.688 38.1541 65.7014 37.1675 64.4851 37.1675H36.7654C35.5491 37.1675 34.5625 38.1541 34.5625 39.3704V55.9988C34.5625 57.2151 35.5491 58.2017 36.7654 58.2017H38.6877V64.5129C38.6877 64.8616 38.8918 65.1678 39.215 65.3039C39.3171 65.3464 39.4277 65.3719 39.5383 65.3719C39.7679 65.3719 39.9805 65.2869 40.1421 65.1253L47.0572 58.2102H48.4861C48.9539 58.2102 49.3367 57.8275 49.3367 57.3597C49.3367 56.8919 48.9539 56.5091 48.4861 56.5091C47.9928 56.5091 46.6914 56.5091 46.6404 56.5091C46.4363 56.5261 46.2406 56.6112 46.096 56.7558L40.3803 62.4715V62.1738C40.3803 60.5238 40.3803 57.4022 40.3718 57.2831C40.3293 56.8408 39.9635 56.5091 39.5212 56.5091H36.7654C36.4933 56.5091 36.2636 56.288 36.2636 56.0073V39.3704C36.2636 39.0982 36.4848 38.8686 36.7654 38.8686H64.4851C64.7572 38.8686 64.9869 39.0897 64.9869 39.3704V45.7496C64.9869 46.2259 65.3696 46.6001 65.8375 46.6001Z" fill="#41C0A5"/>
<path d="M73.4417 49.0923H54.032C52.8157 49.0923 51.8291 50.0789 51.8291 51.2952V62.6416C51.8291 63.8579 52.8157 64.8446 54.032 64.8446H66.229L71.1878 69.8033C71.3494 69.9649 71.562 70.05 71.7917 70.05C71.9022 70.05 72.0128 70.0245 72.1149 69.9819C72.4381 69.8459 72.6422 69.5397 72.6422 69.1909V64.8361H73.4332C74.6495 64.8361 75.6362 63.8494 75.6362 62.6331V51.2952C75.6362 50.7083 75.4065 50.1555 74.9897 49.7387C74.5815 49.3219 74.0286 49.0923 73.4417 49.0923ZM73.9436 62.6416C73.9436 62.9138 73.7224 63.1435 73.4417 63.1435H71.8002C71.3579 63.1435 70.9836 63.4922 70.9496 63.926C70.9496 63.9855 70.9496 65.8653 70.9496 66.8434V67.1411L67.1901 63.3816C67.1816 63.3731 67.1646 63.3646 67.1561 63.3561C67.003 63.22 66.7989 63.1435 66.5948 63.1435H54.032C53.7599 63.1435 53.5302 62.9223 53.5302 62.6416V51.2952C53.5302 51.023 53.7514 50.7934 54.032 50.7934H73.4417C73.7139 50.7934 73.9436 51.0145 73.9436 51.2952V62.6416Z" fill="#41C0A5"/>
<path d="M63.7363 56.1179C63.2685 56.1179 62.8857 56.5007 62.8857 56.9685C62.8857 57.4363 63.2685 57.819 63.7363 57.819C64.2041 57.819 64.5869 57.4363 64.5869 56.9685C64.5869 56.5007 64.2041 56.1179 63.7363 56.1179Z" fill="#41C0A5"/>
<path d="M59.5004 43.6147H41.7578C41.29 43.6147 40.9072 43.9975 40.9072 44.4653C40.9072 44.9331 41.29 45.3159 41.7578 45.3159H59.5004C59.9682 45.3159 60.3509 44.9331 60.3509 44.4653C60.3509 43.9975 59.9682 43.6147 59.5004 43.6147Z" fill="#41C0A5"/>
<path d="M48.4857 50.062H41.7578C41.29 50.062 40.9072 50.4448 40.9072 50.9126C40.9072 51.3804 41.29 51.7631 41.7578 51.7631H48.4942C48.962 51.7631 49.3447 51.3804 49.3447 50.9126C49.3447 50.4448 48.962 50.062 48.4857 50.062Z" fill="#41C0A5"/>
<path d="M59.2031 56.1179C58.7353 56.1179 58.3525 56.5007 58.3525 56.9685C58.3525 57.4363 58.7353 57.819 59.2031 57.819C59.6709 57.819 60.0537 57.4363 60.0537 56.9685C60.0537 56.5007 59.6794 56.1179 59.2031 56.1179Z" fill="#41C0A5"/>
<path d="M68.2705 56.1179C67.8027 56.1179 67.4199 56.5007 67.4199 56.9685C67.4199 57.4363 67.8027 57.819 68.2705 57.819C68.7383 57.819 69.121 57.4363 69.121 56.9685C69.121 56.5007 68.7383 56.1179 68.2705 56.1179Z" fill="#41C0A5"/>
</svg>
