<svg width="32" height="32" viewBox="0 0 32 32" fill="none" xmlns="http://www.w3.org/2000/svg">
<rect width="32" height="32" rx="6" fill="white"/>
<path d="M4 0C1.79086 0 0 1.79086 0 4V28C0 30.2091 1.79086 32 4 32H17.042V19.6391H12.876V14.593H17.042V10.3552C17.042 7.27315 19.5404 4.77469 22.6224 4.77469H26.9777V9.31225H23.8613C22.882 9.31225 22.088 10.1062 22.088 11.0855V14.5931H26.8994L26.2344 19.6391H22.088V32H28C30.2091 32 32 30.2091 32 28V4C32 1.79086 30.2091 0 28 0H4Z" fill="#3A559F"/>
</svg>
