<svg width="32" height="32" fill="none" xmlns="http://www.w3.org/2000/svg"><rect width="32" height="32" rx="6" fill="#fff"/><path d="M16 12.818A3.186 3.186 0 0012.817 16 3.187 3.187 0 0016 19.183 3.186 3.186 0 0019.182 16 3.186 3.186 0 0016 12.818zm0 0A3.186 3.186 0 0012.817 16 3.187 3.187 0 0016 19.183 3.186 3.186 0 0019.182 16 3.186 3.186 0 0016 12.818zm5.3-5.188H10.699a3.073 3.073 0 00-3.07 3.069v10.602a3.073 3.073 0 003.07 3.07h10.602a3.073 3.073 0 003.07-3.07V10.699a3.073 3.073 0 00-3.07-3.07zM16 21.51A5.517 5.517 0 0110.489 16a5.517 5.517 0 015.51-5.511 5.517 5.517 0 015.512 5.51A5.518 5.518 0 0116 21.512zm5.688-9.882a1.305 1.305 0 01-1.304-1.304 1.305 1.305 0 012.608 0c0 .719-.585 1.304-1.304 1.304zM16 12.819a3.186 3.186 0 00-3.183 3.18A3.187 3.187 0 0016 19.184 3.186 3.186 0 0019.182 16 3.186 3.186 0 0016 12.818zm5.301-5.19H10.699a3.073 3.073 0 00-3.07 3.07v10.602a3.073 3.073 0 003.07 3.07h10.602a3.073 3.073 0 003.07-3.07V10.699a3.073 3.073 0 00-3.07-3.07zM16 21.512A5.517 5.517 0 0110.489 16a5.517 5.517 0 015.51-5.511 5.517 5.517 0 015.512 5.51A5.518 5.518 0 0116 21.512zm5.688-9.882a1.305 1.305 0 01-1.304-1.304 1.305 1.305 0 012.608 0c0 .719-.585 1.304-1.304 1.304zM16 12.819a3.186 3.186 0 00-3.183 3.18A3.187 3.187 0 0016 19.184 3.186 3.186 0 0019.182 16 3.186 3.186 0 0016 12.818zM4 0a4 4 0 00-4 4v24a4 4 0 004 4h24a4 4 0 004-4V4a4 4 0 00-4-4H4zm22.699 21.301a5.403 5.403 0 01-5.398 5.398H10.699A5.403 5.403 0 015.301 21.3V10.699A5.403 5.403 0 0110.7 5.301h10.602a5.403 5.403 0 015.398 5.398v10.602zM21.3 7.63H10.699a3.073 3.073 0 00-3.07 3.069v10.602a3.073 3.073 0 003.07 3.07h10.602a3.073 3.073 0 003.07-3.07V10.699a3.073 3.073 0 00-3.07-3.07zM16 21.51A5.517 5.517 0 0110.489 16a5.517 5.517 0 015.51-5.511 5.517 5.517 0 015.512 5.51A5.518 5.518 0 0116 21.512zm5.688-9.882a1.305 1.305 0 01-1.304-1.304 1.305 1.305 0 012.608 0c0 .719-.585 1.304-1.304 1.304zM16 12.819a3.186 3.186 0 00-3.183 3.18A3.187 3.187 0 0016 19.184 3.186 3.186 0 0019.182 16 3.186 3.186 0 0016 12.818zm0 0a3.186 3.186 0 00-3.183 3.18A3.187 3.187 0 0016 19.184 3.186 3.186 0 0019.182 16 3.186 3.186 0 0016 12.818zm0 0a3.186 3.186 0 00-3.183 3.18A3.187 3.187 0 0016 19.184 3.186 3.186 0 0019.182 16 3.186 3.186 0 0016 12.818zm5.301-5.19H10.699a3.073 3.073 0 00-3.07 3.07v10.602a3.073 3.073 0 003.07 3.07h10.602a3.073 3.073 0 003.07-3.07V10.699a3.073 3.073 0 00-3.07-3.07zM16 21.512A5.517 5.517 0 0110.489 16a5.517 5.517 0 015.51-5.511 5.517 5.517 0 015.512 5.51A5.518 5.518 0 0116 21.512zm5.688-9.882a1.305 1.305 0 01-1.304-1.304 1.305 1.305 0 012.608 0c0 .719-.585 1.304-1.304 1.304zM16 12.819a3.186 3.186 0 00-3.183 3.18A3.187 3.187 0 0016 19.184 3.186 3.186 0 0019.182 16 3.186 3.186 0 0016 12.818zm0 0a3.186 3.186 0 00-3.183 3.18A3.187 3.187 0 0016 19.184 3.186 3.186 0 0019.182 16 3.186 3.186 0 0016 12.818zm0 0a3.186 3.186 0 00-3.183 3.18A3.187 3.187 0 0016 19.184 3.186 3.186 0 0019.182 16 3.186 3.186 0 0016 12.818zm5.301-5.19H10.699a3.073 3.073 0 00-3.07 3.07v10.602a3.073 3.073 0 003.07 3.07h10.602a3.073 3.073 0 003.07-3.07V10.699a3.073 3.073 0 00-3.07-3.07zM16 21.512A5.517 5.517 0 0110.489 16a5.517 5.517 0 015.51-5.511 5.517 5.517 0 015.512 5.51A5.518 5.518 0 0116 21.512zm5.688-9.882a1.305 1.305 0 01-1.304-1.304 1.305 1.305 0 012.608 0c0 .719-.585 1.304-1.304 1.304zM16 12.819a3.186 3.186 0 00-3.183 3.18A3.187 3.187 0 0016 19.184 3.186 3.186 0 0019.182 16 3.186 3.186 0 0016 12.818z" fill="#E937C0"/></svg>