<svg width="32" height="32" fill="none" xmlns="http://www.w3.org/2000/svg"><rect width="32" height="32" rx="6" fill="#fff"/><path fill-rule="evenodd" clip-rule="evenodd" d="M4 0a4 4 0 00-4 4v24a4 4 0 004 4h24a4 4 0 004-4V4a4 4 0 00-4-4H4zm12.027 2.984c3.642.01 6.567 2.99 6.549 6.673-.02 3.599-2.992 6.515-6.628 6.503-3.6-.012-6.553-2.996-6.532-6.603.021-3.645 2.976-6.583 6.611-6.573zm7.378 15.764c-.805.828-1.775 1.425-2.852 1.844-1.018.393-2.134.593-3.238.725l.097.105c.105.116.17.188.252.27l1.62 1.625a872.29 872.29 0 012.879 2.893c.508.514.616 1.152.335 1.751-.307.655-.993 1.085-1.666 1.04-.426-.03-.758-.243-1.053-.54-.375-.376-.751-.75-1.128-1.125a125.328 125.328 0 01-2.265-2.29c-.322-.337-.477-.274-.762.02a226.35 226.35 0 01-3.458 3.472c-.522.515-1.143.608-1.75.314-.644-.312-1.054-.97-1.022-1.631.022-.447.242-.788.549-1.094a3039.45 3039.45 0 003.588-3.594l.854-.856a6.07 6.07 0 00.192-.204l.14-.152c-2.018-.21-3.838-.707-5.395-1.926l-.118-.091a5.267 5.267 0 01-.452-.376c-.682-.655-.75-1.404-.21-2.178.46-.66 1.236-.838 2.04-.459.157.073.305.166.448.264 2.903 1.995 6.892 2.05 9.806.09.289-.22.597-.402.955-.493.697-.178 1.344.077 1.718.685.428.694.422 1.372-.104 1.911zm-7.388-5.951a3.2 3.2 0 003.203-3.23A3.21 3.21 0 0016 6.349a3.214 3.214 0 00-3.226 3.256 3.208 3.208 0 003.243 3.192z" fill="#FF9A23"/></svg>