<svg width="32" height="32" fill="none" xmlns="http://www.w3.org/2000/svg"><path d="M29 0H3a3 3 0 00-3 3v26a3 3 0 003 3h26a3 3 0 003-3V3a3 3 0 00-3-3z" fill="#61A8DE"/><path d="M25.197 7.064l-21.4 8.339c-.692.27-.65 1.264.063 1.475l5.438 1.606 2.03 6.44a.934.934 0 001.557.372l2.811-2.87 5.517 4.048a1.151 1.151 0 001.807-.692l3.654-17.467a1.1 1.1 0 00-1.477-1.251zm-2.683 3.876l-9.94 8.79a.534.534 0 00-.177.34l-.382 3.402c-.013.111-.168.126-.201.02l-1.575-5.074a.534.534 0 01.229-.612l11.737-7.28c.27-.168.547.204.309.414z" fill="#fff"/></svg>