<svg width="32" height="32" fill="none" xmlns="http://www.w3.org/2000/svg"><path d="M29 0H3a3 3 0 00-3 3v26a3 3 0 003 3h26a3 3 0 003-3V3a3 3 0 00-3-3z" fill="#50ABF1"/><path d="M4.24 23.72a13.704 13.704 0 007.364 2.133c7.608 0 13.775-6.168 13.775-13.775 0-.19-.004-.378-.012-.566.276-.217 1.977-1.581 2.395-2.458 0 0-1.382.574-2.735.71h-.009l.008-.004c.124-.084 1.867-1.27 2.103-2.683 0 0-.978.522-2.347.978-.226.075-.463.15-.708.218a4.832 4.832 0 00-8.237 4.397c-.373-.016-6.055-.334-9.92-5.015 0 0-2.311 3.154 1.376 6.397 0 0-1.12-.045-2.088-.623 0 0-.355 3.821 3.82 4.798 0 0-.821.311-2.132.09 0 0 .733 3.087 4.443 3.375 0 0-2.934 2.65-7.098 2.029h.002z" fill="#fff"/></svg>