<svg width="32" height="32" fill="none" xmlns="http://www.w3.org/2000/svg"><rect width="32" height="32" rx="6" fill="#fff"/><path d="M28 0H4a4 4 0 00-4 4v24a4 4 0 004 4h24a4 4 0 004-4V4a4 4 0 00-4-4z" fill="#44678D"/><path d="M8.29 9.738c.767 1.894 1.739 3.68 3.019 5.283.17.213.383.403.609.557.33.226.64.147.774-.23.142-.395.271-1.196.28-1.611a34.824 34.824 0 00-.062-2.88c-.038-.693-.285-1.303-1.305-1.486-.316-.057-.345-.317-.142-.576.421-.539 1.009-.624 1.645-.658 1.033-.056 2.069-.01 3.102 0 .42.003.844.037 1.259.128.54.118.83.497.92 1.025.046.272.07.552.063.828-.027 1.184-.084 2.367-.098 3.55-.005.465.029.94.128 1.393.139.63.568.789 1.007.333.558-.578 1.049-1.23 1.51-1.89.838-1.203 1.464-2.523 2.003-3.883.279-.703.492-.855 1.247-.857 1.42-.003 2.84-.005 4.26 0 .252.001.515.025.753.1.385.124.538.438.448.837-.21.936-.716 1.73-1.258 2.495-.868 1.226-1.779 2.423-2.668 3.636a4.614 4.614 0 00-.306.486c-.333.6-.31.938.175 1.438.772.796 1.599 1.542 2.346 2.36a13.92 13.92 0 011.477 1.92c.545.86.208 1.67-.809 1.814-.64.09-3.767.001-3.928 0-.84-.004-1.577-.295-2.17-.866-.66-.635-1.26-1.333-1.894-1.996-.19-.2-.395-.391-.614-.558-.519-.396-1.027-.308-1.27.3-.207.524-.385 1.896-.394 2.014-.043.613-.433 1.004-1.12 1.041-1.983.108-3.905-.113-5.695-1.072-1.517-.812-2.728-1.961-3.778-3.3-1.667-2.129-2.984-4.468-4.186-6.875-.061-.123-1.279-2.714-1.312-2.837-.108-.41-.007-.801.34-.936.215-.084 4.23 0 4.296.004.641.034 1.078.304 1.348.97z" fill="#fff"/></svg>