<svg width="32" height="32" fill="none" xmlns="http://www.w3.org/2000/svg"><path d="M28 0H4a4 4 0 00-4 4v24a4 4 0 004 4h24a4 4 0 004-4V4a4 4 0 00-4-4z" fill="#DC472E"/><path d="M18.485 20.484c0-.119-.036-.243-.08-.355-.06-.147-.186-.22-.344-.235-.186-.018-.335.057-.47.176-.054.047-.079.117-.079.117l.003 3.79v.093l.037.05c.11.118.238.212.401.246.27.055.46-.057.513-.307a.923.923 0 00.02-.19c.002-1.13.004-2.257-.001-3.385zm0 0c0-.119-.036-.243-.08-.355-.06-.147-.186-.22-.344-.235-.186-.018-.335.057-.47.176-.054.047-.079.117-.079.117l.003 3.79v.093l.037.05c.11.118.238.212.401.246.27.055.46-.057.513-.307a.923.923 0 00.02-.19c.002-1.13.004-2.257-.001-3.385zm4.243-5.715a313.779 313.779 0 00-13.457 0 2.862 2.862 0 00-2.8 2.862v7.005a2.862 2.862 0 002.8 2.863c4.485.096 8.972.096 13.457 0a2.863 2.863 0 002.801-2.863v-7.005a2.863 2.863 0 00-2.801-2.862zm-12.14 10.506H9.295v-7.312h-1.34V16.74h3.975v1.22h-1.342v7.315zm4.629-3.035v3.035h-1.145v-.694l-.087.093c-.246.278-.526.51-.882.633-.175.06-.354.08-.537.048a.66.66 0 01-.519-.413 1.602 1.602 0 01-.118-.66c-.003-.836-.002-5.258-.002-5.301h1.143c.002.039.006 3.213.007 4.761 0 .085 0 .171.017.253.042.208.202.297.402.224a1.25 1.25 0 00.553-.433c.022-.027.022-.077.022-.116v-4.696l1.146-.003v3.269zm4.357 2.429c-.153.46-.49.695-.975.69a1.294 1.294 0 01-.977-.446l-.11-.118v.479h-1.148v-8.535h1.148v2.81s.064-.13.123-.197a1.33 1.33 0 01.66-.42c.441-.11.949.027 1.19.541.143.304.183.629.183.959.002 1.193.002 2.386 0 3.579 0 .223-.023.444-.094.658zm4.237-.24c-.198.582-.609.905-1.212.993-.373.055-.743.047-1.093-.112-.48-.216-.752-.607-.868-1.105a3.33 3.33 0 01-.084-.712c-.009-.935-.005-1.87-.003-2.805.001-.489.118-.94.453-1.314.381-.427.87-.587 1.428-.55.168.01.34.037.499.09.543.178.833.585.947 1.124.043.208.06.423.063.636a78.65 78.65 0 01-.004 1.598H21.74v1.574a.512.512 0 101.023 0v-.81h1.18s.018.956-.132 1.392zm-1.048-4.018a.512.512 0 10-1.023 0v.884h1.023v-.884zm-4.358-.282c-.06-.147-.186-.22-.344-.235-.186-.018-.335.057-.47.176-.054.047-.079.117-.079.117l.003 3.79v.093l.037.05c.11.118.238.212.401.246.27.056.46-.057.513-.307a.923.923 0 00.02-.19c.002-1.13.004-2.257-.001-3.385 0-.119-.036-.243-.08-.355zM21.337 6.67v6.337h-1.174l.001-.681c-.13.128-.24.247-.362.354-.216.19-.46.332-.747.388-.439.086-.813-.053-.953-.507a1.674 1.674 0 01-.076-.473V6.67h1.166v4.832c0 .064.005.13.016.192.035.199.183.293.374.226.234-.08.412-.242.564-.433.021-.027.017-.078.017-.118v-4.7h1.174zm-9.711 1.101c-.255-1.074-.789-3.342-.789-3.342H9.501l1.486 4.923a.605.605 0 01.024.172v3.481h1.231V9.524c0-.058.007-.117.024-.172l1.486-4.923h-1.337l-.788 3.342h-.001zm3.734-1.259a1.68 1.68 0 00-1.681 1.681v3.29a1.681 1.681 0 003.362 0v-3.29a1.68 1.68 0 00-1.681-1.681zm.485 5.038a.486.486 0 01-.97 0V8.126a.486.486 0 01.97 0v3.424z" fill="#fff"/></svg>