<svg width="61" height="59" viewBox="0 0 61 59" fill="none" xmlns="http://www.w3.org/2000/svg">
<g>
<path opacity="0.12" d="M60.7655 34.7779C60.8143 34.4605 60.7655 34.0942 60.7899 33.7767C60.7655 33.6791 60.7655 33.6058 60.7899 33.5081C60.8387 33.1907 60.7899 32.8488 60.741 32.507C60.7166 32.4825 60.7166 32.4581 60.6922 32.4337C60.6189 30.7244 60.4236 29.0395 60.3015 27.3546C60.2771 27.2569 60.2527 27.1592 60.2527 27.0616C60.2527 27.0371 60.2527 26.9639 60.2771 26.915C60.2527 26.5976 60.2527 26.3534 60.3259 26.1581C60.3015 25.7429 60.2527 25.3522 60.3503 25.0348C60.3503 24.815 60.3503 24.6197 60.3503 24.3999C60.3748 24.3999 60.3992 24.3755 60.4236 24.3511C60.4236 24.1557 60.4236 24.0092 60.4724 23.9359C60.448 23.3011 60.3503 22.7638 60.2282 22.251C60.1061 22.1534 60.0329 21.9336 59.9841 21.5185C59.7887 20.8592 59.5689 20.2487 59.4224 19.3696C59.398 19.3452 59.398 19.3208 59.3736 19.2964C59.3492 19.0522 59.3247 18.808 59.3736 18.5882C59.4468 18.1731 59.4713 17.6847 59.3492 17.1475L59.3736 17.1719C59.2271 16.1708 59.1538 15.1696 59.1538 14.144C59.2026 13.9242 59.1782 13.5824 59.1782 13.2893L59.1538 13.1917V13.094C59.1294 12.337 59.0317 11.5556 59.0806 10.8475C59.1294 10.6765 59.105 10.3591 59.1294 10.1393C59.2026 9.23581 59.0561 8.55209 58.8364 7.89278C58.8119 7.99045 58.8119 8.08813 58.7875 8.1858C58.7875 8.11255 58.7875 8.03929 58.7631 7.96604C58.7387 7.84394 58.7387 7.74627 58.7387 7.62417C58.641 7.37998 58.5922 6.98928 58.5433 6.623C58.4945 6.50091 58.4701 6.40323 58.4212 6.28114C58.2015 6.08579 58.0794 5.57299 58.0305 4.81601C57.9085 4.47414 57.7864 4.1567 57.6643 3.81484C57.591 3.79042 57.5177 3.66832 57.4445 3.42413C57.3957 3.44855 57.3468 3.35088 57.298 3.15553C57.2247 3.15553 57.1515 3.10669 57.0782 2.81366C57.005 2.76483 56.9317 2.64273 56.8584 2.39854C56.8096 2.39854 56.7608 2.44738 56.7119 2.39854C56.3701 2.10552 56.0282 1.98342 55.6863 1.51947C55.3933 1.51947 55.1003 1.51947 54.8073 1.51947C54.6119 1.20202 54.4166 1.32412 54.2456 1.34853C54.1235 1.34853 54.0014 1.44621 53.8793 1.12877C53.8549 1.25086 53.8549 1.34853 53.8305 1.47063C53.5131 1.34853 53.1956 1.39737 52.9026 1.49505C52.8782 1.49505 52.8293 1.49505 52.8049 1.49505C52.4875 1.42179 52.8538 1.20202 52.3654 1.15318C52.0968 1.00667 51.3886 1.07993 50.9491 1.00667C50.827 0.982252 50.7049 0.957833 50.534 0.957833H50.5584C50.1921 0.908996 49.7526 0.860158 49.4595 0.762483C49.2642 0.738064 49.2886 0.640389 49.0444 0.61597H49.0688C48.8491 0.567132 48.5072 0.61597 48.263 0.61597C48.1898 0.640389 48.0921 0.640389 48.0188 0.640389C47.8235 0.61597 47.506 0.664807 47.2863 0.640389C47.1642 0.61597 47.0421 0.591551 46.8711 0.591551H46.8956C46.3339 0.518294 45.7479 0.445038 45.113 0.371781C44.9909 0.347363 44.8688 0.347363 44.7223 0.322944C44.4537 0.249687 44.1118 0.127593 43.7211 0.20085C42.0118 0.542713 41.0595 0.176431 39.6676 0.249687C39.3257 0.249687 39.0327 0.225269 38.7397 0.298525C38.6176 0.176431 38.5199 0.152012 38.4222 0.298525C38.2513 0.274106 38.0804 0.249687 37.9583 0.225269C37.1036 -0.0189197 36.0292 -0.116595 34.4664 0.20085C33.5629 0.371782 32.5617 0.469457 31.585 0.518294C30.9989 0.542713 30.4617 0.591551 29.9245 0.713645C29.314 0.786902 28.6791 0.835739 28.0687 0.908996C27.507 0.957833 26.9454 1.07993 26.4082 1.03109C26.2128 1.05551 25.9931 1.07993 25.7977 1.10435C25.7733 1.15318 25.6756 1.20202 25.5047 1.22644C25.5047 1.25086 25.4803 1.27528 25.4314 1.32412C24.7477 1.42179 24.0884 1.49505 23.3802 1.5683C22.9407 1.59272 22.4767 1.66598 22.0372 1.73924C21.8174 1.86133 21.4756 1.88575 21.1337 1.93459C20.9139 1.959 20.7186 1.98342 20.5721 2.05668C20.3523 2.0811 20.157 2.12994 19.9372 2.15436C19.9372 2.17877 19.9128 2.20319 19.9128 2.25203C19.7174 2.27645 19.5221 2.32529 19.3511 2.34971C19.3267 2.37412 19.3267 2.39854 19.3023 2.42296H19.2779C19.1558 2.42296 19.0581 2.44738 18.936 2.44738C18.936 2.4718 18.936 2.49622 18.9116 2.54506C18.8139 2.56948 18.6918 2.56948 18.5941 2.59389C18.5941 2.61831 18.5941 2.64273 18.5941 2.69157C18.4232 2.71599 18.3011 2.76483 18.2523 2.81366C17.9593 2.83808 17.7151 2.88692 17.5686 2.9846C17.2023 3.03343 16.836 3.08227 16.5918 3.20436C15.8348 3.30204 15.2976 3.52181 14.565 3.6439C13.9546 3.79042 13.6615 4.01019 12.9534 4.13228C12.8069 4.22996 12.5627 4.25437 12.2941 4.30321C12.2453 4.35205 12.1232 4.40089 11.9522 4.42531C11.7569 4.59624 11.0976 4.71833 10.9511 4.91368C10.8534 4.9381 10.7557 4.9381 10.658 4.96252C10.5604 5.13345 10.1208 5.25555 9.68128 5.35322C9.63244 5.40206 9.53477 5.4509 9.36383 5.47532C9.36383 5.49973 9.36383 5.52415 9.36383 5.57299C9.26616 5.59741 9.14406 5.59741 9.04639 5.62183C9.02197 5.67067 8.89988 5.7195 8.72895 5.74392C8.70453 5.79276 8.63127 5.8416 8.46034 5.89044C8.43592 5.91485 8.43592 5.93927 8.38708 5.98811C8.26499 5.98811 8.16731 6.01253 8.06964 6.03695C8.0208 6.08579 7.92312 6.13462 7.72777 6.15904C7.53242 6.28114 7.31265 6.40323 7.1173 6.52533C7.09288 6.64742 6.87311 6.76951 6.50683 6.89161C6.48241 6.96486 6.40916 7.03812 6.16497 7.11138C6.16497 7.1358 6.18939 7.18463 6.18939 7.20905C6.09171 7.23347 6.01846 7.23347 5.92078 7.25789C5.87194 7.33115 5.8231 7.4044 5.50566 7.47766C5.40799 7.55092 5.18822 7.62417 4.91961 7.67301C4.87077 7.74627 4.7731 7.81952 4.55333 7.89278C4.55333 7.99045 4.651 8.11255 4.2603 8.21022C4.23588 8.25906 4.11379 8.3079 3.94286 8.33232C3.84518 8.38116 3.72309 8.42999 3.62541 8.45441C3.60099 8.50325 3.50332 8.55209 3.33239 8.60092C3.30797 8.67418 3.21029 8.74744 2.99052 8.82069C2.99052 8.89395 2.94168 8.96721 2.67308 9.04046C2.6975 9.13814 2.74633 9.23581 2.40447 9.35791C2.45331 9.45558 2.45331 9.55326 2.38005 9.65093C2.38005 9.65093 2.38005 9.65093 2.35563 9.65093C2.11144 9.72419 1.91609 9.82187 1.794 9.89512C1.57423 9.96838 1.59865 10.0416 1.794 10.0905C1.96493 10.0661 1.96493 10.0905 1.84284 10.1393L1.81842 10.1637C1.74516 10.2126 1.64749 10.2614 1.54981 10.2858C1.35446 10.3591 1.42772 10.4323 1.25679 10.5056C0.939341 10.6277 1.20795 10.7254 0.988178 10.823C0.548639 11.0184 1.06143 11.1405 0.74399 11.3358C0.499802 11.4091 0.548639 11.4823 0.450964 11.5556C-0.0374123 11.751 0.548639 11.873 0.182357 12.0684H0.206776C-0.110669 12.2149 -0.0374123 12.337 0.255614 12.4347C0.402127 12.63 1.0126 12.7521 0.768409 12.9963V13.0207C1.03702 13.094 0.817247 13.2405 1.18353 13.2893C1.2812 13.3138 1.35446 13.3382 1.42772 13.387L2.20912 16.3417C2.08703 16.3905 1.96493 16.4394 1.91609 16.4882C1.47655 16.6836 2.01377 16.8056 1.64749 17.001H1.67191C1.52539 17.0498 1.52539 17.0743 1.67191 17.0987H1.72074L1.69632 17.1475C1.94051 17.294 2.01377 17.465 1.794 17.6603H1.81842C1.57423 17.758 1.57423 17.8068 1.84284 17.8312H1.81842C1.89167 17.8557 1.98935 17.8557 2.11144 17.8557C2.13586 17.9778 2.23354 18.0998 1.91609 18.2219C1.96493 18.3685 1.98935 18.515 2.03819 18.6615C2.13586 18.6859 2.30679 18.7103 2.33121 18.7347C2.40447 19.0278 2.47773 19.2964 2.52656 19.5894C2.52656 19.6382 2.38005 19.7115 2.28238 19.7847C2.16028 19.9801 2.42889 20.1754 2.08703 20.3952C2.11144 20.5173 2.13586 20.6394 2.16028 20.7615C2.25796 20.7615 2.33121 20.7615 2.42889 20.7615C2.50215 20.9324 2.5754 21.1278 2.64866 21.2987C2.9661 21.3231 2.94168 21.4208 2.6975 21.5185C2.72191 21.6162 2.72191 21.6894 2.74633 21.7871C2.99052 21.8359 3.01494 21.9092 2.77075 21.9824C2.79517 22.129 2.84401 22.2755 2.86843 22.4464C3.21029 22.5197 3.23471 22.5929 2.91727 22.7394C2.9661 22.8859 2.99052 23.0569 3.3568 23.179C3.43006 23.179 3.50332 23.2034 3.55215 23.2034C3.43006 23.2522 3.30797 23.3011 3.21029 23.3499C3.40564 23.7162 3.16145 24.1557 3.67425 24.4976C4.16263 24.6685 3.64983 24.9615 4.16263 25.1325L4.21146 25.1569L4.18704 25.1813C4.45565 25.2301 4.23588 25.4011 4.57775 25.4499C4.52891 25.572 4.48007 25.7185 4.38239 25.8406C4.2603 25.9871 4.18704 26.1581 4.33356 26.329C4.38239 26.5488 4.33356 26.7441 4.18704 26.9395C4.08937 27.0616 4.13821 27.1836 4.33356 27.3302C4.2603 27.3302 4.18704 27.3302 4.11379 27.3302C3.99169 27.6964 3.84518 28.0627 3.72309 28.429C3.69867 28.4778 3.7475 28.5267 3.77192 28.5755C3.40564 28.6732 3.60099 28.8441 3.52774 28.9906C3.45448 29.1127 3.40564 29.2348 3.33239 29.3813C3.28355 29.4546 3.33239 29.5523 3.0882 29.6255C3.0882 29.9186 3.0882 30.236 2.6975 30.5046C2.5754 30.5779 2.59982 30.6755 2.55098 30.7732C2.50215 30.8709 2.52656 30.9686 2.38005 31.0662C2.20912 31.1639 2.13586 31.286 2.45331 31.4081C2.81959 31.5546 2.72191 31.6767 2.67308 31.7988C2.59982 31.9697 2.40447 32.1407 2.42889 32.336C2.42889 32.507 2.1847 32.6535 2.08703 32.8244C2.06261 32.8732 2.08703 32.9221 2.08703 32.9709C2.30679 33.0197 2.28238 33.0686 2.03819 33.0686C2.01377 33.1418 1.86726 33.1907 2.06261 33.2639C2.45331 33.4349 2.50215 33.5814 2.11144 33.7035C1.94051 33.7523 1.96493 33.8256 2.06261 33.8988C2.16028 33.9721 2.38005 34.0698 2.33121 34.1186C2.1847 34.3384 2.6975 34.607 2.52656 34.8267C2.42889 34.9488 2.47773 35.0709 2.13586 35.1686C1.98935 35.193 2.06261 35.2663 2.08703 35.3395C2.33121 35.3884 2.50215 35.4616 2.52656 35.5349C2.55098 35.7547 2.55098 35.95 2.5754 36.1698C2.5754 36.2674 2.47773 36.3407 2.28238 36.414C2.01377 36.5116 2.03819 36.5116 2.55098 36.6826C2.59982 36.8291 2.64866 36.9512 2.42889 37.0489C2.38005 37.0733 2.33121 37.1221 2.38005 37.1465C2.74633 37.3175 2.50215 37.4396 2.38005 37.5861C2.30679 37.6593 2.20912 37.7814 2.52656 37.8791C2.89285 38.0012 2.84401 38.0989 2.84401 38.1965C2.84401 38.3431 2.84401 38.4896 2.84401 38.6361C2.84401 38.6849 2.84401 38.7338 2.79517 38.7826C2.67308 38.8803 2.35563 38.9779 2.40447 39.0756C2.45331 39.1733 2.62424 39.2954 2.72191 39.3931C2.84401 39.5396 2.72191 39.6372 2.59982 39.7349C2.45331 39.8326 2.1847 39.9303 2.5754 40.1012C2.64866 40.1256 2.64866 40.1745 2.55098 40.1989C2.40447 40.2233 2.33121 40.2966 2.42889 40.3454C2.84401 40.6384 2.6975 40.8826 2.40447 41.1024C2.55098 41.1512 2.64866 41.2245 2.62424 41.2733C2.52656 41.6396 2.72191 42.0059 2.79517 42.3966C2.81959 42.5431 2.99052 42.714 2.72191 42.8361C2.64866 42.8605 2.64866 42.9338 2.74633 42.9826C3.23471 43.2268 3.0882 43.4466 3.13703 43.6664C3.16145 43.7396 3.11262 43.8129 3.16145 43.8861C3.18587 43.9594 3.18587 44.0326 3.03936 44.0815C2.6975 44.2036 2.6975 44.3501 3.23471 44.521C3.33239 44.5454 3.38122 44.5943 3.38122 44.6187C3.3568 44.8385 3.62541 45.1071 3.50332 45.3268C3.45448 45.4001 3.72309 45.4245 3.94286 45.4489C3.99169 45.4978 4.04053 45.5466 4.08937 45.5954C3.57657 45.6199 3.79634 45.8152 3.43006 45.8641C3.40564 45.8641 3.45448 45.9129 3.50332 45.9373C3.91844 46.035 3.82076 46.1571 3.99169 46.2547C4.04053 46.2792 4.21146 46.2792 4.33356 46.3036C4.16263 46.5722 4.16263 46.6455 4.33356 46.792C4.50449 46.9385 4.72426 46.9629 5.26147 46.9141C5.62775 46.8896 5.60334 47.0117 5.79869 47.0606C5.89636 47.1827 5.99404 47.3048 6.06729 47.4269C6.04287 47.4513 6.01846 47.4757 5.99404 47.5001C6.04287 47.5245 6.06729 47.5245 6.04287 47.5489C6.09171 47.5734 6.16497 47.5978 6.26264 47.6222C6.26264 47.6466 6.26264 47.6466 6.26264 47.671C6.43358 47.7199 6.48241 47.7687 6.48241 47.842C6.50683 47.9396 6.53125 48.0129 6.58009 48.1106C6.65334 48.0862 6.79986 48.0862 6.79986 48.0373C6.8487 47.8908 6.87311 47.7687 6.55567 47.6222C6.53125 47.4757 6.62893 47.3292 6.28706 47.1582C6.28706 47.1094 6.26264 47.0606 6.26264 47.0362C6.3359 46.9629 6.43358 46.9141 6.50683 46.8408C6.58009 46.8408 6.67776 46.8652 6.75102 46.8652C6.8487 47.085 7.04405 47.3292 7.33707 47.5489C7.31265 47.5978 7.33707 47.671 7.55684 47.7199C7.58126 47.7443 7.6301 47.8176 7.65452 47.8176C7.8987 47.842 7.80103 47.7687 7.80103 47.7443C7.84987 47.671 7.84987 47.5978 7.77661 47.5245C7.82545 47.4513 7.80103 47.378 7.60568 47.2803C7.60568 47.1094 7.60568 46.9629 7.60568 46.792C7.77661 46.8164 7.92312 46.7187 8.11847 46.8164C8.11847 46.8408 8.11847 46.8652 8.14289 46.8896C8.16731 46.9385 8.26499 46.9629 8.4115 46.9629C8.48476 46.9629 8.55801 46.9629 8.58243 46.9385C8.68011 46.8652 8.63127 46.792 8.4115 46.6943C8.31383 46.5478 8.60685 46.4745 8.65569 46.3768C8.72895 46.3768 8.8022 46.3768 8.85104 46.4013C8.89988 46.4745 8.89988 46.5478 9.14407 46.6455C9.14407 46.7431 9.1929 46.8408 9.38825 46.9385C9.53477 47.5001 9.41267 48.0373 9.43709 48.599C9.09523 49.185 9.1929 49.7955 9.07081 50.4059C9.07081 50.4548 9.11965 50.528 9.14407 50.5769C8.97313 50.8699 8.99755 51.1874 9.14407 51.5048C9.07081 51.6269 9.07081 51.749 9.16848 51.8711C9.11965 52.042 9.21732 52.2129 9.46151 52.4083C9.46151 52.506 9.43709 52.6036 9.43709 52.7013C9.48593 52.7257 9.48593 52.7502 9.46151 52.7502C9.53477 52.7746 9.60802 52.7746 9.68128 52.7746V52.799C9.7057 52.8967 9.7057 52.9943 9.73012 53.0676C9.80337 53.0676 9.85221 53.092 9.92547 53.092C9.94989 53.1897 9.97431 53.2874 10.0231 53.3606C10.6092 53.4827 10.7557 53.4827 10.7801 53.3362C10.8045 53.2385 10.8045 53.1409 10.5359 53.0432L10.5604 53.0188L10.5359 52.9699C10.5604 52.8967 10.5604 52.8234 10.5848 52.7746C10.6092 52.7746 10.6336 52.7502 10.6825 52.7502C11.122 52.7013 11.3173 52.7502 11.3418 52.8723C11.3662 52.9699 11.2685 53.0432 11.5859 53.1409C11.5859 53.1897 11.5859 53.2385 11.6104 53.2874C11.6836 53.4827 11.7569 53.5071 12.5871 53.5804C13.0022 53.5316 13.4906 53.5804 13.9546 53.6537C14.272 53.7025 14.5162 53.7269 14.7848 53.7025C14.9313 53.6781 15.0046 53.7513 15.0778 53.7757C15.2976 53.849 15.4441 53.849 15.5174 53.7757C15.6151 53.6781 15.7371 53.5804 15.8348 53.4583C16.2499 53.4827 16.4697 53.556 16.5185 53.6781C16.5674 53.849 16.6162 54.0199 16.6651 54.1665C16.6895 54.2153 16.7872 54.2885 16.836 54.3374C16.7872 54.3618 16.7872 54.3618 16.8604 54.3862C16.8604 54.606 17.0802 54.8502 17.3488 55.0699C17.3488 55.0944 17.3732 55.1188 17.3732 55.1432C17.2267 55.3874 17.5197 55.656 17.9104 55.9002C17.886 56.0467 17.886 56.2176 17.8616 56.3641C17.8372 56.5595 18.0569 56.7304 18.7407 56.8769C19.3023 56.999 19.3756 57.0967 19.3023 57.2432C19.6442 57.3409 19.4976 57.4386 19.5709 57.5362C19.7663 57.5607 19.9616 57.5851 20.0349 57.6583C20.1081 57.6828 20.2058 57.7316 20.279 57.756C20.2058 57.7804 20.1325 57.8049 20.0593 57.8049C20.0837 57.8293 20.1081 57.8537 20.0837 57.8537C20.2058 57.8781 20.279 57.9269 20.3035 57.9514C20.3767 57.9514 20.45 57.9758 20.5232 57.9758C20.5477 58.0735 20.5965 58.1467 20.6209 58.2444C20.9384 58.3909 21.3291 58.4642 21.8174 58.4153C22.0128 58.3909 22.2081 58.3665 22.4279 58.3421C22.5744 58.2688 22.7698 58.2932 22.9895 58.3665C23.2093 58.4153 23.4535 58.4397 23.6733 58.4153C23.6977 58.3421 23.9663 58.3176 24.0884 58.2688C24.1616 58.2688 24.2349 58.2688 24.2593 58.2444C24.3326 58.2444 24.4058 58.2688 24.4547 58.2688C24.4791 58.1711 24.5279 58.0979 24.5523 58.0002C24.6256 58.0002 24.6989 58.0002 24.7721 58.0246C24.7965 57.9758 24.8942 57.9758 25.0407 57.9758C25.0651 57.9269 25.0896 57.8781 25.2849 57.8537C25.3093 57.7804 25.3337 57.7316 25.3582 57.6583C25.4314 57.6583 25.4803 57.6583 25.5535 57.6583C25.5535 57.6095 25.5779 57.5362 25.7977 57.5362C25.8221 57.463 25.8465 57.4142 25.8465 57.3409C25.9931 57.2921 26.1396 57.2676 26.2861 57.2188C26.3105 57.17 26.3593 57.1211 26.5791 57.0967C26.6524 57.0235 26.8233 56.9502 27.1163 56.9258C27.4338 56.7793 27.5314 56.7793 27.9221 56.9014C28.4594 57.0479 28.4838 57.0723 28.9477 56.999C29.2652 56.9502 29.6315 56.9746 29.9977 56.9746C29.9977 56.9014 29.9977 56.8037 30.2663 56.7793C30.2663 56.7304 30.3396 56.7304 30.4861 56.706C30.5594 56.6328 30.5594 56.5595 30.7791 56.5351C30.8036 56.4862 30.828 56.4618 30.828 56.413C31.6582 56.5107 31.8291 56.3397 32.0733 56.2176C32.0978 56.12 32.3175 56.12 32.5861 56.12C32.6105 56.0711 32.6594 56.0223 32.8547 55.9979C32.8547 55.9002 33.0989 55.8513 33.392 55.8269C33.4164 55.7781 33.4652 55.7293 33.6361 55.7048C33.6606 55.6316 33.7094 55.5827 33.7582 55.5095C33.978 55.5339 34.1978 55.5339 34.3931 55.4118C34.442 55.5339 34.4908 55.5339 34.5641 55.5339C34.5885 55.5583 34.6129 55.4362 34.6373 55.4118L34.6617 55.4362L34.6861 55.4118C34.6861 55.4118 34.6861 55.4118 34.6861 55.4362C34.6861 55.5827 34.7106 55.656 34.7594 55.6804C35.028 56.1444 35.2478 55.5583 35.5164 55.9246H35.5408C35.5896 55.8513 35.6141 55.7781 35.6873 55.9002C36.0536 56.3886 36.3466 55.7048 36.6885 56.0955V56.0711C36.7617 56.3641 36.835 56.3397 36.8838 56.0955L36.9327 56.0223L36.9815 56.0711C37.2745 56.5839 37.5187 55.9002 37.8118 56.3153V56.2909C37.885 56.5351 37.9583 56.5351 38.0071 56.2665V56.2909C38.0315 56.1932 38.0804 56.1932 38.1048 56.1932C38.1048 56.2176 38.1048 56.2421 38.1292 56.2665C38.6176 56.1932 39.1304 56.12 39.6188 56.0711C39.7408 56.0467 39.8629 55.9734 40.0095 56.2665C40.0583 56.2665 40.1315 56.2665 40.1804 56.2665C40.2292 55.9979 40.3025 55.9979 40.4002 56.2176C40.449 56.2176 40.5223 56.1932 40.5711 56.1932C40.6443 55.9002 40.7664 55.8513 40.8885 56.12C41.0106 55.9979 41.1327 55.949 41.2792 56.0223C41.4502 56.12 41.5967 55.9979 41.7188 55.7537V55.7781C41.7432 55.9734 41.792 56.0955 41.8409 56.1688C42.1339 56.0467 42.4758 56.3397 42.7444 55.8269C42.7932 55.6072 42.8909 55.656 42.9641 55.7781H43.013C43.5502 55.363 44.1607 55.5339 44.7223 55.3386C44.8688 55.2897 45.0641 55.5095 45.1618 55.0455L45.1862 54.9967L45.2107 55.0455C45.2839 54.8746 45.3816 54.8746 45.4549 54.7525C45.4549 54.7525 45.4548 54.7281 45.4793 54.7281C45.7479 54.899 45.9921 54.899 46.2118 54.5327L46.2363 54.4839L46.2607 54.5083C46.3583 54.1909 46.5293 54.4595 46.627 54.1665C46.8223 54.1909 47.0665 54.2397 47.2374 54.2641C47.2863 54.5083 47.3351 54.7281 46.8223 54.9967C46.8223 55.0944 46.8223 55.1676 46.8223 55.2653C47.0421 55.3874 47.4816 55.2653 47.8235 55.2653C48.0921 55.4118 48.0188 55.6072 48.0188 55.8025C48.4339 55.8513 48.3119 55.9979 48.5805 56.0711C49.0933 56.0467 49.2398 55.8513 49.7037 55.8025C49.8014 55.6804 49.6061 55.5339 50.0212 55.3874C50.0212 55.3141 50.0212 55.2409 50.3386 55.1676C50.363 55.1188 50.4363 55.0699 50.6072 55.0211C50.6072 54.9723 50.6072 54.899 50.6072 54.8502C50.6805 54.8258 50.7049 54.8013 50.6561 54.7769C50.7537 54.7525 50.8514 54.7281 50.9491 54.7037C50.9491 54.6548 50.9491 54.5816 50.9491 54.5327C51.0468 54.5083 51.1444 54.5083 51.2177 54.4839C51.1933 54.4595 51.1689 54.4351 51.1444 54.4106C51.2177 54.3862 51.2665 54.3374 51.2665 54.313C51.4375 54.2641 51.5107 54.2397 51.4619 54.1665C51.5351 54.142 51.5596 54.1176 51.5351 54.0932C51.7061 54.0199 51.9014 53.9711 52.0724 53.8978C52.0724 53.8978 52.0724 53.8978 52.0724 53.8734C52.0968 53.8734 52.1212 53.849 52.1456 53.849C52.2677 53.8246 52.3654 53.7757 52.4142 53.7513L52.3898 53.7757C52.8293 53.5071 53.2445 53.263 53.3177 52.9943C53.7573 52.8478 53.7572 52.7013 53.9526 52.5304H53.9282C54.6119 52.1641 54.6852 51.7978 54.9049 51.4315C55.0514 51.4071 55.2224 51.3339 55.3445 51.1385L55.3689 51.0653L55.4177 51.0897C55.5887 50.6501 55.8573 51.1629 56.0038 50.6013V50.6257C56.1259 50.2106 56.3701 50.6746 56.4677 50.1862C56.6143 49.7222 56.9073 50.3083 57.0294 49.6734L56.9073 49.6245C56.9317 49.5269 56.9805 49.4292 56.9805 49.3071C56.9805 49.3071 56.9805 49.3071 56.9805 49.2827C57.0782 49.2583 57.1759 49.2094 57.2736 49.185C57.3224 48.892 57.4445 48.8431 57.5422 48.7699C57.5666 48.6478 57.591 48.5257 57.6154 48.4036C57.6154 48.2083 57.6154 48.0129 57.6154 47.8176C57.6398 47.7687 57.6643 47.7199 57.6887 47.6466C57.7131 47.5489 57.7375 47.4269 57.7619 47.3048C57.7864 47.085 57.884 47.1338 57.9085 46.8652C57.9573 46.792 57.9817 46.6455 57.9817 46.4745C58.055 46.328 58.1038 46.0838 58.1282 45.7175C58.1771 45.5466 58.2747 45.5954 58.2992 45.3024C58.3724 45.1559 58.4212 44.9117 58.4212 44.5699L58.4457 44.5454C58.4457 44.3989 58.4212 44.2768 58.4457 44.1547C58.4457 44.1303 58.4457 44.1303 58.4457 44.1059C58.4457 43.9838 58.4701 43.8861 58.4945 43.7885C58.5433 43.5443 58.5922 43.2757 58.641 43.0315C58.641 42.6896 58.7143 42.6408 58.8119 42.6163C58.8608 42.2745 58.9829 42.2501 59.0806 42.2501C59.1294 41.9082 59.2271 41.8594 59.3492 41.8105C59.398 41.4687 59.5201 41.5175 59.6178 41.3954C59.6422 41.2733 59.6666 41.1512 59.691 41.0535C59.691 40.8582 59.7154 40.7361 59.7643 40.6873C59.7887 40.5407 59.7887 40.3942 59.8131 40.2477C59.8131 39.9547 59.8131 39.7105 59.8864 39.564C59.8864 39.3686 59.9108 39.2221 59.9596 39.1977C59.9841 38.9047 60.0329 38.807 60.1061 38.7338C60.1061 38.5384 60.155 38.4407 60.2038 38.4163C60.2282 38.1233 60.2771 38.0012 60.3748 37.9768C60.3992 37.7082 60.4724 37.6349 60.5457 37.5861C60.5701 37.293 60.6189 37.1954 60.6922 37.1465C60.7166 37.0489 60.741 36.9268 60.7899 36.8291C60.8387 36.2675 60.8387 35.5593 60.7655 34.7779ZM18.6918 2.78924C18.6674 2.81366 18.6674 2.81366 18.6918 2.78924V2.78924ZM43.0618 0.664807C43.0374 0.664807 42.9885 0.689226 42.9641 0.689226C42.9641 0.689226 42.9641 0.689226 42.9886 0.689226C42.9886 0.664807 43.0374 0.664807 43.0618 0.664807ZM58.7387 30.1872C58.7387 30.1872 58.7143 30.1627 58.7387 30.1872C58.7143 30.1627 58.7387 30.1627 58.7387 30.1872C58.7387 30.1627 58.7387 30.1627 58.7387 30.1627C58.7387 30.1872 58.7631 30.2116 58.7631 30.236C58.7387 30.2116 58.7387 30.1872 58.7387 30.1872C58.7387 30.1627 58.7387 30.1872 58.7387 30.1872ZM20.8163 3.17995C20.8407 3.17995 20.8651 3.15553 20.8895 3.15553C20.8895 3.17995 20.8651 3.17995 20.8163 3.17995C20.8407 3.17995 20.8407 3.17995 20.8163 3.17995ZM10.7557 6.57416C10.7801 6.57416 10.7801 6.59858 10.7801 6.623C10.7801 6.67184 10.7313 6.69626 10.658 6.72068C10.7069 6.67184 10.7313 6.623 10.7557 6.57416ZM55.3201 12.2393C55.3201 12.2882 55.3201 12.337 55.3201 12.3858C55.3201 12.337 55.3201 12.2882 55.3201 12.2393ZM53.7817 5.54857C53.7817 5.52415 53.7817 5.52415 53.7817 5.49973C53.7817 5.47532 53.7817 5.47532 53.7817 5.4509C53.7573 5.54857 53.7328 5.64625 53.7328 5.74392C53.7328 5.69509 53.7573 5.62183 53.7573 5.57299C53.7817 5.57299 53.7817 5.57299 53.7817 5.54857ZM53.7817 5.54857C53.7817 5.52415 53.7817 5.47532 53.8061 5.4509C53.8061 5.4509 53.8061 5.4509 53.8061 5.47532C53.8061 5.49973 53.8061 5.49973 53.8061 5.52415C53.7817 5.52415 53.7817 5.52415 53.7817 5.54857ZM51.3398 12.1417C51.3398 12.0928 51.3642 12.0928 51.3886 12.1172C51.3886 12.1172 51.3642 12.1172 51.3398 12.1417ZM53.5131 7.11138C53.5131 7.08696 53.5131 7.06254 53.5131 7.0137C53.5375 7.03812 53.5375 7.06254 53.5619 7.08696C53.5375 7.11138 53.5375 7.11138 53.5131 7.11138ZM53.1712 34.0453C53.2445 34.1186 53.2933 34.2163 53.3666 34.3384C53.3177 34.4116 53.2445 34.3139 53.1712 34.0453ZM53.7573 5.62183C53.7573 5.67067 53.7328 5.7195 53.7328 5.76834C53.7328 5.79276 53.7084 5.8416 53.7084 5.86602C53.7084 5.86602 53.7084 5.86602 53.7084 5.8416C53.7328 5.79276 53.7328 5.7195 53.7573 5.64625C53.7573 5.64625 53.7573 5.64625 53.7573 5.62183ZM23.5512 53.2141C23.5512 53.2141 23.5756 53.2141 23.5512 53.2141C23.5756 53.2141 23.5512 53.2141 23.5512 53.2141ZM8.04522 40.7605C7.99638 40.7605 7.92312 40.7849 7.87429 40.7849C7.92312 40.7849 7.99638 40.7849 8.04522 40.7605ZM56.7363 18.0266C56.7608 18.051 56.7852 18.1243 56.7852 18.1975C56.7608 18.1487 56.7363 18.0754 56.7363 18.0266ZM55.3689 15.6091C55.3689 15.5847 55.3689 15.5847 55.3689 15.5847C55.3689 15.6091 55.3689 15.6091 55.3689 15.6091ZM55.3445 11.5312V11.5556C55.3445 11.5312 55.3445 11.5068 55.3445 11.4823C55.3201 11.5068 55.3445 11.5068 55.3445 11.5312ZM10.1697 9.55326C10.4138 9.52884 10.4871 9.57768 10.365 9.67535C10.3162 9.62652 10.2429 9.6021 10.1697 9.55326ZM7.38591 12.4103H7.41033C7.41033 12.3858 7.41033 12.3858 7.38591 12.4103ZM5.65217 38.0744C5.62775 38.05 5.62775 38.05 5.65217 38.0744H5.67659C5.65217 38.05 5.65217 38.05 5.65217 38.0744ZM9.09523 45.3024C9.07081 45.3024 9.07081 45.278 9.09523 45.3024C9.09523 45.278 9.09523 45.3024 9.09523 45.3024ZM22.257 53.6781H22.2814H22.257ZM3.99169 14.7545C4.04053 14.7789 4.06495 14.8277 4.01611 14.8521C4.01611 14.8521 3.99169 14.8521 3.96727 14.8766C3.96727 14.8277 3.96727 14.8033 3.99169 14.7545ZM6.7266 29.186C6.70218 29.186 6.70218 29.186 6.67776 29.186C6.70218 29.186 6.7266 29.186 6.7266 29.186ZM21.2314 54.5816C21.2558 54.5572 21.2802 54.5083 21.3046 54.4839C21.3779 54.5083 21.4023 54.5327 21.3535 54.5571C21.3291 54.5571 21.2802 54.5816 21.2314 54.5816ZM21.4512 54.1665C21.4756 54.1665 21.4756 54.1909 21.5 54.1909C21.4756 54.1909 21.4512 54.1909 21.4267 54.1909C21.4512 54.1664 21.4512 54.1665 21.4512 54.1665ZM59.3492 24.6441C59.3492 24.6685 59.3492 24.7173 59.3492 24.7662C59.3492 24.7173 59.3492 24.6685 59.3492 24.6441ZM58.5433 23.2278C58.5678 23.3255 58.6166 23.4232 58.6654 23.5208C58.6166 23.4964 58.5922 23.472 58.5433 23.4476C58.5433 23.3743 58.5433 23.3011 58.5433 23.2278ZM57.6643 12.1905V12.2149C57.6643 12.2149 57.6643 12.2149 57.6643 12.1905ZM57.2736 11.287C57.2491 11.2626 57.2491 11.2137 57.2247 11.1893C57.2491 11.1893 57.2491 11.1893 57.2736 11.1649C57.2736 11.2137 57.2736 11.2626 57.2736 11.287ZM55.198 5.64625C55.198 5.67067 55.198 5.67067 55.198 5.64625C55.198 5.67067 55.198 5.64625 55.198 5.64625ZM17.1534 4.35205C17.129 4.35205 17.0802 4.35205 17.0313 4.37647C17.0802 4.37647 17.1046 4.35205 17.1534 4.35205ZM6.21381 41.4931C6.28706 41.5175 6.36032 41.5175 6.38474 41.5419C6.31148 41.5175 6.21381 41.5175 6.14055 41.4931C6.16497 41.4931 6.18939 41.4931 6.21381 41.4931ZM10.7069 49.7466C10.6825 49.7466 10.6825 49.7466 10.6825 49.7466H10.7069ZM20.5965 56.8037C20.6209 56.8037 20.6209 56.8037 20.6209 56.8037C20.5965 56.8037 20.5965 56.8037 20.5965 56.8037ZM49.484 53.4095C49.484 53.4095 49.5084 53.4095 49.5328 53.4095C49.5084 53.4095 49.484 53.4339 49.4595 53.4339C49.4595 53.4339 49.4595 53.4339 49.4351 53.4339C49.4595 53.4339 49.4595 53.4095 49.484 53.4095ZM11.8301 5.76834C11.8546 5.76834 11.8546 5.76834 11.879 5.76834C11.8546 5.76834 11.8546 5.76834 11.8301 5.76834ZM5.57892 46.2303C5.5545 46.2303 5.5545 46.2059 5.57892 46.2059C5.57892 46.2059 5.62775 46.1815 5.65217 46.1815C5.67659 46.1815 5.67659 46.1815 5.70101 46.1815C5.65217 46.2059 5.62775 46.2303 5.57892 46.2303C5.60334 46.2548 5.60334 46.2548 5.57892 46.2303ZM7.58126 46.6699C7.55684 46.6699 7.508 46.6699 7.48358 46.6943C7.48358 46.6699 7.508 46.6699 7.58126 46.6699ZM18.8139 56.2665C18.7895 56.2665 18.7895 56.2665 18.7651 56.2665C18.7651 56.2421 18.7895 56.2421 18.8139 56.2665C18.7895 56.2421 18.8139 56.2421 18.8139 56.2665ZM18.35 2.83808C18.3255 2.83808 18.3011 2.83808 18.3011 2.81366L18.35 2.83808ZM8.16731 6.74509C8.14289 6.76951 8.11847 6.79393 8.09406 6.79393C8.09406 6.76951 8.11847 6.74509 8.16731 6.74509ZM13.4662 53.3118C13.4906 53.3118 13.4906 53.3118 13.515 53.3118C13.515 53.3362 13.5395 53.3362 13.5639 53.3606C13.515 53.3362 13.4906 53.3118 13.4662 53.3118ZM18.6674 56.3397C18.6918 56.3397 18.7895 56.3153 18.8628 56.3153C18.936 56.3886 19.0093 56.4618 19.0825 56.5107C18.9604 56.4862 18.8383 56.4618 18.7162 56.4618C18.4476 56.413 18.5942 56.3641 18.6674 56.3397ZM30.7303 56.3641C30.7059 56.3397 30.7303 56.3153 30.7303 56.2909C30.7547 56.3153 30.7547 56.3397 30.7303 56.3641ZM39.7408 53.4827C39.7408 53.4827 39.7164 53.4339 39.692 53.385C39.7164 53.3606 39.7408 53.3118 39.7653 53.2874C39.7653 53.3606 39.7653 53.4583 39.7408 53.4827Z" fill="#40C0A6"/>
<path d="M36.0266 25.5826C36.0266 26.3766 34.8414 26.3766 34.8414 25.5826C34.8414 24.1603 34.3495 23.384 33.5376 23.384H30.1658C29.3717 23.384 28.9213 24.0951 28.8976 25.5826V27.7811H33.5317C35.0784 27.7633 36.0266 29.9974 36.0266 32.67C36.0266 34.4715 34.9954 36.0538 33.5317 36.0538H30.1658C28.7198 36.0538 27.7124 34.4478 27.7124 32.67V28.3737V25.5826C27.7302 23.7396 28.7435 22.1988 30.1658 22.1988H33.5317C35.0132 22.1988 36.0266 23.7988 36.0266 25.5826ZM28.8976 28.9663V32.67C28.8976 34.0923 29.3895 34.8686 30.1658 34.8686H33.5317C34.3614 34.8686 34.8354 34.116 34.8354 32.67C34.8354 30.2345 34.2784 28.9485 33.5495 28.9663H33.5317H28.8976Z" fill="#41C0A5"/>
<path d="M31.8843 15.8047C33.6621 15.8047 35.3807 16.1543 37.0044 16.8358C38.5689 17.4995 39.9792 18.4477 41.1882 19.6566C42.3971 20.8655 43.3452 22.2699 44.0089 23.8403C44.6904 25.4581 45.04 27.1826 45.04 28.9604C45.04 30.7382 44.6904 32.4567 44.0089 34.0804C43.3452 35.6449 42.3971 37.0553 41.1882 38.2642C39.9792 39.4731 38.5748 40.4212 37.0044 41.0849C35.3807 41.7664 33.6621 42.1161 31.8843 42.1161C30.1066 42.1161 28.388 41.7664 26.7643 41.0849C25.1998 40.4212 23.7894 39.4731 22.5805 38.2642C21.3716 37.0553 20.4235 35.6508 19.7598 34.0804C19.0783 32.4567 18.7287 30.7382 18.7287 28.9604C18.7287 27.1826 19.0783 25.464 19.7598 23.8403C20.4235 22.2759 21.3716 20.8655 22.5805 19.6566C23.7894 18.4477 25.1939 17.4995 26.7643 16.8358C28.3821 16.1543 30.1066 15.8047 31.8843 15.8047ZM31.8843 14.6195C23.9613 14.6195 17.5435 21.0373 17.5435 28.9604C17.5435 36.8834 23.9613 43.3013 31.8843 43.3013C39.8074 43.3013 46.2252 36.8834 46.2252 28.9604C46.2252 21.0373 39.8015 14.6195 31.8843 14.6195Z" fill="#41C0A5"/>
<path d="M31.8842 18.0743C34.7939 18.0743 37.5258 19.2062 39.5821 21.2625C41.6384 23.3188 42.7703 26.0507 42.7703 28.9604C42.7703 31.87 41.6384 34.6019 39.5821 36.6582C37.5258 38.7145 34.7939 39.8464 31.8842 39.8464C28.9746 39.8464 26.2427 38.7145 24.1864 36.6582C22.13 34.6019 20.9982 31.8641 20.9982 28.9604C20.9982 26.0566 22.13 23.3188 24.1864 21.2625C26.2427 19.2062 28.9746 18.0743 31.8842 18.0743ZM31.8842 16.8891C25.2175 16.8891 19.813 22.2936 19.813 28.9604C19.813 35.6271 25.2175 41.0316 31.8842 41.0316C38.551 41.0316 43.9555 35.6271 43.9555 28.9604C43.9555 22.2936 38.551 16.8891 31.8842 16.8891Z" fill="#41C0A5"/>
</g>
</svg>
