<svg width="82" height="98" fill="none" xmlns="http://www.w3.org/2000/svg"><g filter="url(#filter0_d)"><path d="M40.95 6C22.793 6 8 20.759 8 38.871c0 2.058.178 4.14.586 6.173.025.127.076.483.229 1.092a32.994 32.994 0 002.215 6.478c3.54 8.332 11.357 21.16 28.493 34.878.433.356.942.508 1.477.508.51 0 1.044-.178 1.477-.508C59.588 73.774 67.43 60.946 70.97 52.614a32.439 32.439 0 002.215-6.478c.127-.61.204-.99.23-1.092A33.57 33.57 0 0074 38.871C73.924 20.76 59.13 6 40.95 6z" fill="#fff"/></g><defs><filter id="filter0_d" x="0" y="0" width="82" height="98" filterUnits="userSpaceOnUse" color-interpolation-filters="sRGB"><feFlood flood-opacity="0" result="BackgroundImageFix"/><feColorMatrix in="SourceAlpha" values="0 0 0 0 0 0 0 0 0 0 0 0 0 0 0 0 0 0 127 0"/><feOffset dy="2"/><feGaussianBlur stdDeviation="4"/><feColorMatrix values="0 0 0 0 0 0 0 0 0 0 0 0 0 0 0 0 0 0 0.15 0"/><feBlend in2="BackgroundImageFix" result="effect1_dropShadow"/><feBlend in="SourceGraphic" in2="effect1_dropShadow" result="shape"/></filter></defs></svg>