<svg width="14" height="15" viewBox="0 0 14 15" fill="none" xmlns="http://www.w3.org/2000/svg">
<path fill-rule="evenodd" clip-rule="evenodd" d="M11.7721 2.15357H10.1812V1.08725H9.12056V2.15357H4.87811V1.08725H3.8175V2.15357H2.22662C1.64117 2.15357 1.16602 2.63129 1.16602 3.2199V11.2173C1.16602 11.8059 1.64117 12.2836 2.22662 12.2836H11.7721C12.3575 12.2836 12.8327 11.8059 12.8327 11.2173V3.2199C12.8327 2.63129 12.3575 2.15357 11.7721 2.15357ZM6.99935 8.12499C7.4826 8.12499 7.87435 8.52145 7.87435 9.0047C7.87435 9.48795 7.4826 9.88442 6.99935 9.88442C6.5161 9.88442 6.12435 9.48795 6.12435 9.0047C6.12435 8.52145 6.5161 8.12499 6.99935 8.12499ZM10.9368 5.48584C10.9368 5.00259 10.5451 4.60612 10.0618 4.60612C9.5786 4.60612 9.18685 5.00259 9.18685 5.48584C9.18685 5.96908 9.5786 6.36555 10.0618 6.36555C10.5451 6.36555 10.9368 5.96908 10.9368 5.48584ZM3.93685 4.60612C4.4201 4.60612 4.81185 5.00259 4.81185 5.48584C4.81185 5.96908 4.4201 6.36555 3.93685 6.36555C3.4536 6.36555 3.06185 5.96908 3.06185 5.48584C3.06185 5.00259 3.4536 4.60612 3.93685 4.60612ZM4.81185 9.0047C4.81185 8.52145 4.4201 8.12499 3.93685 8.12499C3.4536 8.12499 3.06185 8.52145 3.06185 9.0047C3.06185 9.48795 3.4536 9.88442 3.93685 9.88442C4.4201 9.88442 4.81185 9.48795 4.81185 9.0047ZM6.99935 4.60612C7.4826 4.60612 7.87435 5.00259 7.87435 5.48584C7.87435 5.96908 7.4826 6.36555 6.99935 6.36555C6.5161 6.36555 6.12435 5.96908 6.12435 5.48584C6.12435 5.00259 6.5161 4.60612 6.99935 4.60612Z" fill="white"/>
</svg>
