<svg width="14" height="15" viewBox="0 0 14 15" fill="none" xmlns="http://www.w3.org/2000/svg">
<path fill-rule="evenodd" clip-rule="evenodd" d="M12.6875 7.35851C12.6875 10.5166 10.1411 13.0767 7 13.0767C3.85888 13.0767 1.3125 10.5166 1.3125 7.35851C1.3125 4.20046 3.85888 1.64035 7 1.64035C10.1411 1.64035 12.6875 4.20046 12.6875 7.35851ZM7.56875 4.90786C7.56875 4.59205 7.31411 4.33604 7 4.33604C6.68589 4.33604 6.43125 4.59205 6.43125 4.90786V7.82565L8.14897 9.55263C8.37108 9.77594 8.73119 9.77594 8.9533 9.55263C9.17541 9.32932 9.17541 8.96727 8.9533 8.74396L7.56875 7.35195V4.90786Z" fill="white"/>
</svg>
