<svg width="14" height="14" viewBox="0 0 14 14" fill="none" xmlns="http://www.w3.org/2000/svg">
<rect width="14" height="14" rx="6" fill="white"/>
<path d="M12 0H2C0.895431 0 0 0.89543 0 2V12C0 13.1046 0.89543 14 2 14H12C13.1046 14 14 13.1046 14 12V2C14 0.895431 13.1046 0 12 0Z" fill="#E937C0"/>
<path fill-rule="evenodd" clip-rule="evenodd" d="M5.51262 6.99984C5.51262 6.18009 6.18009 5.51295 6.99984 5.51295C7.81991 5.51295 8.48705 6.18009 8.48705 6.99984C8.48705 7.81991 7.81991 8.48738 6.99984 8.48738C6.18009 8.48738 5.51262 7.81991 5.51262 6.99984ZM3.08818 4.52256C3.08818 3.7317 3.7317 3.08818 4.52256 3.08818H9.47744C10.2683 3.08818 10.9118 3.7317 10.9118 4.52256V9.47744C10.9118 10.2683 10.2683 10.9118 9.47744 10.9118H4.52256C3.7317 10.9118 3.08818 10.2683 3.08818 9.47744V4.52256ZM4.42444 6.99984C4.42444 8.42011 5.57989 9.57556 6.99984 9.57556C8.42011 9.57556 9.57556 8.42011 9.57556 6.99984C9.57556 5.57989 8.42011 4.42444 6.99984 4.42444C5.57989 4.42444 4.42444 5.57989 4.42444 6.99984ZM9.04886 4.34765C9.04886 4.68369 9.32222 4.95704 9.65825 4.95704C9.99429 4.95704 10.2676 4.68369 10.2676 4.34765C10.2676 4.01162 9.99429 3.73826 9.65825 3.73826C9.32222 3.73826 9.04886 4.01162 9.04886 4.34765ZM9.47744 12C10.8685 12 12 10.8685 12 9.47744V4.52256C12 3.13149 10.8685 2 9.47744 2H4.52256C3.13149 2 2 3.13149 2 4.52256V9.47744C2 10.8685 3.13149 12 4.52256 12H9.47744Z" fill="white"/>
</svg>
