<svg width="14" height="14" fill="none" xmlns="http://www.w3.org/2000/svg"><rect width="14" height="14" rx="6" fill="#fff"/><path d="M12 0H2a2 2 0 00-2 2v10a2 2 0 002 2h10a2 2 0 002-2V2a2 2 0 00-2-2z" fill="#44678D"/><path d="M3.627 4.26c.336.83.76 1.61 1.32 2.312.075.093.169.176.268.243.144.1.28.065.338-.1.062-.173.119-.524.122-.705a15.23 15.23 0 00-.027-1.26c-.016-.303-.124-.57-.57-.65-.138-.025-.151-.139-.063-.252.185-.236.442-.273.72-.288.452-.025.905-.005 1.357 0 .184.001.37.016.551.056.237.051.363.217.402.448.02.12.03.242.028.362-.012.518-.037 1.036-.043 1.554-.002.203.013.411.056.61.061.275.249.344.44.145a6.75 6.75 0 00.662-.827c.366-.526.64-1.104.876-1.699.122-.307.215-.374.546-.375.62-.001 1.242-.002 1.863 0 .11 0 .225.011.33.044.168.054.235.192.196.366-.093.41-.314.757-.55 1.092-.38.536-.78 1.06-1.168 1.59-.05.068-.093.14-.134.213-.146.263-.136.41.077.63.338.348.7.674 1.026 1.032.238.26.458.543.646.84.238.376.091.73-.354.793-.28.04-1.648 0-1.718 0a1.339 1.339 0 01-.95-.378c-.289-.279-.551-.583-.828-.874a2.315 2.315 0 00-.27-.244c-.226-.173-.448-.135-.554.132-.09.228-.17.83-.173.88-.019.269-.19.44-.49.456-.868.047-1.708-.05-2.491-.469-.664-.355-1.194-.858-1.653-1.444-.73-.931-1.306-1.954-1.832-3.008a55.272 55.272 0 01-.574-1.24c-.047-.18-.003-.351.149-.41.094-.037 1.85 0 1.88.001.28.015.471.134.59.425z" fill="#fff"/></svg>