<svg width="14" height="14" viewBox="0 0 14 14" fill="none" xmlns="http://www.w3.org/2000/svg">
<rect width="14" height="14" rx="6" fill="white"/>
<path d="M12 0H2C0.895431 0 0 0.89543 0 2V12C0 13.1046 0.89543 14 2 14H12C13.1046 14 14 13.1046 14 12V2C14 0.895431 13.1046 0 12 0Z" fill="#3A559F"/>
<path d="M6.77254 14H8.91955V8.55175H10.6838L10.9667 6.32761H8.91955V4.7816C8.91955 4.34995 9.25736 4.00001 9.67404 4.00001H11V2H9.14694C7.83559 2 6.77254 3.10124 6.77254 4.45969V6.32758H5V8.55172H6.77254V14Z" fill="white"/>
</svg>
