<svg width="13" height="14" viewBox="0 0 13 14" fill="none" xmlns="http://www.w3.org/2000/svg">
<path d="M12.5 7.12531C12.5 10.4609 9.81118 13.1604 6.5 13.1604C3.18882 13.1604 0.5 10.4609 0.5 7.12531C0.5 3.78971 3.18882 1.09027 6.5 1.09027C9.81118 1.09027 12.5 3.78971 12.5 7.12531Z" fill="#FCFCFD" stroke="#50D9C0"/>
<path d="M7.0835 10.1092H6.01562V5.35431H7.0835V10.1092ZM5.94971 4.11945C5.94971 3.95538 6.00098 3.81915 6.10352 3.71075C6.20898 3.60236 6.3584 3.54816 6.55176 3.54816C6.74512 3.54816 6.89453 3.60236 7 3.71075C7.10547 3.81915 7.1582 3.95538 7.1582 4.11945C7.1582 4.28058 7.10547 4.41534 7 4.52374C6.89453 4.62921 6.74512 4.68195 6.55176 4.68195C6.3584 4.68195 6.20898 4.62921 6.10352 4.52374C6.00098 4.41534 5.94971 4.28058 5.94971 4.11945Z" fill="#50D9C0"/>
</svg>
