<svg width="41" height="40" viewBox="0 0 41 40" fill="none" xmlns="http://www.w3.org/2000/svg">
<path opacity="0.1" d="M40.9606 23.8081C40.9935 23.5908 40.9606 23.34 40.9771 23.1227C40.9606 23.0558 40.9606 23.0057 40.9771 22.9388C41.01 22.7215 40.9771 22.4875 40.9441 22.2535C40.9277 22.2367 40.9277 22.22 40.9112 22.2033C40.8618 21.0331 40.7302 19.8797 40.6479 18.7263C40.6314 18.6594 40.6149 18.5925 40.6149 18.5257C40.6149 18.509 40.6149 18.4588 40.6314 18.4254C40.6149 18.2081 40.6149 18.0409 40.6643 17.9072C40.6479 17.623 40.6149 17.3555 40.6808 17.1382C40.6808 16.9878 40.6808 16.854 40.6808 16.7036C40.6972 16.7036 40.7137 16.6869 40.7302 16.6701C40.7302 16.5364 40.7302 16.4361 40.7631 16.386C40.7466 15.9513 40.6808 15.5836 40.5985 15.2325C40.5162 15.1657 40.4668 15.0152 40.4339 14.731C40.3022 14.2797 40.154 13.8618 40.0553 13.26C40.0388 13.2432 40.0388 13.2265 40.0224 13.2098C40.0059 13.0427 39.9894 12.8755 40.0224 12.725C40.0717 12.4409 40.0882 12.1065 40.0059 11.7388L40.0224 11.7555C39.9236 11.0701 39.8742 10.3847 39.8742 9.68263C39.9071 9.53218 39.8907 9.29815 39.8907 9.09755L39.8742 9.03069V8.96382C39.8578 8.44561 39.7919 7.91068 39.8248 7.4259C39.8578 7.30888 39.8413 7.09157 39.8578 6.94112C39.9071 6.32261 39.8084 5.85455 39.6602 5.4032C39.6438 5.47007 39.6438 5.53693 39.6273 5.6038C39.6273 5.55365 39.6273 5.5035 39.6109 5.45335C39.5944 5.36977 39.5944 5.3029 39.5944 5.21932C39.5286 5.05215 39.4956 4.78469 39.4627 4.53394C39.4298 4.45036 39.4133 4.38349 39.3804 4.29991C39.2323 4.16618 39.15 3.81513 39.1171 3.29692C39.0348 3.06289 38.9525 2.84557 38.8702 2.61154C38.8208 2.59483 38.7714 2.51124 38.722 2.34408C38.6891 2.36079 38.6562 2.29393 38.6233 2.1602C38.5739 2.1602 38.5245 2.12676 38.4751 1.92616C38.4257 1.89273 38.3764 1.80915 38.327 1.64198C38.294 1.64198 38.2611 1.67542 38.2282 1.64198C37.9978 1.44139 37.7673 1.3578 37.5369 1.04019C37.3394 1.04019 37.1418 1.04019 36.9443 1.04019C36.8126 0.822874 36.681 0.906457 36.5657 0.923173C36.4834 0.923173 36.4011 0.990039 36.3188 0.772725C36.3024 0.856307 36.3024 0.923173 36.2859 1.00676C36.0719 0.923173 35.8579 0.956606 35.6604 1.02347C35.644 1.02347 35.611 1.02347 35.5946 1.02347C35.3806 0.973323 35.6275 0.822874 35.2983 0.789441C35.1172 0.689142 34.6399 0.739292 34.3436 0.689142C34.2613 0.672426 34.179 0.655709 34.0638 0.655709H34.0802C33.8333 0.622276 33.5371 0.588843 33.3395 0.521977C33.2079 0.50526 33.2243 0.438394 33.0597 0.421678H33.0762C32.928 0.388245 32.6976 0.421678 32.533 0.421678C32.4836 0.438394 32.4178 0.438394 32.3684 0.438394C32.2367 0.421678 32.0227 0.455111 31.8746 0.438394C31.7923 0.421678 31.71 0.404961 31.5948 0.404961H31.6112C31.2326 0.354812 30.8376 0.304662 30.4096 0.254512C30.3273 0.237796 30.245 0.237796 30.1463 0.221079C29.9652 0.17093 29.7348 0.0873472 29.4714 0.137497C28.3192 0.371528 27.6772 0.12078 26.739 0.17093C26.5086 0.17093 26.311 0.154213 26.1135 0.204363C26.0312 0.12078 25.9654 0.104064 25.8995 0.204363C25.7843 0.187646 25.6691 0.17093 25.5868 0.154213C25.0107 -0.0129519 24.2864 -0.079818 23.233 0.137497C22.624 0.254512 21.9491 0.321378 21.2907 0.354812C20.8957 0.371528 20.5335 0.404961 20.1714 0.488544C19.7599 0.538693 19.3319 0.572126 18.9204 0.622276C18.5418 0.655709 18.1633 0.739292 17.8011 0.705859C17.6695 0.722575 17.5213 0.739292 17.3896 0.756008C17.3732 0.789441 17.3073 0.822874 17.1921 0.839591C17.1921 0.856307 17.1757 0.873024 17.1427 0.906457C16.6819 0.973323 16.2374 1.02347 15.7601 1.07362C15.4638 1.09034 15.1511 1.14049 14.8548 1.19064C14.7066 1.27422 14.4762 1.29094 14.2457 1.32437C14.0976 1.34109 13.9659 1.3578 13.8672 1.40795C13.719 1.42467 13.5873 1.4581 13.4392 1.47482C13.4392 1.49154 13.4227 1.50825 13.4227 1.54168C13.2911 1.5584 13.1594 1.59183 13.0442 1.60855C13.0277 1.62527 13.0277 1.64198 13.0112 1.6587H12.9948C12.9125 1.6587 12.8466 1.67542 12.7643 1.67542C12.7643 1.69213 12.7643 1.70885 12.7479 1.74228C12.682 1.759 12.5997 1.759 12.5339 1.77572C12.5339 1.79243 12.5339 1.80915 12.5339 1.84258C12.4187 1.8593 12.3364 1.89273 12.3034 1.92616C12.1059 1.94288 11.9413 1.97631 11.8426 2.04318C11.5957 2.07661 11.3488 2.11005 11.1842 2.19363C10.6739 2.26049 10.3118 2.41094 9.81796 2.49453C9.40646 2.59483 9.20893 2.74527 8.73159 2.82886C8.63283 2.89572 8.46823 2.91244 8.28717 2.94587C8.25425 2.97931 8.17194 3.01274 8.05672 3.02946C7.92504 3.14647 7.48062 3.23005 7.38186 3.36379C7.31602 3.3805 7.25017 3.3805 7.18433 3.39722C7.11849 3.51423 6.82221 3.59782 6.52593 3.66468C6.49301 3.69812 6.42717 3.73155 6.31195 3.74827C6.31195 3.76498 6.31195 3.7817 6.31195 3.81513C6.24611 3.83185 6.1638 3.83185 6.09796 3.84856C6.0815 3.882 5.9992 3.91543 5.88398 3.93215C5.86752 3.96558 5.81814 3.99901 5.70292 4.03245C5.68646 4.04916 5.68646 4.06588 5.65354 4.09931C5.57124 4.09931 5.5054 4.11603 5.43956 4.13275C5.40664 4.16618 5.3408 4.19961 5.20911 4.21633C5.07743 4.29991 4.92929 4.38349 4.79761 4.46708C4.78115 4.55066 4.63301 4.63424 4.38611 4.71782C4.36965 4.76797 4.32027 4.81812 4.15566 4.86827C4.15566 4.88499 4.17212 4.91842 4.17212 4.93514C4.10628 4.95186 4.0569 4.95186 3.99106 4.96857C3.95814 5.01872 3.92522 5.06887 3.71124 5.11902C3.6454 5.16917 3.49726 5.21932 3.3162 5.25275C3.28327 5.3029 3.21743 5.35305 3.06929 5.4032C3.06929 5.47007 3.13513 5.55365 2.87177 5.62052C2.85531 5.65395 2.77301 5.68738 2.65779 5.7041C2.59195 5.73753 2.50965 5.77096 2.44381 5.78768C2.42735 5.82111 2.36151 5.85455 2.24628 5.88798C2.22982 5.93813 2.16398 5.98828 2.01584 6.03843C2.01584 6.08858 1.98292 6.13873 1.80186 6.18888C1.81832 6.25574 1.85124 6.32261 1.6208 6.40619C1.65372 6.47306 1.65372 6.53992 1.60434 6.60679C1.60434 6.60679 1.60434 6.60679 1.58788 6.60679C1.42328 6.65694 1.29159 6.72381 1.20929 6.77396C1.06115 6.82411 1.07761 6.87425 1.20929 6.90769C1.32451 6.89097 1.32451 6.90769 1.24221 6.94112L1.22575 6.95784C1.17637 6.99127 1.11053 7.0247 1.04469 7.04142C0.913011 7.09157 0.962391 7.14172 0.84717 7.19187C0.633188 7.27545 0.81425 7.34232 0.666108 7.40918C0.369825 7.54292 0.715489 7.6265 0.501507 7.76023C0.336905 7.81038 0.369825 7.86053 0.303985 7.91068C-0.0252187 8.04441 0.369825 8.12799 0.122923 8.26173H0.139383C-0.0745992 8.36203 -0.0252187 8.44561 0.172303 8.51247C0.271064 8.64621 0.682568 8.72979 0.517967 8.89695V8.91367C0.699029 8.96382 0.550887 9.06412 0.79779 9.09755C0.86363 9.11427 0.913011 9.13099 0.962391 9.16442L1.48912 11.1871C1.40682 11.2206 1.32451 11.254 1.29159 11.2874C0.995312 11.4211 1.35744 11.5047 1.11053 11.6385H1.12699C1.02823 11.6719 1.02823 11.6886 1.12699 11.7053H1.15991L1.14345 11.7388C1.30805 11.8391 1.35744 11.9561 1.20929 12.0898H1.22575C1.06115 12.1567 1.06115 12.1901 1.24221 12.2068H1.22575C1.27513 12.2235 1.34098 12.2235 1.42328 12.2235C1.43974 12.3071 1.50558 12.3907 1.29159 12.4743C1.32451 12.5746 1.34098 12.6749 1.3739 12.7752C1.43974 12.7919 1.55496 12.8086 1.57142 12.8253C1.6208 13.0259 1.67018 13.2098 1.7031 13.4104C1.7031 13.4438 1.60434 13.494 1.5385 13.5441C1.4562 13.6779 1.63726 13.8116 1.40682 13.9621C1.42328 14.0456 1.43974 14.1292 1.4562 14.2128C1.52204 14.2128 1.57142 14.2128 1.63726 14.2128C1.68664 14.3298 1.73602 14.4636 1.7854 14.5806C1.99938 14.5973 1.98292 14.6642 1.81832 14.731C1.83478 14.7979 1.83478 14.848 1.85124 14.9149C2.01584 14.9483 2.0323 14.9985 1.8677 15.0486C1.88416 15.1489 1.91708 15.2492 1.93354 15.3662C2.16398 15.4164 2.18044 15.4665 1.96646 15.5668C1.99938 15.6671 2.01584 15.7842 2.26274 15.8677C2.31212 15.8677 2.36151 15.8845 2.39443 15.8845C2.31212 15.9179 2.22982 15.9513 2.16398 15.9848C2.29566 16.2355 2.13106 16.5364 2.47673 16.7704C2.80593 16.8875 2.46027 17.088 2.80593 17.2051L2.83885 17.2218L2.82239 17.2385C3.00345 17.2719 2.85531 17.3889 3.08575 17.4224C3.05283 17.506 3.01991 17.6063 2.95407 17.6898C2.87177 17.7901 2.82239 17.9072 2.92115 18.0242C2.95407 18.1746 2.92115 18.3084 2.82239 18.4421C2.75655 18.5257 2.78947 18.6093 2.92115 18.7096C2.87177 18.7096 2.82239 18.7096 2.77301 18.7096C2.69071 18.9603 2.59195 19.211 2.50965 19.4618C2.49319 19.4952 2.52611 19.5287 2.54257 19.5621C2.29566 19.629 2.42735 19.746 2.37797 19.8463C2.32859 19.9299 2.29566 20.0134 2.24628 20.1137C2.21336 20.1639 2.24628 20.2308 2.08168 20.2809C2.08168 20.4815 2.08168 20.6988 1.81832 20.8827C1.73602 20.9328 1.75248 20.9997 1.71956 21.0666C1.68664 21.1334 1.7031 21.2003 1.60434 21.2672C1.48912 21.334 1.43974 21.4176 1.65372 21.5012C1.90062 21.6015 1.83478 21.6851 1.80186 21.7687C1.75248 21.8857 1.6208 22.0027 1.63726 22.1364C1.63726 22.2535 1.47266 22.3538 1.40682 22.4708C1.39036 22.5042 1.40682 22.5376 1.40682 22.5711C1.55496 22.6045 1.5385 22.6379 1.3739 22.6379C1.35744 22.6881 1.25867 22.7215 1.39036 22.7717C1.65372 22.8887 1.68664 22.989 1.42328 23.0726C1.30805 23.106 1.32451 23.1561 1.39036 23.2063C1.4562 23.2564 1.60434 23.3233 1.57142 23.3567C1.47266 23.5072 1.81832 23.6911 1.7031 23.8415C1.63726 23.9251 1.67018 24.0087 1.43974 24.0756C1.34098 24.0923 1.39036 24.1424 1.40682 24.1926C1.57142 24.226 1.68664 24.2762 1.7031 24.3263C1.71956 24.4768 1.71956 24.6105 1.73602 24.7609C1.73602 24.8278 1.67018 24.8779 1.5385 24.9281C1.35744 24.995 1.3739 24.995 1.71956 25.112C1.75248 25.2123 1.7854 25.2959 1.63726 25.3627C1.60434 25.3794 1.57142 25.4129 1.60434 25.4296C1.85124 25.5466 1.68664 25.6302 1.60434 25.7305C1.55496 25.7806 1.48912 25.8642 1.7031 25.9311C1.95 26.0147 1.91708 26.0815 1.91708 26.1484C1.91708 26.2487 1.91708 26.349 1.91708 26.4493C1.91708 26.4827 1.91708 26.5162 1.88416 26.5496C1.80186 26.6165 1.58788 26.6833 1.6208 26.7502C1.65372 26.8171 1.76894 26.9007 1.83478 26.9675C1.91708 27.0678 1.83478 27.1347 1.75248 27.2015C1.65372 27.2684 1.47266 27.3353 1.73602 27.4523C1.7854 27.469 1.7854 27.5024 1.71956 27.5192C1.6208 27.5359 1.57142 27.586 1.63726 27.6195C1.91708 27.8201 1.81832 27.9872 1.6208 28.1377C1.71956 28.1711 1.7854 28.2213 1.76894 28.2547C1.7031 28.5054 1.83478 28.7562 1.88416 29.0236C1.90062 29.1239 2.01584 29.241 1.83478 29.3245C1.7854 29.3413 1.7854 29.3914 1.85124 29.4248C2.18044 29.592 2.08168 29.7425 2.1146 29.8929C2.13106 29.9431 2.09814 29.9932 2.13106 30.0434C2.14752 30.0935 2.14752 30.1437 2.04876 30.1771C1.81832 30.2607 1.81832 30.361 2.18044 30.478C2.24628 30.4947 2.2792 30.5281 2.2792 30.5448C2.26274 30.6953 2.44381 30.8792 2.36151 31.0296C2.32859 31.0798 2.50965 31.0965 2.65779 31.1132C2.69071 31.1466 2.72363 31.1801 2.75655 31.2135C2.41089 31.2302 2.55903 31.364 2.31212 31.3974C2.29566 31.3974 2.32859 31.4308 2.36151 31.4475C2.64133 31.5144 2.57549 31.598 2.69071 31.6649C2.72363 31.6816 2.83885 31.6816 2.92115 31.6983C2.80593 31.8822 2.80593 31.9323 2.92115 32.0326C3.03637 32.1329 3.18451 32.1496 3.54664 32.1162C3.79354 32.0995 3.77708 32.1831 3.90876 32.2165C3.9746 32.3001 4.04044 32.3837 4.08982 32.4673C4.07336 32.484 4.0569 32.5007 4.04044 32.5174C4.07336 32.5341 4.08982 32.5341 4.07336 32.5508C4.10628 32.5676 4.15566 32.5843 4.2215 32.601C4.2215 32.6177 4.2215 32.6177 4.2215 32.6344C4.33673 32.6678 4.36965 32.7013 4.36965 32.7514C4.38611 32.8183 4.40257 32.8684 4.43549 32.9353C4.48487 32.9186 4.58363 32.9186 4.58363 32.8852C4.61655 32.7849 4.63301 32.7013 4.41903 32.601C4.40257 32.5007 4.46841 32.4004 4.23796 32.2834C4.23796 32.2499 4.2215 32.2165 4.2215 32.1998C4.27088 32.1496 4.33673 32.1162 4.38611 32.0661C4.43549 32.0661 4.50133 32.0828 4.55071 32.0828C4.61655 32.2332 4.74823 32.4004 4.94575 32.5508C4.92929 32.5843 4.94575 32.6344 5.09389 32.6678C5.11035 32.6846 5.14327 32.7347 5.15973 32.7347C5.32434 32.7514 5.25849 32.7013 5.25849 32.6846C5.29142 32.6344 5.29142 32.5843 5.24203 32.5341C5.27495 32.484 5.25849 32.4338 5.12681 32.367C5.12681 32.2499 5.12681 32.1496 5.12681 32.0326C5.24203 32.0493 5.3408 31.9825 5.47248 32.0493C5.47248 32.0661 5.47248 32.0828 5.48894 32.0995C5.5054 32.1329 5.57124 32.1496 5.67 32.1496C5.71938 32.1496 5.76876 32.1496 5.78522 32.1329C5.85106 32.0828 5.81814 32.0326 5.67 31.9658C5.60416 31.8655 5.80168 31.8153 5.8346 31.7484C5.88398 31.7484 5.93336 31.7484 5.96628 31.7652C5.9992 31.8153 5.9992 31.8655 6.1638 31.9323C6.1638 31.9992 6.19672 32.0661 6.32841 32.1329C6.42717 32.5174 6.34487 32.8852 6.36133 33.2696C6.13088 33.6708 6.19672 34.0888 6.11442 34.5067C6.11442 34.5401 6.14734 34.5902 6.1638 34.6237C6.04858 34.8243 6.06504 35.0416 6.1638 35.2589C6.11442 35.3425 6.11442 35.4261 6.18026 35.5097C6.14734 35.6267 6.21318 35.7437 6.37779 35.8774C6.37779 35.9443 6.36133 36.0112 6.36133 36.078C6.39425 36.0947 6.39425 36.1115 6.37779 36.1115C6.42717 36.1282 6.47655 36.1282 6.52593 36.1282V36.1449C6.54239 36.2118 6.54239 36.2786 6.55885 36.3288C6.60823 36.3288 6.64115 36.3455 6.69053 36.3455C6.70699 36.4123 6.72345 36.4792 6.75637 36.5294C7.15141 36.6129 7.25017 36.6129 7.26664 36.5126C7.2831 36.4458 7.2831 36.3789 7.10203 36.312L7.11849 36.2953L7.10203 36.2619C7.11849 36.2118 7.11849 36.1616 7.13495 36.1282C7.15141 36.1282 7.16787 36.1115 7.2008 36.1115C7.49708 36.078 7.62876 36.1115 7.64522 36.195C7.66168 36.2619 7.59584 36.312 7.80982 36.3789C7.80982 36.4123 7.80982 36.4458 7.82628 36.4792C7.87566 36.6129 7.92504 36.6297 8.48469 36.6798C8.76451 36.6464 9.09371 36.6798 9.40646 36.73C9.62044 36.7634 9.78504 36.7801 9.9661 36.7634C10.0649 36.7467 10.1142 36.7968 10.1636 36.8135C10.3118 36.8637 10.4105 36.8637 10.4599 36.8135C10.5257 36.7467 10.608 36.6798 10.6739 36.5962C10.9537 36.6129 11.1019 36.6631 11.1348 36.7467C11.1677 36.8637 11.2006 36.9807 11.2335 37.081C11.25 37.1144 11.3158 37.1646 11.3488 37.198C11.3158 37.2147 11.3158 37.2147 11.3652 37.2315C11.3652 37.3819 11.5134 37.5491 11.6944 37.6995C11.6944 37.7162 11.7109 37.733 11.7109 37.7497C11.6121 37.9168 11.8096 38.1007 12.073 38.2679C12.0565 38.3682 12.0565 38.4852 12.0401 38.5855C12.0236 38.7192 12.1718 38.8362 12.6326 38.9365C13.0112 39.0201 13.0606 39.087 13.0112 39.1873C13.2417 39.2542 13.1429 39.321 13.1923 39.3879C13.324 39.4046 13.4557 39.4213 13.505 39.4715C13.5544 39.4882 13.6203 39.5216 13.6696 39.5383C13.6203 39.5551 13.5709 39.5718 13.5215 39.5718C13.538 39.5885 13.5544 39.6052 13.538 39.6052C13.6203 39.6219 13.6696 39.6554 13.6861 39.6721C13.7355 39.6721 13.7849 39.6888 13.8342 39.6888C13.8507 39.7557 13.8836 39.8058 13.9001 39.8727C14.1141 39.973 14.3774 40.0231 14.7066 39.9897C14.8383 39.973 14.97 39.9563 15.1181 39.9395C15.2169 39.8894 15.3486 39.9061 15.4967 39.9563C15.6449 39.9897 15.8095 40.0064 15.9576 39.9897C15.9741 39.9395 16.1551 39.9228 16.2374 39.8894C16.2868 39.8894 16.3362 39.8894 16.3526 39.8727C16.402 39.8727 16.4514 39.8894 16.4843 39.8894C16.5008 39.8225 16.5337 39.7724 16.5502 39.7055C16.5996 39.7055 16.6489 39.7055 16.6983 39.7222C16.7148 39.6888 16.7806 39.6888 16.8794 39.6888C16.8958 39.6554 16.9123 39.6219 17.044 39.6052C17.0604 39.5551 17.0769 39.5216 17.0934 39.4715C17.1427 39.4715 17.1757 39.4715 17.225 39.4715C17.225 39.438 17.2415 39.3879 17.3896 39.3879C17.4061 39.3377 17.4226 39.3043 17.4226 39.2542C17.5213 39.2207 17.6201 39.204 17.7188 39.1706C17.7353 39.1371 17.7682 39.1037 17.9164 39.087C17.9657 39.0368 18.081 38.9867 18.2785 38.97C18.4925 38.8697 18.5583 38.8697 18.8217 38.9533C19.1838 39.0536 19.2003 39.0703 19.513 39.0201C19.727 38.9867 19.9739 39.0034 20.2208 39.0034C20.2208 38.9533 20.2208 38.8864 20.4018 38.8697C20.4018 38.8362 20.4512 38.8362 20.55 38.8195C20.5994 38.7694 20.5994 38.7192 20.7475 38.7025C20.764 38.6691 20.7804 38.6524 20.7804 38.6189C21.3401 38.6858 21.4553 38.5688 21.6199 38.4852C21.6364 38.4183 21.7845 38.4183 21.9656 38.4183C21.982 38.3849 22.0149 38.3515 22.1466 38.3348C22.1466 38.2679 22.3112 38.2344 22.5087 38.2177C22.5252 38.1843 22.5581 38.1509 22.6733 38.1342C22.6898 38.084 22.7227 38.0506 22.7557 38.0004C22.9038 38.0171 23.0519 38.0171 23.1836 37.9336C23.2165 38.0171 23.2495 38.0171 23.2988 38.0171C23.3153 38.0339 23.3318 37.9503 23.3482 37.9336L23.3647 37.9503L23.3811 37.9336C23.3811 37.9336 23.3811 37.9336 23.3811 37.9503C23.3811 38.0506 23.3976 38.1007 23.4305 38.1174C23.6116 38.435 23.7597 38.0339 23.9408 38.2846H23.9572C23.9902 38.2345 24.0066 38.1843 24.056 38.2679C24.3029 38.6022 24.5004 38.1342 24.7309 38.4016V38.3849C24.7803 38.5855 24.8296 38.5688 24.8626 38.4016L24.8955 38.3515L24.9284 38.3849C25.1259 38.7359 25.2905 38.2679 25.488 38.5521V38.5353C25.5374 38.7025 25.5868 38.7025 25.6197 38.5186V38.5353C25.6362 38.4685 25.6691 38.4685 25.6856 38.4685C25.6856 38.4852 25.6856 38.5019 25.702 38.5186C26.0312 38.4685 26.3769 38.4183 26.7061 38.3849C26.7884 38.3682 26.8707 38.318 26.9695 38.5186C27.0024 38.5186 27.0518 38.5186 27.0847 38.5186C27.1176 38.3347 27.167 38.3348 27.2328 38.4852C27.2657 38.4852 27.3151 38.4685 27.348 38.4685C27.3974 38.2679 27.4797 38.2345 27.562 38.4183C27.6443 38.3348 27.7266 38.3013 27.8254 38.3515C27.9406 38.4183 28.0394 38.3348 28.1217 38.1676V38.1843C28.1381 38.318 28.171 38.4016 28.204 38.4518C28.4015 38.3682 28.6319 38.5688 28.813 38.2177C28.8459 38.0673 28.9118 38.1007 28.9611 38.1843H28.9941C29.3562 37.9001 29.7677 38.0171 30.1463 37.8834C30.245 37.85 30.3767 38.0004 30.4425 37.6828L30.459 37.6494L30.4755 37.6828C30.5249 37.5658 30.5907 37.5658 30.6401 37.4822C30.6401 37.4822 30.6401 37.4655 30.6565 37.4655C30.8376 37.5825 31.0022 37.5825 31.1503 37.3318L31.1668 37.2983L31.1833 37.315C31.2491 37.0977 31.3643 37.2816 31.4302 37.081C31.5618 37.0977 31.7264 37.1312 31.8417 37.1479C31.8746 37.315 31.9075 37.4655 31.5618 37.6494C31.5618 37.7162 31.5618 37.7664 31.5618 37.8333C31.71 37.9168 32.0063 37.8333 32.2367 37.8333C32.4178 37.9336 32.3684 38.0673 32.3684 38.201C32.6482 38.2345 32.5659 38.3347 32.747 38.3849C33.0926 38.3682 33.1914 38.2345 33.5041 38.201C33.57 38.1174 33.4383 38.0171 33.7181 37.9168C33.7181 37.8667 33.7181 37.8165 33.9321 37.7664C33.9486 37.733 33.9979 37.6995 34.1132 37.6661C34.1132 37.6327 34.1132 37.5825 34.1132 37.5491C34.1625 37.5324 34.179 37.5156 34.1461 37.4989C34.2119 37.4822 34.2778 37.4655 34.3436 37.4488C34.3436 37.4153 34.3436 37.3652 34.3436 37.3318C34.4095 37.315 34.4753 37.315 34.5247 37.2983C34.5082 37.2816 34.4917 37.2649 34.4753 37.2482C34.5247 37.2315 34.5576 37.198 34.5576 37.1813C34.6728 37.1479 34.7222 37.1312 34.6893 37.081C34.7387 37.0643 34.7551 37.0476 34.7387 37.0309C34.8539 36.9807 34.9856 36.9473 35.1008 36.8971C35.1008 36.8971 35.1008 36.8971 35.1008 36.8804C35.1172 36.8804 35.1337 36.8637 35.1502 36.8637C35.2325 36.847 35.2983 36.8135 35.3312 36.7968L35.3148 36.8135C35.611 36.6297 35.8909 36.4625 35.9402 36.2786C36.2365 36.1783 36.2365 36.078 36.3682 35.961H36.3517C36.8126 35.7103 36.862 35.4595 37.0102 35.2088C37.1089 35.192 37.2241 35.1419 37.3064 35.0082L37.3229 34.958L37.3558 34.9747C37.471 34.6738 37.6521 35.0249 37.7509 34.6404V34.6571C37.8332 34.3729 37.9978 34.6905 38.0636 34.3562C38.1624 34.0386 38.3599 34.4398 38.4422 34.0052L38.3599 33.9717C38.3764 33.9049 38.4093 33.838 38.4093 33.7544C38.4093 33.7544 38.4093 33.7544 38.4093 33.7377C38.4751 33.721 38.541 33.6876 38.6068 33.6708C38.6397 33.4702 38.722 33.4368 38.7879 33.3867C38.8043 33.3031 38.8208 33.2195 38.8372 33.1359C38.8372 33.0022 38.8372 32.8684 38.8372 32.7347C38.8537 32.7013 38.8702 32.6678 38.8866 32.6177C38.9031 32.5508 38.9195 32.4673 38.936 32.3837C38.9525 32.2332 39.0183 32.2667 39.0348 32.0828C39.0677 32.0326 39.0841 31.9323 39.0841 31.8153C39.1335 31.715 39.1664 31.5478 39.1829 31.2971C39.2158 31.1801 39.2817 31.2135 39.2981 31.0129C39.3475 30.9126 39.3804 30.7454 39.3804 30.5114L39.3969 30.4947C39.3969 30.3944 39.3804 30.3108 39.3969 30.2272C39.3969 30.2105 39.3969 30.2105 39.3969 30.1938C39.3969 30.1102 39.4133 30.0434 39.4298 29.9765C39.4627 29.8093 39.4956 29.6254 39.5286 29.4583C39.5286 29.2242 39.5779 29.1908 39.6438 29.1741C39.6767 28.9401 39.759 28.9233 39.8248 28.9233C39.8578 28.6893 39.9236 28.6559 40.0059 28.6224C40.0388 28.3884 40.1211 28.4219 40.187 28.3383C40.2034 28.2547 40.2199 28.1711 40.2363 28.1042C40.2363 27.9705 40.2528 27.8869 40.2857 27.8535C40.3022 27.7532 40.3022 27.6529 40.3186 27.5526C40.3186 27.352 40.3186 27.1848 40.368 27.0845C40.368 26.9508 40.3845 26.8505 40.4174 26.8338C40.4339 26.6332 40.4668 26.5663 40.5162 26.5162C40.5162 26.3824 40.5491 26.3156 40.582 26.2989C40.5985 26.0983 40.6314 26.0147 40.6972 25.998C40.7137 25.8141 40.7631 25.7639 40.8125 25.7305C40.8289 25.5299 40.8618 25.463 40.9112 25.4296C40.9277 25.3627 40.9441 25.2791 40.9771 25.2123C41.01 24.8278 41.01 24.343 40.9606 23.8081ZM12.5997 1.90945C12.5833 1.92616 12.5833 1.92616 12.5997 1.90945V1.90945ZM29.027 0.455111C29.0105 0.455111 28.9776 0.471827 28.9611 0.471827C28.9611 0.471827 28.9611 0.471827 28.9776 0.471827C28.9776 0.455111 29.0105 0.455111 29.027 0.455111ZM39.5944 20.6654C39.5944 20.6654 39.5779 20.6487 39.5944 20.6654C39.5779 20.6487 39.5944 20.6487 39.5944 20.6654C39.5944 20.6487 39.5944 20.6487 39.5944 20.6487C39.5944 20.6654 39.6109 20.6821 39.6109 20.6988C39.5944 20.6821 39.5944 20.6654 39.5944 20.6654C39.5944 20.6487 39.5944 20.6654 39.5944 20.6654ZM14.0318 2.17691C14.0482 2.17691 14.0647 2.1602 14.0811 2.1602C14.0811 2.17691 14.0647 2.17691 14.0318 2.17691C14.0482 2.17691 14.0482 2.17691 14.0318 2.17691ZM7.25018 4.50051C7.26664 4.50051 7.26664 4.51723 7.26664 4.53394C7.26664 4.56738 7.23372 4.58409 7.18433 4.60081C7.21725 4.56738 7.23372 4.53394 7.25018 4.50051ZM37.29 8.37874C37.29 8.41218 37.29 8.44561 37.29 8.47904C37.29 8.44561 37.29 8.41218 37.29 8.37874ZM36.253 3.79842C36.253 3.7817 36.253 3.7817 36.253 3.76498C36.253 3.74827 36.253 3.74827 36.253 3.73155C36.2365 3.79842 36.2201 3.86528 36.2201 3.93215C36.2201 3.89871 36.2365 3.84856 36.2365 3.81513C36.253 3.81513 36.253 3.81513 36.253 3.79842ZM36.253 3.79842C36.253 3.7817 36.253 3.74827 36.2694 3.73155C36.2694 3.73155 36.2694 3.73155 36.2694 3.74827C36.2694 3.76498 36.2694 3.76498 36.2694 3.7817C36.253 3.7817 36.253 3.7817 36.253 3.79842ZM34.607 8.31188C34.607 8.27844 34.6234 8.27844 34.6399 8.29516C34.6399 8.29516 34.6234 8.29516 34.607 8.31188ZM36.0719 4.86827C36.0719 4.85156 36.0719 4.83484 36.0719 4.80141C36.0884 4.81812 36.0884 4.83484 36.1048 4.85156C36.0884 4.86827 36.0884 4.86827 36.0719 4.86827ZM35.8415 23.3066C35.8909 23.3567 35.9238 23.4236 35.9732 23.5072C35.9402 23.5573 35.8909 23.4905 35.8415 23.3066ZM36.2365 3.84856C36.2365 3.882 36.2201 3.91543 36.2201 3.94886C36.2201 3.96558 36.2036 3.99901 36.2036 4.01573C36.2036 4.01573 36.2036 4.01573 36.2036 3.99901C36.2201 3.96558 36.2201 3.91543 36.2365 3.86528C36.2365 3.86528 36.2365 3.86528 36.2365 3.84856ZM15.8753 36.4291C15.8753 36.4291 15.8918 36.4291 15.8753 36.4291C15.8918 36.4291 15.8753 36.4291 15.8753 36.4291ZM5.4231 27.9036C5.39018 27.9036 5.3408 27.9204 5.30788 27.9204C5.3408 27.9204 5.39018 27.9204 5.4231 27.9036ZM38.2447 12.3406C38.2611 12.3573 38.2776 12.4074 38.2776 12.4576C38.2611 12.4241 38.2447 12.374 38.2447 12.3406ZM37.3229 10.6856C37.3229 10.6689 37.3229 10.6689 37.3229 10.6689C37.3229 10.6856 37.3229 10.6856 37.3229 10.6856ZM37.3064 7.89396V7.91068C37.3064 7.89396 37.3064 7.87725 37.3064 7.86053C37.29 7.87725 37.3064 7.87725 37.3064 7.89396ZM6.85513 6.53992C7.01973 6.52321 7.06911 6.55664 6.98681 6.62351C6.95389 6.59007 6.90451 6.57336 6.85513 6.53992ZM4.97867 8.49576H4.99513C4.99513 8.47904 4.99513 8.47904 4.97867 8.49576ZM3.81 26.0648C3.79354 26.0481 3.79354 26.0481 3.81 26.0648H3.82646C3.81 26.0481 3.81 26.0481 3.81 26.0648ZM6.13088 31.0129C6.11442 31.0129 6.11442 30.9962 6.13088 31.0129C6.13088 30.9962 6.13088 31.0129 6.13088 31.0129ZM15.0029 36.7467H15.0194H15.0029ZM2.69071 10.1005C2.72363 10.1173 2.74009 10.1507 2.70717 10.1674C2.70717 10.1674 2.69071 10.1674 2.67425 10.1841C2.67425 10.1507 2.67425 10.134 2.69071 10.1005ZM4.53425 19.98C4.51779 19.98 4.51779 19.98 4.50133 19.98C4.51779 19.98 4.53425 19.98 4.53425 19.98ZM14.3116 37.3652C14.328 37.3485 14.3445 37.315 14.361 37.2983C14.4103 37.315 14.4268 37.3318 14.3939 37.3485C14.3774 37.3485 14.3445 37.3652 14.3116 37.3652ZM14.4597 37.081C14.4762 37.081 14.4762 37.0977 14.4926 37.0977C14.4762 37.0977 14.4597 37.0977 14.4433 37.0977C14.4597 37.081 14.4597 37.081 14.4597 37.081ZM40.0059 16.8707C40.0059 16.8875 40.0059 16.9209 40.0059 16.9543C40.0059 16.9209 40.0059 16.8875 40.0059 16.8707ZM39.4627 15.9012C39.4792 15.968 39.5121 16.0349 39.545 16.1018C39.5121 16.0851 39.4956 16.0683 39.4627 16.0516C39.4627 16.0015 39.4627 15.9513 39.4627 15.9012ZM38.8702 8.34531V8.36203C38.8702 8.36203 38.8702 8.36203 38.8702 8.34531ZM38.6068 7.7268C38.5903 7.71008 38.5903 7.67665 38.5739 7.65993C38.5903 7.65993 38.5903 7.65993 38.6068 7.64321C38.6068 7.67665 38.6068 7.71008 38.6068 7.7268ZM37.2077 3.86528C37.2077 3.882 37.2077 3.882 37.2077 3.86528C37.2077 3.882 37.2077 3.86528 37.2077 3.86528ZM11.5627 2.97931C11.5463 2.97931 11.5134 2.97931 11.4804 2.99602C11.5134 2.99602 11.5298 2.97931 11.5627 2.97931ZM4.18858 28.4051C4.23796 28.4219 4.28734 28.4219 4.30381 28.4386C4.25442 28.4219 4.18858 28.4219 4.1392 28.4051C4.15566 28.4051 4.17212 28.4051 4.18858 28.4051ZM7.21725 34.0553C7.20079 34.0553 7.2008 34.0553 7.2008 34.0553H7.21725ZM13.8836 38.8864C13.9001 38.8864 13.9001 38.8864 13.9001 38.8864C13.8836 38.8864 13.8836 38.8864 13.8836 38.8864ZM33.356 36.5628C33.356 36.5628 33.3725 36.5628 33.3889 36.5628C33.3725 36.5628 33.356 36.5795 33.3395 36.5795C33.3395 36.5795 33.3395 36.5795 33.3231 36.5795C33.3395 36.5795 33.3395 36.5628 33.356 36.5628ZM7.97442 3.94886C7.99088 3.94886 7.99088 3.94886 8.00734 3.94886C7.99088 3.94886 7.99088 3.94886 7.97442 3.94886ZM3.76062 31.6481C3.74416 31.6481 3.74416 31.6314 3.76062 31.6314C3.76062 31.6314 3.79354 31.6147 3.81 31.6147C3.82646 31.6147 3.82646 31.6147 3.84292 31.6147C3.81 31.6314 3.79354 31.6481 3.76062 31.6481C3.77708 31.6649 3.77708 31.6649 3.76062 31.6481ZM5.11035 31.949C5.09389 31.949 5.06097 31.949 5.04451 31.9658C5.04451 31.949 5.06097 31.949 5.11035 31.949ZM12.682 38.5186C12.6656 38.5186 12.6656 38.5186 12.6491 38.5186C12.6491 38.5019 12.6656 38.5019 12.682 38.5186C12.6656 38.5019 12.682 38.5019 12.682 38.5186ZM12.3693 1.94288C12.3528 1.94288 12.3364 1.94288 12.3364 1.92616L12.3693 1.94288ZM5.5054 4.61752C5.48894 4.63424 5.47248 4.65096 5.45602 4.65096C5.45602 4.63424 5.47248 4.61752 5.5054 4.61752ZM9.07725 36.4959C9.09371 36.4959 9.09371 36.4959 9.11017 36.4959C9.11017 36.5126 9.12663 36.5126 9.14309 36.5294C9.11017 36.5126 9.09371 36.4959 9.07725 36.4959ZM12.5833 38.5688C12.5997 38.5688 12.6656 38.5521 12.715 38.5521C12.7643 38.6022 12.8137 38.6524 12.8631 38.6858C12.7808 38.6691 12.6985 38.6524 12.6162 38.6524C12.4351 38.6189 12.5339 38.5855 12.5833 38.5688ZM20.7146 38.5855C20.6981 38.5688 20.7146 38.5521 20.7146 38.5353C20.7311 38.5521 20.7311 38.5688 20.7146 38.5855ZM26.7884 36.6129C26.7884 36.6129 26.7719 36.5795 26.7555 36.5461C26.7719 36.5294 26.7884 36.4959 26.8049 36.4792C26.8049 36.5294 26.8049 36.5962 26.7884 36.6129Z" fill="#40C0A6"/>
</svg>
