<svg width="41" height="40" fill="none" xmlns="http://www.w3.org/2000/svg"><path opacity=".1" d="M40.96 23.808c.033-.217 0-.468.017-.685a.348.348 0 010-.184c.033-.218 0-.451-.033-.686-.016-.016-.016-.033-.033-.05-.05-1.17-.18-2.323-.263-3.477a.85.85 0 01-.033-.2c0-.017 0-.067.016-.1-.016-.218-.016-.385.033-.519-.016-.284-.05-.552.017-.769v-.434c.016 0 .033-.017.05-.034 0-.134 0-.234.032-.284a5.882 5.882 0 00-.164-1.153c-.083-.067-.132-.218-.165-.502-.132-.451-.28-.87-.379-1.471-.016-.017-.016-.034-.033-.05-.016-.167-.033-.335 0-.485.05-.284.066-.618-.016-.986l.016.016a14.452 14.452 0 01-.148-2.072c.033-.15.017-.385.017-.585l-.017-.067v-.067c-.016-.518-.082-1.053-.05-1.538.034-.117.017-.334.034-.485a3.714 3.714 0 00-.198-1.538c-.016.067-.016.134-.033.2 0-.05 0-.1-.016-.15-.017-.083-.017-.15-.017-.234-.065-.167-.098-.434-.131-.685-.033-.084-.05-.15-.083-.234-.148-.134-.23-.485-.263-1.003-.082-.234-.164-.451-.247-.685-.05-.017-.099-.1-.148-.268-.033.017-.066-.05-.099-.184-.05 0-.098-.033-.148-.234-.05-.033-.099-.117-.148-.284-.033 0-.066.033-.099 0-.23-.2-.46-.284-.691-.602h-.593c-.131-.217-.263-.134-.378-.117-.083 0-.165.067-.247-.15-.017.083-.017.15-.033.234-.214-.084-.428-.05-.626.016h-.065c-.214-.05.032-.2-.297-.234-.18-.1-.658-.05-.954-.1a1.28 1.28 0 00-.28-.033h.016c-.247-.034-.543-.067-.74-.134-.132-.017-.116-.084-.28-.1h.016c-.148-.034-.378 0-.543 0-.05.016-.115.016-.165.016-.131-.016-.345.017-.493 0-.083-.016-.165-.033-.28-.033h.016c-.378-.05-.773-.1-1.201-.15-.083-.017-.165-.017-.264-.034-.18-.05-.411-.134-.675-.084-1.152.235-1.794-.016-2.732.034-.23 0-.428-.017-.626.033-.082-.083-.148-.1-.213 0a5.377 5.377 0 01-.313-.05c-.576-.167-1.3-.234-2.354-.017-.609.118-1.284.184-1.942.218-.395.017-.758.05-1.12.134-.411.05-.84.083-1.25.133-.38.034-.758.117-1.12.084-.131.017-.28.033-.411.05-.017.033-.083.067-.198.084 0 .016-.016.033-.05.066-.46.067-.905.117-1.382.168a8.384 8.384 0 00-.905.117c-.148.083-.379.1-.61.133-.147.017-.28.034-.378.084-.148.017-.28.05-.428.067 0 .017-.016.033-.016.067-.132.016-.264.05-.379.067-.016.016-.016.033-.033.05h-.016c-.082 0-.148.016-.23.016 0 .017 0 .034-.017.067-.066.017-.148.017-.214.034v.067c-.115.016-.198.05-.23.083-.198.017-.363.05-.461.117-.247.034-.494.067-.659.15-.51.067-.872.218-1.366.302-.412.1-.61.25-1.086.334-.1.067-.264.083-.445.117-.033.033-.115.067-.23.083-.132.117-.576.201-.675.335-.066.017-.132.017-.198.033-.066.117-.362.2-.658.268-.033.033-.099.067-.214.083v.067c-.066.017-.148.017-.214.034-.016.033-.099.066-.214.083-.016.034-.066.067-.181.1-.017.017-.017.034-.05.067a.798.798 0 00-.213.034c-.033.033-.1.067-.23.083-.133.084-.28.167-.412.251-.017.084-.165.167-.412.25-.016.051-.066.101-.23.151 0 .017.016.05.016.067-.066.017-.115.017-.18.034-.034.05-.067.1-.28.15-.067.05-.215.1-.396.134-.033.05-.099.1-.247.15 0 .067.066.15-.197.218-.017.033-.099.066-.214.083a1.133 1.133 0 01-.214.084c-.017.033-.082.067-.198.1-.016.05-.082.1-.23.15 0 .05-.033.1-.214.15.016.068.05.135-.181.218a.18.18 0 01-.017.2h-.016c-.165.05-.296.118-.379.168-.148.05-.131.1 0 .134.116-.017.116 0 .033.033l-.016.017a.604.604 0 01-.181.083c-.132.05-.083.1-.198.15-.214.084-.033.151-.18.218-.297.134.048.218-.165.351-.165.05-.132.1-.198.15-.33.134.066.218-.181.352h.016c-.214.1-.164.184.033.25.1.134.51.218.346.385v.017c.181.05.033.15.28.184a.489.489 0 01.164.066l.527 2.023c-.082.034-.164.067-.197.1-.297.134.065.218-.181.351h.016c-.099.034-.099.05 0 .067h.033l-.017.034c.165.1.214.217.066.35h.017c-.165.068-.165.101.016.118h-.016c.05.016.115.016.197.016.017.084.083.168-.131.251.033.1.049.2.082.301.066.017.181.034.197.05.05.2.1.385.132.585 0 .034-.099.084-.165.134-.082.134.1.268-.131.418l.05.25h.18c.05.118.099.252.148.369.214.016.198.083.033.15.017.067.017.117.033.184.165.033.181.084.017.134.016.1.05.2.066.317.23.05.246.1.032.2.033.101.05.218.297.302.05 0 .099.016.131.016a3.154 3.154 0 00-.23.1c.132.251-.033.552.313.786.329.117-.017.318.329.435l.033.017-.017.016c.181.034.033.15.264.184-.033.084-.066.184-.132.268-.082.1-.132.217-.033.334a.49.49 0 01-.099.418c-.065.084-.033.167.1.268h-.149c-.082.25-.181.501-.263.752-.017.033.016.067.033.1-.247.067-.116.184-.165.284-.05.084-.082.167-.132.268-.033.05 0 .117-.164.167 0 .2 0 .418-.264.602-.082.05-.066.117-.098.184-.033.066-.017.133-.116.2-.115.067-.164.15.05.234.247.1.18.184.148.268-.05.117-.181.234-.165.367 0 .117-.164.218-.23.335-.017.033 0 .067 0 .1.148.034.131.067-.033.067-.017.05-.115.083.016.134.264.117.297.217.033.3-.115.034-.098.084-.033.134.066.05.214.117.181.15-.098.151.247.335.132.485-.066.084-.033.168-.263.235-.099.016-.05.066-.033.117.164.033.28.083.296.133.017.15.017.284.033.435 0 .067-.066.117-.198.167-.18.067-.164.067.182.184.032.1.065.184-.083.25-.033.017-.066.05-.033.068.247.117.083.2 0 .3-.049.05-.115.134.1.201.246.084.213.15.213.217v.301c0 .034 0 .067-.033.1-.082.067-.296.134-.263.201.033.067.148.15.214.218.082.1 0 .167-.083.233-.098.067-.28.134-.016.251.05.017.05.05-.016.067-.1.017-.149.067-.083.1.28.201.181.368-.016.519.099.033.164.083.148.117-.066.25.066.501.115.769.017.1.132.217-.05.3-.049.017-.049.067.017.1.33.168.23.319.264.469.016.05-.017.1.016.15.017.05.017.1-.082.134-.23.084-.23.184.131.301.066.017.1.05.1.067-.017.15.164.334.082.485-.033.05.148.066.296.083l.099.1c-.346.017-.198.151-.445.184-.016 0 .017.034.05.05.28.067.213.151.329.218.033.017.148.017.23.033-.115.184-.115.234 0 .335.115.1.264.117.626.083.247-.017.23.067.362.1.066.084.131.168.18.251l-.049.05c.033.017.05.017.033.034a.75.75 0 00.148.05v.033c.116.034.149.067.149.117a.823.823 0 00.065.184c.05-.016.149-.016.149-.05.033-.1.049-.184-.165-.284-.016-.1.05-.2-.181-.318 0-.033-.017-.066-.017-.083.05-.05.116-.084.165-.134.05 0 .115.017.165.017.066.15.197.317.395.468-.017.033 0 .083.148.117.016.017.05.067.066.067.164.016.098-.034.098-.05.033-.05.033-.1-.016-.15.033-.051.016-.101-.115-.168v-.334c.115.016.214-.05.345.016 0 .017 0 .034.017.05.016.034.082.05.181.05.05 0 .099 0 .115-.016.066-.05.033-.1-.115-.167-.066-.1.132-.15.165-.218a.31.31 0 01.131.017c.033.05.033.1.198.167 0 .067.033.134.164.2.1.385.017.753.033 1.138-.23.4-.164.819-.247 1.237 0 .033.033.083.05.117-.115.2-.099.418 0 .635a.205.205 0 00.016.25c-.033.118.033.235.198.368 0 .067-.017.134-.017.201.033.017.033.033.017.033.05.017.099.017.148.017v.017c.016.067.016.134.033.184.05 0 .082.017.132.017.016.066.032.133.065.183.395.084.494.084.51-.016.017-.067.017-.134-.164-.201l.016-.017-.016-.033c.016-.05.016-.1.033-.134.016 0 .033-.017.066-.017.296-.033.428 0 .444.084.017.067-.05.117.165.184 0 .033 0 .067.016.1.05.134.099.15.659.2.28-.033.609 0 .921.051.214.033.379.05.56.033.099-.016.148.034.198.05.148.05.247.05.296 0 .066-.066.148-.133.214-.217.28.017.428.067.46.15.034.118.067.235.1.335.016.033.082.084.115.117-.033.017-.033.017.016.033 0 .15.148.318.33.468 0 .017.016.034.016.05-.099.168.099.352.362.519-.017.1-.017.217-.033.318-.016.133.132.25.593.35.378.084.428.151.378.251.23.067.132.134.181.2.132.018.264.034.313.084.05.017.115.05.165.067a.471.471 0 01-.149.034c.017.017.033.033.017.033.082.017.132.05.148.067.05 0 .099.017.148.017.017.067.05.117.066.184.214.1.477.15.807.117.131-.017.263-.034.411-.05.099-.05.23-.034.379.016.148.034.313.05.46.034.017-.05.198-.067.28-.1.05 0 .1 0 .116-.017.049 0 .098.016.131.016.017-.067.05-.117.066-.184.05 0 .099 0 .148.017.017-.033.083-.033.181-.033.017-.034.033-.067.165-.084.016-.05.033-.083.05-.133h.131c0-.034.016-.084.165-.084.016-.05.033-.084.033-.134.098-.033.197-.05.296-.083.016-.034.05-.067.197-.084.05-.05.165-.1.363-.117.213-.1.28-.1.543-.017.362.1.378.117.691.067.214-.033.46-.017.708-.017 0-.05 0-.117.18-.133 0-.034.05-.034.149-.05.05-.05.05-.1.197-.117.017-.034.033-.05.033-.084.56.067.675-.05.84-.134.016-.067.165-.067.346-.067.016-.033.049-.066.18-.083 0-.067.165-.1.363-.117.016-.034.05-.067.164-.084.017-.05.05-.083.083-.134.148.017.296.017.428-.066.032.083.066.083.115.083.016.017.033-.067.05-.083l.016.016.016-.016v.016c0 .1.017.15.05.167.18.318.329-.083.51.168h.016c.033-.05.05-.1.099-.017.247.334.444-.134.675.134v-.017c.05.2.099.184.132.017l.032-.05.033.033c.198.35.363-.117.56.167v-.017c.05.168.099.168.132-.016v.016c.016-.066.05-.066.066-.066 0 .016 0 .033.016.05.33-.05.675-.1 1.004-.134.082-.017.165-.067.264.134h.115c.033-.184.082-.184.148-.034.033 0 .082-.017.115-.017.05-.2.132-.234.214-.05.082-.083.165-.117.263-.066.116.066.214-.017.297-.184v.016a.623.623 0 00.082.268c.197-.084.428.117.609-.234.033-.15.099-.117.148-.034h.033c.362-.284.774-.167 1.152-.3.099-.034.23.116.296-.201l.017-.034.017.034c.049-.117.115-.117.164-.2 0 0 0-.017.017-.017.18.117.345.117.493-.134l.017-.034.016.017c.066-.217.181-.033.247-.234.132.017.296.05.412.067.033.167.066.317-.28.501v.184c.148.084.444 0 .675 0 .18.1.131.234.131.368.28.033.198.134.379.184.346-.017.444-.15.757-.184.066-.084-.066-.184.214-.284 0-.05 0-.1.214-.15.017-.034.066-.068.181-.1v-.118c.05-.017.066-.033.033-.05l.198-.05v-.117c.066-.017.131-.017.18-.034l-.049-.05c.05-.017.083-.05.083-.067.115-.033.164-.05.131-.1.05-.017.066-.033.05-.05.115-.05.247-.084.362-.134v-.017c.016 0 .033-.016.05-.016a.715.715 0 00.18-.067l-.016.017c.296-.184.576-.352.625-.535.297-.1.297-.201.428-.318h-.016c.46-.25.51-.502.658-.752a.418.418 0 00.296-.2l.017-.051.033.017c.115-.301.296.05.395-.335v.017c.082-.284.247.034.313-.3.098-.318.296.083.378-.352l-.082-.033c.016-.067.05-.134.05-.218v-.016c.065-.017.131-.05.197-.067.033-.2.115-.234.18-.284l.05-.251v-.401a.81.81 0 00.05-.117c.016-.067.032-.15.049-.234.017-.15.082-.117.099-.301.033-.05.05-.15.05-.268.048-.1.081-.267.098-.518.033-.117.099-.084.115-.284.05-.1.082-.268.082-.502l.017-.016c0-.1-.017-.184 0-.268v-.033c0-.084.016-.15.033-.217.033-.168.066-.352.099-.519 0-.234.049-.267.115-.284.033-.234.115-.25.18-.25.034-.235.1-.268.182-.302.033-.234.115-.2.181-.284a5.53 5.53 0 01.05-.234c0-.133.016-.217.049-.25.016-.1.016-.201.033-.301 0-.201 0-.368.049-.469 0-.133.017-.233.05-.25.016-.2.049-.268.098-.318 0-.134.033-.2.066-.217.017-.2.05-.284.115-.301.017-.184.066-.234.115-.268.017-.2.05-.267.1-.3.016-.067.032-.15.065-.218a8.148 8.148 0 00-.016-1.404zM12.6 1.91c-.017.017-.017.017 0 0zM29.027.455c-.017 0-.05.017-.066.017h.017c0-.017.032-.017.049-.017zm10.567 20.21s-.016-.016 0 0c-.016-.016 0-.016 0 0v-.016c0 .016.017.033.017.05-.017-.017-.017-.034-.017-.034 0-.016 0 0 0 0zM14.032 2.177c.016 0 .033-.017.05-.017 0 .017-.017.017-.05.017.016 0 .016 0 0 0zM7.25 4.5c.017 0 .017.016.017.033 0 .033-.033.05-.083.067a.35.35 0 00.066-.1zm30.04 3.878zm-1.037-4.58v-.067a.849.849 0 00-.033.2c0-.033.017-.083.017-.117.016 0 .016 0 .016-.017zm0 0c0-.017 0-.05.016-.067v.05c-.016 0-.016 0-.016.016zm-1.646 4.513c0-.034.016-.034.033-.017 0 0-.017 0-.033.017zm1.465-3.444V4.8c.016.017.016.034.033.05-.017.017-.017.017-.033.017zm-.23 18.439c.049.05.082.117.131.2-.033.05-.082-.017-.131-.2zm.395-19.458c0 .033-.017.066-.017.1 0 .017-.016.05-.016.067v-.017c.016-.033.016-.084.032-.134V3.85zm-20.362 32.58s.017 0 0 0c.017 0 0 0 0 0zM5.423 27.904c-.033 0-.082.016-.115.016.033 0 .082 0 .115-.016zM38.245 12.34c.016.016.033.066.033.117a.313.313 0 01-.033-.117zm-.922-1.655v-.017.017zm-.017-2.792V7.86c-.016.016 0 .016 0 .033zM6.856 6.54c.164-.017.213.017.13.084-.032-.034-.081-.05-.13-.084zM4.978 8.496h.016c0-.017 0-.017-.016 0zM3.81 26.065c-.016-.017-.016-.017 0 0h.016c-.016-.017-.016-.017-.016 0zm2.32 4.948c-.016 0-.016-.017 0 0 0-.017 0 0 0 0zm8.873 5.734h.016-.016zM2.69 10.1c.033.016.05.05.016.066 0 0-.016 0-.033.017 0-.033 0-.05.017-.083zm1.843 9.879H4.5h.033zm9.778 17.385c.016-.017.033-.05.049-.067.05.017.066.034.033.05-.017 0-.05.017-.082.017zm.148-.284c.016 0 .016.017.033.017h-.05l.017-.017zm25.546-20.21zm-.543-.97c.016.067.05.134.082.2-.033-.016-.05-.033-.082-.05v-.15zm-.593-7.556zm-.263-.618c-.017-.017-.017-.05-.033-.067.016 0 .016 0 .033-.017v.084zm-1.4-3.862c0 .017 0 .017 0 0 0 .017 0 0 0 0zM11.564 2.98c-.017 0-.05 0-.083.017.033 0 .05-.017.083-.017zM4.189 28.405c.049.017.098.017.115.034-.05-.017-.115-.017-.165-.034h.05zm3.028 5.65h-.016.016zm6.667 4.831h.016-.016zm19.472-2.323h.033c-.017 0-.033.017-.05.017h-.016c.017 0 .017-.017.033-.017zM7.974 3.949h.033-.033zm-4.213 27.7c-.017 0-.017-.018 0-.018 0 0 .033-.016.049-.016h.033c-.033.016-.05.033-.082.033.016.017.016.017 0 0zm1.35.3c-.017 0-.05 0-.066.017 0-.017.016-.017.065-.017zm7.571 6.57h-.033c0-.017.017-.017.033 0-.016-.017 0-.017 0 0zm-.313-36.576c-.016 0-.033 0-.033-.017l.033.017zM5.505 4.618c-.016.016-.033.033-.049.033 0-.017.016-.033.05-.033zm3.572 31.878h.033c0 .017.017.017.033.033-.033-.016-.05-.033-.066-.033zm3.506 2.073c.017 0 .083-.017.132-.017.05.05.099.1.148.134a1.234 1.234 0 00-.247-.034c-.18-.033-.082-.066-.033-.083zm8.132.017c-.017-.017 0-.034 0-.05.016.016.016.033 0 .05zm6.073-1.973l-.032-.067c.016-.017.032-.05.049-.067 0 .05 0 .117-.017.134z" fill="#40C0A6"/></svg>