<svg width="14" height="15" viewBox="0 0 14 15" fill="none" xmlns="http://www.w3.org/2000/svg">
<g clip-path="url(#clip0)">
<path d="M7.00047 7.87397C8.81321 7.87387 9.46543 6.04906 9.6362 4.55011C9.84654 2.70349 8.97805 1.31371 7.00047 1.31371C5.02322 1.31371 4.15425 2.70339 4.36474 4.55009C4.53568 6.04902 5.18769 7.87411 7.00047 7.87397Z" fill="white"/>
<path d="M11.9037 12.2192C11.8839 11.6375 11.8161 11.0532 11.7152 10.4806C11.5928 9.78692 11.4372 8.76999 10.8348 8.31793C10.4864 8.05656 10.0353 7.97081 9.63651 7.8132C9.44241 7.73653 9.26853 7.66038 9.10533 7.5737C8.55452 8.18097 7.8363 8.49865 6.99989 8.49869C6.16373 8.49869 5.44559 8.18101 4.89484 7.5737C4.73164 7.6604 4.55776 7.73657 4.36366 7.8132C3.96486 7.97081 3.51375 8.05654 3.16542 8.31793C2.56301 8.76999 2.40735 9.78692 2.28505 10.4806C2.18406 11.0532 2.11625 11.6375 2.09645 12.2192C2.08112 12.6697 2.30238 12.7329 2.67727 12.8689C3.14671 13.0391 3.63136 13.1654 4.11926 13.269C5.06157 13.4691 6.03288 13.6228 7.00003 13.6297C7.96718 13.6228 8.9385 13.4691 9.88081 13.269C10.3687 13.1655 10.8534 13.0391 11.3228 12.8689C11.6978 12.7329 11.9191 12.6697 11.9037 12.2192Z" fill="white"/>
</g>
<defs>
<clipPath id="clip0">
<rect width="9.80878" height="12.316" fill="white" transform="translate(2.0957 1.31371)"/>
</clipPath>
</defs>
</svg>
