<svg width="16" height="12" viewBox="0 0 16 12" fill="none" xmlns="http://www.w3.org/2000/svg">
<path d="M0.217892 6.52616L4.97923 11.2875C5.26973 11.578 5.74086 11.578 6.03137 11.2875C6.32193 10.9969 6.32193 10.5259 6.03137 10.2354L2.54005 6.74405L15.256 6.74405C15.6669 6.74405 16 6.41093 16 6.00009C16 5.58931 15.6669 5.25613 15.256 5.25613L2.54005 5.25613L6.03125 1.76482C6.32181 1.47426 6.32181 1.00324 6.03125 0.712683C5.88603 0.567521 5.69557 0.494792 5.50518 0.494792C5.31479 0.494792 5.12439 0.567521 4.97911 0.712683L0.217892 5.47402C-0.0726695 5.76458 -0.0726695 6.2356 0.217892 6.52616Z" fill="#818698"/>
</svg>
